G04 #@! TF.FileFunction,Copper,L2,Bot,Signal*
%FSLAX46Y46*%
G04 Gerber Fmt 4.6, Leading zero omitted, Abs format (unit mm)*
G04 Created by KiCad (PCBNEW 4.0.2-stable) date 8/22/2016 2:14:48 PM*
%MOMM*%
G01*
G04 APERTURE LIST*
%ADD10C,0.100000*%
%ADD11C,2.286000*%
%ADD12R,6.068060X3.068060*%
%ADD13R,6.068060X6.068060*%
%ADD14R,6.068060X3.000000*%
%ADD15R,1.727200X2.032000*%
%ADD16O,1.727200X2.032000*%
%ADD17C,2.400000*%
%ADD18R,2.400000X2.400000*%
%ADD19R,1.300000X1.300000*%
%ADD20C,1.300000*%
%ADD21C,1.998980*%
%ADD22R,1.998980X1.998980*%
%ADD23C,2.032000*%
%ADD24C,1.524000*%
%ADD25C,4.000000*%
%ADD26C,4.191000*%
%ADD27R,2.032000X1.727200*%
%ADD28O,2.032000X1.727200*%
%ADD29C,0.600000*%
%ADD30C,0.500000*%
%ADD31C,0.250000*%
G04 APERTURE END LIST*
D10*
D11*
X114610000Y-84180000D03*
X124770000Y-91800000D03*
X132390000Y-91800000D03*
X129850000Y-84180000D03*
X114610000Y-91800000D03*
D12*
X81280000Y-88060000D03*
D13*
X81280000Y-99060000D03*
D14*
X81280000Y-110060000D03*
D11*
X114610000Y-95550000D03*
X124770000Y-103170000D03*
X132390000Y-103170000D03*
X129850000Y-95550000D03*
X114610000Y-103170000D03*
D15*
X111240000Y-131000000D03*
D16*
X108700000Y-131000000D03*
X106160000Y-131000000D03*
X103620000Y-131000000D03*
X101080000Y-131000000D03*
X98540000Y-131000000D03*
X96000000Y-131000000D03*
D15*
X135240000Y-131000000D03*
D16*
X132700000Y-131000000D03*
X130160000Y-131000000D03*
X127620000Y-131000000D03*
X125080000Y-131000000D03*
X122540000Y-131000000D03*
X120000000Y-131000000D03*
D17*
X138820000Y-99120000D03*
X138820000Y-95620000D03*
D18*
X138820000Y-102620000D03*
D17*
X138820000Y-87130000D03*
X138820000Y-83630000D03*
D18*
X138820000Y-90630000D03*
D19*
X51580000Y-131820000D03*
D20*
X46580000Y-131820000D03*
D21*
X110827460Y-81650000D03*
D22*
X110827460Y-91810000D03*
D21*
X110827460Y-95560000D03*
D22*
X110827460Y-105720000D03*
D23*
X49557580Y-146190000D03*
X46060000Y-146190000D03*
D24*
X81608000Y-136980000D03*
X79068000Y-136980000D03*
X84148000Y-136980000D03*
X77798000Y-134440000D03*
X80338000Y-134440000D03*
X82878000Y-134440000D03*
D25*
X86180000Y-143330000D03*
X76020000Y-143330000D03*
D24*
X64878000Y-136980000D03*
X62338000Y-136980000D03*
X67418000Y-136980000D03*
X61068000Y-134440000D03*
X63608000Y-134440000D03*
X66148000Y-134440000D03*
D25*
X69450000Y-143330000D03*
X59290000Y-143330000D03*
D24*
X67785000Y-76835000D03*
X67785000Y-74295000D03*
X70325000Y-76835000D03*
X70325000Y-74295000D03*
X72865000Y-76835000D03*
X72865000Y-74295000D03*
X75405000Y-76835000D03*
X75405000Y-74295000D03*
X77945000Y-76835000D03*
X77945000Y-74295000D03*
X80485000Y-76835000D03*
X80485000Y-74295000D03*
X83025000Y-76835000D03*
X83025000Y-74295000D03*
X85565000Y-76835000D03*
X85565000Y-74295000D03*
X88105000Y-76835000D03*
X88105000Y-74295000D03*
X90645000Y-76835000D03*
X90645000Y-74295000D03*
X93185000Y-76835000D03*
X93185000Y-74295000D03*
X95725000Y-76835000D03*
X95725000Y-74295000D03*
X98265000Y-76835000D03*
X98265000Y-74295000D03*
X100805000Y-76835000D03*
X100805000Y-74295000D03*
X103345000Y-76835000D03*
X103345000Y-74295000D03*
X105885000Y-76835000D03*
X105885000Y-74295000D03*
X108425000Y-76835000D03*
X108425000Y-74295000D03*
X110965000Y-76835000D03*
X110965000Y-74295000D03*
X113505000Y-76835000D03*
X113505000Y-74295000D03*
X116045000Y-76835000D03*
X116045000Y-74295000D03*
X118585000Y-76835000D03*
X118585000Y-74295000D03*
X121125000Y-76835000D03*
X121125000Y-74295000D03*
X123665000Y-76835000D03*
X123665000Y-74295000D03*
X67785000Y-125095000D03*
X67785000Y-122555000D03*
X70325000Y-125095000D03*
X70325000Y-122555000D03*
X72865000Y-125095000D03*
X72865000Y-122555000D03*
X75405000Y-125095000D03*
X75405000Y-122555000D03*
X77945000Y-125095000D03*
X77945000Y-122555000D03*
X80485000Y-125095000D03*
X80485000Y-122555000D03*
X83025000Y-125095000D03*
X83025000Y-122555000D03*
X85565000Y-125095000D03*
X85565000Y-122555000D03*
X88105000Y-125095000D03*
X88105000Y-122555000D03*
X90645000Y-125095000D03*
X90645000Y-122555000D03*
X93185000Y-125095000D03*
X93185000Y-122555000D03*
X95725000Y-125095000D03*
X95725000Y-122555000D03*
X98265000Y-125095000D03*
X98265000Y-122555000D03*
X100805000Y-125095000D03*
X100805000Y-122555000D03*
X103345000Y-125095000D03*
X103345000Y-122555000D03*
X105885000Y-125095000D03*
X105885000Y-122555000D03*
X108425000Y-125095000D03*
X108425000Y-122555000D03*
X110965000Y-125095000D03*
X110965000Y-122555000D03*
X113505000Y-125095000D03*
X113505000Y-122555000D03*
X116045000Y-125095000D03*
X116045000Y-122555000D03*
X118585000Y-125095000D03*
X118585000Y-122555000D03*
X121125000Y-125095000D03*
X121125000Y-122555000D03*
X123665000Y-125095000D03*
X123665000Y-122555000D03*
X90645000Y-119380000D03*
X93185000Y-119380000D03*
X95725000Y-119380000D03*
X98265000Y-119380000D03*
X100805000Y-119380000D03*
X103345000Y-119380000D03*
D26*
X62705000Y-123825000D03*
X128745000Y-120650000D03*
X128745000Y-78740000D03*
X62705000Y-75565000D03*
D27*
X140740000Y-126230000D03*
D28*
X140740000Y-123690000D03*
X140740000Y-121150000D03*
X140740000Y-118610000D03*
X140740000Y-116070000D03*
X140740000Y-113530000D03*
X140740000Y-110990000D03*
D29*
X81670000Y-116780000D03*
X81280000Y-113270000D03*
X94550000Y-93010000D03*
X97930000Y-82910000D03*
X65040000Y-131050000D03*
X69740000Y-131050000D03*
X87020000Y-111160000D03*
X83800000Y-114910000D03*
D30*
X70325000Y-119765000D02*
X73310000Y-116780000D01*
X73310000Y-116780000D02*
X81670000Y-116780000D01*
X70325000Y-122555000D02*
X70325000Y-119765000D01*
D31*
X81280000Y-113270000D02*
X81280000Y-110060000D01*
X75405000Y-81665000D02*
X75405000Y-76835000D01*
X78060000Y-84320000D02*
X75405000Y-81665000D01*
X85860000Y-84320000D02*
X78060000Y-84320000D01*
X94550000Y-93010000D02*
X85860000Y-84320000D01*
X75405000Y-74295000D02*
X76670000Y-75560000D01*
X79080000Y-82910000D02*
X97930000Y-82910000D01*
X76670000Y-80500000D02*
X79080000Y-82910000D01*
X76670000Y-75560000D02*
X76670000Y-80500000D01*
X81760000Y-123830000D02*
X83025000Y-125095000D01*
X79530000Y-123830000D02*
X81760000Y-123830000D01*
X79200000Y-124160000D02*
X79530000Y-123830000D01*
X79200000Y-126420000D02*
X79200000Y-124160000D01*
X77930000Y-127690000D02*
X79200000Y-126420000D01*
X68400000Y-127690000D02*
X77930000Y-127690000D01*
X65040000Y-131050000D02*
X68400000Y-127690000D01*
X77600000Y-147980000D02*
X75440000Y-147980000D01*
X77600000Y-147980000D02*
X112680000Y-147980000D01*
X112680000Y-147980000D02*
X115570000Y-145090000D01*
X115570000Y-145090000D02*
X115570000Y-129490000D01*
X115570000Y-129490000D02*
X112230000Y-126150000D01*
X112230000Y-126150000D02*
X112230000Y-123820000D01*
X110965000Y-122555000D02*
X112230000Y-123820000D01*
X72640000Y-133950000D02*
X71640000Y-132950000D01*
X72640000Y-145180000D02*
X72640000Y-133950000D01*
X75440000Y-147980000D02*
X72640000Y-145180000D01*
X69740000Y-131050000D02*
X71640000Y-132950000D01*
X103620000Y-131000000D02*
X103620000Y-133210000D01*
X80485000Y-126895000D02*
X80485000Y-125095000D01*
X81070000Y-127480000D02*
X80485000Y-126895000D01*
X82830000Y-127480000D02*
X81070000Y-127480000D01*
X89000000Y-133650000D02*
X82830000Y-127480000D01*
X103180000Y-133650000D02*
X89000000Y-133650000D01*
X103620000Y-133210000D02*
X103180000Y-133650000D01*
X91900000Y-123840000D02*
X90645000Y-125095000D01*
X91900000Y-116040000D02*
X91900000Y-123840000D01*
X87020000Y-111160000D02*
X91900000Y-116040000D01*
X122540000Y-131000000D02*
X126860000Y-126680000D01*
X138830000Y-118610000D02*
X140740000Y-118610000D01*
X137020000Y-120420000D02*
X138830000Y-118610000D01*
X137020000Y-121760000D02*
X137020000Y-120420000D01*
X132100000Y-126680000D02*
X137020000Y-121760000D01*
X126860000Y-126680000D02*
X132100000Y-126680000D01*
X90645000Y-122555000D02*
X83800000Y-115710000D01*
X83800000Y-115710000D02*
X83800000Y-114910000D01*
X113505000Y-125095000D02*
X114720000Y-123880000D01*
X119690000Y-116070000D02*
X140740000Y-116070000D01*
X114720000Y-121040000D02*
X119690000Y-116070000D01*
X114720000Y-123880000D02*
X114720000Y-121040000D01*
X113505000Y-122555000D02*
X113505000Y-119745000D01*
X119720000Y-113530000D02*
X140740000Y-113530000D01*
X113505000Y-119745000D02*
X119720000Y-113530000D01*
X95725000Y-125095000D02*
X96950000Y-123870000D01*
X104090000Y-110990000D02*
X140740000Y-110990000D01*
X96950000Y-118130000D02*
X104090000Y-110990000D01*
X96950000Y-123870000D02*
X96950000Y-118130000D01*
D10*
G36*
X142971100Y-149675000D02*
X44325000Y-149675000D01*
X44325000Y-147360308D01*
X45178191Y-147360308D01*
X45289393Y-147597715D01*
X45886761Y-147785457D01*
X46510503Y-147730306D01*
X46830607Y-147597715D01*
X46941809Y-147360308D01*
X46060000Y-146478500D01*
X45178191Y-147360308D01*
X44325000Y-147360308D01*
X44325000Y-146016761D01*
X44464543Y-146016761D01*
X44519694Y-146640503D01*
X44652285Y-146960607D01*
X44889692Y-147071809D01*
X45771500Y-146190000D01*
X46348500Y-146190000D01*
X47230308Y-147071809D01*
X47467715Y-146960607D01*
X47631106Y-146440718D01*
X48291361Y-146440718D01*
X48483692Y-146906194D01*
X48839513Y-147262636D01*
X49304652Y-147455779D01*
X49808298Y-147456219D01*
X50273774Y-147263888D01*
X50630216Y-146908067D01*
X50823359Y-146442928D01*
X50823799Y-145939282D01*
X50631468Y-145473806D01*
X50275647Y-145117364D01*
X49810508Y-144924221D01*
X49306862Y-144923781D01*
X48841386Y-145116112D01*
X48484944Y-145471933D01*
X48291801Y-145937072D01*
X48291361Y-146440718D01*
X47631106Y-146440718D01*
X47655457Y-146363239D01*
X47600306Y-145739497D01*
X47467715Y-145419393D01*
X47230308Y-145308191D01*
X46348500Y-146190000D01*
X45771500Y-146190000D01*
X44889692Y-145308191D01*
X44652285Y-145419393D01*
X44464543Y-146016761D01*
X44325000Y-146016761D01*
X44325000Y-145019692D01*
X45178191Y-145019692D01*
X46060000Y-145901500D01*
X46941809Y-145019692D01*
X46830607Y-144782285D01*
X46233239Y-144594543D01*
X45609497Y-144649694D01*
X45289393Y-144782285D01*
X45178191Y-145019692D01*
X44325000Y-145019692D01*
X44325000Y-143775589D01*
X57039610Y-143775589D01*
X57381431Y-144602858D01*
X58013813Y-145236345D01*
X58840484Y-145579608D01*
X59735589Y-145580390D01*
X60562858Y-145238569D01*
X61196345Y-144606187D01*
X61539608Y-143779516D01*
X61539611Y-143775589D01*
X67199610Y-143775589D01*
X67541431Y-144602858D01*
X68173813Y-145236345D01*
X69000484Y-145579608D01*
X69895589Y-145580390D01*
X70722858Y-145238569D01*
X71356345Y-144606187D01*
X71699608Y-143779516D01*
X71700390Y-142884411D01*
X71358569Y-142057142D01*
X70726187Y-141423655D01*
X69899516Y-141080392D01*
X69004411Y-141079610D01*
X68177142Y-141421431D01*
X67543655Y-142053813D01*
X67200392Y-142880484D01*
X67199610Y-143775589D01*
X61539611Y-143775589D01*
X61540390Y-142884411D01*
X61198569Y-142057142D01*
X60566187Y-141423655D01*
X59739516Y-141080392D01*
X58844411Y-141079610D01*
X58017142Y-141421431D01*
X57383655Y-142053813D01*
X57040392Y-142880484D01*
X57039610Y-143775589D01*
X44325000Y-143775589D01*
X44325000Y-137964990D01*
X61641510Y-137964990D01*
X61721104Y-138176151D01*
X62225809Y-138321175D01*
X62747595Y-138262018D01*
X62954896Y-138176151D01*
X63034490Y-137964990D01*
X62338000Y-137268500D01*
X61641510Y-137964990D01*
X44325000Y-137964990D01*
X44325000Y-136867809D01*
X60996825Y-136867809D01*
X61055982Y-137389595D01*
X61141849Y-137596896D01*
X61353010Y-137676490D01*
X62049500Y-136980000D01*
X62626500Y-136980000D01*
X63322990Y-137676490D01*
X63534151Y-137596896D01*
X63653824Y-137180416D01*
X63865825Y-137180416D01*
X64019568Y-137552503D01*
X64304000Y-137837431D01*
X64675818Y-137991824D01*
X65078416Y-137992175D01*
X65450503Y-137838432D01*
X65735431Y-137554000D01*
X65889824Y-137182182D01*
X65889825Y-137180416D01*
X66405825Y-137180416D01*
X66559568Y-137552503D01*
X66844000Y-137837431D01*
X67215818Y-137991824D01*
X67618416Y-137992175D01*
X67990503Y-137838432D01*
X68275431Y-137554000D01*
X68429824Y-137182182D01*
X68430175Y-136779584D01*
X68276432Y-136407497D01*
X67992000Y-136122569D01*
X67620182Y-135968176D01*
X67217584Y-135967825D01*
X66845497Y-136121568D01*
X66560569Y-136406000D01*
X66406176Y-136777818D01*
X66405825Y-137180416D01*
X65889825Y-137180416D01*
X65890175Y-136779584D01*
X65736432Y-136407497D01*
X65452000Y-136122569D01*
X65080182Y-135968176D01*
X64677584Y-135967825D01*
X64305497Y-136121568D01*
X64020569Y-136406000D01*
X63866176Y-136777818D01*
X63865825Y-137180416D01*
X63653824Y-137180416D01*
X63679175Y-137092191D01*
X63620018Y-136570405D01*
X63534151Y-136363104D01*
X63322990Y-136283510D01*
X62626500Y-136980000D01*
X62049500Y-136980000D01*
X61353010Y-136283510D01*
X61141849Y-136363104D01*
X60996825Y-136867809D01*
X44325000Y-136867809D01*
X44325000Y-135995010D01*
X61641510Y-135995010D01*
X62338000Y-136691500D01*
X63034490Y-135995010D01*
X62954896Y-135783849D01*
X62450191Y-135638825D01*
X61928405Y-135697982D01*
X61721104Y-135783849D01*
X61641510Y-135995010D01*
X44325000Y-135995010D01*
X44325000Y-134640416D01*
X60055825Y-134640416D01*
X60209568Y-135012503D01*
X60494000Y-135297431D01*
X60865818Y-135451824D01*
X61268416Y-135452175D01*
X61334208Y-135424990D01*
X62911510Y-135424990D01*
X62991104Y-135636151D01*
X63495809Y-135781175D01*
X64017595Y-135722018D01*
X64224896Y-135636151D01*
X64304490Y-135424990D01*
X63608000Y-134728500D01*
X62911510Y-135424990D01*
X61334208Y-135424990D01*
X61640503Y-135298432D01*
X61925431Y-135014000D01*
X62079824Y-134642182D01*
X62080098Y-134327809D01*
X62266825Y-134327809D01*
X62325982Y-134849595D01*
X62411849Y-135056896D01*
X62623010Y-135136490D01*
X63319500Y-134440000D01*
X63896500Y-134440000D01*
X64592990Y-135136490D01*
X64804151Y-135056896D01*
X64923824Y-134640416D01*
X65135825Y-134640416D01*
X65289568Y-135012503D01*
X65574000Y-135297431D01*
X65945818Y-135451824D01*
X66348416Y-135452175D01*
X66720503Y-135298432D01*
X67005431Y-135014000D01*
X67159824Y-134642182D01*
X67160175Y-134239584D01*
X67006432Y-133867497D01*
X66722000Y-133582569D01*
X66350182Y-133428176D01*
X65947584Y-133427825D01*
X65575497Y-133581568D01*
X65290569Y-133866000D01*
X65136176Y-134237818D01*
X65135825Y-134640416D01*
X64923824Y-134640416D01*
X64949175Y-134552191D01*
X64890018Y-134030405D01*
X64804151Y-133823104D01*
X64592990Y-133743510D01*
X63896500Y-134440000D01*
X63319500Y-134440000D01*
X62623010Y-133743510D01*
X62411849Y-133823104D01*
X62266825Y-134327809D01*
X62080098Y-134327809D01*
X62080175Y-134239584D01*
X61926432Y-133867497D01*
X61642000Y-133582569D01*
X61334806Y-133455010D01*
X62911510Y-133455010D01*
X63608000Y-134151500D01*
X64304490Y-133455010D01*
X64224896Y-133243849D01*
X63720191Y-133098825D01*
X63198405Y-133157982D01*
X62991104Y-133243849D01*
X62911510Y-133455010D01*
X61334806Y-133455010D01*
X61270182Y-133428176D01*
X60867584Y-133427825D01*
X60495497Y-133581568D01*
X60210569Y-133866000D01*
X60056176Y-134237818D01*
X60055825Y-134640416D01*
X44325000Y-134640416D01*
X44325000Y-132722936D01*
X45965563Y-132722936D01*
X46031084Y-132922584D01*
X46494808Y-133048715D01*
X46971502Y-132987786D01*
X47128916Y-132922584D01*
X47194437Y-132722936D01*
X46580000Y-132108500D01*
X45965563Y-132722936D01*
X44325000Y-132722936D01*
X44325000Y-131734808D01*
X45351285Y-131734808D01*
X45412214Y-132211502D01*
X45477416Y-132368916D01*
X45677064Y-132434437D01*
X46291500Y-131820000D01*
X46868500Y-131820000D01*
X47482936Y-132434437D01*
X47682584Y-132368916D01*
X47808715Y-131905192D01*
X47747786Y-131428498D01*
X47682584Y-131271084D01*
X47482936Y-131205563D01*
X46868500Y-131820000D01*
X46291500Y-131820000D01*
X45677064Y-131205563D01*
X45477416Y-131271084D01*
X45351285Y-131734808D01*
X44325000Y-131734808D01*
X44325000Y-130917064D01*
X45965563Y-130917064D01*
X46580000Y-131531500D01*
X46941500Y-131170000D01*
X50675103Y-131170000D01*
X50675103Y-132470000D01*
X50692535Y-132562644D01*
X50747288Y-132647732D01*
X50830831Y-132704815D01*
X50930000Y-132724897D01*
X52230000Y-132724897D01*
X52322644Y-132707465D01*
X52407732Y-132652712D01*
X52464815Y-132569169D01*
X52484897Y-132470000D01*
X52484897Y-131170000D01*
X52482813Y-131158922D01*
X64489905Y-131158922D01*
X64573461Y-131361143D01*
X64728043Y-131515995D01*
X64930118Y-131599904D01*
X65148922Y-131600095D01*
X65351143Y-131516539D01*
X65505995Y-131361957D01*
X65589904Y-131159882D01*
X65589904Y-131158922D01*
X69189905Y-131158922D01*
X69273461Y-131361143D01*
X69428043Y-131515995D01*
X69630118Y-131599904D01*
X69759687Y-131600017D01*
X72265000Y-134105330D01*
X72265000Y-145180000D01*
X72293545Y-145323507D01*
X72374835Y-145445165D01*
X75174835Y-148245165D01*
X75296493Y-148326455D01*
X75440000Y-148355000D01*
X112680000Y-148355000D01*
X112823507Y-148326455D01*
X112945165Y-148245165D01*
X115293271Y-145897059D01*
X119739740Y-145897059D01*
X119967620Y-146448572D01*
X120389209Y-146870897D01*
X120940323Y-147099739D01*
X121537059Y-147100260D01*
X122088572Y-146872380D01*
X122510897Y-146450791D01*
X122739739Y-145899677D01*
X122739741Y-145897059D01*
X132499740Y-145897059D01*
X132727620Y-146448572D01*
X133149209Y-146870897D01*
X133700323Y-147099739D01*
X134297059Y-147100260D01*
X134848572Y-146872380D01*
X135270897Y-146450791D01*
X135499739Y-145899677D01*
X135500260Y-145302941D01*
X135272380Y-144751428D01*
X134850791Y-144329103D01*
X134299677Y-144100261D01*
X133702941Y-144099740D01*
X133151428Y-144327620D01*
X132729103Y-144749209D01*
X132500261Y-145300323D01*
X132499740Y-145897059D01*
X122739741Y-145897059D01*
X122740260Y-145302941D01*
X122512380Y-144751428D01*
X122090791Y-144329103D01*
X121539677Y-144100261D01*
X120942941Y-144099740D01*
X120391428Y-144327620D01*
X119969103Y-144749209D01*
X119740261Y-145300323D01*
X119739740Y-145897059D01*
X115293271Y-145897059D01*
X115835165Y-145355165D01*
X115916455Y-145233507D01*
X115945000Y-145090000D01*
X115945000Y-130822798D01*
X118886400Y-130822798D01*
X118886400Y-131177202D01*
X118971168Y-131603358D01*
X119212566Y-131964636D01*
X119573844Y-132206034D01*
X120000000Y-132290802D01*
X120426156Y-132206034D01*
X120787434Y-131964636D01*
X121028832Y-131603358D01*
X121113600Y-131177202D01*
X121113600Y-130822798D01*
X121426400Y-130822798D01*
X121426400Y-131177202D01*
X121511168Y-131603358D01*
X121752566Y-131964636D01*
X122113844Y-132206034D01*
X122540000Y-132290802D01*
X122966156Y-132206034D01*
X123327434Y-131964636D01*
X123568832Y-131603358D01*
X123653600Y-131177202D01*
X123653600Y-130822798D01*
X123966400Y-130822798D01*
X123966400Y-131177202D01*
X124051168Y-131603358D01*
X124292566Y-131964636D01*
X124653844Y-132206034D01*
X125080000Y-132290802D01*
X125506156Y-132206034D01*
X125867434Y-131964636D01*
X126108832Y-131603358D01*
X126193600Y-131177202D01*
X126193600Y-130822798D01*
X126506400Y-130822798D01*
X126506400Y-131177202D01*
X126591168Y-131603358D01*
X126832566Y-131964636D01*
X127193844Y-132206034D01*
X127620000Y-132290802D01*
X128046156Y-132206034D01*
X128407434Y-131964636D01*
X128648832Y-131603358D01*
X128684275Y-131425173D01*
X128767632Y-131425173D01*
X128978005Y-131937246D01*
X129368327Y-132329833D01*
X129738426Y-132510053D01*
X129956000Y-132418166D01*
X129956000Y-131204000D01*
X130364000Y-131204000D01*
X130364000Y-132418166D01*
X130581574Y-132510053D01*
X130951673Y-132329833D01*
X131341995Y-131937246D01*
X131552368Y-131425173D01*
X131438397Y-131204000D01*
X130364000Y-131204000D01*
X129956000Y-131204000D01*
X128881603Y-131204000D01*
X128767632Y-131425173D01*
X128684275Y-131425173D01*
X128733600Y-131177202D01*
X128733600Y-130822798D01*
X131586400Y-130822798D01*
X131586400Y-131177202D01*
X131671168Y-131603358D01*
X131912566Y-131964636D01*
X132273844Y-132206034D01*
X132700000Y-132290802D01*
X133126156Y-132206034D01*
X133487434Y-131964636D01*
X133728832Y-131603358D01*
X133813600Y-131177202D01*
X133813600Y-130822798D01*
X133728832Y-130396642D01*
X133487434Y-130035364D01*
X133410563Y-129984000D01*
X134121503Y-129984000D01*
X134121503Y-132016000D01*
X134138935Y-132108644D01*
X134193688Y-132193732D01*
X134277231Y-132250815D01*
X134376400Y-132270897D01*
X136103600Y-132270897D01*
X136196244Y-132253465D01*
X136281332Y-132198712D01*
X136338415Y-132115169D01*
X136358497Y-132016000D01*
X136358497Y-129984000D01*
X136341065Y-129891356D01*
X136286312Y-129806268D01*
X136202769Y-129749185D01*
X136103600Y-129729103D01*
X134376400Y-129729103D01*
X134283756Y-129746535D01*
X134198668Y-129801288D01*
X134141585Y-129884831D01*
X134121503Y-129984000D01*
X133410563Y-129984000D01*
X133126156Y-129793966D01*
X132700000Y-129709198D01*
X132273844Y-129793966D01*
X131912566Y-130035364D01*
X131671168Y-130396642D01*
X131586400Y-130822798D01*
X128733600Y-130822798D01*
X128684276Y-130574827D01*
X128767632Y-130574827D01*
X128881603Y-130796000D01*
X129956000Y-130796000D01*
X129956000Y-129581834D01*
X130364000Y-129581834D01*
X130364000Y-130796000D01*
X131438397Y-130796000D01*
X131552368Y-130574827D01*
X131341995Y-130062754D01*
X130951673Y-129670167D01*
X130581574Y-129489947D01*
X130364000Y-129581834D01*
X129956000Y-129581834D01*
X129738426Y-129489947D01*
X129368327Y-129670167D01*
X128978005Y-130062754D01*
X128767632Y-130574827D01*
X128684276Y-130574827D01*
X128648832Y-130396642D01*
X128407434Y-130035364D01*
X128046156Y-129793966D01*
X127620000Y-129709198D01*
X127193844Y-129793966D01*
X126832566Y-130035364D01*
X126591168Y-130396642D01*
X126506400Y-130822798D01*
X126193600Y-130822798D01*
X126108832Y-130396642D01*
X125867434Y-130035364D01*
X125506156Y-129793966D01*
X125080000Y-129709198D01*
X124653844Y-129793966D01*
X124292566Y-130035364D01*
X124051168Y-130396642D01*
X123966400Y-130822798D01*
X123653600Y-130822798D01*
X123586229Y-130484101D01*
X127015330Y-127055000D01*
X132100000Y-127055000D01*
X132243507Y-127026455D01*
X132365165Y-126945165D01*
X135198756Y-124111574D01*
X139229947Y-124111574D01*
X139410167Y-124481673D01*
X139802754Y-124871995D01*
X140314827Y-125082368D01*
X140535998Y-124968398D01*
X140535998Y-125111503D01*
X139724000Y-125111503D01*
X139631356Y-125128935D01*
X139546268Y-125183688D01*
X139489185Y-125267231D01*
X139469103Y-125366400D01*
X139469103Y-127093600D01*
X139486535Y-127186244D01*
X139541288Y-127271332D01*
X139624831Y-127328415D01*
X139724000Y-127348497D01*
X141756000Y-127348497D01*
X141848644Y-127331065D01*
X141933732Y-127276312D01*
X141990815Y-127192769D01*
X142010897Y-127093600D01*
X142010897Y-125366400D01*
X141993465Y-125273756D01*
X141938712Y-125188668D01*
X141855169Y-125131585D01*
X141756000Y-125111503D01*
X140944002Y-125111503D01*
X140944002Y-124968398D01*
X141165173Y-125082368D01*
X141677246Y-124871995D01*
X142069833Y-124481673D01*
X142250053Y-124111574D01*
X142158166Y-123894000D01*
X140944000Y-123894000D01*
X140944000Y-123914000D01*
X140536000Y-123914000D01*
X140536000Y-123894000D01*
X139321834Y-123894000D01*
X139229947Y-124111574D01*
X135198756Y-124111574D01*
X136041904Y-123268426D01*
X139229947Y-123268426D01*
X139321834Y-123486000D01*
X140536000Y-123486000D01*
X140536000Y-122411603D01*
X140944000Y-122411603D01*
X140944000Y-123486000D01*
X142158166Y-123486000D01*
X142250053Y-123268426D01*
X142069833Y-122898327D01*
X141677246Y-122508005D01*
X141165173Y-122297632D01*
X140944000Y-122411603D01*
X140536000Y-122411603D01*
X140314827Y-122297632D01*
X139802754Y-122508005D01*
X139410167Y-122898327D01*
X139229947Y-123268426D01*
X136041904Y-123268426D01*
X137285165Y-122025165D01*
X137366455Y-121903506D01*
X137395000Y-121760000D01*
X137395000Y-121150000D01*
X139449198Y-121150000D01*
X139533966Y-121576156D01*
X139775364Y-121937434D01*
X140136642Y-122178832D01*
X140562798Y-122263600D01*
X140917202Y-122263600D01*
X141343358Y-122178832D01*
X141704636Y-121937434D01*
X141946034Y-121576156D01*
X142030802Y-121150000D01*
X141946034Y-120723844D01*
X141704636Y-120362566D01*
X141343358Y-120121168D01*
X140917202Y-120036400D01*
X140562798Y-120036400D01*
X140136642Y-120121168D01*
X139775364Y-120362566D01*
X139533966Y-120723844D01*
X139449198Y-121150000D01*
X137395000Y-121150000D01*
X137395000Y-120575330D01*
X138985330Y-118985000D01*
X139523790Y-118985000D01*
X139533966Y-119036156D01*
X139775364Y-119397434D01*
X140136642Y-119638832D01*
X140562798Y-119723600D01*
X140917202Y-119723600D01*
X141343358Y-119638832D01*
X141704636Y-119397434D01*
X141946034Y-119036156D01*
X142030802Y-118610000D01*
X141946034Y-118183844D01*
X141704636Y-117822566D01*
X141343358Y-117581168D01*
X140917202Y-117496400D01*
X140562798Y-117496400D01*
X140136642Y-117581168D01*
X139775364Y-117822566D01*
X139533966Y-118183844D01*
X139523790Y-118235000D01*
X138830000Y-118235000D01*
X138686494Y-118263545D01*
X138564835Y-118344835D01*
X136754835Y-120154835D01*
X136673545Y-120276493D01*
X136650535Y-120392175D01*
X136645000Y-120420000D01*
X136645000Y-121604670D01*
X131944670Y-126305000D01*
X126860000Y-126305000D01*
X126716494Y-126333545D01*
X126594835Y-126414835D01*
X123115749Y-129893921D01*
X122966156Y-129793966D01*
X122540000Y-129709198D01*
X122113844Y-129793966D01*
X121752566Y-130035364D01*
X121511168Y-130396642D01*
X121426400Y-130822798D01*
X121113600Y-130822798D01*
X121028832Y-130396642D01*
X120787434Y-130035364D01*
X120426156Y-129793966D01*
X120000000Y-129709198D01*
X119573844Y-129793966D01*
X119212566Y-130035364D01*
X118971168Y-130396642D01*
X118886400Y-130822798D01*
X115945000Y-130822798D01*
X115945000Y-129490000D01*
X115916455Y-129346494D01*
X115916455Y-129346493D01*
X115835165Y-129224835D01*
X112605000Y-125994670D01*
X112605000Y-125566901D01*
X112646568Y-125667503D01*
X112931000Y-125952431D01*
X113302818Y-126106824D01*
X113705416Y-126107175D01*
X114077503Y-125953432D01*
X114362431Y-125669000D01*
X114516824Y-125297182D01*
X114516825Y-125295416D01*
X115032825Y-125295416D01*
X115186568Y-125667503D01*
X115471000Y-125952431D01*
X115842818Y-126106824D01*
X116245416Y-126107175D01*
X116617503Y-125953432D01*
X116902431Y-125669000D01*
X117056824Y-125297182D01*
X117056825Y-125295416D01*
X117572825Y-125295416D01*
X117726568Y-125667503D01*
X118011000Y-125952431D01*
X118382818Y-126106824D01*
X118785416Y-126107175D01*
X119157503Y-125953432D01*
X119442431Y-125669000D01*
X119596824Y-125297182D01*
X119596825Y-125295416D01*
X120112825Y-125295416D01*
X120266568Y-125667503D01*
X120551000Y-125952431D01*
X120922818Y-126106824D01*
X121325416Y-126107175D01*
X121697503Y-125953432D01*
X121982431Y-125669000D01*
X122136824Y-125297182D01*
X122136825Y-125295416D01*
X122652825Y-125295416D01*
X122806568Y-125667503D01*
X123091000Y-125952431D01*
X123462818Y-126106824D01*
X123865416Y-126107175D01*
X124237503Y-125953432D01*
X124522431Y-125669000D01*
X124676824Y-125297182D01*
X124677175Y-124894584D01*
X124523432Y-124522497D01*
X124239000Y-124237569D01*
X123867182Y-124083176D01*
X123464584Y-124082825D01*
X123092497Y-124236568D01*
X122807569Y-124521000D01*
X122653176Y-124892818D01*
X122652825Y-125295416D01*
X122136825Y-125295416D01*
X122137175Y-124894584D01*
X121983432Y-124522497D01*
X121699000Y-124237569D01*
X121327182Y-124083176D01*
X120924584Y-124082825D01*
X120552497Y-124236568D01*
X120267569Y-124521000D01*
X120113176Y-124892818D01*
X120112825Y-125295416D01*
X119596825Y-125295416D01*
X119597175Y-124894584D01*
X119443432Y-124522497D01*
X119159000Y-124237569D01*
X118787182Y-124083176D01*
X118384584Y-124082825D01*
X118012497Y-124236568D01*
X117727569Y-124521000D01*
X117573176Y-124892818D01*
X117572825Y-125295416D01*
X117056825Y-125295416D01*
X117057175Y-124894584D01*
X116903432Y-124522497D01*
X116619000Y-124237569D01*
X116247182Y-124083176D01*
X115844584Y-124082825D01*
X115472497Y-124236568D01*
X115187569Y-124521000D01*
X115033176Y-124892818D01*
X115032825Y-125295416D01*
X114516825Y-125295416D01*
X114517175Y-124894584D01*
X114434890Y-124695440D01*
X114985165Y-124145165D01*
X115066454Y-124023507D01*
X115066455Y-124023506D01*
X115095000Y-123880000D01*
X115095000Y-122905891D01*
X115186568Y-123127503D01*
X115471000Y-123412431D01*
X115842818Y-123566824D01*
X116245416Y-123567175D01*
X116617503Y-123413432D01*
X116902431Y-123129000D01*
X117056824Y-122757182D01*
X117056825Y-122755416D01*
X117572825Y-122755416D01*
X117726568Y-123127503D01*
X118011000Y-123412431D01*
X118382818Y-123566824D01*
X118785416Y-123567175D01*
X119157503Y-123413432D01*
X119442431Y-123129000D01*
X119596824Y-122757182D01*
X119596825Y-122755416D01*
X120112825Y-122755416D01*
X120266568Y-123127503D01*
X120551000Y-123412431D01*
X120922818Y-123566824D01*
X121325416Y-123567175D01*
X121697503Y-123413432D01*
X121982431Y-123129000D01*
X122136824Y-122757182D01*
X122136825Y-122755416D01*
X122652825Y-122755416D01*
X122806568Y-123127503D01*
X123091000Y-123412431D01*
X123462818Y-123566824D01*
X123865416Y-123567175D01*
X124237503Y-123413432D01*
X124522431Y-123129000D01*
X124676824Y-122757182D01*
X124677175Y-122354584D01*
X124523432Y-121982497D01*
X124239000Y-121697569D01*
X123867182Y-121543176D01*
X123464584Y-121542825D01*
X123092497Y-121696568D01*
X122807569Y-121981000D01*
X122653176Y-122352818D01*
X122652825Y-122755416D01*
X122136825Y-122755416D01*
X122137175Y-122354584D01*
X121983432Y-121982497D01*
X121699000Y-121697569D01*
X121327182Y-121543176D01*
X120924584Y-121542825D01*
X120552497Y-121696568D01*
X120267569Y-121981000D01*
X120113176Y-122352818D01*
X120112825Y-122755416D01*
X119596825Y-122755416D01*
X119597175Y-122354584D01*
X119443432Y-121982497D01*
X119159000Y-121697569D01*
X118787182Y-121543176D01*
X118384584Y-121542825D01*
X118012497Y-121696568D01*
X117727569Y-121981000D01*
X117573176Y-122352818D01*
X117572825Y-122755416D01*
X117056825Y-122755416D01*
X117057175Y-122354584D01*
X116903432Y-121982497D01*
X116619000Y-121697569D01*
X116247182Y-121543176D01*
X115844584Y-121542825D01*
X115472497Y-121696568D01*
X115187569Y-121981000D01*
X115095000Y-122203930D01*
X115095000Y-121195330D01*
X115175828Y-121114502D01*
X126399094Y-121114502D01*
X126755422Y-121976883D01*
X127414646Y-122637259D01*
X128276404Y-122995092D01*
X129209502Y-122995906D01*
X130071883Y-122639578D01*
X130732259Y-121980354D01*
X131090092Y-121118596D01*
X131090906Y-120185498D01*
X130734578Y-119323117D01*
X130075354Y-118662741D01*
X129213596Y-118304908D01*
X128280498Y-118304094D01*
X127418117Y-118660422D01*
X126757741Y-119319646D01*
X126399908Y-120181404D01*
X126399094Y-121114502D01*
X115175828Y-121114502D01*
X119845330Y-116445000D01*
X139523790Y-116445000D01*
X139533966Y-116496156D01*
X139775364Y-116857434D01*
X140136642Y-117098832D01*
X140562798Y-117183600D01*
X140917202Y-117183600D01*
X141343358Y-117098832D01*
X141704636Y-116857434D01*
X141946034Y-116496156D01*
X142030802Y-116070000D01*
X141946034Y-115643844D01*
X141704636Y-115282566D01*
X141343358Y-115041168D01*
X140917202Y-114956400D01*
X140562798Y-114956400D01*
X140136642Y-115041168D01*
X139775364Y-115282566D01*
X139533966Y-115643844D01*
X139523790Y-115695000D01*
X119690000Y-115695000D01*
X119546494Y-115723545D01*
X119546492Y-115723546D01*
X119546493Y-115723546D01*
X119424835Y-115804835D01*
X114454835Y-120774835D01*
X114373545Y-120896493D01*
X114373545Y-120896494D01*
X114345000Y-121040000D01*
X114345000Y-121964033D01*
X114079000Y-121697569D01*
X113880000Y-121614937D01*
X113880000Y-119900330D01*
X119875330Y-113905000D01*
X139523790Y-113905000D01*
X139533966Y-113956156D01*
X139775364Y-114317434D01*
X140136642Y-114558832D01*
X140562798Y-114643600D01*
X140917202Y-114643600D01*
X141343358Y-114558832D01*
X141704636Y-114317434D01*
X141946034Y-113956156D01*
X142030802Y-113530000D01*
X141946034Y-113103844D01*
X141704636Y-112742566D01*
X141343358Y-112501168D01*
X140917202Y-112416400D01*
X140562798Y-112416400D01*
X140136642Y-112501168D01*
X139775364Y-112742566D01*
X139533966Y-113103844D01*
X139523790Y-113155000D01*
X119720000Y-113155000D01*
X119576493Y-113183545D01*
X119454835Y-113264835D01*
X113239835Y-119479835D01*
X113158545Y-119601493D01*
X113158545Y-119601494D01*
X113130000Y-119745000D01*
X113130000Y-121614962D01*
X112932497Y-121696568D01*
X112647569Y-121981000D01*
X112493176Y-122352818D01*
X112492825Y-122755416D01*
X112646568Y-123127503D01*
X112931000Y-123412431D01*
X113302818Y-123566824D01*
X113705416Y-123567175D01*
X114077503Y-123413432D01*
X114345000Y-123146401D01*
X114345000Y-123724670D01*
X113904542Y-124165128D01*
X113707182Y-124083176D01*
X113304584Y-124082825D01*
X112932497Y-124236568D01*
X112647569Y-124521000D01*
X112605000Y-124623517D01*
X112605000Y-123820000D01*
X112588390Y-123736494D01*
X112576455Y-123676493D01*
X112495165Y-123554835D01*
X111894872Y-122954542D01*
X111976824Y-122757182D01*
X111977175Y-122354584D01*
X111823432Y-121982497D01*
X111539000Y-121697569D01*
X111167182Y-121543176D01*
X110764584Y-121542825D01*
X110392497Y-121696568D01*
X110107569Y-121981000D01*
X109953176Y-122352818D01*
X109952825Y-122755416D01*
X110106568Y-123127503D01*
X110391000Y-123412431D01*
X110762818Y-123566824D01*
X111165416Y-123567175D01*
X111364560Y-123484890D01*
X111855000Y-123975330D01*
X111855000Y-124598898D01*
X111823432Y-124522497D01*
X111539000Y-124237569D01*
X111167182Y-124083176D01*
X110764584Y-124082825D01*
X110392497Y-124236568D01*
X110107569Y-124521000D01*
X109953176Y-124892818D01*
X109952825Y-125295416D01*
X110106568Y-125667503D01*
X110391000Y-125952431D01*
X110762818Y-126106824D01*
X111165416Y-126107175D01*
X111537503Y-125953432D01*
X111822431Y-125669000D01*
X111855000Y-125590565D01*
X111855000Y-126150000D01*
X111883545Y-126293507D01*
X111964835Y-126415165D01*
X115195000Y-129645330D01*
X115195000Y-144934670D01*
X112524670Y-147605000D01*
X75595330Y-147605000D01*
X73015000Y-145024670D01*
X73015000Y-143775589D01*
X73769610Y-143775589D01*
X74111431Y-144602858D01*
X74743813Y-145236345D01*
X75570484Y-145579608D01*
X76465589Y-145580390D01*
X77292858Y-145238569D01*
X77926345Y-144606187D01*
X78269608Y-143779516D01*
X78269611Y-143775589D01*
X83929610Y-143775589D01*
X84271431Y-144602858D01*
X84903813Y-145236345D01*
X85730484Y-145579608D01*
X86625589Y-145580390D01*
X87452858Y-145238569D01*
X88086345Y-144606187D01*
X88422323Y-143797059D01*
X94499740Y-143797059D01*
X94727620Y-144348572D01*
X95149209Y-144770897D01*
X95700323Y-144999739D01*
X96297059Y-145000260D01*
X96848572Y-144772380D01*
X97270897Y-144350791D01*
X97499739Y-143799677D01*
X97499741Y-143797059D01*
X109739740Y-143797059D01*
X109967620Y-144348572D01*
X110389209Y-144770897D01*
X110940323Y-144999739D01*
X111537059Y-145000260D01*
X112088572Y-144772380D01*
X112510897Y-144350791D01*
X112739739Y-143799677D01*
X112740260Y-143202941D01*
X112512380Y-142651428D01*
X112090791Y-142229103D01*
X111539677Y-142000261D01*
X110942941Y-141999740D01*
X110391428Y-142227620D01*
X109969103Y-142649209D01*
X109740261Y-143200323D01*
X109739740Y-143797059D01*
X97499741Y-143797059D01*
X97500260Y-143202941D01*
X97272380Y-142651428D01*
X96850791Y-142229103D01*
X96299677Y-142000261D01*
X95702941Y-141999740D01*
X95151428Y-142227620D01*
X94729103Y-142649209D01*
X94500261Y-143200323D01*
X94499740Y-143797059D01*
X88422323Y-143797059D01*
X88429608Y-143779516D01*
X88430390Y-142884411D01*
X88088569Y-142057142D01*
X87456187Y-141423655D01*
X86629516Y-141080392D01*
X85734411Y-141079610D01*
X84907142Y-141421431D01*
X84273655Y-142053813D01*
X83930392Y-142880484D01*
X83929610Y-143775589D01*
X78269611Y-143775589D01*
X78270390Y-142884411D01*
X77928569Y-142057142D01*
X77296187Y-141423655D01*
X76469516Y-141080392D01*
X75574411Y-141079610D01*
X74747142Y-141421431D01*
X74113655Y-142053813D01*
X73770392Y-142880484D01*
X73769610Y-143775589D01*
X73015000Y-143775589D01*
X73015000Y-137180416D01*
X78055825Y-137180416D01*
X78209568Y-137552503D01*
X78494000Y-137837431D01*
X78865818Y-137991824D01*
X79268416Y-137992175D01*
X79640503Y-137838432D01*
X79925431Y-137554000D01*
X80079824Y-137182182D01*
X80079825Y-137180416D01*
X80595825Y-137180416D01*
X80749568Y-137552503D01*
X81034000Y-137837431D01*
X81405818Y-137991824D01*
X81808416Y-137992175D01*
X82180503Y-137838432D01*
X82465431Y-137554000D01*
X82619824Y-137182182D01*
X82619825Y-137180416D01*
X83135825Y-137180416D01*
X83289568Y-137552503D01*
X83574000Y-137837431D01*
X83945818Y-137991824D01*
X84348416Y-137992175D01*
X84720503Y-137838432D01*
X85005431Y-137554000D01*
X85159824Y-137182182D01*
X85160175Y-136779584D01*
X85006432Y-136407497D01*
X84722000Y-136122569D01*
X84350182Y-135968176D01*
X83947584Y-135967825D01*
X83575497Y-136121568D01*
X83290569Y-136406000D01*
X83136176Y-136777818D01*
X83135825Y-137180416D01*
X82619825Y-137180416D01*
X82620175Y-136779584D01*
X82466432Y-136407497D01*
X82182000Y-136122569D01*
X81810182Y-135968176D01*
X81407584Y-135967825D01*
X81035497Y-136121568D01*
X80750569Y-136406000D01*
X80596176Y-136777818D01*
X80595825Y-137180416D01*
X80079825Y-137180416D01*
X80080175Y-136779584D01*
X79926432Y-136407497D01*
X79642000Y-136122569D01*
X79270182Y-135968176D01*
X78867584Y-135967825D01*
X78495497Y-136121568D01*
X78210569Y-136406000D01*
X78056176Y-136777818D01*
X78055825Y-137180416D01*
X73015000Y-137180416D01*
X73015000Y-134640416D01*
X76785825Y-134640416D01*
X76939568Y-135012503D01*
X77224000Y-135297431D01*
X77595818Y-135451824D01*
X77998416Y-135452175D01*
X78064208Y-135424990D01*
X79641510Y-135424990D01*
X79721104Y-135636151D01*
X80225809Y-135781175D01*
X80747595Y-135722018D01*
X80954896Y-135636151D01*
X81034490Y-135424990D01*
X80338000Y-134728500D01*
X79641510Y-135424990D01*
X78064208Y-135424990D01*
X78370503Y-135298432D01*
X78655431Y-135014000D01*
X78809824Y-134642182D01*
X78810098Y-134327809D01*
X78996825Y-134327809D01*
X79055982Y-134849595D01*
X79141849Y-135056896D01*
X79353010Y-135136490D01*
X80049500Y-134440000D01*
X80626500Y-134440000D01*
X81322990Y-135136490D01*
X81534151Y-135056896D01*
X81653824Y-134640416D01*
X81865825Y-134640416D01*
X82019568Y-135012503D01*
X82304000Y-135297431D01*
X82675818Y-135451824D01*
X83078416Y-135452175D01*
X83450503Y-135298432D01*
X83735431Y-135014000D01*
X83889824Y-134642182D01*
X83890175Y-134239584D01*
X83736432Y-133867497D01*
X83452000Y-133582569D01*
X83080182Y-133428176D01*
X82677584Y-133427825D01*
X82305497Y-133581568D01*
X82020569Y-133866000D01*
X81866176Y-134237818D01*
X81865825Y-134640416D01*
X81653824Y-134640416D01*
X81679175Y-134552191D01*
X81620018Y-134030405D01*
X81534151Y-133823104D01*
X81322990Y-133743510D01*
X80626500Y-134440000D01*
X80049500Y-134440000D01*
X79353010Y-133743510D01*
X79141849Y-133823104D01*
X78996825Y-134327809D01*
X78810098Y-134327809D01*
X78810175Y-134239584D01*
X78656432Y-133867497D01*
X78372000Y-133582569D01*
X78064806Y-133455010D01*
X79641510Y-133455010D01*
X80338000Y-134151500D01*
X81034490Y-133455010D01*
X80954896Y-133243849D01*
X80450191Y-133098825D01*
X79928405Y-133157982D01*
X79721104Y-133243849D01*
X79641510Y-133455010D01*
X78064806Y-133455010D01*
X78000182Y-133428176D01*
X77597584Y-133427825D01*
X77225497Y-133581568D01*
X76940569Y-133866000D01*
X76786176Y-134237818D01*
X76785825Y-134640416D01*
X73015000Y-134640416D01*
X73015000Y-133950000D01*
X72986455Y-133806494D01*
X72905165Y-133684835D01*
X70289983Y-131069653D01*
X70290095Y-130941078D01*
X70206539Y-130738857D01*
X70051957Y-130584005D01*
X69849882Y-130500096D01*
X69631078Y-130499905D01*
X69428857Y-130583461D01*
X69274005Y-130738043D01*
X69190096Y-130940118D01*
X69189905Y-131158922D01*
X65589904Y-131158922D01*
X65590017Y-131030313D01*
X68555330Y-128065000D01*
X77930000Y-128065000D01*
X78073507Y-128036455D01*
X78195165Y-127955165D01*
X79465165Y-126685165D01*
X79546455Y-126563507D01*
X79575000Y-126420000D01*
X79575000Y-125542699D01*
X79626568Y-125667503D01*
X79911000Y-125952431D01*
X80110000Y-126035063D01*
X80110000Y-126895000D01*
X80138545Y-127038507D01*
X80219835Y-127160165D01*
X80804835Y-127745165D01*
X80926493Y-127826455D01*
X81070000Y-127855000D01*
X82674670Y-127855000D01*
X88734835Y-133915165D01*
X88856494Y-133996455D01*
X89000000Y-134025000D01*
X103180000Y-134025000D01*
X103323507Y-133996455D01*
X103445165Y-133915165D01*
X103885165Y-133475165D01*
X103966455Y-133353507D01*
X103995000Y-133210000D01*
X103995000Y-132216210D01*
X104046156Y-132206034D01*
X104407434Y-131964636D01*
X104648832Y-131603358D01*
X104733600Y-131177202D01*
X104733600Y-130822798D01*
X105046400Y-130822798D01*
X105046400Y-131177202D01*
X105131168Y-131603358D01*
X105372566Y-131964636D01*
X105733844Y-132206034D01*
X106160000Y-132290802D01*
X106586156Y-132206034D01*
X106947434Y-131964636D01*
X107188832Y-131603358D01*
X107224275Y-131425173D01*
X107307632Y-131425173D01*
X107518005Y-131937246D01*
X107908327Y-132329833D01*
X108278426Y-132510053D01*
X108496000Y-132418166D01*
X108496000Y-131204000D01*
X107421603Y-131204000D01*
X107307632Y-131425173D01*
X107224275Y-131425173D01*
X107273600Y-131177202D01*
X107273600Y-130822798D01*
X107224276Y-130574827D01*
X107307632Y-130574827D01*
X107421603Y-130796000D01*
X108496000Y-130796000D01*
X108496000Y-129581834D01*
X108904000Y-129581834D01*
X108904000Y-130796000D01*
X108924000Y-130796000D01*
X108924000Y-131204000D01*
X108904000Y-131204000D01*
X108904000Y-132418166D01*
X109121574Y-132510053D01*
X109491673Y-132329833D01*
X109881995Y-131937246D01*
X110092368Y-131425173D01*
X109978398Y-131204002D01*
X110121503Y-131204002D01*
X110121503Y-132016000D01*
X110138935Y-132108644D01*
X110193688Y-132193732D01*
X110277231Y-132250815D01*
X110376400Y-132270897D01*
X112103600Y-132270897D01*
X112196244Y-132253465D01*
X112281332Y-132198712D01*
X112338415Y-132115169D01*
X112358497Y-132016000D01*
X112358497Y-129984000D01*
X112341065Y-129891356D01*
X112286312Y-129806268D01*
X112202769Y-129749185D01*
X112103600Y-129729103D01*
X110376400Y-129729103D01*
X110283756Y-129746535D01*
X110198668Y-129801288D01*
X110141585Y-129884831D01*
X110121503Y-129984000D01*
X110121503Y-130795998D01*
X109978398Y-130795998D01*
X110092368Y-130574827D01*
X109881995Y-130062754D01*
X109491673Y-129670167D01*
X109121574Y-129489947D01*
X108904000Y-129581834D01*
X108496000Y-129581834D01*
X108278426Y-129489947D01*
X107908327Y-129670167D01*
X107518005Y-130062754D01*
X107307632Y-130574827D01*
X107224276Y-130574827D01*
X107188832Y-130396642D01*
X106947434Y-130035364D01*
X106586156Y-129793966D01*
X106160000Y-129709198D01*
X105733844Y-129793966D01*
X105372566Y-130035364D01*
X105131168Y-130396642D01*
X105046400Y-130822798D01*
X104733600Y-130822798D01*
X104648832Y-130396642D01*
X104407434Y-130035364D01*
X104046156Y-129793966D01*
X103620000Y-129709198D01*
X103193844Y-129793966D01*
X102832566Y-130035364D01*
X102591168Y-130396642D01*
X102506400Y-130822798D01*
X102506400Y-131177202D01*
X102591168Y-131603358D01*
X102832566Y-131964636D01*
X103193844Y-132206034D01*
X103245000Y-132216210D01*
X103245000Y-133054670D01*
X103024670Y-133275000D01*
X89155330Y-133275000D01*
X86703128Y-130822798D01*
X94886400Y-130822798D01*
X94886400Y-131177202D01*
X94971168Y-131603358D01*
X95212566Y-131964636D01*
X95573844Y-132206034D01*
X96000000Y-132290802D01*
X96426156Y-132206034D01*
X96787434Y-131964636D01*
X97028832Y-131603358D01*
X97113600Y-131177202D01*
X97113600Y-130822798D01*
X97426400Y-130822798D01*
X97426400Y-131177202D01*
X97511168Y-131603358D01*
X97752566Y-131964636D01*
X98113844Y-132206034D01*
X98540000Y-132290802D01*
X98966156Y-132206034D01*
X99327434Y-131964636D01*
X99568832Y-131603358D01*
X99653600Y-131177202D01*
X99653600Y-130822798D01*
X99966400Y-130822798D01*
X99966400Y-131177202D01*
X100051168Y-131603358D01*
X100292566Y-131964636D01*
X100653844Y-132206034D01*
X101080000Y-132290802D01*
X101506156Y-132206034D01*
X101867434Y-131964636D01*
X102108832Y-131603358D01*
X102193600Y-131177202D01*
X102193600Y-130822798D01*
X102108832Y-130396642D01*
X101867434Y-130035364D01*
X101506156Y-129793966D01*
X101080000Y-129709198D01*
X100653844Y-129793966D01*
X100292566Y-130035364D01*
X100051168Y-130396642D01*
X99966400Y-130822798D01*
X99653600Y-130822798D01*
X99568832Y-130396642D01*
X99327434Y-130035364D01*
X98966156Y-129793966D01*
X98540000Y-129709198D01*
X98113844Y-129793966D01*
X97752566Y-130035364D01*
X97511168Y-130396642D01*
X97426400Y-130822798D01*
X97113600Y-130822798D01*
X97028832Y-130396642D01*
X96787434Y-130035364D01*
X96426156Y-129793966D01*
X96000000Y-129709198D01*
X95573844Y-129793966D01*
X95212566Y-130035364D01*
X94971168Y-130396642D01*
X94886400Y-130822798D01*
X86703128Y-130822798D01*
X83095165Y-127214835D01*
X82973507Y-127133545D01*
X82830000Y-127105000D01*
X81225330Y-127105000D01*
X80860000Y-126739670D01*
X80860000Y-126035038D01*
X81057503Y-125953432D01*
X81342431Y-125669000D01*
X81496824Y-125297182D01*
X81497175Y-124894584D01*
X81343432Y-124522497D01*
X81059000Y-124237569D01*
X80980565Y-124205000D01*
X81604670Y-124205000D01*
X82095128Y-124695458D01*
X82013176Y-124892818D01*
X82012825Y-125295416D01*
X82166568Y-125667503D01*
X82451000Y-125952431D01*
X82822818Y-126106824D01*
X83225416Y-126107175D01*
X83597503Y-125953432D01*
X83882431Y-125669000D01*
X84036824Y-125297182D01*
X84036825Y-125295416D01*
X84552825Y-125295416D01*
X84706568Y-125667503D01*
X84991000Y-125952431D01*
X85362818Y-126106824D01*
X85765416Y-126107175D01*
X86137503Y-125953432D01*
X86422431Y-125669000D01*
X86576824Y-125297182D01*
X86576825Y-125295416D01*
X87092825Y-125295416D01*
X87246568Y-125667503D01*
X87531000Y-125952431D01*
X87902818Y-126106824D01*
X88305416Y-126107175D01*
X88677503Y-125953432D01*
X88962431Y-125669000D01*
X89116824Y-125297182D01*
X89117175Y-124894584D01*
X88963432Y-124522497D01*
X88679000Y-124237569D01*
X88307182Y-124083176D01*
X87904584Y-124082825D01*
X87532497Y-124236568D01*
X87247569Y-124521000D01*
X87093176Y-124892818D01*
X87092825Y-125295416D01*
X86576825Y-125295416D01*
X86577175Y-124894584D01*
X86423432Y-124522497D01*
X86139000Y-124237569D01*
X85767182Y-124083176D01*
X85364584Y-124082825D01*
X84992497Y-124236568D01*
X84707569Y-124521000D01*
X84553176Y-124892818D01*
X84552825Y-125295416D01*
X84036825Y-125295416D01*
X84037175Y-124894584D01*
X83883432Y-124522497D01*
X83599000Y-124237569D01*
X83227182Y-124083176D01*
X82824584Y-124082825D01*
X82625440Y-124165110D01*
X82025165Y-123564835D01*
X81903507Y-123483545D01*
X81760000Y-123455000D01*
X80956901Y-123455000D01*
X81057503Y-123413432D01*
X81342431Y-123129000D01*
X81496824Y-122757182D01*
X81496825Y-122755416D01*
X82012825Y-122755416D01*
X82166568Y-123127503D01*
X82451000Y-123412431D01*
X82822818Y-123566824D01*
X83225416Y-123567175D01*
X83597503Y-123413432D01*
X83882431Y-123129000D01*
X84036824Y-122757182D01*
X84036825Y-122755416D01*
X84552825Y-122755416D01*
X84706568Y-123127503D01*
X84991000Y-123412431D01*
X85362818Y-123566824D01*
X85765416Y-123567175D01*
X86137503Y-123413432D01*
X86422431Y-123129000D01*
X86576824Y-122757182D01*
X86576825Y-122755416D01*
X87092825Y-122755416D01*
X87246568Y-123127503D01*
X87531000Y-123412431D01*
X87902818Y-123566824D01*
X88305416Y-123567175D01*
X88677503Y-123413432D01*
X88962431Y-123129000D01*
X89116824Y-122757182D01*
X89117175Y-122354584D01*
X88963432Y-121982497D01*
X88679000Y-121697569D01*
X88307182Y-121543176D01*
X87904584Y-121542825D01*
X87532497Y-121696568D01*
X87247569Y-121981000D01*
X87093176Y-122352818D01*
X87092825Y-122755416D01*
X86576825Y-122755416D01*
X86577175Y-122354584D01*
X86423432Y-121982497D01*
X86139000Y-121697569D01*
X85767182Y-121543176D01*
X85364584Y-121542825D01*
X84992497Y-121696568D01*
X84707569Y-121981000D01*
X84553176Y-122352818D01*
X84552825Y-122755416D01*
X84036825Y-122755416D01*
X84037175Y-122354584D01*
X83883432Y-121982497D01*
X83599000Y-121697569D01*
X83227182Y-121543176D01*
X82824584Y-121542825D01*
X82452497Y-121696568D01*
X82167569Y-121981000D01*
X82013176Y-122352818D01*
X82012825Y-122755416D01*
X81496825Y-122755416D01*
X81497175Y-122354584D01*
X81343432Y-121982497D01*
X81059000Y-121697569D01*
X80687182Y-121543176D01*
X80284584Y-121542825D01*
X79912497Y-121696568D01*
X79627569Y-121981000D01*
X79473176Y-122352818D01*
X79472825Y-122755416D01*
X79626568Y-123127503D01*
X79911000Y-123412431D01*
X80013517Y-123455000D01*
X79530000Y-123455000D01*
X79386494Y-123483545D01*
X79326630Y-123523545D01*
X79264835Y-123564835D01*
X78934835Y-123894835D01*
X78853545Y-124016493D01*
X78837896Y-124095165D01*
X78825000Y-124160000D01*
X78825000Y-124574696D01*
X78803432Y-124522497D01*
X78519000Y-124237569D01*
X78147182Y-124083176D01*
X77744584Y-124082825D01*
X77372497Y-124236568D01*
X77087569Y-124521000D01*
X76933176Y-124892818D01*
X76932825Y-125295416D01*
X77086568Y-125667503D01*
X77371000Y-125952431D01*
X77742818Y-126106824D01*
X78145416Y-126107175D01*
X78517503Y-125953432D01*
X78802431Y-125669000D01*
X78825000Y-125614648D01*
X78825000Y-126264670D01*
X77774670Y-127315000D01*
X68400000Y-127315000D01*
X68256494Y-127343545D01*
X68134835Y-127424835D01*
X65059653Y-130500017D01*
X64931078Y-130499905D01*
X64728857Y-130583461D01*
X64574005Y-130738043D01*
X64490096Y-130940118D01*
X64489905Y-131158922D01*
X52482813Y-131158922D01*
X52467465Y-131077356D01*
X52412712Y-130992268D01*
X52329169Y-130935185D01*
X52230000Y-130915103D01*
X50930000Y-130915103D01*
X50837356Y-130932535D01*
X50752268Y-130987288D01*
X50695185Y-131070831D01*
X50675103Y-131170000D01*
X46941500Y-131170000D01*
X47194437Y-130917064D01*
X47128916Y-130717416D01*
X46665192Y-130591285D01*
X46188498Y-130652214D01*
X46031084Y-130717416D01*
X45965563Y-130917064D01*
X44325000Y-130917064D01*
X44325000Y-124289502D01*
X60359094Y-124289502D01*
X60715422Y-125151883D01*
X61374646Y-125812259D01*
X62236404Y-126170092D01*
X63169502Y-126170906D01*
X63389535Y-126079990D01*
X67088510Y-126079990D01*
X67168104Y-126291151D01*
X67672809Y-126436175D01*
X68194595Y-126377018D01*
X68401896Y-126291151D01*
X68481490Y-126079990D01*
X67785000Y-125383500D01*
X67088510Y-126079990D01*
X63389535Y-126079990D01*
X64031883Y-125814578D01*
X64692259Y-125155354D01*
X64763905Y-124982809D01*
X66443825Y-124982809D01*
X66502982Y-125504595D01*
X66588849Y-125711896D01*
X66800010Y-125791490D01*
X67496500Y-125095000D01*
X68073500Y-125095000D01*
X68769990Y-125791490D01*
X68981151Y-125711896D01*
X69100824Y-125295416D01*
X69312825Y-125295416D01*
X69466568Y-125667503D01*
X69751000Y-125952431D01*
X70122818Y-126106824D01*
X70525416Y-126107175D01*
X70897503Y-125953432D01*
X71182431Y-125669000D01*
X71336824Y-125297182D01*
X71336825Y-125295416D01*
X71852825Y-125295416D01*
X72006568Y-125667503D01*
X72291000Y-125952431D01*
X72662818Y-126106824D01*
X73065416Y-126107175D01*
X73437503Y-125953432D01*
X73722431Y-125669000D01*
X73876824Y-125297182D01*
X73876825Y-125295416D01*
X74392825Y-125295416D01*
X74546568Y-125667503D01*
X74831000Y-125952431D01*
X75202818Y-126106824D01*
X75605416Y-126107175D01*
X75977503Y-125953432D01*
X76262431Y-125669000D01*
X76416824Y-125297182D01*
X76417175Y-124894584D01*
X76263432Y-124522497D01*
X75979000Y-124237569D01*
X75607182Y-124083176D01*
X75204584Y-124082825D01*
X74832497Y-124236568D01*
X74547569Y-124521000D01*
X74393176Y-124892818D01*
X74392825Y-125295416D01*
X73876825Y-125295416D01*
X73877175Y-124894584D01*
X73723432Y-124522497D01*
X73439000Y-124237569D01*
X73067182Y-124083176D01*
X72664584Y-124082825D01*
X72292497Y-124236568D01*
X72007569Y-124521000D01*
X71853176Y-124892818D01*
X71852825Y-125295416D01*
X71336825Y-125295416D01*
X71337175Y-124894584D01*
X71183432Y-124522497D01*
X70899000Y-124237569D01*
X70527182Y-124083176D01*
X70124584Y-124082825D01*
X69752497Y-124236568D01*
X69467569Y-124521000D01*
X69313176Y-124892818D01*
X69312825Y-125295416D01*
X69100824Y-125295416D01*
X69126175Y-125207191D01*
X69067018Y-124685405D01*
X68981151Y-124478104D01*
X68769990Y-124398510D01*
X68073500Y-125095000D01*
X67496500Y-125095000D01*
X66800010Y-124398510D01*
X66588849Y-124478104D01*
X66443825Y-124982809D01*
X64763905Y-124982809D01*
X65050092Y-124293596D01*
X65050749Y-123539990D01*
X67088510Y-123539990D01*
X67168104Y-123751151D01*
X67381056Y-123812341D01*
X67375405Y-123812982D01*
X67168104Y-123898849D01*
X67088510Y-124110010D01*
X67785000Y-124806500D01*
X68481490Y-124110010D01*
X68401896Y-123898849D01*
X68188944Y-123837659D01*
X68194595Y-123837018D01*
X68401896Y-123751151D01*
X68481490Y-123539990D01*
X67785000Y-122843500D01*
X67088510Y-123539990D01*
X65050749Y-123539990D01*
X65050906Y-123360498D01*
X64694578Y-122498117D01*
X64639367Y-122442809D01*
X66443825Y-122442809D01*
X66502982Y-122964595D01*
X66588849Y-123171896D01*
X66800010Y-123251490D01*
X67496500Y-122555000D01*
X68073500Y-122555000D01*
X68769990Y-123251490D01*
X68981151Y-123171896D01*
X69100824Y-122755416D01*
X69312825Y-122755416D01*
X69466568Y-123127503D01*
X69751000Y-123412431D01*
X70122818Y-123566824D01*
X70525416Y-123567175D01*
X70897503Y-123413432D01*
X71182431Y-123129000D01*
X71336824Y-122757182D01*
X71336825Y-122755416D01*
X71852825Y-122755416D01*
X72006568Y-123127503D01*
X72291000Y-123412431D01*
X72662818Y-123566824D01*
X73065416Y-123567175D01*
X73437503Y-123413432D01*
X73722431Y-123129000D01*
X73876824Y-122757182D01*
X73876825Y-122755416D01*
X74392825Y-122755416D01*
X74546568Y-123127503D01*
X74831000Y-123412431D01*
X75202818Y-123566824D01*
X75605416Y-123567175D01*
X75977503Y-123413432D01*
X76262431Y-123129000D01*
X76416824Y-122757182D01*
X76416825Y-122755416D01*
X76932825Y-122755416D01*
X77086568Y-123127503D01*
X77371000Y-123412431D01*
X77742818Y-123566824D01*
X78145416Y-123567175D01*
X78517503Y-123413432D01*
X78802431Y-123129000D01*
X78956824Y-122757182D01*
X78957175Y-122354584D01*
X78803432Y-121982497D01*
X78519000Y-121697569D01*
X78147182Y-121543176D01*
X77744584Y-121542825D01*
X77372497Y-121696568D01*
X77087569Y-121981000D01*
X76933176Y-122352818D01*
X76932825Y-122755416D01*
X76416825Y-122755416D01*
X76417175Y-122354584D01*
X76263432Y-121982497D01*
X75979000Y-121697569D01*
X75607182Y-121543176D01*
X75204584Y-121542825D01*
X74832497Y-121696568D01*
X74547569Y-121981000D01*
X74393176Y-122352818D01*
X74392825Y-122755416D01*
X73876825Y-122755416D01*
X73877175Y-122354584D01*
X73723432Y-121982497D01*
X73439000Y-121697569D01*
X73067182Y-121543176D01*
X72664584Y-121542825D01*
X72292497Y-121696568D01*
X72007569Y-121981000D01*
X71853176Y-122352818D01*
X71852825Y-122755416D01*
X71336825Y-122755416D01*
X71337175Y-122354584D01*
X71183432Y-121982497D01*
X70899000Y-121697569D01*
X70825000Y-121666841D01*
X70825000Y-119972106D01*
X73517107Y-117280000D01*
X81439936Y-117280000D01*
X81560118Y-117329904D01*
X81778922Y-117330095D01*
X81981143Y-117246539D01*
X82135995Y-117091957D01*
X82219904Y-116889882D01*
X82220095Y-116671078D01*
X82136539Y-116468857D01*
X81981957Y-116314005D01*
X81779882Y-116230096D01*
X81561078Y-116229905D01*
X81439839Y-116280000D01*
X73310000Y-116280000D01*
X73118658Y-116318060D01*
X72956446Y-116426447D01*
X69971447Y-119411447D01*
X69863060Y-119573658D01*
X69825000Y-119765000D01*
X69825000Y-121666610D01*
X69752497Y-121696568D01*
X69467569Y-121981000D01*
X69313176Y-122352818D01*
X69312825Y-122755416D01*
X69100824Y-122755416D01*
X69126175Y-122667191D01*
X69067018Y-122145405D01*
X68981151Y-121938104D01*
X68769990Y-121858510D01*
X68073500Y-122555000D01*
X67496500Y-122555000D01*
X66800010Y-121858510D01*
X66588849Y-121938104D01*
X66443825Y-122442809D01*
X64639367Y-122442809D01*
X64035354Y-121837741D01*
X63390586Y-121570010D01*
X67088510Y-121570010D01*
X67785000Y-122266500D01*
X68481490Y-121570010D01*
X68401896Y-121358849D01*
X67897191Y-121213825D01*
X67375405Y-121272982D01*
X67168104Y-121358849D01*
X67088510Y-121570010D01*
X63390586Y-121570010D01*
X63173596Y-121479908D01*
X62240498Y-121479094D01*
X61378117Y-121835422D01*
X60717741Y-122494646D01*
X60359908Y-123356404D01*
X60359094Y-124289502D01*
X44325000Y-124289502D01*
X44325000Y-121975000D01*
X60492100Y-121975000D01*
X60616472Y-121950261D01*
X60721910Y-121879810D01*
X60792361Y-121774372D01*
X60817100Y-121650000D01*
X60817100Y-115018922D01*
X83249905Y-115018922D01*
X83333461Y-115221143D01*
X83425000Y-115312842D01*
X83425000Y-115710000D01*
X83453545Y-115853507D01*
X83534835Y-115975165D01*
X89715128Y-122155458D01*
X89633176Y-122352818D01*
X89632825Y-122755416D01*
X89786568Y-123127503D01*
X90071000Y-123412431D01*
X90442818Y-123566824D01*
X90845416Y-123567175D01*
X91217503Y-123413432D01*
X91502431Y-123129000D01*
X91525000Y-123074648D01*
X91525000Y-123684670D01*
X91044542Y-124165128D01*
X90847182Y-124083176D01*
X90444584Y-124082825D01*
X90072497Y-124236568D01*
X89787569Y-124521000D01*
X89633176Y-124892818D01*
X89632825Y-125295416D01*
X89786568Y-125667503D01*
X90071000Y-125952431D01*
X90442818Y-126106824D01*
X90845416Y-126107175D01*
X91217503Y-125953432D01*
X91502431Y-125669000D01*
X91656824Y-125297182D01*
X91656825Y-125295416D01*
X92172825Y-125295416D01*
X92326568Y-125667503D01*
X92611000Y-125952431D01*
X92982818Y-126106824D01*
X93385416Y-126107175D01*
X93757503Y-125953432D01*
X94042431Y-125669000D01*
X94196824Y-125297182D01*
X94197175Y-124894584D01*
X94043432Y-124522497D01*
X93759000Y-124237569D01*
X93387182Y-124083176D01*
X92984584Y-124082825D01*
X92612497Y-124236568D01*
X92327569Y-124521000D01*
X92173176Y-124892818D01*
X92172825Y-125295416D01*
X91656825Y-125295416D01*
X91657175Y-124894584D01*
X91574890Y-124695440D01*
X92165165Y-124105165D01*
X92246455Y-123983507D01*
X92275000Y-123840000D01*
X92275000Y-123002699D01*
X92326568Y-123127503D01*
X92611000Y-123412431D01*
X92982818Y-123566824D01*
X93385416Y-123567175D01*
X93757503Y-123413432D01*
X94042431Y-123129000D01*
X94196824Y-122757182D01*
X94197175Y-122354584D01*
X94043432Y-121982497D01*
X93759000Y-121697569D01*
X93387182Y-121543176D01*
X92984584Y-121542825D01*
X92612497Y-121696568D01*
X92327569Y-121981000D01*
X92275000Y-122107600D01*
X92275000Y-119827699D01*
X92326568Y-119952503D01*
X92611000Y-120237431D01*
X92982818Y-120391824D01*
X93385416Y-120392175D01*
X93757503Y-120238432D01*
X94042431Y-119954000D01*
X94196824Y-119582182D01*
X94196825Y-119580416D01*
X94712825Y-119580416D01*
X94866568Y-119952503D01*
X95151000Y-120237431D01*
X95522818Y-120391824D01*
X95925416Y-120392175D01*
X96297503Y-120238432D01*
X96575000Y-119961418D01*
X96575000Y-121974050D01*
X96299000Y-121697569D01*
X95927182Y-121543176D01*
X95524584Y-121542825D01*
X95152497Y-121696568D01*
X94867569Y-121981000D01*
X94713176Y-122352818D01*
X94712825Y-122755416D01*
X94866568Y-123127503D01*
X95151000Y-123412431D01*
X95522818Y-123566824D01*
X95925416Y-123567175D01*
X96297503Y-123413432D01*
X96575000Y-123136418D01*
X96575000Y-123714670D01*
X96124542Y-124165128D01*
X95927182Y-124083176D01*
X95524584Y-124082825D01*
X95152497Y-124236568D01*
X94867569Y-124521000D01*
X94713176Y-124892818D01*
X94712825Y-125295416D01*
X94866568Y-125667503D01*
X95151000Y-125952431D01*
X95522818Y-126106824D01*
X95925416Y-126107175D01*
X96297503Y-125953432D01*
X96582431Y-125669000D01*
X96736824Y-125297182D01*
X96736825Y-125295416D01*
X97252825Y-125295416D01*
X97406568Y-125667503D01*
X97691000Y-125952431D01*
X98062818Y-126106824D01*
X98465416Y-126107175D01*
X98837503Y-125953432D01*
X99122431Y-125669000D01*
X99276824Y-125297182D01*
X99276825Y-125295416D01*
X99792825Y-125295416D01*
X99946568Y-125667503D01*
X100231000Y-125952431D01*
X100602818Y-126106824D01*
X101005416Y-126107175D01*
X101377503Y-125953432D01*
X101662431Y-125669000D01*
X101816824Y-125297182D01*
X101816825Y-125295416D01*
X102332825Y-125295416D01*
X102486568Y-125667503D01*
X102771000Y-125952431D01*
X103142818Y-126106824D01*
X103545416Y-126107175D01*
X103917503Y-125953432D01*
X104202431Y-125669000D01*
X104356824Y-125297182D01*
X104356825Y-125295416D01*
X104872825Y-125295416D01*
X105026568Y-125667503D01*
X105311000Y-125952431D01*
X105682818Y-126106824D01*
X106085416Y-126107175D01*
X106457503Y-125953432D01*
X106742431Y-125669000D01*
X106896824Y-125297182D01*
X106896825Y-125295416D01*
X107412825Y-125295416D01*
X107566568Y-125667503D01*
X107851000Y-125952431D01*
X108222818Y-126106824D01*
X108625416Y-126107175D01*
X108997503Y-125953432D01*
X109282431Y-125669000D01*
X109436824Y-125297182D01*
X109437175Y-124894584D01*
X109283432Y-124522497D01*
X108999000Y-124237569D01*
X108627182Y-124083176D01*
X108224584Y-124082825D01*
X107852497Y-124236568D01*
X107567569Y-124521000D01*
X107413176Y-124892818D01*
X107412825Y-125295416D01*
X106896825Y-125295416D01*
X106897175Y-124894584D01*
X106743432Y-124522497D01*
X106459000Y-124237569D01*
X106087182Y-124083176D01*
X105684584Y-124082825D01*
X105312497Y-124236568D01*
X105027569Y-124521000D01*
X104873176Y-124892818D01*
X104872825Y-125295416D01*
X104356825Y-125295416D01*
X104357175Y-124894584D01*
X104203432Y-124522497D01*
X103919000Y-124237569D01*
X103547182Y-124083176D01*
X103144584Y-124082825D01*
X102772497Y-124236568D01*
X102487569Y-124521000D01*
X102333176Y-124892818D01*
X102332825Y-125295416D01*
X101816825Y-125295416D01*
X101817175Y-124894584D01*
X101663432Y-124522497D01*
X101379000Y-124237569D01*
X101007182Y-124083176D01*
X100604584Y-124082825D01*
X100232497Y-124236568D01*
X99947569Y-124521000D01*
X99793176Y-124892818D01*
X99792825Y-125295416D01*
X99276825Y-125295416D01*
X99277175Y-124894584D01*
X99123432Y-124522497D01*
X98839000Y-124237569D01*
X98467182Y-124083176D01*
X98064584Y-124082825D01*
X97692497Y-124236568D01*
X97407569Y-124521000D01*
X97253176Y-124892818D01*
X97252825Y-125295416D01*
X96736825Y-125295416D01*
X96737175Y-124894584D01*
X96654890Y-124695440D01*
X97215165Y-124135165D01*
X97296455Y-124013506D01*
X97325000Y-123870000D01*
X97325000Y-122930093D01*
X97406568Y-123127503D01*
X97691000Y-123412431D01*
X98062818Y-123566824D01*
X98465416Y-123567175D01*
X98837503Y-123413432D01*
X99122431Y-123129000D01*
X99276824Y-122757182D01*
X99276825Y-122755416D01*
X99792825Y-122755416D01*
X99946568Y-123127503D01*
X100231000Y-123412431D01*
X100602818Y-123566824D01*
X101005416Y-123567175D01*
X101377503Y-123413432D01*
X101662431Y-123129000D01*
X101816824Y-122757182D01*
X101816825Y-122755416D01*
X102332825Y-122755416D01*
X102486568Y-123127503D01*
X102771000Y-123412431D01*
X103142818Y-123566824D01*
X103545416Y-123567175D01*
X103917503Y-123413432D01*
X104202431Y-123129000D01*
X104356824Y-122757182D01*
X104356825Y-122755416D01*
X104872825Y-122755416D01*
X105026568Y-123127503D01*
X105311000Y-123412431D01*
X105682818Y-123566824D01*
X106085416Y-123567175D01*
X106151208Y-123539990D01*
X107728510Y-123539990D01*
X107808104Y-123751151D01*
X108312809Y-123896175D01*
X108834595Y-123837018D01*
X109041896Y-123751151D01*
X109121490Y-123539990D01*
X108425000Y-122843500D01*
X107728510Y-123539990D01*
X106151208Y-123539990D01*
X106457503Y-123413432D01*
X106742431Y-123129000D01*
X106896824Y-122757182D01*
X106897098Y-122442809D01*
X107083825Y-122442809D01*
X107142982Y-122964595D01*
X107228849Y-123171896D01*
X107440010Y-123251490D01*
X108136500Y-122555000D01*
X108713500Y-122555000D01*
X109409990Y-123251490D01*
X109621151Y-123171896D01*
X109766175Y-122667191D01*
X109707018Y-122145405D01*
X109621151Y-121938104D01*
X109409990Y-121858510D01*
X108713500Y-122555000D01*
X108136500Y-122555000D01*
X107440010Y-121858510D01*
X107228849Y-121938104D01*
X107083825Y-122442809D01*
X106897098Y-122442809D01*
X106897175Y-122354584D01*
X106743432Y-121982497D01*
X106459000Y-121697569D01*
X106151806Y-121570010D01*
X107728510Y-121570010D01*
X108425000Y-122266500D01*
X109121490Y-121570010D01*
X109041896Y-121358849D01*
X108537191Y-121213825D01*
X108015405Y-121272982D01*
X107808104Y-121358849D01*
X107728510Y-121570010D01*
X106151806Y-121570010D01*
X106087182Y-121543176D01*
X105684584Y-121542825D01*
X105312497Y-121696568D01*
X105027569Y-121981000D01*
X104873176Y-122352818D01*
X104872825Y-122755416D01*
X104356825Y-122755416D01*
X104357175Y-122354584D01*
X104203432Y-121982497D01*
X103919000Y-121697569D01*
X103547182Y-121543176D01*
X103144584Y-121542825D01*
X102772497Y-121696568D01*
X102487569Y-121981000D01*
X102333176Y-122352818D01*
X102332825Y-122755416D01*
X101816825Y-122755416D01*
X101817175Y-122354584D01*
X101663432Y-121982497D01*
X101379000Y-121697569D01*
X101007182Y-121543176D01*
X100604584Y-121542825D01*
X100232497Y-121696568D01*
X99947569Y-121981000D01*
X99793176Y-122352818D01*
X99792825Y-122755416D01*
X99276825Y-122755416D01*
X99277175Y-122354584D01*
X99123432Y-121982497D01*
X98839000Y-121697569D01*
X98467182Y-121543176D01*
X98064584Y-121542825D01*
X97692497Y-121696568D01*
X97407569Y-121981000D01*
X97325000Y-122179847D01*
X97325000Y-119755093D01*
X97406568Y-119952503D01*
X97691000Y-120237431D01*
X98062818Y-120391824D01*
X98465416Y-120392175D01*
X98837503Y-120238432D01*
X99122431Y-119954000D01*
X99276824Y-119582182D01*
X99276825Y-119580416D01*
X99792825Y-119580416D01*
X99946568Y-119952503D01*
X100231000Y-120237431D01*
X100602818Y-120391824D01*
X101005416Y-120392175D01*
X101377503Y-120238432D01*
X101662431Y-119954000D01*
X101816824Y-119582182D01*
X101816825Y-119580416D01*
X102332825Y-119580416D01*
X102486568Y-119952503D01*
X102771000Y-120237431D01*
X103142818Y-120391824D01*
X103545416Y-120392175D01*
X103917503Y-120238432D01*
X104202431Y-119954000D01*
X104356824Y-119582182D01*
X104357175Y-119179584D01*
X104203432Y-118807497D01*
X103919000Y-118522569D01*
X103547182Y-118368176D01*
X103144584Y-118367825D01*
X102772497Y-118521568D01*
X102487569Y-118806000D01*
X102333176Y-119177818D01*
X102332825Y-119580416D01*
X101816825Y-119580416D01*
X101817175Y-119179584D01*
X101663432Y-118807497D01*
X101379000Y-118522569D01*
X101007182Y-118368176D01*
X100604584Y-118367825D01*
X100232497Y-118521568D01*
X99947569Y-118806000D01*
X99793176Y-119177818D01*
X99792825Y-119580416D01*
X99276825Y-119580416D01*
X99277175Y-119179584D01*
X99123432Y-118807497D01*
X98839000Y-118522569D01*
X98467182Y-118368176D01*
X98064584Y-118367825D01*
X97692497Y-118521568D01*
X97407569Y-118806000D01*
X97325000Y-119004847D01*
X97325000Y-118285330D01*
X104245330Y-111365000D01*
X139523790Y-111365000D01*
X139533966Y-111416156D01*
X139775364Y-111777434D01*
X140136642Y-112018832D01*
X140562798Y-112103600D01*
X140917202Y-112103600D01*
X141343358Y-112018832D01*
X141704636Y-111777434D01*
X141946034Y-111416156D01*
X142030802Y-110990000D01*
X141946034Y-110563844D01*
X141704636Y-110202566D01*
X141343358Y-109961168D01*
X140917202Y-109876400D01*
X140562798Y-109876400D01*
X140136642Y-109961168D01*
X139775364Y-110202566D01*
X139533966Y-110563844D01*
X139523790Y-110615000D01*
X104090000Y-110615000D01*
X103946494Y-110643545D01*
X103824835Y-110724835D01*
X96684835Y-117864835D01*
X96603545Y-117986493D01*
X96603545Y-117986494D01*
X96575000Y-118130000D01*
X96575000Y-118799050D01*
X96299000Y-118522569D01*
X95927182Y-118368176D01*
X95524584Y-118367825D01*
X95152497Y-118521568D01*
X94867569Y-118806000D01*
X94713176Y-119177818D01*
X94712825Y-119580416D01*
X94196825Y-119580416D01*
X94197175Y-119179584D01*
X94043432Y-118807497D01*
X93759000Y-118522569D01*
X93387182Y-118368176D01*
X92984584Y-118367825D01*
X92612497Y-118521568D01*
X92327569Y-118806000D01*
X92275000Y-118932600D01*
X92275000Y-116040000D01*
X92262104Y-115975165D01*
X92246455Y-115896493D01*
X92165165Y-115774835D01*
X87569983Y-111179653D01*
X87570095Y-111051078D01*
X87486539Y-110848857D01*
X87331957Y-110694005D01*
X87129882Y-110610096D01*
X86911078Y-110609905D01*
X86708857Y-110693461D01*
X86554005Y-110848043D01*
X86470096Y-111050118D01*
X86469905Y-111268922D01*
X86553461Y-111471143D01*
X86708043Y-111625995D01*
X86910118Y-111709904D01*
X87039687Y-111710017D01*
X91525000Y-116195330D01*
X91525000Y-118859696D01*
X91503432Y-118807497D01*
X91219000Y-118522569D01*
X90847182Y-118368176D01*
X90444584Y-118367825D01*
X90072497Y-118521568D01*
X89787569Y-118806000D01*
X89633176Y-119177818D01*
X89632825Y-119580416D01*
X89786568Y-119952503D01*
X90071000Y-120237431D01*
X90442818Y-120391824D01*
X90845416Y-120392175D01*
X91217503Y-120238432D01*
X91502431Y-119954000D01*
X91525000Y-119899648D01*
X91525000Y-122034696D01*
X91503432Y-121982497D01*
X91219000Y-121697569D01*
X90847182Y-121543176D01*
X90444584Y-121542825D01*
X90245440Y-121625110D01*
X84175000Y-115554670D01*
X84175000Y-115312793D01*
X84265995Y-115221957D01*
X84349904Y-115019882D01*
X84350095Y-114801078D01*
X84266539Y-114598857D01*
X84111957Y-114444005D01*
X83909882Y-114360096D01*
X83691078Y-114359905D01*
X83488857Y-114443461D01*
X83334005Y-114598043D01*
X83250096Y-114800118D01*
X83249905Y-115018922D01*
X60817100Y-115018922D01*
X60817100Y-112250000D01*
X60792361Y-112125628D01*
X60721910Y-112020190D01*
X60616472Y-111949739D01*
X60492100Y-111925000D01*
X44325000Y-111925000D01*
X44325000Y-108560000D01*
X77991073Y-108560000D01*
X77991073Y-111560000D01*
X78008505Y-111652644D01*
X78063258Y-111737732D01*
X78146801Y-111794815D01*
X78245970Y-111814897D01*
X80905000Y-111814897D01*
X80905000Y-112867207D01*
X80814005Y-112958043D01*
X80730096Y-113160118D01*
X80729905Y-113378922D01*
X80813461Y-113581143D01*
X80968043Y-113735995D01*
X81170118Y-113819904D01*
X81388922Y-113820095D01*
X81591143Y-113736539D01*
X81745995Y-113581957D01*
X81829904Y-113379882D01*
X81830095Y-113161078D01*
X81746539Y-112958857D01*
X81655000Y-112867158D01*
X81655000Y-111814897D01*
X84314030Y-111814897D01*
X84406674Y-111797465D01*
X84491762Y-111742712D01*
X84548845Y-111659169D01*
X84568927Y-111560000D01*
X84568927Y-108560000D01*
X84551495Y-108467356D01*
X84496742Y-108382268D01*
X84413199Y-108325185D01*
X84314030Y-108305103D01*
X78245970Y-108305103D01*
X78153326Y-108322535D01*
X78068238Y-108377288D01*
X78011155Y-108460831D01*
X77991073Y-108560000D01*
X44325000Y-108560000D01*
X44325000Y-105735000D01*
X67400000Y-105735000D01*
X67524372Y-105710261D01*
X67629810Y-105639810D01*
X67700261Y-105534372D01*
X67725000Y-105410000D01*
X67725000Y-104720510D01*
X109573073Y-104720510D01*
X109573073Y-106719490D01*
X109590505Y-106812134D01*
X109645258Y-106897222D01*
X109728801Y-106954305D01*
X109827970Y-106974387D01*
X111826950Y-106974387D01*
X111919594Y-106956955D01*
X112004682Y-106902202D01*
X112061765Y-106818659D01*
X112081847Y-106719490D01*
X112081847Y-104720510D01*
X112064415Y-104627866D01*
X112009662Y-104542778D01*
X111926119Y-104485695D01*
X111826950Y-104465613D01*
X109827970Y-104465613D01*
X109735326Y-104483045D01*
X109650238Y-104537798D01*
X109593155Y-104621341D01*
X109573073Y-104720510D01*
X67725000Y-104720510D01*
X67725000Y-103445869D01*
X113216759Y-103445869D01*
X113428384Y-103958040D01*
X113819899Y-104350239D01*
X114331700Y-104562757D01*
X114885869Y-104563241D01*
X115398040Y-104351616D01*
X115790239Y-103960101D01*
X116002757Y-103448300D01*
X116002759Y-103445869D01*
X123376759Y-103445869D01*
X123588384Y-103958040D01*
X123979899Y-104350239D01*
X124491700Y-104562757D01*
X125045869Y-104563241D01*
X125558040Y-104351616D01*
X125950239Y-103960101D01*
X126162757Y-103448300D01*
X126162759Y-103445869D01*
X130996759Y-103445869D01*
X131208384Y-103958040D01*
X131599899Y-104350239D01*
X132111700Y-104562757D01*
X132665869Y-104563241D01*
X133178040Y-104351616D01*
X133570239Y-103960101D01*
X133782757Y-103448300D01*
X133783241Y-102894131D01*
X133571616Y-102381960D01*
X133180101Y-101989761D01*
X132668300Y-101777243D01*
X132114131Y-101776759D01*
X131601960Y-101988384D01*
X131209761Y-102379899D01*
X130997243Y-102891700D01*
X130996759Y-103445869D01*
X126162759Y-103445869D01*
X126163241Y-102894131D01*
X125951616Y-102381960D01*
X125560101Y-101989761D01*
X125048300Y-101777243D01*
X124494131Y-101776759D01*
X123981960Y-101988384D01*
X123589761Y-102379899D01*
X123377243Y-102891700D01*
X123376759Y-103445869D01*
X116002759Y-103445869D01*
X116003241Y-102894131D01*
X115791616Y-102381960D01*
X115400101Y-101989761D01*
X114888300Y-101777243D01*
X114334131Y-101776759D01*
X113821960Y-101988384D01*
X113429761Y-102379899D01*
X113217243Y-102891700D01*
X113216759Y-103445869D01*
X67725000Y-103445869D01*
X67725000Y-99403500D01*
X77687970Y-99403500D01*
X77687970Y-102205023D01*
X77772920Y-102410112D01*
X77929888Y-102567079D01*
X78134977Y-102652030D01*
X80936500Y-102652030D01*
X81076000Y-102512530D01*
X81076000Y-99264000D01*
X81484000Y-99264000D01*
X81484000Y-102512530D01*
X81623500Y-102652030D01*
X84425023Y-102652030D01*
X84630112Y-102567079D01*
X84787080Y-102410112D01*
X84872030Y-102205023D01*
X84872030Y-101420000D01*
X137365103Y-101420000D01*
X137365103Y-103820000D01*
X137382535Y-103912644D01*
X137437288Y-103997732D01*
X137520831Y-104054815D01*
X137620000Y-104074897D01*
X140020000Y-104074897D01*
X140112644Y-104057465D01*
X140197732Y-104002712D01*
X140254815Y-103919169D01*
X140274897Y-103820000D01*
X140274897Y-101420000D01*
X140257465Y-101327356D01*
X140202712Y-101242268D01*
X140119169Y-101185185D01*
X140020000Y-101165103D01*
X137620000Y-101165103D01*
X137527356Y-101182535D01*
X137442268Y-101237288D01*
X137385185Y-101320831D01*
X137365103Y-101420000D01*
X84872030Y-101420000D01*
X84872030Y-99407157D01*
X137369749Y-99407157D01*
X137590033Y-99940286D01*
X137997569Y-100348533D01*
X138530312Y-100569748D01*
X139107157Y-100570251D01*
X139640286Y-100349967D01*
X140048533Y-99942431D01*
X140269748Y-99409688D01*
X140270251Y-98832843D01*
X140049967Y-98299714D01*
X139642431Y-97891467D01*
X139109688Y-97670252D01*
X138532843Y-97669749D01*
X137999714Y-97890033D01*
X137591467Y-98297569D01*
X137370252Y-98830312D01*
X137369749Y-99407157D01*
X84872030Y-99407157D01*
X84872030Y-99403500D01*
X84732530Y-99264000D01*
X81484000Y-99264000D01*
X81076000Y-99264000D01*
X77827470Y-99264000D01*
X77687970Y-99403500D01*
X67725000Y-99403500D01*
X67725000Y-95914977D01*
X77687970Y-95914977D01*
X77687970Y-98716500D01*
X77827470Y-98856000D01*
X81076000Y-98856000D01*
X81076000Y-95607470D01*
X81484000Y-95607470D01*
X81484000Y-98856000D01*
X84732530Y-98856000D01*
X84872030Y-98716500D01*
X84872030Y-95914977D01*
X84827491Y-95807449D01*
X109577754Y-95807449D01*
X109767576Y-96266855D01*
X110118757Y-96618648D01*
X110577831Y-96809273D01*
X111074909Y-96809706D01*
X111534315Y-96619884D01*
X111886108Y-96268703D01*
X112069989Y-95825869D01*
X113216759Y-95825869D01*
X113428384Y-96338040D01*
X113819899Y-96730239D01*
X114331700Y-96942757D01*
X114885869Y-96943241D01*
X115398040Y-96731616D01*
X115790239Y-96340101D01*
X116002757Y-95828300D01*
X116002759Y-95825869D01*
X128456759Y-95825869D01*
X128668384Y-96338040D01*
X129059899Y-96730239D01*
X129571700Y-96942757D01*
X130125869Y-96943241D01*
X130638040Y-96731616D01*
X131030239Y-96340101D01*
X131210012Y-95907157D01*
X137369749Y-95907157D01*
X137590033Y-96440286D01*
X137997569Y-96848533D01*
X138530312Y-97069748D01*
X139107157Y-97070251D01*
X139640286Y-96849967D01*
X140048533Y-96442431D01*
X140269748Y-95909688D01*
X140270251Y-95332843D01*
X140049967Y-94799714D01*
X139642431Y-94391467D01*
X139109688Y-94170252D01*
X138532843Y-94169749D01*
X137999714Y-94390033D01*
X137591467Y-94797569D01*
X137370252Y-95330312D01*
X137369749Y-95907157D01*
X131210012Y-95907157D01*
X131242757Y-95828300D01*
X131243241Y-95274131D01*
X131031616Y-94761960D01*
X130640101Y-94369761D01*
X130128300Y-94157243D01*
X129574131Y-94156759D01*
X129061960Y-94368384D01*
X128669761Y-94759899D01*
X128457243Y-95271700D01*
X128456759Y-95825869D01*
X116002759Y-95825869D01*
X116003241Y-95274131D01*
X115791616Y-94761960D01*
X115400101Y-94369761D01*
X114888300Y-94157243D01*
X114334131Y-94156759D01*
X113821960Y-94368384D01*
X113429761Y-94759899D01*
X113217243Y-95271700D01*
X113216759Y-95825869D01*
X112069989Y-95825869D01*
X112076733Y-95809629D01*
X112077166Y-95312551D01*
X111887344Y-94853145D01*
X111536163Y-94501352D01*
X111077089Y-94310727D01*
X110580011Y-94310294D01*
X110120605Y-94500116D01*
X109768812Y-94851297D01*
X109578187Y-95310371D01*
X109577754Y-95807449D01*
X84827491Y-95807449D01*
X84787080Y-95709888D01*
X84630112Y-95552921D01*
X84425023Y-95467970D01*
X81623500Y-95467970D01*
X81484000Y-95607470D01*
X81076000Y-95607470D01*
X80936500Y-95467970D01*
X78134977Y-95467970D01*
X77929888Y-95552921D01*
X77772920Y-95709888D01*
X77687970Y-95914977D01*
X67725000Y-95914977D01*
X67725000Y-88900000D01*
X67700261Y-88775628D01*
X67629810Y-88670190D01*
X67524372Y-88599739D01*
X67400000Y-88575000D01*
X44325000Y-88575000D01*
X44325000Y-86525970D01*
X77991073Y-86525970D01*
X77991073Y-89594030D01*
X78008505Y-89686674D01*
X78063258Y-89771762D01*
X78146801Y-89828845D01*
X78245970Y-89848927D01*
X84314030Y-89848927D01*
X84406674Y-89831495D01*
X84491762Y-89776742D01*
X84548845Y-89693199D01*
X84568927Y-89594030D01*
X84568927Y-86525970D01*
X84551495Y-86433326D01*
X84496742Y-86348238D01*
X84413199Y-86291155D01*
X84314030Y-86271073D01*
X78245970Y-86271073D01*
X78153326Y-86288505D01*
X78068238Y-86343258D01*
X78011155Y-86426801D01*
X77991073Y-86525970D01*
X44325000Y-86525970D01*
X44325000Y-76029502D01*
X60359094Y-76029502D01*
X60715422Y-76891883D01*
X61374646Y-77552259D01*
X62236404Y-77910092D01*
X63169502Y-77910906D01*
X64031883Y-77554578D01*
X64551952Y-77035416D01*
X66772825Y-77035416D01*
X66926568Y-77407503D01*
X67211000Y-77692431D01*
X67582818Y-77846824D01*
X67985416Y-77847175D01*
X68357503Y-77693432D01*
X68642431Y-77409000D01*
X68796824Y-77037182D01*
X68796825Y-77035416D01*
X69312825Y-77035416D01*
X69466568Y-77407503D01*
X69751000Y-77692431D01*
X70122818Y-77846824D01*
X70525416Y-77847175D01*
X70897503Y-77693432D01*
X71182431Y-77409000D01*
X71336824Y-77037182D01*
X71336825Y-77035416D01*
X71852825Y-77035416D01*
X72006568Y-77407503D01*
X72291000Y-77692431D01*
X72662818Y-77846824D01*
X73065416Y-77847175D01*
X73437503Y-77693432D01*
X73722431Y-77409000D01*
X73876824Y-77037182D01*
X73877175Y-76634584D01*
X73723432Y-76262497D01*
X73439000Y-75977569D01*
X73067182Y-75823176D01*
X72664584Y-75822825D01*
X72292497Y-75976568D01*
X72007569Y-76261000D01*
X71853176Y-76632818D01*
X71852825Y-77035416D01*
X71336825Y-77035416D01*
X71337175Y-76634584D01*
X71183432Y-76262497D01*
X70899000Y-75977569D01*
X70527182Y-75823176D01*
X70124584Y-75822825D01*
X69752497Y-75976568D01*
X69467569Y-76261000D01*
X69313176Y-76632818D01*
X69312825Y-77035416D01*
X68796825Y-77035416D01*
X68797175Y-76634584D01*
X68643432Y-76262497D01*
X68359000Y-75977569D01*
X67987182Y-75823176D01*
X67584584Y-75822825D01*
X67212497Y-75976568D01*
X66927569Y-76261000D01*
X66773176Y-76632818D01*
X66772825Y-77035416D01*
X64551952Y-77035416D01*
X64692259Y-76895354D01*
X65050092Y-76033596D01*
X65050906Y-75100498D01*
X64800892Y-74495416D01*
X66772825Y-74495416D01*
X66926568Y-74867503D01*
X67211000Y-75152431D01*
X67582818Y-75306824D01*
X67985416Y-75307175D01*
X68357503Y-75153432D01*
X68642431Y-74869000D01*
X68796824Y-74497182D01*
X68796825Y-74495416D01*
X69312825Y-74495416D01*
X69466568Y-74867503D01*
X69751000Y-75152431D01*
X70122818Y-75306824D01*
X70525416Y-75307175D01*
X70897503Y-75153432D01*
X71182431Y-74869000D01*
X71336824Y-74497182D01*
X71336825Y-74495416D01*
X71852825Y-74495416D01*
X72006568Y-74867503D01*
X72291000Y-75152431D01*
X72662818Y-75306824D01*
X73065416Y-75307175D01*
X73437503Y-75153432D01*
X73722431Y-74869000D01*
X73876824Y-74497182D01*
X73876825Y-74495416D01*
X74392825Y-74495416D01*
X74546568Y-74867503D01*
X74831000Y-75152431D01*
X75202818Y-75306824D01*
X75605416Y-75307175D01*
X75804560Y-75224890D01*
X76295000Y-75715330D01*
X76295000Y-76338898D01*
X76263432Y-76262497D01*
X75979000Y-75977569D01*
X75607182Y-75823176D01*
X75204584Y-75822825D01*
X74832497Y-75976568D01*
X74547569Y-76261000D01*
X74393176Y-76632818D01*
X74392825Y-77035416D01*
X74546568Y-77407503D01*
X74831000Y-77692431D01*
X75030000Y-77775063D01*
X75030000Y-81665000D01*
X75058545Y-81808507D01*
X75139835Y-81930165D01*
X77794835Y-84585165D01*
X77916493Y-84666455D01*
X78060000Y-84695000D01*
X85704670Y-84695000D01*
X94000017Y-92990347D01*
X93999905Y-93118922D01*
X94083461Y-93321143D01*
X94238043Y-93475995D01*
X94440118Y-93559904D01*
X94658922Y-93560095D01*
X94861143Y-93476539D01*
X95015995Y-93321957D01*
X95099904Y-93119882D01*
X95100095Y-92901078D01*
X95016539Y-92698857D01*
X94861957Y-92544005D01*
X94659882Y-92460096D01*
X94530313Y-92459983D01*
X92880840Y-90810510D01*
X109573073Y-90810510D01*
X109573073Y-92809490D01*
X109590505Y-92902134D01*
X109645258Y-92987222D01*
X109728801Y-93044305D01*
X109827970Y-93064387D01*
X111826950Y-93064387D01*
X111919594Y-93046955D01*
X112004682Y-92992202D01*
X112061765Y-92908659D01*
X112081847Y-92809490D01*
X112081847Y-92075869D01*
X113216759Y-92075869D01*
X113428384Y-92588040D01*
X113819899Y-92980239D01*
X114331700Y-93192757D01*
X114885869Y-93193241D01*
X115398040Y-92981616D01*
X115790239Y-92590101D01*
X116002757Y-92078300D01*
X116002759Y-92075869D01*
X123376759Y-92075869D01*
X123588384Y-92588040D01*
X123979899Y-92980239D01*
X124491700Y-93192757D01*
X125045869Y-93193241D01*
X125558040Y-92981616D01*
X125950239Y-92590101D01*
X126162757Y-92078300D01*
X126162759Y-92075869D01*
X130996759Y-92075869D01*
X131208384Y-92588040D01*
X131599899Y-92980239D01*
X132111700Y-93192757D01*
X132665869Y-93193241D01*
X133178040Y-92981616D01*
X133570239Y-92590101D01*
X133782757Y-92078300D01*
X133783241Y-91524131D01*
X133571616Y-91011960D01*
X133180101Y-90619761D01*
X132668300Y-90407243D01*
X132114131Y-90406759D01*
X131601960Y-90618384D01*
X131209761Y-91009899D01*
X130997243Y-91521700D01*
X130996759Y-92075869D01*
X126162759Y-92075869D01*
X126163241Y-91524131D01*
X125951616Y-91011960D01*
X125560101Y-90619761D01*
X125048300Y-90407243D01*
X124494131Y-90406759D01*
X123981960Y-90618384D01*
X123589761Y-91009899D01*
X123377243Y-91521700D01*
X123376759Y-92075869D01*
X116002759Y-92075869D01*
X116003241Y-91524131D01*
X115791616Y-91011960D01*
X115400101Y-90619761D01*
X114888300Y-90407243D01*
X114334131Y-90406759D01*
X113821960Y-90618384D01*
X113429761Y-91009899D01*
X113217243Y-91521700D01*
X113216759Y-92075869D01*
X112081847Y-92075869D01*
X112081847Y-90810510D01*
X112064415Y-90717866D01*
X112009662Y-90632778D01*
X111926119Y-90575695D01*
X111826950Y-90555613D01*
X109827970Y-90555613D01*
X109735326Y-90573045D01*
X109650238Y-90627798D01*
X109593155Y-90711341D01*
X109573073Y-90810510D01*
X92880840Y-90810510D01*
X91500330Y-89430000D01*
X137365103Y-89430000D01*
X137365103Y-91830000D01*
X137382535Y-91922644D01*
X137437288Y-92007732D01*
X137520831Y-92064815D01*
X137620000Y-92084897D01*
X140020000Y-92084897D01*
X140112644Y-92067465D01*
X140197732Y-92012712D01*
X140254815Y-91929169D01*
X140274897Y-91830000D01*
X140274897Y-89430000D01*
X140257465Y-89337356D01*
X140202712Y-89252268D01*
X140119169Y-89195185D01*
X140020000Y-89175103D01*
X137620000Y-89175103D01*
X137527356Y-89192535D01*
X137442268Y-89247288D01*
X137385185Y-89330831D01*
X137365103Y-89430000D01*
X91500330Y-89430000D01*
X89487487Y-87417157D01*
X137369749Y-87417157D01*
X137590033Y-87950286D01*
X137997569Y-88358533D01*
X138530312Y-88579748D01*
X139107157Y-88580251D01*
X139640286Y-88359967D01*
X140048533Y-87952431D01*
X140269748Y-87419688D01*
X140270251Y-86842843D01*
X140049967Y-86309714D01*
X139642431Y-85901467D01*
X139109688Y-85680252D01*
X138532843Y-85679749D01*
X137999714Y-85900033D01*
X137591467Y-86307569D01*
X137370252Y-86840312D01*
X137369749Y-87417157D01*
X89487487Y-87417157D01*
X86526199Y-84455869D01*
X113216759Y-84455869D01*
X113428384Y-84968040D01*
X113819899Y-85360239D01*
X114331700Y-85572757D01*
X114885869Y-85573241D01*
X115398040Y-85361616D01*
X115790239Y-84970101D01*
X116002757Y-84458300D01*
X116002759Y-84455869D01*
X128456759Y-84455869D01*
X128668384Y-84968040D01*
X129059899Y-85360239D01*
X129571700Y-85572757D01*
X130125869Y-85573241D01*
X130638040Y-85361616D01*
X131030239Y-84970101D01*
X131242757Y-84458300D01*
X131243229Y-83917157D01*
X137369749Y-83917157D01*
X137590033Y-84450286D01*
X137997569Y-84858533D01*
X138530312Y-85079748D01*
X139107157Y-85080251D01*
X139640286Y-84859967D01*
X140048533Y-84452431D01*
X140269748Y-83919688D01*
X140270251Y-83342843D01*
X140049967Y-82809714D01*
X139642431Y-82401467D01*
X139109688Y-82180252D01*
X138532843Y-82179749D01*
X137999714Y-82400033D01*
X137591467Y-82807569D01*
X137370252Y-83340312D01*
X137369749Y-83917157D01*
X131243229Y-83917157D01*
X131243241Y-83904131D01*
X131031616Y-83391960D01*
X130640101Y-82999761D01*
X130128300Y-82787243D01*
X129574131Y-82786759D01*
X129061960Y-82998384D01*
X128669761Y-83389899D01*
X128457243Y-83901700D01*
X128456759Y-84455869D01*
X116002759Y-84455869D01*
X116003241Y-83904131D01*
X115791616Y-83391960D01*
X115400101Y-82999761D01*
X114888300Y-82787243D01*
X114334131Y-82786759D01*
X113821960Y-82998384D01*
X113429761Y-83389899D01*
X113217243Y-83901700D01*
X113216759Y-84455869D01*
X86526199Y-84455869D01*
X86125165Y-84054835D01*
X86003507Y-83973545D01*
X85860000Y-83945000D01*
X78215330Y-83945000D01*
X75780000Y-81509670D01*
X75780000Y-77775038D01*
X75977503Y-77693432D01*
X76262431Y-77409000D01*
X76295000Y-77330565D01*
X76295000Y-80500000D01*
X76323545Y-80643507D01*
X76404835Y-80765165D01*
X78814835Y-83175165D01*
X78936494Y-83256455D01*
X79080000Y-83285000D01*
X97527207Y-83285000D01*
X97618043Y-83375995D01*
X97820118Y-83459904D01*
X98038922Y-83460095D01*
X98241143Y-83376539D01*
X98395995Y-83221957D01*
X98479904Y-83019882D01*
X98480095Y-82801078D01*
X98396539Y-82598857D01*
X98241957Y-82444005D01*
X98039882Y-82360096D01*
X97821078Y-82359905D01*
X97618857Y-82443461D01*
X97527158Y-82535000D01*
X79235330Y-82535000D01*
X78597779Y-81897449D01*
X109577754Y-81897449D01*
X109767576Y-82356855D01*
X110118757Y-82708648D01*
X110577831Y-82899273D01*
X111074909Y-82899706D01*
X111534315Y-82709884D01*
X111886108Y-82358703D01*
X112076733Y-81899629D01*
X112077166Y-81402551D01*
X111887344Y-80943145D01*
X111536163Y-80591352D01*
X111077089Y-80400727D01*
X110580011Y-80400294D01*
X110120605Y-80590116D01*
X109768812Y-80941297D01*
X109578187Y-81400371D01*
X109577754Y-81897449D01*
X78597779Y-81897449D01*
X77045000Y-80344670D01*
X77045000Y-79204502D01*
X126399094Y-79204502D01*
X126755422Y-80066883D01*
X127414646Y-80727259D01*
X128276404Y-81085092D01*
X129209502Y-81085906D01*
X130071883Y-80729578D01*
X130732259Y-80070354D01*
X131090092Y-79208596D01*
X131090906Y-78275498D01*
X130734578Y-77413117D01*
X130075354Y-76752741D01*
X129213596Y-76394908D01*
X128280498Y-76394094D01*
X127418117Y-76750422D01*
X126757741Y-77409646D01*
X126399908Y-78271404D01*
X126399094Y-79204502D01*
X77045000Y-79204502D01*
X77045000Y-77306901D01*
X77086568Y-77407503D01*
X77371000Y-77692431D01*
X77742818Y-77846824D01*
X78145416Y-77847175D01*
X78517503Y-77693432D01*
X78802431Y-77409000D01*
X78956824Y-77037182D01*
X78956825Y-77035416D01*
X79472825Y-77035416D01*
X79626568Y-77407503D01*
X79911000Y-77692431D01*
X80282818Y-77846824D01*
X80685416Y-77847175D01*
X81057503Y-77693432D01*
X81342431Y-77409000D01*
X81496824Y-77037182D01*
X81496825Y-77035416D01*
X82012825Y-77035416D01*
X82166568Y-77407503D01*
X82451000Y-77692431D01*
X82822818Y-77846824D01*
X83225416Y-77847175D01*
X83597503Y-77693432D01*
X83882431Y-77409000D01*
X84036824Y-77037182D01*
X84036825Y-77035416D01*
X84552825Y-77035416D01*
X84706568Y-77407503D01*
X84991000Y-77692431D01*
X85362818Y-77846824D01*
X85765416Y-77847175D01*
X86137503Y-77693432D01*
X86422431Y-77409000D01*
X86576824Y-77037182D01*
X86576825Y-77035416D01*
X87092825Y-77035416D01*
X87246568Y-77407503D01*
X87531000Y-77692431D01*
X87902818Y-77846824D01*
X88305416Y-77847175D01*
X88677503Y-77693432D01*
X88962431Y-77409000D01*
X89116824Y-77037182D01*
X89116825Y-77035416D01*
X89632825Y-77035416D01*
X89786568Y-77407503D01*
X90071000Y-77692431D01*
X90442818Y-77846824D01*
X90845416Y-77847175D01*
X91217503Y-77693432D01*
X91502431Y-77409000D01*
X91656824Y-77037182D01*
X91656825Y-77035416D01*
X92172825Y-77035416D01*
X92326568Y-77407503D01*
X92611000Y-77692431D01*
X92982818Y-77846824D01*
X93385416Y-77847175D01*
X93757503Y-77693432D01*
X94042431Y-77409000D01*
X94196824Y-77037182D01*
X94196825Y-77035416D01*
X94712825Y-77035416D01*
X94866568Y-77407503D01*
X95151000Y-77692431D01*
X95522818Y-77846824D01*
X95925416Y-77847175D01*
X96297503Y-77693432D01*
X96582431Y-77409000D01*
X96736824Y-77037182D01*
X96736825Y-77035416D01*
X97252825Y-77035416D01*
X97406568Y-77407503D01*
X97691000Y-77692431D01*
X98062818Y-77846824D01*
X98465416Y-77847175D01*
X98837503Y-77693432D01*
X99122431Y-77409000D01*
X99276824Y-77037182D01*
X99276825Y-77035416D01*
X99792825Y-77035416D01*
X99946568Y-77407503D01*
X100231000Y-77692431D01*
X100602818Y-77846824D01*
X101005416Y-77847175D01*
X101377503Y-77693432D01*
X101662431Y-77409000D01*
X101816824Y-77037182D01*
X101816825Y-77035416D01*
X102332825Y-77035416D01*
X102486568Y-77407503D01*
X102771000Y-77692431D01*
X103142818Y-77846824D01*
X103545416Y-77847175D01*
X103917503Y-77693432D01*
X104202431Y-77409000D01*
X104356824Y-77037182D01*
X104356825Y-77035416D01*
X104872825Y-77035416D01*
X105026568Y-77407503D01*
X105311000Y-77692431D01*
X105682818Y-77846824D01*
X106085416Y-77847175D01*
X106457503Y-77693432D01*
X106742431Y-77409000D01*
X106896824Y-77037182D01*
X106896825Y-77035416D01*
X107412825Y-77035416D01*
X107566568Y-77407503D01*
X107851000Y-77692431D01*
X108222818Y-77846824D01*
X108625416Y-77847175D01*
X108997503Y-77693432D01*
X109282431Y-77409000D01*
X109436824Y-77037182D01*
X109436825Y-77035416D01*
X109952825Y-77035416D01*
X110106568Y-77407503D01*
X110391000Y-77692431D01*
X110762818Y-77846824D01*
X111165416Y-77847175D01*
X111537503Y-77693432D01*
X111822431Y-77409000D01*
X111976824Y-77037182D01*
X111976825Y-77035416D01*
X112492825Y-77035416D01*
X112646568Y-77407503D01*
X112931000Y-77692431D01*
X113302818Y-77846824D01*
X113705416Y-77847175D01*
X114077503Y-77693432D01*
X114362431Y-77409000D01*
X114516824Y-77037182D01*
X114516825Y-77035416D01*
X115032825Y-77035416D01*
X115186568Y-77407503D01*
X115471000Y-77692431D01*
X115842818Y-77846824D01*
X116245416Y-77847175D01*
X116617503Y-77693432D01*
X116902431Y-77409000D01*
X117056824Y-77037182D01*
X117056825Y-77035416D01*
X117572825Y-77035416D01*
X117726568Y-77407503D01*
X118011000Y-77692431D01*
X118382818Y-77846824D01*
X118785416Y-77847175D01*
X119157503Y-77693432D01*
X119442431Y-77409000D01*
X119596824Y-77037182D01*
X119596825Y-77035416D01*
X120112825Y-77035416D01*
X120266568Y-77407503D01*
X120551000Y-77692431D01*
X120922818Y-77846824D01*
X121325416Y-77847175D01*
X121697503Y-77693432D01*
X121982431Y-77409000D01*
X122136824Y-77037182D01*
X122136825Y-77035416D01*
X122652825Y-77035416D01*
X122806568Y-77407503D01*
X123091000Y-77692431D01*
X123462818Y-77846824D01*
X123865416Y-77847175D01*
X124237503Y-77693432D01*
X124522431Y-77409000D01*
X124676824Y-77037182D01*
X124677175Y-76634584D01*
X124523432Y-76262497D01*
X124239000Y-75977569D01*
X123867182Y-75823176D01*
X123464584Y-75822825D01*
X123092497Y-75976568D01*
X122807569Y-76261000D01*
X122653176Y-76632818D01*
X122652825Y-77035416D01*
X122136825Y-77035416D01*
X122137175Y-76634584D01*
X121983432Y-76262497D01*
X121699000Y-75977569D01*
X121327182Y-75823176D01*
X120924584Y-75822825D01*
X120552497Y-75976568D01*
X120267569Y-76261000D01*
X120113176Y-76632818D01*
X120112825Y-77035416D01*
X119596825Y-77035416D01*
X119597175Y-76634584D01*
X119443432Y-76262497D01*
X119159000Y-75977569D01*
X118787182Y-75823176D01*
X118384584Y-75822825D01*
X118012497Y-75976568D01*
X117727569Y-76261000D01*
X117573176Y-76632818D01*
X117572825Y-77035416D01*
X117056825Y-77035416D01*
X117057175Y-76634584D01*
X116903432Y-76262497D01*
X116619000Y-75977569D01*
X116247182Y-75823176D01*
X115844584Y-75822825D01*
X115472497Y-75976568D01*
X115187569Y-76261000D01*
X115033176Y-76632818D01*
X115032825Y-77035416D01*
X114516825Y-77035416D01*
X114517175Y-76634584D01*
X114363432Y-76262497D01*
X114079000Y-75977569D01*
X113707182Y-75823176D01*
X113304584Y-75822825D01*
X112932497Y-75976568D01*
X112647569Y-76261000D01*
X112493176Y-76632818D01*
X112492825Y-77035416D01*
X111976825Y-77035416D01*
X111977175Y-76634584D01*
X111823432Y-76262497D01*
X111539000Y-75977569D01*
X111167182Y-75823176D01*
X110764584Y-75822825D01*
X110392497Y-75976568D01*
X110107569Y-76261000D01*
X109953176Y-76632818D01*
X109952825Y-77035416D01*
X109436825Y-77035416D01*
X109437175Y-76634584D01*
X109283432Y-76262497D01*
X108999000Y-75977569D01*
X108627182Y-75823176D01*
X108224584Y-75822825D01*
X107852497Y-75976568D01*
X107567569Y-76261000D01*
X107413176Y-76632818D01*
X107412825Y-77035416D01*
X106896825Y-77035416D01*
X106897175Y-76634584D01*
X106743432Y-76262497D01*
X106459000Y-75977569D01*
X106087182Y-75823176D01*
X105684584Y-75822825D01*
X105312497Y-75976568D01*
X105027569Y-76261000D01*
X104873176Y-76632818D01*
X104872825Y-77035416D01*
X104356825Y-77035416D01*
X104357175Y-76634584D01*
X104203432Y-76262497D01*
X103919000Y-75977569D01*
X103547182Y-75823176D01*
X103144584Y-75822825D01*
X102772497Y-75976568D01*
X102487569Y-76261000D01*
X102333176Y-76632818D01*
X102332825Y-77035416D01*
X101816825Y-77035416D01*
X101817175Y-76634584D01*
X101663432Y-76262497D01*
X101379000Y-75977569D01*
X101007182Y-75823176D01*
X100604584Y-75822825D01*
X100232497Y-75976568D01*
X99947569Y-76261000D01*
X99793176Y-76632818D01*
X99792825Y-77035416D01*
X99276825Y-77035416D01*
X99277175Y-76634584D01*
X99123432Y-76262497D01*
X98839000Y-75977569D01*
X98467182Y-75823176D01*
X98064584Y-75822825D01*
X97692497Y-75976568D01*
X97407569Y-76261000D01*
X97253176Y-76632818D01*
X97252825Y-77035416D01*
X96736825Y-77035416D01*
X96737175Y-76634584D01*
X96583432Y-76262497D01*
X96299000Y-75977569D01*
X95927182Y-75823176D01*
X95524584Y-75822825D01*
X95152497Y-75976568D01*
X94867569Y-76261000D01*
X94713176Y-76632818D01*
X94712825Y-77035416D01*
X94196825Y-77035416D01*
X94197175Y-76634584D01*
X94043432Y-76262497D01*
X93759000Y-75977569D01*
X93387182Y-75823176D01*
X92984584Y-75822825D01*
X92612497Y-75976568D01*
X92327569Y-76261000D01*
X92173176Y-76632818D01*
X92172825Y-77035416D01*
X91656825Y-77035416D01*
X91657175Y-76634584D01*
X91503432Y-76262497D01*
X91219000Y-75977569D01*
X90847182Y-75823176D01*
X90444584Y-75822825D01*
X90072497Y-75976568D01*
X89787569Y-76261000D01*
X89633176Y-76632818D01*
X89632825Y-77035416D01*
X89116825Y-77035416D01*
X89117175Y-76634584D01*
X88963432Y-76262497D01*
X88679000Y-75977569D01*
X88307182Y-75823176D01*
X87904584Y-75822825D01*
X87532497Y-75976568D01*
X87247569Y-76261000D01*
X87093176Y-76632818D01*
X87092825Y-77035416D01*
X86576825Y-77035416D01*
X86577175Y-76634584D01*
X86423432Y-76262497D01*
X86139000Y-75977569D01*
X85767182Y-75823176D01*
X85364584Y-75822825D01*
X84992497Y-75976568D01*
X84707569Y-76261000D01*
X84553176Y-76632818D01*
X84552825Y-77035416D01*
X84036825Y-77035416D01*
X84037175Y-76634584D01*
X83883432Y-76262497D01*
X83599000Y-75977569D01*
X83227182Y-75823176D01*
X82824584Y-75822825D01*
X82452497Y-75976568D01*
X82167569Y-76261000D01*
X82013176Y-76632818D01*
X82012825Y-77035416D01*
X81496825Y-77035416D01*
X81497175Y-76634584D01*
X81343432Y-76262497D01*
X81059000Y-75977569D01*
X80687182Y-75823176D01*
X80284584Y-75822825D01*
X79912497Y-75976568D01*
X79627569Y-76261000D01*
X79473176Y-76632818D01*
X79472825Y-77035416D01*
X78956825Y-77035416D01*
X78957175Y-76634584D01*
X78803432Y-76262497D01*
X78519000Y-75977569D01*
X78147182Y-75823176D01*
X77744584Y-75822825D01*
X77372497Y-75976568D01*
X77087569Y-76261000D01*
X77045000Y-76363517D01*
X77045000Y-75560000D01*
X77016455Y-75416494D01*
X77016455Y-75416493D01*
X76935165Y-75294835D01*
X76334872Y-74694542D01*
X76416824Y-74497182D01*
X76416825Y-74495416D01*
X76932825Y-74495416D01*
X77086568Y-74867503D01*
X77371000Y-75152431D01*
X77742818Y-75306824D01*
X78145416Y-75307175D01*
X78517503Y-75153432D01*
X78802431Y-74869000D01*
X78956824Y-74497182D01*
X78956825Y-74495416D01*
X79472825Y-74495416D01*
X79626568Y-74867503D01*
X79911000Y-75152431D01*
X80282818Y-75306824D01*
X80685416Y-75307175D01*
X81057503Y-75153432D01*
X81342431Y-74869000D01*
X81496824Y-74497182D01*
X81496825Y-74495416D01*
X82012825Y-74495416D01*
X82166568Y-74867503D01*
X82451000Y-75152431D01*
X82822818Y-75306824D01*
X83225416Y-75307175D01*
X83597503Y-75153432D01*
X83882431Y-74869000D01*
X84036824Y-74497182D01*
X84036825Y-74495416D01*
X84552825Y-74495416D01*
X84706568Y-74867503D01*
X84991000Y-75152431D01*
X85362818Y-75306824D01*
X85765416Y-75307175D01*
X86137503Y-75153432D01*
X86422431Y-74869000D01*
X86576824Y-74497182D01*
X86576825Y-74495416D01*
X87092825Y-74495416D01*
X87246568Y-74867503D01*
X87531000Y-75152431D01*
X87902818Y-75306824D01*
X88305416Y-75307175D01*
X88677503Y-75153432D01*
X88962431Y-74869000D01*
X89116824Y-74497182D01*
X89116825Y-74495416D01*
X89632825Y-74495416D01*
X89786568Y-74867503D01*
X90071000Y-75152431D01*
X90442818Y-75306824D01*
X90845416Y-75307175D01*
X91217503Y-75153432D01*
X91502431Y-74869000D01*
X91656824Y-74497182D01*
X91656825Y-74495416D01*
X92172825Y-74495416D01*
X92326568Y-74867503D01*
X92611000Y-75152431D01*
X92982818Y-75306824D01*
X93385416Y-75307175D01*
X93757503Y-75153432D01*
X94042431Y-74869000D01*
X94196824Y-74497182D01*
X94196825Y-74495416D01*
X94712825Y-74495416D01*
X94866568Y-74867503D01*
X95151000Y-75152431D01*
X95522818Y-75306824D01*
X95925416Y-75307175D01*
X96297503Y-75153432D01*
X96582431Y-74869000D01*
X96736824Y-74497182D01*
X96736825Y-74495416D01*
X97252825Y-74495416D01*
X97406568Y-74867503D01*
X97691000Y-75152431D01*
X98062818Y-75306824D01*
X98465416Y-75307175D01*
X98837503Y-75153432D01*
X99122431Y-74869000D01*
X99276824Y-74497182D01*
X99276825Y-74495416D01*
X99792825Y-74495416D01*
X99946568Y-74867503D01*
X100231000Y-75152431D01*
X100602818Y-75306824D01*
X101005416Y-75307175D01*
X101377503Y-75153432D01*
X101662431Y-74869000D01*
X101816824Y-74497182D01*
X101816825Y-74495416D01*
X102332825Y-74495416D01*
X102486568Y-74867503D01*
X102771000Y-75152431D01*
X103142818Y-75306824D01*
X103545416Y-75307175D01*
X103917503Y-75153432D01*
X104202431Y-74869000D01*
X104356824Y-74497182D01*
X104356825Y-74495416D01*
X104872825Y-74495416D01*
X105026568Y-74867503D01*
X105311000Y-75152431D01*
X105682818Y-75306824D01*
X106085416Y-75307175D01*
X106457503Y-75153432D01*
X106742431Y-74869000D01*
X106896824Y-74497182D01*
X106896825Y-74495416D01*
X107412825Y-74495416D01*
X107566568Y-74867503D01*
X107851000Y-75152431D01*
X108222818Y-75306824D01*
X108625416Y-75307175D01*
X108997503Y-75153432D01*
X109282431Y-74869000D01*
X109436824Y-74497182D01*
X109436825Y-74495416D01*
X109952825Y-74495416D01*
X110106568Y-74867503D01*
X110391000Y-75152431D01*
X110762818Y-75306824D01*
X111165416Y-75307175D01*
X111537503Y-75153432D01*
X111822431Y-74869000D01*
X111976824Y-74497182D01*
X111976825Y-74495416D01*
X112492825Y-74495416D01*
X112646568Y-74867503D01*
X112931000Y-75152431D01*
X113302818Y-75306824D01*
X113705416Y-75307175D01*
X114077503Y-75153432D01*
X114362431Y-74869000D01*
X114516824Y-74497182D01*
X114516825Y-74495416D01*
X115032825Y-74495416D01*
X115186568Y-74867503D01*
X115471000Y-75152431D01*
X115842818Y-75306824D01*
X116245416Y-75307175D01*
X116617503Y-75153432D01*
X116902431Y-74869000D01*
X117056824Y-74497182D01*
X117056825Y-74495416D01*
X117572825Y-74495416D01*
X117726568Y-74867503D01*
X118011000Y-75152431D01*
X118382818Y-75306824D01*
X118785416Y-75307175D01*
X119157503Y-75153432D01*
X119442431Y-74869000D01*
X119596824Y-74497182D01*
X119596825Y-74495416D01*
X120112825Y-74495416D01*
X120266568Y-74867503D01*
X120551000Y-75152431D01*
X120922818Y-75306824D01*
X121325416Y-75307175D01*
X121697503Y-75153432D01*
X121982431Y-74869000D01*
X122136824Y-74497182D01*
X122136825Y-74495416D01*
X122652825Y-74495416D01*
X122806568Y-74867503D01*
X123091000Y-75152431D01*
X123462818Y-75306824D01*
X123865416Y-75307175D01*
X124237503Y-75153432D01*
X124522431Y-74869000D01*
X124676824Y-74497182D01*
X124677175Y-74094584D01*
X124523432Y-73722497D01*
X124239000Y-73437569D01*
X123867182Y-73283176D01*
X123464584Y-73282825D01*
X123092497Y-73436568D01*
X122807569Y-73721000D01*
X122653176Y-74092818D01*
X122652825Y-74495416D01*
X122136825Y-74495416D01*
X122137175Y-74094584D01*
X121983432Y-73722497D01*
X121699000Y-73437569D01*
X121327182Y-73283176D01*
X120924584Y-73282825D01*
X120552497Y-73436568D01*
X120267569Y-73721000D01*
X120113176Y-74092818D01*
X120112825Y-74495416D01*
X119596825Y-74495416D01*
X119597175Y-74094584D01*
X119443432Y-73722497D01*
X119159000Y-73437569D01*
X118787182Y-73283176D01*
X118384584Y-73282825D01*
X118012497Y-73436568D01*
X117727569Y-73721000D01*
X117573176Y-74092818D01*
X117572825Y-74495416D01*
X117056825Y-74495416D01*
X117057175Y-74094584D01*
X116903432Y-73722497D01*
X116619000Y-73437569D01*
X116247182Y-73283176D01*
X115844584Y-73282825D01*
X115472497Y-73436568D01*
X115187569Y-73721000D01*
X115033176Y-74092818D01*
X115032825Y-74495416D01*
X114516825Y-74495416D01*
X114517175Y-74094584D01*
X114363432Y-73722497D01*
X114079000Y-73437569D01*
X113707182Y-73283176D01*
X113304584Y-73282825D01*
X112932497Y-73436568D01*
X112647569Y-73721000D01*
X112493176Y-74092818D01*
X112492825Y-74495416D01*
X111976825Y-74495416D01*
X111977175Y-74094584D01*
X111823432Y-73722497D01*
X111539000Y-73437569D01*
X111167182Y-73283176D01*
X110764584Y-73282825D01*
X110392497Y-73436568D01*
X110107569Y-73721000D01*
X109953176Y-74092818D01*
X109952825Y-74495416D01*
X109436825Y-74495416D01*
X109437175Y-74094584D01*
X109283432Y-73722497D01*
X108999000Y-73437569D01*
X108627182Y-73283176D01*
X108224584Y-73282825D01*
X107852497Y-73436568D01*
X107567569Y-73721000D01*
X107413176Y-74092818D01*
X107412825Y-74495416D01*
X106896825Y-74495416D01*
X106897175Y-74094584D01*
X106743432Y-73722497D01*
X106459000Y-73437569D01*
X106087182Y-73283176D01*
X105684584Y-73282825D01*
X105312497Y-73436568D01*
X105027569Y-73721000D01*
X104873176Y-74092818D01*
X104872825Y-74495416D01*
X104356825Y-74495416D01*
X104357175Y-74094584D01*
X104203432Y-73722497D01*
X103919000Y-73437569D01*
X103547182Y-73283176D01*
X103144584Y-73282825D01*
X102772497Y-73436568D01*
X102487569Y-73721000D01*
X102333176Y-74092818D01*
X102332825Y-74495416D01*
X101816825Y-74495416D01*
X101817175Y-74094584D01*
X101663432Y-73722497D01*
X101379000Y-73437569D01*
X101007182Y-73283176D01*
X100604584Y-73282825D01*
X100232497Y-73436568D01*
X99947569Y-73721000D01*
X99793176Y-74092818D01*
X99792825Y-74495416D01*
X99276825Y-74495416D01*
X99277175Y-74094584D01*
X99123432Y-73722497D01*
X98839000Y-73437569D01*
X98467182Y-73283176D01*
X98064584Y-73282825D01*
X97692497Y-73436568D01*
X97407569Y-73721000D01*
X97253176Y-74092818D01*
X97252825Y-74495416D01*
X96736825Y-74495416D01*
X96737175Y-74094584D01*
X96583432Y-73722497D01*
X96299000Y-73437569D01*
X95927182Y-73283176D01*
X95524584Y-73282825D01*
X95152497Y-73436568D01*
X94867569Y-73721000D01*
X94713176Y-74092818D01*
X94712825Y-74495416D01*
X94196825Y-74495416D01*
X94197175Y-74094584D01*
X94043432Y-73722497D01*
X93759000Y-73437569D01*
X93387182Y-73283176D01*
X92984584Y-73282825D01*
X92612497Y-73436568D01*
X92327569Y-73721000D01*
X92173176Y-74092818D01*
X92172825Y-74495416D01*
X91656825Y-74495416D01*
X91657175Y-74094584D01*
X91503432Y-73722497D01*
X91219000Y-73437569D01*
X90847182Y-73283176D01*
X90444584Y-73282825D01*
X90072497Y-73436568D01*
X89787569Y-73721000D01*
X89633176Y-74092818D01*
X89632825Y-74495416D01*
X89116825Y-74495416D01*
X89117175Y-74094584D01*
X88963432Y-73722497D01*
X88679000Y-73437569D01*
X88307182Y-73283176D01*
X87904584Y-73282825D01*
X87532497Y-73436568D01*
X87247569Y-73721000D01*
X87093176Y-74092818D01*
X87092825Y-74495416D01*
X86576825Y-74495416D01*
X86577175Y-74094584D01*
X86423432Y-73722497D01*
X86139000Y-73437569D01*
X85767182Y-73283176D01*
X85364584Y-73282825D01*
X84992497Y-73436568D01*
X84707569Y-73721000D01*
X84553176Y-74092818D01*
X84552825Y-74495416D01*
X84036825Y-74495416D01*
X84037175Y-74094584D01*
X83883432Y-73722497D01*
X83599000Y-73437569D01*
X83227182Y-73283176D01*
X82824584Y-73282825D01*
X82452497Y-73436568D01*
X82167569Y-73721000D01*
X82013176Y-74092818D01*
X82012825Y-74495416D01*
X81496825Y-74495416D01*
X81497175Y-74094584D01*
X81343432Y-73722497D01*
X81059000Y-73437569D01*
X80687182Y-73283176D01*
X80284584Y-73282825D01*
X79912497Y-73436568D01*
X79627569Y-73721000D01*
X79473176Y-74092818D01*
X79472825Y-74495416D01*
X78956825Y-74495416D01*
X78957175Y-74094584D01*
X78803432Y-73722497D01*
X78519000Y-73437569D01*
X78147182Y-73283176D01*
X77744584Y-73282825D01*
X77372497Y-73436568D01*
X77087569Y-73721000D01*
X76933176Y-74092818D01*
X76932825Y-74495416D01*
X76416825Y-74495416D01*
X76417175Y-74094584D01*
X76263432Y-73722497D01*
X75979000Y-73437569D01*
X75607182Y-73283176D01*
X75204584Y-73282825D01*
X74832497Y-73436568D01*
X74547569Y-73721000D01*
X74393176Y-74092818D01*
X74392825Y-74495416D01*
X73876825Y-74495416D01*
X73877175Y-74094584D01*
X73723432Y-73722497D01*
X73439000Y-73437569D01*
X73067182Y-73283176D01*
X72664584Y-73282825D01*
X72292497Y-73436568D01*
X72007569Y-73721000D01*
X71853176Y-74092818D01*
X71852825Y-74495416D01*
X71336825Y-74495416D01*
X71337175Y-74094584D01*
X71183432Y-73722497D01*
X70899000Y-73437569D01*
X70527182Y-73283176D01*
X70124584Y-73282825D01*
X69752497Y-73436568D01*
X69467569Y-73721000D01*
X69313176Y-74092818D01*
X69312825Y-74495416D01*
X68796825Y-74495416D01*
X68797175Y-74094584D01*
X68643432Y-73722497D01*
X68359000Y-73437569D01*
X67987182Y-73283176D01*
X67584584Y-73282825D01*
X67212497Y-73436568D01*
X66927569Y-73721000D01*
X66773176Y-74092818D01*
X66772825Y-74495416D01*
X64800892Y-74495416D01*
X64694578Y-74238117D01*
X64035354Y-73577741D01*
X63173596Y-73219908D01*
X62240498Y-73219094D01*
X61378117Y-73575422D01*
X60717741Y-74234646D01*
X60359908Y-75096404D01*
X60359094Y-76029502D01*
X44325000Y-76029502D01*
X44325000Y-72325000D01*
X142971100Y-72325000D01*
X142971100Y-149675000D01*
X142971100Y-149675000D01*
G37*
X142971100Y-149675000D02*
X44325000Y-149675000D01*
X44325000Y-147360308D01*
X45178191Y-147360308D01*
X45289393Y-147597715D01*
X45886761Y-147785457D01*
X46510503Y-147730306D01*
X46830607Y-147597715D01*
X46941809Y-147360308D01*
X46060000Y-146478500D01*
X45178191Y-147360308D01*
X44325000Y-147360308D01*
X44325000Y-146016761D01*
X44464543Y-146016761D01*
X44519694Y-146640503D01*
X44652285Y-146960607D01*
X44889692Y-147071809D01*
X45771500Y-146190000D01*
X46348500Y-146190000D01*
X47230308Y-147071809D01*
X47467715Y-146960607D01*
X47631106Y-146440718D01*
X48291361Y-146440718D01*
X48483692Y-146906194D01*
X48839513Y-147262636D01*
X49304652Y-147455779D01*
X49808298Y-147456219D01*
X50273774Y-147263888D01*
X50630216Y-146908067D01*
X50823359Y-146442928D01*
X50823799Y-145939282D01*
X50631468Y-145473806D01*
X50275647Y-145117364D01*
X49810508Y-144924221D01*
X49306862Y-144923781D01*
X48841386Y-145116112D01*
X48484944Y-145471933D01*
X48291801Y-145937072D01*
X48291361Y-146440718D01*
X47631106Y-146440718D01*
X47655457Y-146363239D01*
X47600306Y-145739497D01*
X47467715Y-145419393D01*
X47230308Y-145308191D01*
X46348500Y-146190000D01*
X45771500Y-146190000D01*
X44889692Y-145308191D01*
X44652285Y-145419393D01*
X44464543Y-146016761D01*
X44325000Y-146016761D01*
X44325000Y-145019692D01*
X45178191Y-145019692D01*
X46060000Y-145901500D01*
X46941809Y-145019692D01*
X46830607Y-144782285D01*
X46233239Y-144594543D01*
X45609497Y-144649694D01*
X45289393Y-144782285D01*
X45178191Y-145019692D01*
X44325000Y-145019692D01*
X44325000Y-143775589D01*
X57039610Y-143775589D01*
X57381431Y-144602858D01*
X58013813Y-145236345D01*
X58840484Y-145579608D01*
X59735589Y-145580390D01*
X60562858Y-145238569D01*
X61196345Y-144606187D01*
X61539608Y-143779516D01*
X61539611Y-143775589D01*
X67199610Y-143775589D01*
X67541431Y-144602858D01*
X68173813Y-145236345D01*
X69000484Y-145579608D01*
X69895589Y-145580390D01*
X70722858Y-145238569D01*
X71356345Y-144606187D01*
X71699608Y-143779516D01*
X71700390Y-142884411D01*
X71358569Y-142057142D01*
X70726187Y-141423655D01*
X69899516Y-141080392D01*
X69004411Y-141079610D01*
X68177142Y-141421431D01*
X67543655Y-142053813D01*
X67200392Y-142880484D01*
X67199610Y-143775589D01*
X61539611Y-143775589D01*
X61540390Y-142884411D01*
X61198569Y-142057142D01*
X60566187Y-141423655D01*
X59739516Y-141080392D01*
X58844411Y-141079610D01*
X58017142Y-141421431D01*
X57383655Y-142053813D01*
X57040392Y-142880484D01*
X57039610Y-143775589D01*
X44325000Y-143775589D01*
X44325000Y-137964990D01*
X61641510Y-137964990D01*
X61721104Y-138176151D01*
X62225809Y-138321175D01*
X62747595Y-138262018D01*
X62954896Y-138176151D01*
X63034490Y-137964990D01*
X62338000Y-137268500D01*
X61641510Y-137964990D01*
X44325000Y-137964990D01*
X44325000Y-136867809D01*
X60996825Y-136867809D01*
X61055982Y-137389595D01*
X61141849Y-137596896D01*
X61353010Y-137676490D01*
X62049500Y-136980000D01*
X62626500Y-136980000D01*
X63322990Y-137676490D01*
X63534151Y-137596896D01*
X63653824Y-137180416D01*
X63865825Y-137180416D01*
X64019568Y-137552503D01*
X64304000Y-137837431D01*
X64675818Y-137991824D01*
X65078416Y-137992175D01*
X65450503Y-137838432D01*
X65735431Y-137554000D01*
X65889824Y-137182182D01*
X65889825Y-137180416D01*
X66405825Y-137180416D01*
X66559568Y-137552503D01*
X66844000Y-137837431D01*
X67215818Y-137991824D01*
X67618416Y-137992175D01*
X67990503Y-137838432D01*
X68275431Y-137554000D01*
X68429824Y-137182182D01*
X68430175Y-136779584D01*
X68276432Y-136407497D01*
X67992000Y-136122569D01*
X67620182Y-135968176D01*
X67217584Y-135967825D01*
X66845497Y-136121568D01*
X66560569Y-136406000D01*
X66406176Y-136777818D01*
X66405825Y-137180416D01*
X65889825Y-137180416D01*
X65890175Y-136779584D01*
X65736432Y-136407497D01*
X65452000Y-136122569D01*
X65080182Y-135968176D01*
X64677584Y-135967825D01*
X64305497Y-136121568D01*
X64020569Y-136406000D01*
X63866176Y-136777818D01*
X63865825Y-137180416D01*
X63653824Y-137180416D01*
X63679175Y-137092191D01*
X63620018Y-136570405D01*
X63534151Y-136363104D01*
X63322990Y-136283510D01*
X62626500Y-136980000D01*
X62049500Y-136980000D01*
X61353010Y-136283510D01*
X61141849Y-136363104D01*
X60996825Y-136867809D01*
X44325000Y-136867809D01*
X44325000Y-135995010D01*
X61641510Y-135995010D01*
X62338000Y-136691500D01*
X63034490Y-135995010D01*
X62954896Y-135783849D01*
X62450191Y-135638825D01*
X61928405Y-135697982D01*
X61721104Y-135783849D01*
X61641510Y-135995010D01*
X44325000Y-135995010D01*
X44325000Y-134640416D01*
X60055825Y-134640416D01*
X60209568Y-135012503D01*
X60494000Y-135297431D01*
X60865818Y-135451824D01*
X61268416Y-135452175D01*
X61334208Y-135424990D01*
X62911510Y-135424990D01*
X62991104Y-135636151D01*
X63495809Y-135781175D01*
X64017595Y-135722018D01*
X64224896Y-135636151D01*
X64304490Y-135424990D01*
X63608000Y-134728500D01*
X62911510Y-135424990D01*
X61334208Y-135424990D01*
X61640503Y-135298432D01*
X61925431Y-135014000D01*
X62079824Y-134642182D01*
X62080098Y-134327809D01*
X62266825Y-134327809D01*
X62325982Y-134849595D01*
X62411849Y-135056896D01*
X62623010Y-135136490D01*
X63319500Y-134440000D01*
X63896500Y-134440000D01*
X64592990Y-135136490D01*
X64804151Y-135056896D01*
X64923824Y-134640416D01*
X65135825Y-134640416D01*
X65289568Y-135012503D01*
X65574000Y-135297431D01*
X65945818Y-135451824D01*
X66348416Y-135452175D01*
X66720503Y-135298432D01*
X67005431Y-135014000D01*
X67159824Y-134642182D01*
X67160175Y-134239584D01*
X67006432Y-133867497D01*
X66722000Y-133582569D01*
X66350182Y-133428176D01*
X65947584Y-133427825D01*
X65575497Y-133581568D01*
X65290569Y-133866000D01*
X65136176Y-134237818D01*
X65135825Y-134640416D01*
X64923824Y-134640416D01*
X64949175Y-134552191D01*
X64890018Y-134030405D01*
X64804151Y-133823104D01*
X64592990Y-133743510D01*
X63896500Y-134440000D01*
X63319500Y-134440000D01*
X62623010Y-133743510D01*
X62411849Y-133823104D01*
X62266825Y-134327809D01*
X62080098Y-134327809D01*
X62080175Y-134239584D01*
X61926432Y-133867497D01*
X61642000Y-133582569D01*
X61334806Y-133455010D01*
X62911510Y-133455010D01*
X63608000Y-134151500D01*
X64304490Y-133455010D01*
X64224896Y-133243849D01*
X63720191Y-133098825D01*
X63198405Y-133157982D01*
X62991104Y-133243849D01*
X62911510Y-133455010D01*
X61334806Y-133455010D01*
X61270182Y-133428176D01*
X60867584Y-133427825D01*
X60495497Y-133581568D01*
X60210569Y-133866000D01*
X60056176Y-134237818D01*
X60055825Y-134640416D01*
X44325000Y-134640416D01*
X44325000Y-132722936D01*
X45965563Y-132722936D01*
X46031084Y-132922584D01*
X46494808Y-133048715D01*
X46971502Y-132987786D01*
X47128916Y-132922584D01*
X47194437Y-132722936D01*
X46580000Y-132108500D01*
X45965563Y-132722936D01*
X44325000Y-132722936D01*
X44325000Y-131734808D01*
X45351285Y-131734808D01*
X45412214Y-132211502D01*
X45477416Y-132368916D01*
X45677064Y-132434437D01*
X46291500Y-131820000D01*
X46868500Y-131820000D01*
X47482936Y-132434437D01*
X47682584Y-132368916D01*
X47808715Y-131905192D01*
X47747786Y-131428498D01*
X47682584Y-131271084D01*
X47482936Y-131205563D01*
X46868500Y-131820000D01*
X46291500Y-131820000D01*
X45677064Y-131205563D01*
X45477416Y-131271084D01*
X45351285Y-131734808D01*
X44325000Y-131734808D01*
X44325000Y-130917064D01*
X45965563Y-130917064D01*
X46580000Y-131531500D01*
X46941500Y-131170000D01*
X50675103Y-131170000D01*
X50675103Y-132470000D01*
X50692535Y-132562644D01*
X50747288Y-132647732D01*
X50830831Y-132704815D01*
X50930000Y-132724897D01*
X52230000Y-132724897D01*
X52322644Y-132707465D01*
X52407732Y-132652712D01*
X52464815Y-132569169D01*
X52484897Y-132470000D01*
X52484897Y-131170000D01*
X52482813Y-131158922D01*
X64489905Y-131158922D01*
X64573461Y-131361143D01*
X64728043Y-131515995D01*
X64930118Y-131599904D01*
X65148922Y-131600095D01*
X65351143Y-131516539D01*
X65505995Y-131361957D01*
X65589904Y-131159882D01*
X65589904Y-131158922D01*
X69189905Y-131158922D01*
X69273461Y-131361143D01*
X69428043Y-131515995D01*
X69630118Y-131599904D01*
X69759687Y-131600017D01*
X72265000Y-134105330D01*
X72265000Y-145180000D01*
X72293545Y-145323507D01*
X72374835Y-145445165D01*
X75174835Y-148245165D01*
X75296493Y-148326455D01*
X75440000Y-148355000D01*
X112680000Y-148355000D01*
X112823507Y-148326455D01*
X112945165Y-148245165D01*
X115293271Y-145897059D01*
X119739740Y-145897059D01*
X119967620Y-146448572D01*
X120389209Y-146870897D01*
X120940323Y-147099739D01*
X121537059Y-147100260D01*
X122088572Y-146872380D01*
X122510897Y-146450791D01*
X122739739Y-145899677D01*
X122739741Y-145897059D01*
X132499740Y-145897059D01*
X132727620Y-146448572D01*
X133149209Y-146870897D01*
X133700323Y-147099739D01*
X134297059Y-147100260D01*
X134848572Y-146872380D01*
X135270897Y-146450791D01*
X135499739Y-145899677D01*
X135500260Y-145302941D01*
X135272380Y-144751428D01*
X134850791Y-144329103D01*
X134299677Y-144100261D01*
X133702941Y-144099740D01*
X133151428Y-144327620D01*
X132729103Y-144749209D01*
X132500261Y-145300323D01*
X132499740Y-145897059D01*
X122739741Y-145897059D01*
X122740260Y-145302941D01*
X122512380Y-144751428D01*
X122090791Y-144329103D01*
X121539677Y-144100261D01*
X120942941Y-144099740D01*
X120391428Y-144327620D01*
X119969103Y-144749209D01*
X119740261Y-145300323D01*
X119739740Y-145897059D01*
X115293271Y-145897059D01*
X115835165Y-145355165D01*
X115916455Y-145233507D01*
X115945000Y-145090000D01*
X115945000Y-130822798D01*
X118886400Y-130822798D01*
X118886400Y-131177202D01*
X118971168Y-131603358D01*
X119212566Y-131964636D01*
X119573844Y-132206034D01*
X120000000Y-132290802D01*
X120426156Y-132206034D01*
X120787434Y-131964636D01*
X121028832Y-131603358D01*
X121113600Y-131177202D01*
X121113600Y-130822798D01*
X121426400Y-130822798D01*
X121426400Y-131177202D01*
X121511168Y-131603358D01*
X121752566Y-131964636D01*
X122113844Y-132206034D01*
X122540000Y-132290802D01*
X122966156Y-132206034D01*
X123327434Y-131964636D01*
X123568832Y-131603358D01*
X123653600Y-131177202D01*
X123653600Y-130822798D01*
X123966400Y-130822798D01*
X123966400Y-131177202D01*
X124051168Y-131603358D01*
X124292566Y-131964636D01*
X124653844Y-132206034D01*
X125080000Y-132290802D01*
X125506156Y-132206034D01*
X125867434Y-131964636D01*
X126108832Y-131603358D01*
X126193600Y-131177202D01*
X126193600Y-130822798D01*
X126506400Y-130822798D01*
X126506400Y-131177202D01*
X126591168Y-131603358D01*
X126832566Y-131964636D01*
X127193844Y-132206034D01*
X127620000Y-132290802D01*
X128046156Y-132206034D01*
X128407434Y-131964636D01*
X128648832Y-131603358D01*
X128684275Y-131425173D01*
X128767632Y-131425173D01*
X128978005Y-131937246D01*
X129368327Y-132329833D01*
X129738426Y-132510053D01*
X129956000Y-132418166D01*
X129956000Y-131204000D01*
X130364000Y-131204000D01*
X130364000Y-132418166D01*
X130581574Y-132510053D01*
X130951673Y-132329833D01*
X131341995Y-131937246D01*
X131552368Y-131425173D01*
X131438397Y-131204000D01*
X130364000Y-131204000D01*
X129956000Y-131204000D01*
X128881603Y-131204000D01*
X128767632Y-131425173D01*
X128684275Y-131425173D01*
X128733600Y-131177202D01*
X128733600Y-130822798D01*
X131586400Y-130822798D01*
X131586400Y-131177202D01*
X131671168Y-131603358D01*
X131912566Y-131964636D01*
X132273844Y-132206034D01*
X132700000Y-132290802D01*
X133126156Y-132206034D01*
X133487434Y-131964636D01*
X133728832Y-131603358D01*
X133813600Y-131177202D01*
X133813600Y-130822798D01*
X133728832Y-130396642D01*
X133487434Y-130035364D01*
X133410563Y-129984000D01*
X134121503Y-129984000D01*
X134121503Y-132016000D01*
X134138935Y-132108644D01*
X134193688Y-132193732D01*
X134277231Y-132250815D01*
X134376400Y-132270897D01*
X136103600Y-132270897D01*
X136196244Y-132253465D01*
X136281332Y-132198712D01*
X136338415Y-132115169D01*
X136358497Y-132016000D01*
X136358497Y-129984000D01*
X136341065Y-129891356D01*
X136286312Y-129806268D01*
X136202769Y-129749185D01*
X136103600Y-129729103D01*
X134376400Y-129729103D01*
X134283756Y-129746535D01*
X134198668Y-129801288D01*
X134141585Y-129884831D01*
X134121503Y-129984000D01*
X133410563Y-129984000D01*
X133126156Y-129793966D01*
X132700000Y-129709198D01*
X132273844Y-129793966D01*
X131912566Y-130035364D01*
X131671168Y-130396642D01*
X131586400Y-130822798D01*
X128733600Y-130822798D01*
X128684276Y-130574827D01*
X128767632Y-130574827D01*
X128881603Y-130796000D01*
X129956000Y-130796000D01*
X129956000Y-129581834D01*
X130364000Y-129581834D01*
X130364000Y-130796000D01*
X131438397Y-130796000D01*
X131552368Y-130574827D01*
X131341995Y-130062754D01*
X130951673Y-129670167D01*
X130581574Y-129489947D01*
X130364000Y-129581834D01*
X129956000Y-129581834D01*
X129738426Y-129489947D01*
X129368327Y-129670167D01*
X128978005Y-130062754D01*
X128767632Y-130574827D01*
X128684276Y-130574827D01*
X128648832Y-130396642D01*
X128407434Y-130035364D01*
X128046156Y-129793966D01*
X127620000Y-129709198D01*
X127193844Y-129793966D01*
X126832566Y-130035364D01*
X126591168Y-130396642D01*
X126506400Y-130822798D01*
X126193600Y-130822798D01*
X126108832Y-130396642D01*
X125867434Y-130035364D01*
X125506156Y-129793966D01*
X125080000Y-129709198D01*
X124653844Y-129793966D01*
X124292566Y-130035364D01*
X124051168Y-130396642D01*
X123966400Y-130822798D01*
X123653600Y-130822798D01*
X123586229Y-130484101D01*
X127015330Y-127055000D01*
X132100000Y-127055000D01*
X132243507Y-127026455D01*
X132365165Y-126945165D01*
X135198756Y-124111574D01*
X139229947Y-124111574D01*
X139410167Y-124481673D01*
X139802754Y-124871995D01*
X140314827Y-125082368D01*
X140535998Y-124968398D01*
X140535998Y-125111503D01*
X139724000Y-125111503D01*
X139631356Y-125128935D01*
X139546268Y-125183688D01*
X139489185Y-125267231D01*
X139469103Y-125366400D01*
X139469103Y-127093600D01*
X139486535Y-127186244D01*
X139541288Y-127271332D01*
X139624831Y-127328415D01*
X139724000Y-127348497D01*
X141756000Y-127348497D01*
X141848644Y-127331065D01*
X141933732Y-127276312D01*
X141990815Y-127192769D01*
X142010897Y-127093600D01*
X142010897Y-125366400D01*
X141993465Y-125273756D01*
X141938712Y-125188668D01*
X141855169Y-125131585D01*
X141756000Y-125111503D01*
X140944002Y-125111503D01*
X140944002Y-124968398D01*
X141165173Y-125082368D01*
X141677246Y-124871995D01*
X142069833Y-124481673D01*
X142250053Y-124111574D01*
X142158166Y-123894000D01*
X140944000Y-123894000D01*
X140944000Y-123914000D01*
X140536000Y-123914000D01*
X140536000Y-123894000D01*
X139321834Y-123894000D01*
X139229947Y-124111574D01*
X135198756Y-124111574D01*
X136041904Y-123268426D01*
X139229947Y-123268426D01*
X139321834Y-123486000D01*
X140536000Y-123486000D01*
X140536000Y-122411603D01*
X140944000Y-122411603D01*
X140944000Y-123486000D01*
X142158166Y-123486000D01*
X142250053Y-123268426D01*
X142069833Y-122898327D01*
X141677246Y-122508005D01*
X141165173Y-122297632D01*
X140944000Y-122411603D01*
X140536000Y-122411603D01*
X140314827Y-122297632D01*
X139802754Y-122508005D01*
X139410167Y-122898327D01*
X139229947Y-123268426D01*
X136041904Y-123268426D01*
X137285165Y-122025165D01*
X137366455Y-121903506D01*
X137395000Y-121760000D01*
X137395000Y-121150000D01*
X139449198Y-121150000D01*
X139533966Y-121576156D01*
X139775364Y-121937434D01*
X140136642Y-122178832D01*
X140562798Y-122263600D01*
X140917202Y-122263600D01*
X141343358Y-122178832D01*
X141704636Y-121937434D01*
X141946034Y-121576156D01*
X142030802Y-121150000D01*
X141946034Y-120723844D01*
X141704636Y-120362566D01*
X141343358Y-120121168D01*
X140917202Y-120036400D01*
X140562798Y-120036400D01*
X140136642Y-120121168D01*
X139775364Y-120362566D01*
X139533966Y-120723844D01*
X139449198Y-121150000D01*
X137395000Y-121150000D01*
X137395000Y-120575330D01*
X138985330Y-118985000D01*
X139523790Y-118985000D01*
X139533966Y-119036156D01*
X139775364Y-119397434D01*
X140136642Y-119638832D01*
X140562798Y-119723600D01*
X140917202Y-119723600D01*
X141343358Y-119638832D01*
X141704636Y-119397434D01*
X141946034Y-119036156D01*
X142030802Y-118610000D01*
X141946034Y-118183844D01*
X141704636Y-117822566D01*
X141343358Y-117581168D01*
X140917202Y-117496400D01*
X140562798Y-117496400D01*
X140136642Y-117581168D01*
X139775364Y-117822566D01*
X139533966Y-118183844D01*
X139523790Y-118235000D01*
X138830000Y-118235000D01*
X138686494Y-118263545D01*
X138564835Y-118344835D01*
X136754835Y-120154835D01*
X136673545Y-120276493D01*
X136650535Y-120392175D01*
X136645000Y-120420000D01*
X136645000Y-121604670D01*
X131944670Y-126305000D01*
X126860000Y-126305000D01*
X126716494Y-126333545D01*
X126594835Y-126414835D01*
X123115749Y-129893921D01*
X122966156Y-129793966D01*
X122540000Y-129709198D01*
X122113844Y-129793966D01*
X121752566Y-130035364D01*
X121511168Y-130396642D01*
X121426400Y-130822798D01*
X121113600Y-130822798D01*
X121028832Y-130396642D01*
X120787434Y-130035364D01*
X120426156Y-129793966D01*
X120000000Y-129709198D01*
X119573844Y-129793966D01*
X119212566Y-130035364D01*
X118971168Y-130396642D01*
X118886400Y-130822798D01*
X115945000Y-130822798D01*
X115945000Y-129490000D01*
X115916455Y-129346494D01*
X115916455Y-129346493D01*
X115835165Y-129224835D01*
X112605000Y-125994670D01*
X112605000Y-125566901D01*
X112646568Y-125667503D01*
X112931000Y-125952431D01*
X113302818Y-126106824D01*
X113705416Y-126107175D01*
X114077503Y-125953432D01*
X114362431Y-125669000D01*
X114516824Y-125297182D01*
X114516825Y-125295416D01*
X115032825Y-125295416D01*
X115186568Y-125667503D01*
X115471000Y-125952431D01*
X115842818Y-126106824D01*
X116245416Y-126107175D01*
X116617503Y-125953432D01*
X116902431Y-125669000D01*
X117056824Y-125297182D01*
X117056825Y-125295416D01*
X117572825Y-125295416D01*
X117726568Y-125667503D01*
X118011000Y-125952431D01*
X118382818Y-126106824D01*
X118785416Y-126107175D01*
X119157503Y-125953432D01*
X119442431Y-125669000D01*
X119596824Y-125297182D01*
X119596825Y-125295416D01*
X120112825Y-125295416D01*
X120266568Y-125667503D01*
X120551000Y-125952431D01*
X120922818Y-126106824D01*
X121325416Y-126107175D01*
X121697503Y-125953432D01*
X121982431Y-125669000D01*
X122136824Y-125297182D01*
X122136825Y-125295416D01*
X122652825Y-125295416D01*
X122806568Y-125667503D01*
X123091000Y-125952431D01*
X123462818Y-126106824D01*
X123865416Y-126107175D01*
X124237503Y-125953432D01*
X124522431Y-125669000D01*
X124676824Y-125297182D01*
X124677175Y-124894584D01*
X124523432Y-124522497D01*
X124239000Y-124237569D01*
X123867182Y-124083176D01*
X123464584Y-124082825D01*
X123092497Y-124236568D01*
X122807569Y-124521000D01*
X122653176Y-124892818D01*
X122652825Y-125295416D01*
X122136825Y-125295416D01*
X122137175Y-124894584D01*
X121983432Y-124522497D01*
X121699000Y-124237569D01*
X121327182Y-124083176D01*
X120924584Y-124082825D01*
X120552497Y-124236568D01*
X120267569Y-124521000D01*
X120113176Y-124892818D01*
X120112825Y-125295416D01*
X119596825Y-125295416D01*
X119597175Y-124894584D01*
X119443432Y-124522497D01*
X119159000Y-124237569D01*
X118787182Y-124083176D01*
X118384584Y-124082825D01*
X118012497Y-124236568D01*
X117727569Y-124521000D01*
X117573176Y-124892818D01*
X117572825Y-125295416D01*
X117056825Y-125295416D01*
X117057175Y-124894584D01*
X116903432Y-124522497D01*
X116619000Y-124237569D01*
X116247182Y-124083176D01*
X115844584Y-124082825D01*
X115472497Y-124236568D01*
X115187569Y-124521000D01*
X115033176Y-124892818D01*
X115032825Y-125295416D01*
X114516825Y-125295416D01*
X114517175Y-124894584D01*
X114434890Y-124695440D01*
X114985165Y-124145165D01*
X115066454Y-124023507D01*
X115066455Y-124023506D01*
X115095000Y-123880000D01*
X115095000Y-122905891D01*
X115186568Y-123127503D01*
X115471000Y-123412431D01*
X115842818Y-123566824D01*
X116245416Y-123567175D01*
X116617503Y-123413432D01*
X116902431Y-123129000D01*
X117056824Y-122757182D01*
X117056825Y-122755416D01*
X117572825Y-122755416D01*
X117726568Y-123127503D01*
X118011000Y-123412431D01*
X118382818Y-123566824D01*
X118785416Y-123567175D01*
X119157503Y-123413432D01*
X119442431Y-123129000D01*
X119596824Y-122757182D01*
X119596825Y-122755416D01*
X120112825Y-122755416D01*
X120266568Y-123127503D01*
X120551000Y-123412431D01*
X120922818Y-123566824D01*
X121325416Y-123567175D01*
X121697503Y-123413432D01*
X121982431Y-123129000D01*
X122136824Y-122757182D01*
X122136825Y-122755416D01*
X122652825Y-122755416D01*
X122806568Y-123127503D01*
X123091000Y-123412431D01*
X123462818Y-123566824D01*
X123865416Y-123567175D01*
X124237503Y-123413432D01*
X124522431Y-123129000D01*
X124676824Y-122757182D01*
X124677175Y-122354584D01*
X124523432Y-121982497D01*
X124239000Y-121697569D01*
X123867182Y-121543176D01*
X123464584Y-121542825D01*
X123092497Y-121696568D01*
X122807569Y-121981000D01*
X122653176Y-122352818D01*
X122652825Y-122755416D01*
X122136825Y-122755416D01*
X122137175Y-122354584D01*
X121983432Y-121982497D01*
X121699000Y-121697569D01*
X121327182Y-121543176D01*
X120924584Y-121542825D01*
X120552497Y-121696568D01*
X120267569Y-121981000D01*
X120113176Y-122352818D01*
X120112825Y-122755416D01*
X119596825Y-122755416D01*
X119597175Y-122354584D01*
X119443432Y-121982497D01*
X119159000Y-121697569D01*
X118787182Y-121543176D01*
X118384584Y-121542825D01*
X118012497Y-121696568D01*
X117727569Y-121981000D01*
X117573176Y-122352818D01*
X117572825Y-122755416D01*
X117056825Y-122755416D01*
X117057175Y-122354584D01*
X116903432Y-121982497D01*
X116619000Y-121697569D01*
X116247182Y-121543176D01*
X115844584Y-121542825D01*
X115472497Y-121696568D01*
X115187569Y-121981000D01*
X115095000Y-122203930D01*
X115095000Y-121195330D01*
X115175828Y-121114502D01*
X126399094Y-121114502D01*
X126755422Y-121976883D01*
X127414646Y-122637259D01*
X128276404Y-122995092D01*
X129209502Y-122995906D01*
X130071883Y-122639578D01*
X130732259Y-121980354D01*
X131090092Y-121118596D01*
X131090906Y-120185498D01*
X130734578Y-119323117D01*
X130075354Y-118662741D01*
X129213596Y-118304908D01*
X128280498Y-118304094D01*
X127418117Y-118660422D01*
X126757741Y-119319646D01*
X126399908Y-120181404D01*
X126399094Y-121114502D01*
X115175828Y-121114502D01*
X119845330Y-116445000D01*
X139523790Y-116445000D01*
X139533966Y-116496156D01*
X139775364Y-116857434D01*
X140136642Y-117098832D01*
X140562798Y-117183600D01*
X140917202Y-117183600D01*
X141343358Y-117098832D01*
X141704636Y-116857434D01*
X141946034Y-116496156D01*
X142030802Y-116070000D01*
X141946034Y-115643844D01*
X141704636Y-115282566D01*
X141343358Y-115041168D01*
X140917202Y-114956400D01*
X140562798Y-114956400D01*
X140136642Y-115041168D01*
X139775364Y-115282566D01*
X139533966Y-115643844D01*
X139523790Y-115695000D01*
X119690000Y-115695000D01*
X119546494Y-115723545D01*
X119546492Y-115723546D01*
X119546493Y-115723546D01*
X119424835Y-115804835D01*
X114454835Y-120774835D01*
X114373545Y-120896493D01*
X114373545Y-120896494D01*
X114345000Y-121040000D01*
X114345000Y-121964033D01*
X114079000Y-121697569D01*
X113880000Y-121614937D01*
X113880000Y-119900330D01*
X119875330Y-113905000D01*
X139523790Y-113905000D01*
X139533966Y-113956156D01*
X139775364Y-114317434D01*
X140136642Y-114558832D01*
X140562798Y-114643600D01*
X140917202Y-114643600D01*
X141343358Y-114558832D01*
X141704636Y-114317434D01*
X141946034Y-113956156D01*
X142030802Y-113530000D01*
X141946034Y-113103844D01*
X141704636Y-112742566D01*
X141343358Y-112501168D01*
X140917202Y-112416400D01*
X140562798Y-112416400D01*
X140136642Y-112501168D01*
X139775364Y-112742566D01*
X139533966Y-113103844D01*
X139523790Y-113155000D01*
X119720000Y-113155000D01*
X119576493Y-113183545D01*
X119454835Y-113264835D01*
X113239835Y-119479835D01*
X113158545Y-119601493D01*
X113158545Y-119601494D01*
X113130000Y-119745000D01*
X113130000Y-121614962D01*
X112932497Y-121696568D01*
X112647569Y-121981000D01*
X112493176Y-122352818D01*
X112492825Y-122755416D01*
X112646568Y-123127503D01*
X112931000Y-123412431D01*
X113302818Y-123566824D01*
X113705416Y-123567175D01*
X114077503Y-123413432D01*
X114345000Y-123146401D01*
X114345000Y-123724670D01*
X113904542Y-124165128D01*
X113707182Y-124083176D01*
X113304584Y-124082825D01*
X112932497Y-124236568D01*
X112647569Y-124521000D01*
X112605000Y-124623517D01*
X112605000Y-123820000D01*
X112588390Y-123736494D01*
X112576455Y-123676493D01*
X112495165Y-123554835D01*
X111894872Y-122954542D01*
X111976824Y-122757182D01*
X111977175Y-122354584D01*
X111823432Y-121982497D01*
X111539000Y-121697569D01*
X111167182Y-121543176D01*
X110764584Y-121542825D01*
X110392497Y-121696568D01*
X110107569Y-121981000D01*
X109953176Y-122352818D01*
X109952825Y-122755416D01*
X110106568Y-123127503D01*
X110391000Y-123412431D01*
X110762818Y-123566824D01*
X111165416Y-123567175D01*
X111364560Y-123484890D01*
X111855000Y-123975330D01*
X111855000Y-124598898D01*
X111823432Y-124522497D01*
X111539000Y-124237569D01*
X111167182Y-124083176D01*
X110764584Y-124082825D01*
X110392497Y-124236568D01*
X110107569Y-124521000D01*
X109953176Y-124892818D01*
X109952825Y-125295416D01*
X110106568Y-125667503D01*
X110391000Y-125952431D01*
X110762818Y-126106824D01*
X111165416Y-126107175D01*
X111537503Y-125953432D01*
X111822431Y-125669000D01*
X111855000Y-125590565D01*
X111855000Y-126150000D01*
X111883545Y-126293507D01*
X111964835Y-126415165D01*
X115195000Y-129645330D01*
X115195000Y-144934670D01*
X112524670Y-147605000D01*
X75595330Y-147605000D01*
X73015000Y-145024670D01*
X73015000Y-143775589D01*
X73769610Y-143775589D01*
X74111431Y-144602858D01*
X74743813Y-145236345D01*
X75570484Y-145579608D01*
X76465589Y-145580390D01*
X77292858Y-145238569D01*
X77926345Y-144606187D01*
X78269608Y-143779516D01*
X78269611Y-143775589D01*
X83929610Y-143775589D01*
X84271431Y-144602858D01*
X84903813Y-145236345D01*
X85730484Y-145579608D01*
X86625589Y-145580390D01*
X87452858Y-145238569D01*
X88086345Y-144606187D01*
X88422323Y-143797059D01*
X94499740Y-143797059D01*
X94727620Y-144348572D01*
X95149209Y-144770897D01*
X95700323Y-144999739D01*
X96297059Y-145000260D01*
X96848572Y-144772380D01*
X97270897Y-144350791D01*
X97499739Y-143799677D01*
X97499741Y-143797059D01*
X109739740Y-143797059D01*
X109967620Y-144348572D01*
X110389209Y-144770897D01*
X110940323Y-144999739D01*
X111537059Y-145000260D01*
X112088572Y-144772380D01*
X112510897Y-144350791D01*
X112739739Y-143799677D01*
X112740260Y-143202941D01*
X112512380Y-142651428D01*
X112090791Y-142229103D01*
X111539677Y-142000261D01*
X110942941Y-141999740D01*
X110391428Y-142227620D01*
X109969103Y-142649209D01*
X109740261Y-143200323D01*
X109739740Y-143797059D01*
X97499741Y-143797059D01*
X97500260Y-143202941D01*
X97272380Y-142651428D01*
X96850791Y-142229103D01*
X96299677Y-142000261D01*
X95702941Y-141999740D01*
X95151428Y-142227620D01*
X94729103Y-142649209D01*
X94500261Y-143200323D01*
X94499740Y-143797059D01*
X88422323Y-143797059D01*
X88429608Y-143779516D01*
X88430390Y-142884411D01*
X88088569Y-142057142D01*
X87456187Y-141423655D01*
X86629516Y-141080392D01*
X85734411Y-141079610D01*
X84907142Y-141421431D01*
X84273655Y-142053813D01*
X83930392Y-142880484D01*
X83929610Y-143775589D01*
X78269611Y-143775589D01*
X78270390Y-142884411D01*
X77928569Y-142057142D01*
X77296187Y-141423655D01*
X76469516Y-141080392D01*
X75574411Y-141079610D01*
X74747142Y-141421431D01*
X74113655Y-142053813D01*
X73770392Y-142880484D01*
X73769610Y-143775589D01*
X73015000Y-143775589D01*
X73015000Y-137180416D01*
X78055825Y-137180416D01*
X78209568Y-137552503D01*
X78494000Y-137837431D01*
X78865818Y-137991824D01*
X79268416Y-137992175D01*
X79640503Y-137838432D01*
X79925431Y-137554000D01*
X80079824Y-137182182D01*
X80079825Y-137180416D01*
X80595825Y-137180416D01*
X80749568Y-137552503D01*
X81034000Y-137837431D01*
X81405818Y-137991824D01*
X81808416Y-137992175D01*
X82180503Y-137838432D01*
X82465431Y-137554000D01*
X82619824Y-137182182D01*
X82619825Y-137180416D01*
X83135825Y-137180416D01*
X83289568Y-137552503D01*
X83574000Y-137837431D01*
X83945818Y-137991824D01*
X84348416Y-137992175D01*
X84720503Y-137838432D01*
X85005431Y-137554000D01*
X85159824Y-137182182D01*
X85160175Y-136779584D01*
X85006432Y-136407497D01*
X84722000Y-136122569D01*
X84350182Y-135968176D01*
X83947584Y-135967825D01*
X83575497Y-136121568D01*
X83290569Y-136406000D01*
X83136176Y-136777818D01*
X83135825Y-137180416D01*
X82619825Y-137180416D01*
X82620175Y-136779584D01*
X82466432Y-136407497D01*
X82182000Y-136122569D01*
X81810182Y-135968176D01*
X81407584Y-135967825D01*
X81035497Y-136121568D01*
X80750569Y-136406000D01*
X80596176Y-136777818D01*
X80595825Y-137180416D01*
X80079825Y-137180416D01*
X80080175Y-136779584D01*
X79926432Y-136407497D01*
X79642000Y-136122569D01*
X79270182Y-135968176D01*
X78867584Y-135967825D01*
X78495497Y-136121568D01*
X78210569Y-136406000D01*
X78056176Y-136777818D01*
X78055825Y-137180416D01*
X73015000Y-137180416D01*
X73015000Y-134640416D01*
X76785825Y-134640416D01*
X76939568Y-135012503D01*
X77224000Y-135297431D01*
X77595818Y-135451824D01*
X77998416Y-135452175D01*
X78064208Y-135424990D01*
X79641510Y-135424990D01*
X79721104Y-135636151D01*
X80225809Y-135781175D01*
X80747595Y-135722018D01*
X80954896Y-135636151D01*
X81034490Y-135424990D01*
X80338000Y-134728500D01*
X79641510Y-135424990D01*
X78064208Y-135424990D01*
X78370503Y-135298432D01*
X78655431Y-135014000D01*
X78809824Y-134642182D01*
X78810098Y-134327809D01*
X78996825Y-134327809D01*
X79055982Y-134849595D01*
X79141849Y-135056896D01*
X79353010Y-135136490D01*
X80049500Y-134440000D01*
X80626500Y-134440000D01*
X81322990Y-135136490D01*
X81534151Y-135056896D01*
X81653824Y-134640416D01*
X81865825Y-134640416D01*
X82019568Y-135012503D01*
X82304000Y-135297431D01*
X82675818Y-135451824D01*
X83078416Y-135452175D01*
X83450503Y-135298432D01*
X83735431Y-135014000D01*
X83889824Y-134642182D01*
X83890175Y-134239584D01*
X83736432Y-133867497D01*
X83452000Y-133582569D01*
X83080182Y-133428176D01*
X82677584Y-133427825D01*
X82305497Y-133581568D01*
X82020569Y-133866000D01*
X81866176Y-134237818D01*
X81865825Y-134640416D01*
X81653824Y-134640416D01*
X81679175Y-134552191D01*
X81620018Y-134030405D01*
X81534151Y-133823104D01*
X81322990Y-133743510D01*
X80626500Y-134440000D01*
X80049500Y-134440000D01*
X79353010Y-133743510D01*
X79141849Y-133823104D01*
X78996825Y-134327809D01*
X78810098Y-134327809D01*
X78810175Y-134239584D01*
X78656432Y-133867497D01*
X78372000Y-133582569D01*
X78064806Y-133455010D01*
X79641510Y-133455010D01*
X80338000Y-134151500D01*
X81034490Y-133455010D01*
X80954896Y-133243849D01*
X80450191Y-133098825D01*
X79928405Y-133157982D01*
X79721104Y-133243849D01*
X79641510Y-133455010D01*
X78064806Y-133455010D01*
X78000182Y-133428176D01*
X77597584Y-133427825D01*
X77225497Y-133581568D01*
X76940569Y-133866000D01*
X76786176Y-134237818D01*
X76785825Y-134640416D01*
X73015000Y-134640416D01*
X73015000Y-133950000D01*
X72986455Y-133806494D01*
X72905165Y-133684835D01*
X70289983Y-131069653D01*
X70290095Y-130941078D01*
X70206539Y-130738857D01*
X70051957Y-130584005D01*
X69849882Y-130500096D01*
X69631078Y-130499905D01*
X69428857Y-130583461D01*
X69274005Y-130738043D01*
X69190096Y-130940118D01*
X69189905Y-131158922D01*
X65589904Y-131158922D01*
X65590017Y-131030313D01*
X68555330Y-128065000D01*
X77930000Y-128065000D01*
X78073507Y-128036455D01*
X78195165Y-127955165D01*
X79465165Y-126685165D01*
X79546455Y-126563507D01*
X79575000Y-126420000D01*
X79575000Y-125542699D01*
X79626568Y-125667503D01*
X79911000Y-125952431D01*
X80110000Y-126035063D01*
X80110000Y-126895000D01*
X80138545Y-127038507D01*
X80219835Y-127160165D01*
X80804835Y-127745165D01*
X80926493Y-127826455D01*
X81070000Y-127855000D01*
X82674670Y-127855000D01*
X88734835Y-133915165D01*
X88856494Y-133996455D01*
X89000000Y-134025000D01*
X103180000Y-134025000D01*
X103323507Y-133996455D01*
X103445165Y-133915165D01*
X103885165Y-133475165D01*
X103966455Y-133353507D01*
X103995000Y-133210000D01*
X103995000Y-132216210D01*
X104046156Y-132206034D01*
X104407434Y-131964636D01*
X104648832Y-131603358D01*
X104733600Y-131177202D01*
X104733600Y-130822798D01*
X105046400Y-130822798D01*
X105046400Y-131177202D01*
X105131168Y-131603358D01*
X105372566Y-131964636D01*
X105733844Y-132206034D01*
X106160000Y-132290802D01*
X106586156Y-132206034D01*
X106947434Y-131964636D01*
X107188832Y-131603358D01*
X107224275Y-131425173D01*
X107307632Y-131425173D01*
X107518005Y-131937246D01*
X107908327Y-132329833D01*
X108278426Y-132510053D01*
X108496000Y-132418166D01*
X108496000Y-131204000D01*
X107421603Y-131204000D01*
X107307632Y-131425173D01*
X107224275Y-131425173D01*
X107273600Y-131177202D01*
X107273600Y-130822798D01*
X107224276Y-130574827D01*
X107307632Y-130574827D01*
X107421603Y-130796000D01*
X108496000Y-130796000D01*
X108496000Y-129581834D01*
X108904000Y-129581834D01*
X108904000Y-130796000D01*
X108924000Y-130796000D01*
X108924000Y-131204000D01*
X108904000Y-131204000D01*
X108904000Y-132418166D01*
X109121574Y-132510053D01*
X109491673Y-132329833D01*
X109881995Y-131937246D01*
X110092368Y-131425173D01*
X109978398Y-131204002D01*
X110121503Y-131204002D01*
X110121503Y-132016000D01*
X110138935Y-132108644D01*
X110193688Y-132193732D01*
X110277231Y-132250815D01*
X110376400Y-132270897D01*
X112103600Y-132270897D01*
X112196244Y-132253465D01*
X112281332Y-132198712D01*
X112338415Y-132115169D01*
X112358497Y-132016000D01*
X112358497Y-129984000D01*
X112341065Y-129891356D01*
X112286312Y-129806268D01*
X112202769Y-129749185D01*
X112103600Y-129729103D01*
X110376400Y-129729103D01*
X110283756Y-129746535D01*
X110198668Y-129801288D01*
X110141585Y-129884831D01*
X110121503Y-129984000D01*
X110121503Y-130795998D01*
X109978398Y-130795998D01*
X110092368Y-130574827D01*
X109881995Y-130062754D01*
X109491673Y-129670167D01*
X109121574Y-129489947D01*
X108904000Y-129581834D01*
X108496000Y-129581834D01*
X108278426Y-129489947D01*
X107908327Y-129670167D01*
X107518005Y-130062754D01*
X107307632Y-130574827D01*
X107224276Y-130574827D01*
X107188832Y-130396642D01*
X106947434Y-130035364D01*
X106586156Y-129793966D01*
X106160000Y-129709198D01*
X105733844Y-129793966D01*
X105372566Y-130035364D01*
X105131168Y-130396642D01*
X105046400Y-130822798D01*
X104733600Y-130822798D01*
X104648832Y-130396642D01*
X104407434Y-130035364D01*
X104046156Y-129793966D01*
X103620000Y-129709198D01*
X103193844Y-129793966D01*
X102832566Y-130035364D01*
X102591168Y-130396642D01*
X102506400Y-130822798D01*
X102506400Y-131177202D01*
X102591168Y-131603358D01*
X102832566Y-131964636D01*
X103193844Y-132206034D01*
X103245000Y-132216210D01*
X103245000Y-133054670D01*
X103024670Y-133275000D01*
X89155330Y-133275000D01*
X86703128Y-130822798D01*
X94886400Y-130822798D01*
X94886400Y-131177202D01*
X94971168Y-131603358D01*
X95212566Y-131964636D01*
X95573844Y-132206034D01*
X96000000Y-132290802D01*
X96426156Y-132206034D01*
X96787434Y-131964636D01*
X97028832Y-131603358D01*
X97113600Y-131177202D01*
X97113600Y-130822798D01*
X97426400Y-130822798D01*
X97426400Y-131177202D01*
X97511168Y-131603358D01*
X97752566Y-131964636D01*
X98113844Y-132206034D01*
X98540000Y-132290802D01*
X98966156Y-132206034D01*
X99327434Y-131964636D01*
X99568832Y-131603358D01*
X99653600Y-131177202D01*
X99653600Y-130822798D01*
X99966400Y-130822798D01*
X99966400Y-131177202D01*
X100051168Y-131603358D01*
X100292566Y-131964636D01*
X100653844Y-132206034D01*
X101080000Y-132290802D01*
X101506156Y-132206034D01*
X101867434Y-131964636D01*
X102108832Y-131603358D01*
X102193600Y-131177202D01*
X102193600Y-130822798D01*
X102108832Y-130396642D01*
X101867434Y-130035364D01*
X101506156Y-129793966D01*
X101080000Y-129709198D01*
X100653844Y-129793966D01*
X100292566Y-130035364D01*
X100051168Y-130396642D01*
X99966400Y-130822798D01*
X99653600Y-130822798D01*
X99568832Y-130396642D01*
X99327434Y-130035364D01*
X98966156Y-129793966D01*
X98540000Y-129709198D01*
X98113844Y-129793966D01*
X97752566Y-130035364D01*
X97511168Y-130396642D01*
X97426400Y-130822798D01*
X97113600Y-130822798D01*
X97028832Y-130396642D01*
X96787434Y-130035364D01*
X96426156Y-129793966D01*
X96000000Y-129709198D01*
X95573844Y-129793966D01*
X95212566Y-130035364D01*
X94971168Y-130396642D01*
X94886400Y-130822798D01*
X86703128Y-130822798D01*
X83095165Y-127214835D01*
X82973507Y-127133545D01*
X82830000Y-127105000D01*
X81225330Y-127105000D01*
X80860000Y-126739670D01*
X80860000Y-126035038D01*
X81057503Y-125953432D01*
X81342431Y-125669000D01*
X81496824Y-125297182D01*
X81497175Y-124894584D01*
X81343432Y-124522497D01*
X81059000Y-124237569D01*
X80980565Y-124205000D01*
X81604670Y-124205000D01*
X82095128Y-124695458D01*
X82013176Y-124892818D01*
X82012825Y-125295416D01*
X82166568Y-125667503D01*
X82451000Y-125952431D01*
X82822818Y-126106824D01*
X83225416Y-126107175D01*
X83597503Y-125953432D01*
X83882431Y-125669000D01*
X84036824Y-125297182D01*
X84036825Y-125295416D01*
X84552825Y-125295416D01*
X84706568Y-125667503D01*
X84991000Y-125952431D01*
X85362818Y-126106824D01*
X85765416Y-126107175D01*
X86137503Y-125953432D01*
X86422431Y-125669000D01*
X86576824Y-125297182D01*
X86576825Y-125295416D01*
X87092825Y-125295416D01*
X87246568Y-125667503D01*
X87531000Y-125952431D01*
X87902818Y-126106824D01*
X88305416Y-126107175D01*
X88677503Y-125953432D01*
X88962431Y-125669000D01*
X89116824Y-125297182D01*
X89117175Y-124894584D01*
X88963432Y-124522497D01*
X88679000Y-124237569D01*
X88307182Y-124083176D01*
X87904584Y-124082825D01*
X87532497Y-124236568D01*
X87247569Y-124521000D01*
X87093176Y-124892818D01*
X87092825Y-125295416D01*
X86576825Y-125295416D01*
X86577175Y-124894584D01*
X86423432Y-124522497D01*
X86139000Y-124237569D01*
X85767182Y-124083176D01*
X85364584Y-124082825D01*
X84992497Y-124236568D01*
X84707569Y-124521000D01*
X84553176Y-124892818D01*
X84552825Y-125295416D01*
X84036825Y-125295416D01*
X84037175Y-124894584D01*
X83883432Y-124522497D01*
X83599000Y-124237569D01*
X83227182Y-124083176D01*
X82824584Y-124082825D01*
X82625440Y-124165110D01*
X82025165Y-123564835D01*
X81903507Y-123483545D01*
X81760000Y-123455000D01*
X80956901Y-123455000D01*
X81057503Y-123413432D01*
X81342431Y-123129000D01*
X81496824Y-122757182D01*
X81496825Y-122755416D01*
X82012825Y-122755416D01*
X82166568Y-123127503D01*
X82451000Y-123412431D01*
X82822818Y-123566824D01*
X83225416Y-123567175D01*
X83597503Y-123413432D01*
X83882431Y-123129000D01*
X84036824Y-122757182D01*
X84036825Y-122755416D01*
X84552825Y-122755416D01*
X84706568Y-123127503D01*
X84991000Y-123412431D01*
X85362818Y-123566824D01*
X85765416Y-123567175D01*
X86137503Y-123413432D01*
X86422431Y-123129000D01*
X86576824Y-122757182D01*
X86576825Y-122755416D01*
X87092825Y-122755416D01*
X87246568Y-123127503D01*
X87531000Y-123412431D01*
X87902818Y-123566824D01*
X88305416Y-123567175D01*
X88677503Y-123413432D01*
X88962431Y-123129000D01*
X89116824Y-122757182D01*
X89117175Y-122354584D01*
X88963432Y-121982497D01*
X88679000Y-121697569D01*
X88307182Y-121543176D01*
X87904584Y-121542825D01*
X87532497Y-121696568D01*
X87247569Y-121981000D01*
X87093176Y-122352818D01*
X87092825Y-122755416D01*
X86576825Y-122755416D01*
X86577175Y-122354584D01*
X86423432Y-121982497D01*
X86139000Y-121697569D01*
X85767182Y-121543176D01*
X85364584Y-121542825D01*
X84992497Y-121696568D01*
X84707569Y-121981000D01*
X84553176Y-122352818D01*
X84552825Y-122755416D01*
X84036825Y-122755416D01*
X84037175Y-122354584D01*
X83883432Y-121982497D01*
X83599000Y-121697569D01*
X83227182Y-121543176D01*
X82824584Y-121542825D01*
X82452497Y-121696568D01*
X82167569Y-121981000D01*
X82013176Y-122352818D01*
X82012825Y-122755416D01*
X81496825Y-122755416D01*
X81497175Y-122354584D01*
X81343432Y-121982497D01*
X81059000Y-121697569D01*
X80687182Y-121543176D01*
X80284584Y-121542825D01*
X79912497Y-121696568D01*
X79627569Y-121981000D01*
X79473176Y-122352818D01*
X79472825Y-122755416D01*
X79626568Y-123127503D01*
X79911000Y-123412431D01*
X80013517Y-123455000D01*
X79530000Y-123455000D01*
X79386494Y-123483545D01*
X79326630Y-123523545D01*
X79264835Y-123564835D01*
X78934835Y-123894835D01*
X78853545Y-124016493D01*
X78837896Y-124095165D01*
X78825000Y-124160000D01*
X78825000Y-124574696D01*
X78803432Y-124522497D01*
X78519000Y-124237569D01*
X78147182Y-124083176D01*
X77744584Y-124082825D01*
X77372497Y-124236568D01*
X77087569Y-124521000D01*
X76933176Y-124892818D01*
X76932825Y-125295416D01*
X77086568Y-125667503D01*
X77371000Y-125952431D01*
X77742818Y-126106824D01*
X78145416Y-126107175D01*
X78517503Y-125953432D01*
X78802431Y-125669000D01*
X78825000Y-125614648D01*
X78825000Y-126264670D01*
X77774670Y-127315000D01*
X68400000Y-127315000D01*
X68256494Y-127343545D01*
X68134835Y-127424835D01*
X65059653Y-130500017D01*
X64931078Y-130499905D01*
X64728857Y-130583461D01*
X64574005Y-130738043D01*
X64490096Y-130940118D01*
X64489905Y-131158922D01*
X52482813Y-131158922D01*
X52467465Y-131077356D01*
X52412712Y-130992268D01*
X52329169Y-130935185D01*
X52230000Y-130915103D01*
X50930000Y-130915103D01*
X50837356Y-130932535D01*
X50752268Y-130987288D01*
X50695185Y-131070831D01*
X50675103Y-131170000D01*
X46941500Y-131170000D01*
X47194437Y-130917064D01*
X47128916Y-130717416D01*
X46665192Y-130591285D01*
X46188498Y-130652214D01*
X46031084Y-130717416D01*
X45965563Y-130917064D01*
X44325000Y-130917064D01*
X44325000Y-124289502D01*
X60359094Y-124289502D01*
X60715422Y-125151883D01*
X61374646Y-125812259D01*
X62236404Y-126170092D01*
X63169502Y-126170906D01*
X63389535Y-126079990D01*
X67088510Y-126079990D01*
X67168104Y-126291151D01*
X67672809Y-126436175D01*
X68194595Y-126377018D01*
X68401896Y-126291151D01*
X68481490Y-126079990D01*
X67785000Y-125383500D01*
X67088510Y-126079990D01*
X63389535Y-126079990D01*
X64031883Y-125814578D01*
X64692259Y-125155354D01*
X64763905Y-124982809D01*
X66443825Y-124982809D01*
X66502982Y-125504595D01*
X66588849Y-125711896D01*
X66800010Y-125791490D01*
X67496500Y-125095000D01*
X68073500Y-125095000D01*
X68769990Y-125791490D01*
X68981151Y-125711896D01*
X69100824Y-125295416D01*
X69312825Y-125295416D01*
X69466568Y-125667503D01*
X69751000Y-125952431D01*
X70122818Y-126106824D01*
X70525416Y-126107175D01*
X70897503Y-125953432D01*
X71182431Y-125669000D01*
X71336824Y-125297182D01*
X71336825Y-125295416D01*
X71852825Y-125295416D01*
X72006568Y-125667503D01*
X72291000Y-125952431D01*
X72662818Y-126106824D01*
X73065416Y-126107175D01*
X73437503Y-125953432D01*
X73722431Y-125669000D01*
X73876824Y-125297182D01*
X73876825Y-125295416D01*
X74392825Y-125295416D01*
X74546568Y-125667503D01*
X74831000Y-125952431D01*
X75202818Y-126106824D01*
X75605416Y-126107175D01*
X75977503Y-125953432D01*
X76262431Y-125669000D01*
X76416824Y-125297182D01*
X76417175Y-124894584D01*
X76263432Y-124522497D01*
X75979000Y-124237569D01*
X75607182Y-124083176D01*
X75204584Y-124082825D01*
X74832497Y-124236568D01*
X74547569Y-124521000D01*
X74393176Y-124892818D01*
X74392825Y-125295416D01*
X73876825Y-125295416D01*
X73877175Y-124894584D01*
X73723432Y-124522497D01*
X73439000Y-124237569D01*
X73067182Y-124083176D01*
X72664584Y-124082825D01*
X72292497Y-124236568D01*
X72007569Y-124521000D01*
X71853176Y-124892818D01*
X71852825Y-125295416D01*
X71336825Y-125295416D01*
X71337175Y-124894584D01*
X71183432Y-124522497D01*
X70899000Y-124237569D01*
X70527182Y-124083176D01*
X70124584Y-124082825D01*
X69752497Y-124236568D01*
X69467569Y-124521000D01*
X69313176Y-124892818D01*
X69312825Y-125295416D01*
X69100824Y-125295416D01*
X69126175Y-125207191D01*
X69067018Y-124685405D01*
X68981151Y-124478104D01*
X68769990Y-124398510D01*
X68073500Y-125095000D01*
X67496500Y-125095000D01*
X66800010Y-124398510D01*
X66588849Y-124478104D01*
X66443825Y-124982809D01*
X64763905Y-124982809D01*
X65050092Y-124293596D01*
X65050749Y-123539990D01*
X67088510Y-123539990D01*
X67168104Y-123751151D01*
X67381056Y-123812341D01*
X67375405Y-123812982D01*
X67168104Y-123898849D01*
X67088510Y-124110010D01*
X67785000Y-124806500D01*
X68481490Y-124110010D01*
X68401896Y-123898849D01*
X68188944Y-123837659D01*
X68194595Y-123837018D01*
X68401896Y-123751151D01*
X68481490Y-123539990D01*
X67785000Y-122843500D01*
X67088510Y-123539990D01*
X65050749Y-123539990D01*
X65050906Y-123360498D01*
X64694578Y-122498117D01*
X64639367Y-122442809D01*
X66443825Y-122442809D01*
X66502982Y-122964595D01*
X66588849Y-123171896D01*
X66800010Y-123251490D01*
X67496500Y-122555000D01*
X68073500Y-122555000D01*
X68769990Y-123251490D01*
X68981151Y-123171896D01*
X69100824Y-122755416D01*
X69312825Y-122755416D01*
X69466568Y-123127503D01*
X69751000Y-123412431D01*
X70122818Y-123566824D01*
X70525416Y-123567175D01*
X70897503Y-123413432D01*
X71182431Y-123129000D01*
X71336824Y-122757182D01*
X71336825Y-122755416D01*
X71852825Y-122755416D01*
X72006568Y-123127503D01*
X72291000Y-123412431D01*
X72662818Y-123566824D01*
X73065416Y-123567175D01*
X73437503Y-123413432D01*
X73722431Y-123129000D01*
X73876824Y-122757182D01*
X73876825Y-122755416D01*
X74392825Y-122755416D01*
X74546568Y-123127503D01*
X74831000Y-123412431D01*
X75202818Y-123566824D01*
X75605416Y-123567175D01*
X75977503Y-123413432D01*
X76262431Y-123129000D01*
X76416824Y-122757182D01*
X76416825Y-122755416D01*
X76932825Y-122755416D01*
X77086568Y-123127503D01*
X77371000Y-123412431D01*
X77742818Y-123566824D01*
X78145416Y-123567175D01*
X78517503Y-123413432D01*
X78802431Y-123129000D01*
X78956824Y-122757182D01*
X78957175Y-122354584D01*
X78803432Y-121982497D01*
X78519000Y-121697569D01*
X78147182Y-121543176D01*
X77744584Y-121542825D01*
X77372497Y-121696568D01*
X77087569Y-121981000D01*
X76933176Y-122352818D01*
X76932825Y-122755416D01*
X76416825Y-122755416D01*
X76417175Y-122354584D01*
X76263432Y-121982497D01*
X75979000Y-121697569D01*
X75607182Y-121543176D01*
X75204584Y-121542825D01*
X74832497Y-121696568D01*
X74547569Y-121981000D01*
X74393176Y-122352818D01*
X74392825Y-122755416D01*
X73876825Y-122755416D01*
X73877175Y-122354584D01*
X73723432Y-121982497D01*
X73439000Y-121697569D01*
X73067182Y-121543176D01*
X72664584Y-121542825D01*
X72292497Y-121696568D01*
X72007569Y-121981000D01*
X71853176Y-122352818D01*
X71852825Y-122755416D01*
X71336825Y-122755416D01*
X71337175Y-122354584D01*
X71183432Y-121982497D01*
X70899000Y-121697569D01*
X70825000Y-121666841D01*
X70825000Y-119972106D01*
X73517107Y-117280000D01*
X81439936Y-117280000D01*
X81560118Y-117329904D01*
X81778922Y-117330095D01*
X81981143Y-117246539D01*
X82135995Y-117091957D01*
X82219904Y-116889882D01*
X82220095Y-116671078D01*
X82136539Y-116468857D01*
X81981957Y-116314005D01*
X81779882Y-116230096D01*
X81561078Y-116229905D01*
X81439839Y-116280000D01*
X73310000Y-116280000D01*
X73118658Y-116318060D01*
X72956446Y-116426447D01*
X69971447Y-119411447D01*
X69863060Y-119573658D01*
X69825000Y-119765000D01*
X69825000Y-121666610D01*
X69752497Y-121696568D01*
X69467569Y-121981000D01*
X69313176Y-122352818D01*
X69312825Y-122755416D01*
X69100824Y-122755416D01*
X69126175Y-122667191D01*
X69067018Y-122145405D01*
X68981151Y-121938104D01*
X68769990Y-121858510D01*
X68073500Y-122555000D01*
X67496500Y-122555000D01*
X66800010Y-121858510D01*
X66588849Y-121938104D01*
X66443825Y-122442809D01*
X64639367Y-122442809D01*
X64035354Y-121837741D01*
X63390586Y-121570010D01*
X67088510Y-121570010D01*
X67785000Y-122266500D01*
X68481490Y-121570010D01*
X68401896Y-121358849D01*
X67897191Y-121213825D01*
X67375405Y-121272982D01*
X67168104Y-121358849D01*
X67088510Y-121570010D01*
X63390586Y-121570010D01*
X63173596Y-121479908D01*
X62240498Y-121479094D01*
X61378117Y-121835422D01*
X60717741Y-122494646D01*
X60359908Y-123356404D01*
X60359094Y-124289502D01*
X44325000Y-124289502D01*
X44325000Y-121975000D01*
X60492100Y-121975000D01*
X60616472Y-121950261D01*
X60721910Y-121879810D01*
X60792361Y-121774372D01*
X60817100Y-121650000D01*
X60817100Y-115018922D01*
X83249905Y-115018922D01*
X83333461Y-115221143D01*
X83425000Y-115312842D01*
X83425000Y-115710000D01*
X83453545Y-115853507D01*
X83534835Y-115975165D01*
X89715128Y-122155458D01*
X89633176Y-122352818D01*
X89632825Y-122755416D01*
X89786568Y-123127503D01*
X90071000Y-123412431D01*
X90442818Y-123566824D01*
X90845416Y-123567175D01*
X91217503Y-123413432D01*
X91502431Y-123129000D01*
X91525000Y-123074648D01*
X91525000Y-123684670D01*
X91044542Y-124165128D01*
X90847182Y-124083176D01*
X90444584Y-124082825D01*
X90072497Y-124236568D01*
X89787569Y-124521000D01*
X89633176Y-124892818D01*
X89632825Y-125295416D01*
X89786568Y-125667503D01*
X90071000Y-125952431D01*
X90442818Y-126106824D01*
X90845416Y-126107175D01*
X91217503Y-125953432D01*
X91502431Y-125669000D01*
X91656824Y-125297182D01*
X91656825Y-125295416D01*
X92172825Y-125295416D01*
X92326568Y-125667503D01*
X92611000Y-125952431D01*
X92982818Y-126106824D01*
X93385416Y-126107175D01*
X93757503Y-125953432D01*
X94042431Y-125669000D01*
X94196824Y-125297182D01*
X94197175Y-124894584D01*
X94043432Y-124522497D01*
X93759000Y-124237569D01*
X93387182Y-124083176D01*
X92984584Y-124082825D01*
X92612497Y-124236568D01*
X92327569Y-124521000D01*
X92173176Y-124892818D01*
X92172825Y-125295416D01*
X91656825Y-125295416D01*
X91657175Y-124894584D01*
X91574890Y-124695440D01*
X92165165Y-124105165D01*
X92246455Y-123983507D01*
X92275000Y-123840000D01*
X92275000Y-123002699D01*
X92326568Y-123127503D01*
X92611000Y-123412431D01*
X92982818Y-123566824D01*
X93385416Y-123567175D01*
X93757503Y-123413432D01*
X94042431Y-123129000D01*
X94196824Y-122757182D01*
X94197175Y-122354584D01*
X94043432Y-121982497D01*
X93759000Y-121697569D01*
X93387182Y-121543176D01*
X92984584Y-121542825D01*
X92612497Y-121696568D01*
X92327569Y-121981000D01*
X92275000Y-122107600D01*
X92275000Y-119827699D01*
X92326568Y-119952503D01*
X92611000Y-120237431D01*
X92982818Y-120391824D01*
X93385416Y-120392175D01*
X93757503Y-120238432D01*
X94042431Y-119954000D01*
X94196824Y-119582182D01*
X94196825Y-119580416D01*
X94712825Y-119580416D01*
X94866568Y-119952503D01*
X95151000Y-120237431D01*
X95522818Y-120391824D01*
X95925416Y-120392175D01*
X96297503Y-120238432D01*
X96575000Y-119961418D01*
X96575000Y-121974050D01*
X96299000Y-121697569D01*
X95927182Y-121543176D01*
X95524584Y-121542825D01*
X95152497Y-121696568D01*
X94867569Y-121981000D01*
X94713176Y-122352818D01*
X94712825Y-122755416D01*
X94866568Y-123127503D01*
X95151000Y-123412431D01*
X95522818Y-123566824D01*
X95925416Y-123567175D01*
X96297503Y-123413432D01*
X96575000Y-123136418D01*
X96575000Y-123714670D01*
X96124542Y-124165128D01*
X95927182Y-124083176D01*
X95524584Y-124082825D01*
X95152497Y-124236568D01*
X94867569Y-124521000D01*
X94713176Y-124892818D01*
X94712825Y-125295416D01*
X94866568Y-125667503D01*
X95151000Y-125952431D01*
X95522818Y-126106824D01*
X95925416Y-126107175D01*
X96297503Y-125953432D01*
X96582431Y-125669000D01*
X96736824Y-125297182D01*
X96736825Y-125295416D01*
X97252825Y-125295416D01*
X97406568Y-125667503D01*
X97691000Y-125952431D01*
X98062818Y-126106824D01*
X98465416Y-126107175D01*
X98837503Y-125953432D01*
X99122431Y-125669000D01*
X99276824Y-125297182D01*
X99276825Y-125295416D01*
X99792825Y-125295416D01*
X99946568Y-125667503D01*
X100231000Y-125952431D01*
X100602818Y-126106824D01*
X101005416Y-126107175D01*
X101377503Y-125953432D01*
X101662431Y-125669000D01*
X101816824Y-125297182D01*
X101816825Y-125295416D01*
X102332825Y-125295416D01*
X102486568Y-125667503D01*
X102771000Y-125952431D01*
X103142818Y-126106824D01*
X103545416Y-126107175D01*
X103917503Y-125953432D01*
X104202431Y-125669000D01*
X104356824Y-125297182D01*
X104356825Y-125295416D01*
X104872825Y-125295416D01*
X105026568Y-125667503D01*
X105311000Y-125952431D01*
X105682818Y-126106824D01*
X106085416Y-126107175D01*
X106457503Y-125953432D01*
X106742431Y-125669000D01*
X106896824Y-125297182D01*
X106896825Y-125295416D01*
X107412825Y-125295416D01*
X107566568Y-125667503D01*
X107851000Y-125952431D01*
X108222818Y-126106824D01*
X108625416Y-126107175D01*
X108997503Y-125953432D01*
X109282431Y-125669000D01*
X109436824Y-125297182D01*
X109437175Y-124894584D01*
X109283432Y-124522497D01*
X108999000Y-124237569D01*
X108627182Y-124083176D01*
X108224584Y-124082825D01*
X107852497Y-124236568D01*
X107567569Y-124521000D01*
X107413176Y-124892818D01*
X107412825Y-125295416D01*
X106896825Y-125295416D01*
X106897175Y-124894584D01*
X106743432Y-124522497D01*
X106459000Y-124237569D01*
X106087182Y-124083176D01*
X105684584Y-124082825D01*
X105312497Y-124236568D01*
X105027569Y-124521000D01*
X104873176Y-124892818D01*
X104872825Y-125295416D01*
X104356825Y-125295416D01*
X104357175Y-124894584D01*
X104203432Y-124522497D01*
X103919000Y-124237569D01*
X103547182Y-124083176D01*
X103144584Y-124082825D01*
X102772497Y-124236568D01*
X102487569Y-124521000D01*
X102333176Y-124892818D01*
X102332825Y-125295416D01*
X101816825Y-125295416D01*
X101817175Y-124894584D01*
X101663432Y-124522497D01*
X101379000Y-124237569D01*
X101007182Y-124083176D01*
X100604584Y-124082825D01*
X100232497Y-124236568D01*
X99947569Y-124521000D01*
X99793176Y-124892818D01*
X99792825Y-125295416D01*
X99276825Y-125295416D01*
X99277175Y-124894584D01*
X99123432Y-124522497D01*
X98839000Y-124237569D01*
X98467182Y-124083176D01*
X98064584Y-124082825D01*
X97692497Y-124236568D01*
X97407569Y-124521000D01*
X97253176Y-124892818D01*
X97252825Y-125295416D01*
X96736825Y-125295416D01*
X96737175Y-124894584D01*
X96654890Y-124695440D01*
X97215165Y-124135165D01*
X97296455Y-124013506D01*
X97325000Y-123870000D01*
X97325000Y-122930093D01*
X97406568Y-123127503D01*
X97691000Y-123412431D01*
X98062818Y-123566824D01*
X98465416Y-123567175D01*
X98837503Y-123413432D01*
X99122431Y-123129000D01*
X99276824Y-122757182D01*
X99276825Y-122755416D01*
X99792825Y-122755416D01*
X99946568Y-123127503D01*
X100231000Y-123412431D01*
X100602818Y-123566824D01*
X101005416Y-123567175D01*
X101377503Y-123413432D01*
X101662431Y-123129000D01*
X101816824Y-122757182D01*
X101816825Y-122755416D01*
X102332825Y-122755416D01*
X102486568Y-123127503D01*
X102771000Y-123412431D01*
X103142818Y-123566824D01*
X103545416Y-123567175D01*
X103917503Y-123413432D01*
X104202431Y-123129000D01*
X104356824Y-122757182D01*
X104356825Y-122755416D01*
X104872825Y-122755416D01*
X105026568Y-123127503D01*
X105311000Y-123412431D01*
X105682818Y-123566824D01*
X106085416Y-123567175D01*
X106151208Y-123539990D01*
X107728510Y-123539990D01*
X107808104Y-123751151D01*
X108312809Y-123896175D01*
X108834595Y-123837018D01*
X109041896Y-123751151D01*
X109121490Y-123539990D01*
X108425000Y-122843500D01*
X107728510Y-123539990D01*
X106151208Y-123539990D01*
X106457503Y-123413432D01*
X106742431Y-123129000D01*
X106896824Y-122757182D01*
X106897098Y-122442809D01*
X107083825Y-122442809D01*
X107142982Y-122964595D01*
X107228849Y-123171896D01*
X107440010Y-123251490D01*
X108136500Y-122555000D01*
X108713500Y-122555000D01*
X109409990Y-123251490D01*
X109621151Y-123171896D01*
X109766175Y-122667191D01*
X109707018Y-122145405D01*
X109621151Y-121938104D01*
X109409990Y-121858510D01*
X108713500Y-122555000D01*
X108136500Y-122555000D01*
X107440010Y-121858510D01*
X107228849Y-121938104D01*
X107083825Y-122442809D01*
X106897098Y-122442809D01*
X106897175Y-122354584D01*
X106743432Y-121982497D01*
X106459000Y-121697569D01*
X106151806Y-121570010D01*
X107728510Y-121570010D01*
X108425000Y-122266500D01*
X109121490Y-121570010D01*
X109041896Y-121358849D01*
X108537191Y-121213825D01*
X108015405Y-121272982D01*
X107808104Y-121358849D01*
X107728510Y-121570010D01*
X106151806Y-121570010D01*
X106087182Y-121543176D01*
X105684584Y-121542825D01*
X105312497Y-121696568D01*
X105027569Y-121981000D01*
X104873176Y-122352818D01*
X104872825Y-122755416D01*
X104356825Y-122755416D01*
X104357175Y-122354584D01*
X104203432Y-121982497D01*
X103919000Y-121697569D01*
X103547182Y-121543176D01*
X103144584Y-121542825D01*
X102772497Y-121696568D01*
X102487569Y-121981000D01*
X102333176Y-122352818D01*
X102332825Y-122755416D01*
X101816825Y-122755416D01*
X101817175Y-122354584D01*
X101663432Y-121982497D01*
X101379000Y-121697569D01*
X101007182Y-121543176D01*
X100604584Y-121542825D01*
X100232497Y-121696568D01*
X99947569Y-121981000D01*
X99793176Y-122352818D01*
X99792825Y-122755416D01*
X99276825Y-122755416D01*
X99277175Y-122354584D01*
X99123432Y-121982497D01*
X98839000Y-121697569D01*
X98467182Y-121543176D01*
X98064584Y-121542825D01*
X97692497Y-121696568D01*
X97407569Y-121981000D01*
X97325000Y-122179847D01*
X97325000Y-119755093D01*
X97406568Y-119952503D01*
X97691000Y-120237431D01*
X98062818Y-120391824D01*
X98465416Y-120392175D01*
X98837503Y-120238432D01*
X99122431Y-119954000D01*
X99276824Y-119582182D01*
X99276825Y-119580416D01*
X99792825Y-119580416D01*
X99946568Y-119952503D01*
X100231000Y-120237431D01*
X100602818Y-120391824D01*
X101005416Y-120392175D01*
X101377503Y-120238432D01*
X101662431Y-119954000D01*
X101816824Y-119582182D01*
X101816825Y-119580416D01*
X102332825Y-119580416D01*
X102486568Y-119952503D01*
X102771000Y-120237431D01*
X103142818Y-120391824D01*
X103545416Y-120392175D01*
X103917503Y-120238432D01*
X104202431Y-119954000D01*
X104356824Y-119582182D01*
X104357175Y-119179584D01*
X104203432Y-118807497D01*
X103919000Y-118522569D01*
X103547182Y-118368176D01*
X103144584Y-118367825D01*
X102772497Y-118521568D01*
X102487569Y-118806000D01*
X102333176Y-119177818D01*
X102332825Y-119580416D01*
X101816825Y-119580416D01*
X101817175Y-119179584D01*
X101663432Y-118807497D01*
X101379000Y-118522569D01*
X101007182Y-118368176D01*
X100604584Y-118367825D01*
X100232497Y-118521568D01*
X99947569Y-118806000D01*
X99793176Y-119177818D01*
X99792825Y-119580416D01*
X99276825Y-119580416D01*
X99277175Y-119179584D01*
X99123432Y-118807497D01*
X98839000Y-118522569D01*
X98467182Y-118368176D01*
X98064584Y-118367825D01*
X97692497Y-118521568D01*
X97407569Y-118806000D01*
X97325000Y-119004847D01*
X97325000Y-118285330D01*
X104245330Y-111365000D01*
X139523790Y-111365000D01*
X139533966Y-111416156D01*
X139775364Y-111777434D01*
X140136642Y-112018832D01*
X140562798Y-112103600D01*
X140917202Y-112103600D01*
X141343358Y-112018832D01*
X141704636Y-111777434D01*
X141946034Y-111416156D01*
X142030802Y-110990000D01*
X141946034Y-110563844D01*
X141704636Y-110202566D01*
X141343358Y-109961168D01*
X140917202Y-109876400D01*
X140562798Y-109876400D01*
X140136642Y-109961168D01*
X139775364Y-110202566D01*
X139533966Y-110563844D01*
X139523790Y-110615000D01*
X104090000Y-110615000D01*
X103946494Y-110643545D01*
X103824835Y-110724835D01*
X96684835Y-117864835D01*
X96603545Y-117986493D01*
X96603545Y-117986494D01*
X96575000Y-118130000D01*
X96575000Y-118799050D01*
X96299000Y-118522569D01*
X95927182Y-118368176D01*
X95524584Y-118367825D01*
X95152497Y-118521568D01*
X94867569Y-118806000D01*
X94713176Y-119177818D01*
X94712825Y-119580416D01*
X94196825Y-119580416D01*
X94197175Y-119179584D01*
X94043432Y-118807497D01*
X93759000Y-118522569D01*
X93387182Y-118368176D01*
X92984584Y-118367825D01*
X92612497Y-118521568D01*
X92327569Y-118806000D01*
X92275000Y-118932600D01*
X92275000Y-116040000D01*
X92262104Y-115975165D01*
X92246455Y-115896493D01*
X92165165Y-115774835D01*
X87569983Y-111179653D01*
X87570095Y-111051078D01*
X87486539Y-110848857D01*
X87331957Y-110694005D01*
X87129882Y-110610096D01*
X86911078Y-110609905D01*
X86708857Y-110693461D01*
X86554005Y-110848043D01*
X86470096Y-111050118D01*
X86469905Y-111268922D01*
X86553461Y-111471143D01*
X86708043Y-111625995D01*
X86910118Y-111709904D01*
X87039687Y-111710017D01*
X91525000Y-116195330D01*
X91525000Y-118859696D01*
X91503432Y-118807497D01*
X91219000Y-118522569D01*
X90847182Y-118368176D01*
X90444584Y-118367825D01*
X90072497Y-118521568D01*
X89787569Y-118806000D01*
X89633176Y-119177818D01*
X89632825Y-119580416D01*
X89786568Y-119952503D01*
X90071000Y-120237431D01*
X90442818Y-120391824D01*
X90845416Y-120392175D01*
X91217503Y-120238432D01*
X91502431Y-119954000D01*
X91525000Y-119899648D01*
X91525000Y-122034696D01*
X91503432Y-121982497D01*
X91219000Y-121697569D01*
X90847182Y-121543176D01*
X90444584Y-121542825D01*
X90245440Y-121625110D01*
X84175000Y-115554670D01*
X84175000Y-115312793D01*
X84265995Y-115221957D01*
X84349904Y-115019882D01*
X84350095Y-114801078D01*
X84266539Y-114598857D01*
X84111957Y-114444005D01*
X83909882Y-114360096D01*
X83691078Y-114359905D01*
X83488857Y-114443461D01*
X83334005Y-114598043D01*
X83250096Y-114800118D01*
X83249905Y-115018922D01*
X60817100Y-115018922D01*
X60817100Y-112250000D01*
X60792361Y-112125628D01*
X60721910Y-112020190D01*
X60616472Y-111949739D01*
X60492100Y-111925000D01*
X44325000Y-111925000D01*
X44325000Y-108560000D01*
X77991073Y-108560000D01*
X77991073Y-111560000D01*
X78008505Y-111652644D01*
X78063258Y-111737732D01*
X78146801Y-111794815D01*
X78245970Y-111814897D01*
X80905000Y-111814897D01*
X80905000Y-112867207D01*
X80814005Y-112958043D01*
X80730096Y-113160118D01*
X80729905Y-113378922D01*
X80813461Y-113581143D01*
X80968043Y-113735995D01*
X81170118Y-113819904D01*
X81388922Y-113820095D01*
X81591143Y-113736539D01*
X81745995Y-113581957D01*
X81829904Y-113379882D01*
X81830095Y-113161078D01*
X81746539Y-112958857D01*
X81655000Y-112867158D01*
X81655000Y-111814897D01*
X84314030Y-111814897D01*
X84406674Y-111797465D01*
X84491762Y-111742712D01*
X84548845Y-111659169D01*
X84568927Y-111560000D01*
X84568927Y-108560000D01*
X84551495Y-108467356D01*
X84496742Y-108382268D01*
X84413199Y-108325185D01*
X84314030Y-108305103D01*
X78245970Y-108305103D01*
X78153326Y-108322535D01*
X78068238Y-108377288D01*
X78011155Y-108460831D01*
X77991073Y-108560000D01*
X44325000Y-108560000D01*
X44325000Y-105735000D01*
X67400000Y-105735000D01*
X67524372Y-105710261D01*
X67629810Y-105639810D01*
X67700261Y-105534372D01*
X67725000Y-105410000D01*
X67725000Y-104720510D01*
X109573073Y-104720510D01*
X109573073Y-106719490D01*
X109590505Y-106812134D01*
X109645258Y-106897222D01*
X109728801Y-106954305D01*
X109827970Y-106974387D01*
X111826950Y-106974387D01*
X111919594Y-106956955D01*
X112004682Y-106902202D01*
X112061765Y-106818659D01*
X112081847Y-106719490D01*
X112081847Y-104720510D01*
X112064415Y-104627866D01*
X112009662Y-104542778D01*
X111926119Y-104485695D01*
X111826950Y-104465613D01*
X109827970Y-104465613D01*
X109735326Y-104483045D01*
X109650238Y-104537798D01*
X109593155Y-104621341D01*
X109573073Y-104720510D01*
X67725000Y-104720510D01*
X67725000Y-103445869D01*
X113216759Y-103445869D01*
X113428384Y-103958040D01*
X113819899Y-104350239D01*
X114331700Y-104562757D01*
X114885869Y-104563241D01*
X115398040Y-104351616D01*
X115790239Y-103960101D01*
X116002757Y-103448300D01*
X116002759Y-103445869D01*
X123376759Y-103445869D01*
X123588384Y-103958040D01*
X123979899Y-104350239D01*
X124491700Y-104562757D01*
X125045869Y-104563241D01*
X125558040Y-104351616D01*
X125950239Y-103960101D01*
X126162757Y-103448300D01*
X126162759Y-103445869D01*
X130996759Y-103445869D01*
X131208384Y-103958040D01*
X131599899Y-104350239D01*
X132111700Y-104562757D01*
X132665869Y-104563241D01*
X133178040Y-104351616D01*
X133570239Y-103960101D01*
X133782757Y-103448300D01*
X133783241Y-102894131D01*
X133571616Y-102381960D01*
X133180101Y-101989761D01*
X132668300Y-101777243D01*
X132114131Y-101776759D01*
X131601960Y-101988384D01*
X131209761Y-102379899D01*
X130997243Y-102891700D01*
X130996759Y-103445869D01*
X126162759Y-103445869D01*
X126163241Y-102894131D01*
X125951616Y-102381960D01*
X125560101Y-101989761D01*
X125048300Y-101777243D01*
X124494131Y-101776759D01*
X123981960Y-101988384D01*
X123589761Y-102379899D01*
X123377243Y-102891700D01*
X123376759Y-103445869D01*
X116002759Y-103445869D01*
X116003241Y-102894131D01*
X115791616Y-102381960D01*
X115400101Y-101989761D01*
X114888300Y-101777243D01*
X114334131Y-101776759D01*
X113821960Y-101988384D01*
X113429761Y-102379899D01*
X113217243Y-102891700D01*
X113216759Y-103445869D01*
X67725000Y-103445869D01*
X67725000Y-99403500D01*
X77687970Y-99403500D01*
X77687970Y-102205023D01*
X77772920Y-102410112D01*
X77929888Y-102567079D01*
X78134977Y-102652030D01*
X80936500Y-102652030D01*
X81076000Y-102512530D01*
X81076000Y-99264000D01*
X81484000Y-99264000D01*
X81484000Y-102512530D01*
X81623500Y-102652030D01*
X84425023Y-102652030D01*
X84630112Y-102567079D01*
X84787080Y-102410112D01*
X84872030Y-102205023D01*
X84872030Y-101420000D01*
X137365103Y-101420000D01*
X137365103Y-103820000D01*
X137382535Y-103912644D01*
X137437288Y-103997732D01*
X137520831Y-104054815D01*
X137620000Y-104074897D01*
X140020000Y-104074897D01*
X140112644Y-104057465D01*
X140197732Y-104002712D01*
X140254815Y-103919169D01*
X140274897Y-103820000D01*
X140274897Y-101420000D01*
X140257465Y-101327356D01*
X140202712Y-101242268D01*
X140119169Y-101185185D01*
X140020000Y-101165103D01*
X137620000Y-101165103D01*
X137527356Y-101182535D01*
X137442268Y-101237288D01*
X137385185Y-101320831D01*
X137365103Y-101420000D01*
X84872030Y-101420000D01*
X84872030Y-99407157D01*
X137369749Y-99407157D01*
X137590033Y-99940286D01*
X137997569Y-100348533D01*
X138530312Y-100569748D01*
X139107157Y-100570251D01*
X139640286Y-100349967D01*
X140048533Y-99942431D01*
X140269748Y-99409688D01*
X140270251Y-98832843D01*
X140049967Y-98299714D01*
X139642431Y-97891467D01*
X139109688Y-97670252D01*
X138532843Y-97669749D01*
X137999714Y-97890033D01*
X137591467Y-98297569D01*
X137370252Y-98830312D01*
X137369749Y-99407157D01*
X84872030Y-99407157D01*
X84872030Y-99403500D01*
X84732530Y-99264000D01*
X81484000Y-99264000D01*
X81076000Y-99264000D01*
X77827470Y-99264000D01*
X77687970Y-99403500D01*
X67725000Y-99403500D01*
X67725000Y-95914977D01*
X77687970Y-95914977D01*
X77687970Y-98716500D01*
X77827470Y-98856000D01*
X81076000Y-98856000D01*
X81076000Y-95607470D01*
X81484000Y-95607470D01*
X81484000Y-98856000D01*
X84732530Y-98856000D01*
X84872030Y-98716500D01*
X84872030Y-95914977D01*
X84827491Y-95807449D01*
X109577754Y-95807449D01*
X109767576Y-96266855D01*
X110118757Y-96618648D01*
X110577831Y-96809273D01*
X111074909Y-96809706D01*
X111534315Y-96619884D01*
X111886108Y-96268703D01*
X112069989Y-95825869D01*
X113216759Y-95825869D01*
X113428384Y-96338040D01*
X113819899Y-96730239D01*
X114331700Y-96942757D01*
X114885869Y-96943241D01*
X115398040Y-96731616D01*
X115790239Y-96340101D01*
X116002757Y-95828300D01*
X116002759Y-95825869D01*
X128456759Y-95825869D01*
X128668384Y-96338040D01*
X129059899Y-96730239D01*
X129571700Y-96942757D01*
X130125869Y-96943241D01*
X130638040Y-96731616D01*
X131030239Y-96340101D01*
X131210012Y-95907157D01*
X137369749Y-95907157D01*
X137590033Y-96440286D01*
X137997569Y-96848533D01*
X138530312Y-97069748D01*
X139107157Y-97070251D01*
X139640286Y-96849967D01*
X140048533Y-96442431D01*
X140269748Y-95909688D01*
X140270251Y-95332843D01*
X140049967Y-94799714D01*
X139642431Y-94391467D01*
X139109688Y-94170252D01*
X138532843Y-94169749D01*
X137999714Y-94390033D01*
X137591467Y-94797569D01*
X137370252Y-95330312D01*
X137369749Y-95907157D01*
X131210012Y-95907157D01*
X131242757Y-95828300D01*
X131243241Y-95274131D01*
X131031616Y-94761960D01*
X130640101Y-94369761D01*
X130128300Y-94157243D01*
X129574131Y-94156759D01*
X129061960Y-94368384D01*
X128669761Y-94759899D01*
X128457243Y-95271700D01*
X128456759Y-95825869D01*
X116002759Y-95825869D01*
X116003241Y-95274131D01*
X115791616Y-94761960D01*
X115400101Y-94369761D01*
X114888300Y-94157243D01*
X114334131Y-94156759D01*
X113821960Y-94368384D01*
X113429761Y-94759899D01*
X113217243Y-95271700D01*
X113216759Y-95825869D01*
X112069989Y-95825869D01*
X112076733Y-95809629D01*
X112077166Y-95312551D01*
X111887344Y-94853145D01*
X111536163Y-94501352D01*
X111077089Y-94310727D01*
X110580011Y-94310294D01*
X110120605Y-94500116D01*
X109768812Y-94851297D01*
X109578187Y-95310371D01*
X109577754Y-95807449D01*
X84827491Y-95807449D01*
X84787080Y-95709888D01*
X84630112Y-95552921D01*
X84425023Y-95467970D01*
X81623500Y-95467970D01*
X81484000Y-95607470D01*
X81076000Y-95607470D01*
X80936500Y-95467970D01*
X78134977Y-95467970D01*
X77929888Y-95552921D01*
X77772920Y-95709888D01*
X77687970Y-95914977D01*
X67725000Y-95914977D01*
X67725000Y-88900000D01*
X67700261Y-88775628D01*
X67629810Y-88670190D01*
X67524372Y-88599739D01*
X67400000Y-88575000D01*
X44325000Y-88575000D01*
X44325000Y-86525970D01*
X77991073Y-86525970D01*
X77991073Y-89594030D01*
X78008505Y-89686674D01*
X78063258Y-89771762D01*
X78146801Y-89828845D01*
X78245970Y-89848927D01*
X84314030Y-89848927D01*
X84406674Y-89831495D01*
X84491762Y-89776742D01*
X84548845Y-89693199D01*
X84568927Y-89594030D01*
X84568927Y-86525970D01*
X84551495Y-86433326D01*
X84496742Y-86348238D01*
X84413199Y-86291155D01*
X84314030Y-86271073D01*
X78245970Y-86271073D01*
X78153326Y-86288505D01*
X78068238Y-86343258D01*
X78011155Y-86426801D01*
X77991073Y-86525970D01*
X44325000Y-86525970D01*
X44325000Y-76029502D01*
X60359094Y-76029502D01*
X60715422Y-76891883D01*
X61374646Y-77552259D01*
X62236404Y-77910092D01*
X63169502Y-77910906D01*
X64031883Y-77554578D01*
X64551952Y-77035416D01*
X66772825Y-77035416D01*
X66926568Y-77407503D01*
X67211000Y-77692431D01*
X67582818Y-77846824D01*
X67985416Y-77847175D01*
X68357503Y-77693432D01*
X68642431Y-77409000D01*
X68796824Y-77037182D01*
X68796825Y-77035416D01*
X69312825Y-77035416D01*
X69466568Y-77407503D01*
X69751000Y-77692431D01*
X70122818Y-77846824D01*
X70525416Y-77847175D01*
X70897503Y-77693432D01*
X71182431Y-77409000D01*
X71336824Y-77037182D01*
X71336825Y-77035416D01*
X71852825Y-77035416D01*
X72006568Y-77407503D01*
X72291000Y-77692431D01*
X72662818Y-77846824D01*
X73065416Y-77847175D01*
X73437503Y-77693432D01*
X73722431Y-77409000D01*
X73876824Y-77037182D01*
X73877175Y-76634584D01*
X73723432Y-76262497D01*
X73439000Y-75977569D01*
X73067182Y-75823176D01*
X72664584Y-75822825D01*
X72292497Y-75976568D01*
X72007569Y-76261000D01*
X71853176Y-76632818D01*
X71852825Y-77035416D01*
X71336825Y-77035416D01*
X71337175Y-76634584D01*
X71183432Y-76262497D01*
X70899000Y-75977569D01*
X70527182Y-75823176D01*
X70124584Y-75822825D01*
X69752497Y-75976568D01*
X69467569Y-76261000D01*
X69313176Y-76632818D01*
X69312825Y-77035416D01*
X68796825Y-77035416D01*
X68797175Y-76634584D01*
X68643432Y-76262497D01*
X68359000Y-75977569D01*
X67987182Y-75823176D01*
X67584584Y-75822825D01*
X67212497Y-75976568D01*
X66927569Y-76261000D01*
X66773176Y-76632818D01*
X66772825Y-77035416D01*
X64551952Y-77035416D01*
X64692259Y-76895354D01*
X65050092Y-76033596D01*
X65050906Y-75100498D01*
X64800892Y-74495416D01*
X66772825Y-74495416D01*
X66926568Y-74867503D01*
X67211000Y-75152431D01*
X67582818Y-75306824D01*
X67985416Y-75307175D01*
X68357503Y-75153432D01*
X68642431Y-74869000D01*
X68796824Y-74497182D01*
X68796825Y-74495416D01*
X69312825Y-74495416D01*
X69466568Y-74867503D01*
X69751000Y-75152431D01*
X70122818Y-75306824D01*
X70525416Y-75307175D01*
X70897503Y-75153432D01*
X71182431Y-74869000D01*
X71336824Y-74497182D01*
X71336825Y-74495416D01*
X71852825Y-74495416D01*
X72006568Y-74867503D01*
X72291000Y-75152431D01*
X72662818Y-75306824D01*
X73065416Y-75307175D01*
X73437503Y-75153432D01*
X73722431Y-74869000D01*
X73876824Y-74497182D01*
X73876825Y-74495416D01*
X74392825Y-74495416D01*
X74546568Y-74867503D01*
X74831000Y-75152431D01*
X75202818Y-75306824D01*
X75605416Y-75307175D01*
X75804560Y-75224890D01*
X76295000Y-75715330D01*
X76295000Y-76338898D01*
X76263432Y-76262497D01*
X75979000Y-75977569D01*
X75607182Y-75823176D01*
X75204584Y-75822825D01*
X74832497Y-75976568D01*
X74547569Y-76261000D01*
X74393176Y-76632818D01*
X74392825Y-77035416D01*
X74546568Y-77407503D01*
X74831000Y-77692431D01*
X75030000Y-77775063D01*
X75030000Y-81665000D01*
X75058545Y-81808507D01*
X75139835Y-81930165D01*
X77794835Y-84585165D01*
X77916493Y-84666455D01*
X78060000Y-84695000D01*
X85704670Y-84695000D01*
X94000017Y-92990347D01*
X93999905Y-93118922D01*
X94083461Y-93321143D01*
X94238043Y-93475995D01*
X94440118Y-93559904D01*
X94658922Y-93560095D01*
X94861143Y-93476539D01*
X95015995Y-93321957D01*
X95099904Y-93119882D01*
X95100095Y-92901078D01*
X95016539Y-92698857D01*
X94861957Y-92544005D01*
X94659882Y-92460096D01*
X94530313Y-92459983D01*
X92880840Y-90810510D01*
X109573073Y-90810510D01*
X109573073Y-92809490D01*
X109590505Y-92902134D01*
X109645258Y-92987222D01*
X109728801Y-93044305D01*
X109827970Y-93064387D01*
X111826950Y-93064387D01*
X111919594Y-93046955D01*
X112004682Y-92992202D01*
X112061765Y-92908659D01*
X112081847Y-92809490D01*
X112081847Y-92075869D01*
X113216759Y-92075869D01*
X113428384Y-92588040D01*
X113819899Y-92980239D01*
X114331700Y-93192757D01*
X114885869Y-93193241D01*
X115398040Y-92981616D01*
X115790239Y-92590101D01*
X116002757Y-92078300D01*
X116002759Y-92075869D01*
X123376759Y-92075869D01*
X123588384Y-92588040D01*
X123979899Y-92980239D01*
X124491700Y-93192757D01*
X125045869Y-93193241D01*
X125558040Y-92981616D01*
X125950239Y-92590101D01*
X126162757Y-92078300D01*
X126162759Y-92075869D01*
X130996759Y-92075869D01*
X131208384Y-92588040D01*
X131599899Y-92980239D01*
X132111700Y-93192757D01*
X132665869Y-93193241D01*
X133178040Y-92981616D01*
X133570239Y-92590101D01*
X133782757Y-92078300D01*
X133783241Y-91524131D01*
X133571616Y-91011960D01*
X133180101Y-90619761D01*
X132668300Y-90407243D01*
X132114131Y-90406759D01*
X131601960Y-90618384D01*
X131209761Y-91009899D01*
X130997243Y-91521700D01*
X130996759Y-92075869D01*
X126162759Y-92075869D01*
X126163241Y-91524131D01*
X125951616Y-91011960D01*
X125560101Y-90619761D01*
X125048300Y-90407243D01*
X124494131Y-90406759D01*
X123981960Y-90618384D01*
X123589761Y-91009899D01*
X123377243Y-91521700D01*
X123376759Y-92075869D01*
X116002759Y-92075869D01*
X116003241Y-91524131D01*
X115791616Y-91011960D01*
X115400101Y-90619761D01*
X114888300Y-90407243D01*
X114334131Y-90406759D01*
X113821960Y-90618384D01*
X113429761Y-91009899D01*
X113217243Y-91521700D01*
X113216759Y-92075869D01*
X112081847Y-92075869D01*
X112081847Y-90810510D01*
X112064415Y-90717866D01*
X112009662Y-90632778D01*
X111926119Y-90575695D01*
X111826950Y-90555613D01*
X109827970Y-90555613D01*
X109735326Y-90573045D01*
X109650238Y-90627798D01*
X109593155Y-90711341D01*
X109573073Y-90810510D01*
X92880840Y-90810510D01*
X91500330Y-89430000D01*
X137365103Y-89430000D01*
X137365103Y-91830000D01*
X137382535Y-91922644D01*
X137437288Y-92007732D01*
X137520831Y-92064815D01*
X137620000Y-92084897D01*
X140020000Y-92084897D01*
X140112644Y-92067465D01*
X140197732Y-92012712D01*
X140254815Y-91929169D01*
X140274897Y-91830000D01*
X140274897Y-89430000D01*
X140257465Y-89337356D01*
X140202712Y-89252268D01*
X140119169Y-89195185D01*
X140020000Y-89175103D01*
X137620000Y-89175103D01*
X137527356Y-89192535D01*
X137442268Y-89247288D01*
X137385185Y-89330831D01*
X137365103Y-89430000D01*
X91500330Y-89430000D01*
X89487487Y-87417157D01*
X137369749Y-87417157D01*
X137590033Y-87950286D01*
X137997569Y-88358533D01*
X138530312Y-88579748D01*
X139107157Y-88580251D01*
X139640286Y-88359967D01*
X140048533Y-87952431D01*
X140269748Y-87419688D01*
X140270251Y-86842843D01*
X140049967Y-86309714D01*
X139642431Y-85901467D01*
X139109688Y-85680252D01*
X138532843Y-85679749D01*
X137999714Y-85900033D01*
X137591467Y-86307569D01*
X137370252Y-86840312D01*
X137369749Y-87417157D01*
X89487487Y-87417157D01*
X86526199Y-84455869D01*
X113216759Y-84455869D01*
X113428384Y-84968040D01*
X113819899Y-85360239D01*
X114331700Y-85572757D01*
X114885869Y-85573241D01*
X115398040Y-85361616D01*
X115790239Y-84970101D01*
X116002757Y-84458300D01*
X116002759Y-84455869D01*
X128456759Y-84455869D01*
X128668384Y-84968040D01*
X129059899Y-85360239D01*
X129571700Y-85572757D01*
X130125869Y-85573241D01*
X130638040Y-85361616D01*
X131030239Y-84970101D01*
X131242757Y-84458300D01*
X131243229Y-83917157D01*
X137369749Y-83917157D01*
X137590033Y-84450286D01*
X137997569Y-84858533D01*
X138530312Y-85079748D01*
X139107157Y-85080251D01*
X139640286Y-84859967D01*
X140048533Y-84452431D01*
X140269748Y-83919688D01*
X140270251Y-83342843D01*
X140049967Y-82809714D01*
X139642431Y-82401467D01*
X139109688Y-82180252D01*
X138532843Y-82179749D01*
X137999714Y-82400033D01*
X137591467Y-82807569D01*
X137370252Y-83340312D01*
X137369749Y-83917157D01*
X131243229Y-83917157D01*
X131243241Y-83904131D01*
X131031616Y-83391960D01*
X130640101Y-82999761D01*
X130128300Y-82787243D01*
X129574131Y-82786759D01*
X129061960Y-82998384D01*
X128669761Y-83389899D01*
X128457243Y-83901700D01*
X128456759Y-84455869D01*
X116002759Y-84455869D01*
X116003241Y-83904131D01*
X115791616Y-83391960D01*
X115400101Y-82999761D01*
X114888300Y-82787243D01*
X114334131Y-82786759D01*
X113821960Y-82998384D01*
X113429761Y-83389899D01*
X113217243Y-83901700D01*
X113216759Y-84455869D01*
X86526199Y-84455869D01*
X86125165Y-84054835D01*
X86003507Y-83973545D01*
X85860000Y-83945000D01*
X78215330Y-83945000D01*
X75780000Y-81509670D01*
X75780000Y-77775038D01*
X75977503Y-77693432D01*
X76262431Y-77409000D01*
X76295000Y-77330565D01*
X76295000Y-80500000D01*
X76323545Y-80643507D01*
X76404835Y-80765165D01*
X78814835Y-83175165D01*
X78936494Y-83256455D01*
X79080000Y-83285000D01*
X97527207Y-83285000D01*
X97618043Y-83375995D01*
X97820118Y-83459904D01*
X98038922Y-83460095D01*
X98241143Y-83376539D01*
X98395995Y-83221957D01*
X98479904Y-83019882D01*
X98480095Y-82801078D01*
X98396539Y-82598857D01*
X98241957Y-82444005D01*
X98039882Y-82360096D01*
X97821078Y-82359905D01*
X97618857Y-82443461D01*
X97527158Y-82535000D01*
X79235330Y-82535000D01*
X78597779Y-81897449D01*
X109577754Y-81897449D01*
X109767576Y-82356855D01*
X110118757Y-82708648D01*
X110577831Y-82899273D01*
X111074909Y-82899706D01*
X111534315Y-82709884D01*
X111886108Y-82358703D01*
X112076733Y-81899629D01*
X112077166Y-81402551D01*
X111887344Y-80943145D01*
X111536163Y-80591352D01*
X111077089Y-80400727D01*
X110580011Y-80400294D01*
X110120605Y-80590116D01*
X109768812Y-80941297D01*
X109578187Y-81400371D01*
X109577754Y-81897449D01*
X78597779Y-81897449D01*
X77045000Y-80344670D01*
X77045000Y-79204502D01*
X126399094Y-79204502D01*
X126755422Y-80066883D01*
X127414646Y-80727259D01*
X128276404Y-81085092D01*
X129209502Y-81085906D01*
X130071883Y-80729578D01*
X130732259Y-80070354D01*
X131090092Y-79208596D01*
X131090906Y-78275498D01*
X130734578Y-77413117D01*
X130075354Y-76752741D01*
X129213596Y-76394908D01*
X128280498Y-76394094D01*
X127418117Y-76750422D01*
X126757741Y-77409646D01*
X126399908Y-78271404D01*
X126399094Y-79204502D01*
X77045000Y-79204502D01*
X77045000Y-77306901D01*
X77086568Y-77407503D01*
X77371000Y-77692431D01*
X77742818Y-77846824D01*
X78145416Y-77847175D01*
X78517503Y-77693432D01*
X78802431Y-77409000D01*
X78956824Y-77037182D01*
X78956825Y-77035416D01*
X79472825Y-77035416D01*
X79626568Y-77407503D01*
X79911000Y-77692431D01*
X80282818Y-77846824D01*
X80685416Y-77847175D01*
X81057503Y-77693432D01*
X81342431Y-77409000D01*
X81496824Y-77037182D01*
X81496825Y-77035416D01*
X82012825Y-77035416D01*
X82166568Y-77407503D01*
X82451000Y-77692431D01*
X82822818Y-77846824D01*
X83225416Y-77847175D01*
X83597503Y-77693432D01*
X83882431Y-77409000D01*
X84036824Y-77037182D01*
X84036825Y-77035416D01*
X84552825Y-77035416D01*
X84706568Y-77407503D01*
X84991000Y-77692431D01*
X85362818Y-77846824D01*
X85765416Y-77847175D01*
X86137503Y-77693432D01*
X86422431Y-77409000D01*
X86576824Y-77037182D01*
X86576825Y-77035416D01*
X87092825Y-77035416D01*
X87246568Y-77407503D01*
X87531000Y-77692431D01*
X87902818Y-77846824D01*
X88305416Y-77847175D01*
X88677503Y-77693432D01*
X88962431Y-77409000D01*
X89116824Y-77037182D01*
X89116825Y-77035416D01*
X89632825Y-77035416D01*
X89786568Y-77407503D01*
X90071000Y-77692431D01*
X90442818Y-77846824D01*
X90845416Y-77847175D01*
X91217503Y-77693432D01*
X91502431Y-77409000D01*
X91656824Y-77037182D01*
X91656825Y-77035416D01*
X92172825Y-77035416D01*
X92326568Y-77407503D01*
X92611000Y-77692431D01*
X92982818Y-77846824D01*
X93385416Y-77847175D01*
X93757503Y-77693432D01*
X94042431Y-77409000D01*
X94196824Y-77037182D01*
X94196825Y-77035416D01*
X94712825Y-77035416D01*
X94866568Y-77407503D01*
X95151000Y-77692431D01*
X95522818Y-77846824D01*
X95925416Y-77847175D01*
X96297503Y-77693432D01*
X96582431Y-77409000D01*
X96736824Y-77037182D01*
X96736825Y-77035416D01*
X97252825Y-77035416D01*
X97406568Y-77407503D01*
X97691000Y-77692431D01*
X98062818Y-77846824D01*
X98465416Y-77847175D01*
X98837503Y-77693432D01*
X99122431Y-77409000D01*
X99276824Y-77037182D01*
X99276825Y-77035416D01*
X99792825Y-77035416D01*
X99946568Y-77407503D01*
X100231000Y-77692431D01*
X100602818Y-77846824D01*
X101005416Y-77847175D01*
X101377503Y-77693432D01*
X101662431Y-77409000D01*
X101816824Y-77037182D01*
X101816825Y-77035416D01*
X102332825Y-77035416D01*
X102486568Y-77407503D01*
X102771000Y-77692431D01*
X103142818Y-77846824D01*
X103545416Y-77847175D01*
X103917503Y-77693432D01*
X104202431Y-77409000D01*
X104356824Y-77037182D01*
X104356825Y-77035416D01*
X104872825Y-77035416D01*
X105026568Y-77407503D01*
X105311000Y-77692431D01*
X105682818Y-77846824D01*
X106085416Y-77847175D01*
X106457503Y-77693432D01*
X106742431Y-77409000D01*
X106896824Y-77037182D01*
X106896825Y-77035416D01*
X107412825Y-77035416D01*
X107566568Y-77407503D01*
X107851000Y-77692431D01*
X108222818Y-77846824D01*
X108625416Y-77847175D01*
X108997503Y-77693432D01*
X109282431Y-77409000D01*
X109436824Y-77037182D01*
X109436825Y-77035416D01*
X109952825Y-77035416D01*
X110106568Y-77407503D01*
X110391000Y-77692431D01*
X110762818Y-77846824D01*
X111165416Y-77847175D01*
X111537503Y-77693432D01*
X111822431Y-77409000D01*
X111976824Y-77037182D01*
X111976825Y-77035416D01*
X112492825Y-77035416D01*
X112646568Y-77407503D01*
X112931000Y-77692431D01*
X113302818Y-77846824D01*
X113705416Y-77847175D01*
X114077503Y-77693432D01*
X114362431Y-77409000D01*
X114516824Y-77037182D01*
X114516825Y-77035416D01*
X115032825Y-77035416D01*
X115186568Y-77407503D01*
X115471000Y-77692431D01*
X115842818Y-77846824D01*
X116245416Y-77847175D01*
X116617503Y-77693432D01*
X116902431Y-77409000D01*
X117056824Y-77037182D01*
X117056825Y-77035416D01*
X117572825Y-77035416D01*
X117726568Y-77407503D01*
X118011000Y-77692431D01*
X118382818Y-77846824D01*
X118785416Y-77847175D01*
X119157503Y-77693432D01*
X119442431Y-77409000D01*
X119596824Y-77037182D01*
X119596825Y-77035416D01*
X120112825Y-77035416D01*
X120266568Y-77407503D01*
X120551000Y-77692431D01*
X120922818Y-77846824D01*
X121325416Y-77847175D01*
X121697503Y-77693432D01*
X121982431Y-77409000D01*
X122136824Y-77037182D01*
X122136825Y-77035416D01*
X122652825Y-77035416D01*
X122806568Y-77407503D01*
X123091000Y-77692431D01*
X123462818Y-77846824D01*
X123865416Y-77847175D01*
X124237503Y-77693432D01*
X124522431Y-77409000D01*
X124676824Y-77037182D01*
X124677175Y-76634584D01*
X124523432Y-76262497D01*
X124239000Y-75977569D01*
X123867182Y-75823176D01*
X123464584Y-75822825D01*
X123092497Y-75976568D01*
X122807569Y-76261000D01*
X122653176Y-76632818D01*
X122652825Y-77035416D01*
X122136825Y-77035416D01*
X122137175Y-76634584D01*
X121983432Y-76262497D01*
X121699000Y-75977569D01*
X121327182Y-75823176D01*
X120924584Y-75822825D01*
X120552497Y-75976568D01*
X120267569Y-76261000D01*
X120113176Y-76632818D01*
X120112825Y-77035416D01*
X119596825Y-77035416D01*
X119597175Y-76634584D01*
X119443432Y-76262497D01*
X119159000Y-75977569D01*
X118787182Y-75823176D01*
X118384584Y-75822825D01*
X118012497Y-75976568D01*
X117727569Y-76261000D01*
X117573176Y-76632818D01*
X117572825Y-77035416D01*
X117056825Y-77035416D01*
X117057175Y-76634584D01*
X116903432Y-76262497D01*
X116619000Y-75977569D01*
X116247182Y-75823176D01*
X115844584Y-75822825D01*
X115472497Y-75976568D01*
X115187569Y-76261000D01*
X115033176Y-76632818D01*
X115032825Y-77035416D01*
X114516825Y-77035416D01*
X114517175Y-76634584D01*
X114363432Y-76262497D01*
X114079000Y-75977569D01*
X113707182Y-75823176D01*
X113304584Y-75822825D01*
X112932497Y-75976568D01*
X112647569Y-76261000D01*
X112493176Y-76632818D01*
X112492825Y-77035416D01*
X111976825Y-77035416D01*
X111977175Y-76634584D01*
X111823432Y-76262497D01*
X111539000Y-75977569D01*
X111167182Y-75823176D01*
X110764584Y-75822825D01*
X110392497Y-75976568D01*
X110107569Y-76261000D01*
X109953176Y-76632818D01*
X109952825Y-77035416D01*
X109436825Y-77035416D01*
X109437175Y-76634584D01*
X109283432Y-76262497D01*
X108999000Y-75977569D01*
X108627182Y-75823176D01*
X108224584Y-75822825D01*
X107852497Y-75976568D01*
X107567569Y-76261000D01*
X107413176Y-76632818D01*
X107412825Y-77035416D01*
X106896825Y-77035416D01*
X106897175Y-76634584D01*
X106743432Y-76262497D01*
X106459000Y-75977569D01*
X106087182Y-75823176D01*
X105684584Y-75822825D01*
X105312497Y-75976568D01*
X105027569Y-76261000D01*
X104873176Y-76632818D01*
X104872825Y-77035416D01*
X104356825Y-77035416D01*
X104357175Y-76634584D01*
X104203432Y-76262497D01*
X103919000Y-75977569D01*
X103547182Y-75823176D01*
X103144584Y-75822825D01*
X102772497Y-75976568D01*
X102487569Y-76261000D01*
X102333176Y-76632818D01*
X102332825Y-77035416D01*
X101816825Y-77035416D01*
X101817175Y-76634584D01*
X101663432Y-76262497D01*
X101379000Y-75977569D01*
X101007182Y-75823176D01*
X100604584Y-75822825D01*
X100232497Y-75976568D01*
X99947569Y-76261000D01*
X99793176Y-76632818D01*
X99792825Y-77035416D01*
X99276825Y-77035416D01*
X99277175Y-76634584D01*
X99123432Y-76262497D01*
X98839000Y-75977569D01*
X98467182Y-75823176D01*
X98064584Y-75822825D01*
X97692497Y-75976568D01*
X97407569Y-76261000D01*
X97253176Y-76632818D01*
X97252825Y-77035416D01*
X96736825Y-77035416D01*
X96737175Y-76634584D01*
X96583432Y-76262497D01*
X96299000Y-75977569D01*
X95927182Y-75823176D01*
X95524584Y-75822825D01*
X95152497Y-75976568D01*
X94867569Y-76261000D01*
X94713176Y-76632818D01*
X94712825Y-77035416D01*
X94196825Y-77035416D01*
X94197175Y-76634584D01*
X94043432Y-76262497D01*
X93759000Y-75977569D01*
X93387182Y-75823176D01*
X92984584Y-75822825D01*
X92612497Y-75976568D01*
X92327569Y-76261000D01*
X92173176Y-76632818D01*
X92172825Y-77035416D01*
X91656825Y-77035416D01*
X91657175Y-76634584D01*
X91503432Y-76262497D01*
X91219000Y-75977569D01*
X90847182Y-75823176D01*
X90444584Y-75822825D01*
X90072497Y-75976568D01*
X89787569Y-76261000D01*
X89633176Y-76632818D01*
X89632825Y-77035416D01*
X89116825Y-77035416D01*
X89117175Y-76634584D01*
X88963432Y-76262497D01*
X88679000Y-75977569D01*
X88307182Y-75823176D01*
X87904584Y-75822825D01*
X87532497Y-75976568D01*
X87247569Y-76261000D01*
X87093176Y-76632818D01*
X87092825Y-77035416D01*
X86576825Y-77035416D01*
X86577175Y-76634584D01*
X86423432Y-76262497D01*
X86139000Y-75977569D01*
X85767182Y-75823176D01*
X85364584Y-75822825D01*
X84992497Y-75976568D01*
X84707569Y-76261000D01*
X84553176Y-76632818D01*
X84552825Y-77035416D01*
X84036825Y-77035416D01*
X84037175Y-76634584D01*
X83883432Y-76262497D01*
X83599000Y-75977569D01*
X83227182Y-75823176D01*
X82824584Y-75822825D01*
X82452497Y-75976568D01*
X82167569Y-76261000D01*
X82013176Y-76632818D01*
X82012825Y-77035416D01*
X81496825Y-77035416D01*
X81497175Y-76634584D01*
X81343432Y-76262497D01*
X81059000Y-75977569D01*
X80687182Y-75823176D01*
X80284584Y-75822825D01*
X79912497Y-75976568D01*
X79627569Y-76261000D01*
X79473176Y-76632818D01*
X79472825Y-77035416D01*
X78956825Y-77035416D01*
X78957175Y-76634584D01*
X78803432Y-76262497D01*
X78519000Y-75977569D01*
X78147182Y-75823176D01*
X77744584Y-75822825D01*
X77372497Y-75976568D01*
X77087569Y-76261000D01*
X77045000Y-76363517D01*
X77045000Y-75560000D01*
X77016455Y-75416494D01*
X77016455Y-75416493D01*
X76935165Y-75294835D01*
X76334872Y-74694542D01*
X76416824Y-74497182D01*
X76416825Y-74495416D01*
X76932825Y-74495416D01*
X77086568Y-74867503D01*
X77371000Y-75152431D01*
X77742818Y-75306824D01*
X78145416Y-75307175D01*
X78517503Y-75153432D01*
X78802431Y-74869000D01*
X78956824Y-74497182D01*
X78956825Y-74495416D01*
X79472825Y-74495416D01*
X79626568Y-74867503D01*
X79911000Y-75152431D01*
X80282818Y-75306824D01*
X80685416Y-75307175D01*
X81057503Y-75153432D01*
X81342431Y-74869000D01*
X81496824Y-74497182D01*
X81496825Y-74495416D01*
X82012825Y-74495416D01*
X82166568Y-74867503D01*
X82451000Y-75152431D01*
X82822818Y-75306824D01*
X83225416Y-75307175D01*
X83597503Y-75153432D01*
X83882431Y-74869000D01*
X84036824Y-74497182D01*
X84036825Y-74495416D01*
X84552825Y-74495416D01*
X84706568Y-74867503D01*
X84991000Y-75152431D01*
X85362818Y-75306824D01*
X85765416Y-75307175D01*
X86137503Y-75153432D01*
X86422431Y-74869000D01*
X86576824Y-74497182D01*
X86576825Y-74495416D01*
X87092825Y-74495416D01*
X87246568Y-74867503D01*
X87531000Y-75152431D01*
X87902818Y-75306824D01*
X88305416Y-75307175D01*
X88677503Y-75153432D01*
X88962431Y-74869000D01*
X89116824Y-74497182D01*
X89116825Y-74495416D01*
X89632825Y-74495416D01*
X89786568Y-74867503D01*
X90071000Y-75152431D01*
X90442818Y-75306824D01*
X90845416Y-75307175D01*
X91217503Y-75153432D01*
X91502431Y-74869000D01*
X91656824Y-74497182D01*
X91656825Y-74495416D01*
X92172825Y-74495416D01*
X92326568Y-74867503D01*
X92611000Y-75152431D01*
X92982818Y-75306824D01*
X93385416Y-75307175D01*
X93757503Y-75153432D01*
X94042431Y-74869000D01*
X94196824Y-74497182D01*
X94196825Y-74495416D01*
X94712825Y-74495416D01*
X94866568Y-74867503D01*
X95151000Y-75152431D01*
X95522818Y-75306824D01*
X95925416Y-75307175D01*
X96297503Y-75153432D01*
X96582431Y-74869000D01*
X96736824Y-74497182D01*
X96736825Y-74495416D01*
X97252825Y-74495416D01*
X97406568Y-74867503D01*
X97691000Y-75152431D01*
X98062818Y-75306824D01*
X98465416Y-75307175D01*
X98837503Y-75153432D01*
X99122431Y-74869000D01*
X99276824Y-74497182D01*
X99276825Y-74495416D01*
X99792825Y-74495416D01*
X99946568Y-74867503D01*
X100231000Y-75152431D01*
X100602818Y-75306824D01*
X101005416Y-75307175D01*
X101377503Y-75153432D01*
X101662431Y-74869000D01*
X101816824Y-74497182D01*
X101816825Y-74495416D01*
X102332825Y-74495416D01*
X102486568Y-74867503D01*
X102771000Y-75152431D01*
X103142818Y-75306824D01*
X103545416Y-75307175D01*
X103917503Y-75153432D01*
X104202431Y-74869000D01*
X104356824Y-74497182D01*
X104356825Y-74495416D01*
X104872825Y-74495416D01*
X105026568Y-74867503D01*
X105311000Y-75152431D01*
X105682818Y-75306824D01*
X106085416Y-75307175D01*
X106457503Y-75153432D01*
X106742431Y-74869000D01*
X106896824Y-74497182D01*
X106896825Y-74495416D01*
X107412825Y-74495416D01*
X107566568Y-74867503D01*
X107851000Y-75152431D01*
X108222818Y-75306824D01*
X108625416Y-75307175D01*
X108997503Y-75153432D01*
X109282431Y-74869000D01*
X109436824Y-74497182D01*
X109436825Y-74495416D01*
X109952825Y-74495416D01*
X110106568Y-74867503D01*
X110391000Y-75152431D01*
X110762818Y-75306824D01*
X111165416Y-75307175D01*
X111537503Y-75153432D01*
X111822431Y-74869000D01*
X111976824Y-74497182D01*
X111976825Y-74495416D01*
X112492825Y-74495416D01*
X112646568Y-74867503D01*
X112931000Y-75152431D01*
X113302818Y-75306824D01*
X113705416Y-75307175D01*
X114077503Y-75153432D01*
X114362431Y-74869000D01*
X114516824Y-74497182D01*
X114516825Y-74495416D01*
X115032825Y-74495416D01*
X115186568Y-74867503D01*
X115471000Y-75152431D01*
X115842818Y-75306824D01*
X116245416Y-75307175D01*
X116617503Y-75153432D01*
X116902431Y-74869000D01*
X117056824Y-74497182D01*
X117056825Y-74495416D01*
X117572825Y-74495416D01*
X117726568Y-74867503D01*
X118011000Y-75152431D01*
X118382818Y-75306824D01*
X118785416Y-75307175D01*
X119157503Y-75153432D01*
X119442431Y-74869000D01*
X119596824Y-74497182D01*
X119596825Y-74495416D01*
X120112825Y-74495416D01*
X120266568Y-74867503D01*
X120551000Y-75152431D01*
X120922818Y-75306824D01*
X121325416Y-75307175D01*
X121697503Y-75153432D01*
X121982431Y-74869000D01*
X122136824Y-74497182D01*
X122136825Y-74495416D01*
X122652825Y-74495416D01*
X122806568Y-74867503D01*
X123091000Y-75152431D01*
X123462818Y-75306824D01*
X123865416Y-75307175D01*
X124237503Y-75153432D01*
X124522431Y-74869000D01*
X124676824Y-74497182D01*
X124677175Y-74094584D01*
X124523432Y-73722497D01*
X124239000Y-73437569D01*
X123867182Y-73283176D01*
X123464584Y-73282825D01*
X123092497Y-73436568D01*
X122807569Y-73721000D01*
X122653176Y-74092818D01*
X122652825Y-74495416D01*
X122136825Y-74495416D01*
X122137175Y-74094584D01*
X121983432Y-73722497D01*
X121699000Y-73437569D01*
X121327182Y-73283176D01*
X120924584Y-73282825D01*
X120552497Y-73436568D01*
X120267569Y-73721000D01*
X120113176Y-74092818D01*
X120112825Y-74495416D01*
X119596825Y-74495416D01*
X119597175Y-74094584D01*
X119443432Y-73722497D01*
X119159000Y-73437569D01*
X118787182Y-73283176D01*
X118384584Y-73282825D01*
X118012497Y-73436568D01*
X117727569Y-73721000D01*
X117573176Y-74092818D01*
X117572825Y-74495416D01*
X117056825Y-74495416D01*
X117057175Y-74094584D01*
X116903432Y-73722497D01*
X116619000Y-73437569D01*
X116247182Y-73283176D01*
X115844584Y-73282825D01*
X115472497Y-73436568D01*
X115187569Y-73721000D01*
X115033176Y-74092818D01*
X115032825Y-74495416D01*
X114516825Y-74495416D01*
X114517175Y-74094584D01*
X114363432Y-73722497D01*
X114079000Y-73437569D01*
X113707182Y-73283176D01*
X113304584Y-73282825D01*
X112932497Y-73436568D01*
X112647569Y-73721000D01*
X112493176Y-74092818D01*
X112492825Y-74495416D01*
X111976825Y-74495416D01*
X111977175Y-74094584D01*
X111823432Y-73722497D01*
X111539000Y-73437569D01*
X111167182Y-73283176D01*
X110764584Y-73282825D01*
X110392497Y-73436568D01*
X110107569Y-73721000D01*
X109953176Y-74092818D01*
X109952825Y-74495416D01*
X109436825Y-74495416D01*
X109437175Y-74094584D01*
X109283432Y-73722497D01*
X108999000Y-73437569D01*
X108627182Y-73283176D01*
X108224584Y-73282825D01*
X107852497Y-73436568D01*
X107567569Y-73721000D01*
X107413176Y-74092818D01*
X107412825Y-74495416D01*
X106896825Y-74495416D01*
X106897175Y-74094584D01*
X106743432Y-73722497D01*
X106459000Y-73437569D01*
X106087182Y-73283176D01*
X105684584Y-73282825D01*
X105312497Y-73436568D01*
X105027569Y-73721000D01*
X104873176Y-74092818D01*
X104872825Y-74495416D01*
X104356825Y-74495416D01*
X104357175Y-74094584D01*
X104203432Y-73722497D01*
X103919000Y-73437569D01*
X103547182Y-73283176D01*
X103144584Y-73282825D01*
X102772497Y-73436568D01*
X102487569Y-73721000D01*
X102333176Y-74092818D01*
X102332825Y-74495416D01*
X101816825Y-74495416D01*
X101817175Y-74094584D01*
X101663432Y-73722497D01*
X101379000Y-73437569D01*
X101007182Y-73283176D01*
X100604584Y-73282825D01*
X100232497Y-73436568D01*
X99947569Y-73721000D01*
X99793176Y-74092818D01*
X99792825Y-74495416D01*
X99276825Y-74495416D01*
X99277175Y-74094584D01*
X99123432Y-73722497D01*
X98839000Y-73437569D01*
X98467182Y-73283176D01*
X98064584Y-73282825D01*
X97692497Y-73436568D01*
X97407569Y-73721000D01*
X97253176Y-74092818D01*
X97252825Y-74495416D01*
X96736825Y-74495416D01*
X96737175Y-74094584D01*
X96583432Y-73722497D01*
X96299000Y-73437569D01*
X95927182Y-73283176D01*
X95524584Y-73282825D01*
X95152497Y-73436568D01*
X94867569Y-73721000D01*
X94713176Y-74092818D01*
X94712825Y-74495416D01*
X94196825Y-74495416D01*
X94197175Y-74094584D01*
X94043432Y-73722497D01*
X93759000Y-73437569D01*
X93387182Y-73283176D01*
X92984584Y-73282825D01*
X92612497Y-73436568D01*
X92327569Y-73721000D01*
X92173176Y-74092818D01*
X92172825Y-74495416D01*
X91656825Y-74495416D01*
X91657175Y-74094584D01*
X91503432Y-73722497D01*
X91219000Y-73437569D01*
X90847182Y-73283176D01*
X90444584Y-73282825D01*
X90072497Y-73436568D01*
X89787569Y-73721000D01*
X89633176Y-74092818D01*
X89632825Y-74495416D01*
X89116825Y-74495416D01*
X89117175Y-74094584D01*
X88963432Y-73722497D01*
X88679000Y-73437569D01*
X88307182Y-73283176D01*
X87904584Y-73282825D01*
X87532497Y-73436568D01*
X87247569Y-73721000D01*
X87093176Y-74092818D01*
X87092825Y-74495416D01*
X86576825Y-74495416D01*
X86577175Y-74094584D01*
X86423432Y-73722497D01*
X86139000Y-73437569D01*
X85767182Y-73283176D01*
X85364584Y-73282825D01*
X84992497Y-73436568D01*
X84707569Y-73721000D01*
X84553176Y-74092818D01*
X84552825Y-74495416D01*
X84036825Y-74495416D01*
X84037175Y-74094584D01*
X83883432Y-73722497D01*
X83599000Y-73437569D01*
X83227182Y-73283176D01*
X82824584Y-73282825D01*
X82452497Y-73436568D01*
X82167569Y-73721000D01*
X82013176Y-74092818D01*
X82012825Y-74495416D01*
X81496825Y-74495416D01*
X81497175Y-74094584D01*
X81343432Y-73722497D01*
X81059000Y-73437569D01*
X80687182Y-73283176D01*
X80284584Y-73282825D01*
X79912497Y-73436568D01*
X79627569Y-73721000D01*
X79473176Y-74092818D01*
X79472825Y-74495416D01*
X78956825Y-74495416D01*
X78957175Y-74094584D01*
X78803432Y-73722497D01*
X78519000Y-73437569D01*
X78147182Y-73283176D01*
X77744584Y-73282825D01*
X77372497Y-73436568D01*
X77087569Y-73721000D01*
X76933176Y-74092818D01*
X76932825Y-74495416D01*
X76416825Y-74495416D01*
X76417175Y-74094584D01*
X76263432Y-73722497D01*
X75979000Y-73437569D01*
X75607182Y-73283176D01*
X75204584Y-73282825D01*
X74832497Y-73436568D01*
X74547569Y-73721000D01*
X74393176Y-74092818D01*
X74392825Y-74495416D01*
X73876825Y-74495416D01*
X73877175Y-74094584D01*
X73723432Y-73722497D01*
X73439000Y-73437569D01*
X73067182Y-73283176D01*
X72664584Y-73282825D01*
X72292497Y-73436568D01*
X72007569Y-73721000D01*
X71853176Y-74092818D01*
X71852825Y-74495416D01*
X71336825Y-74495416D01*
X71337175Y-74094584D01*
X71183432Y-73722497D01*
X70899000Y-73437569D01*
X70527182Y-73283176D01*
X70124584Y-73282825D01*
X69752497Y-73436568D01*
X69467569Y-73721000D01*
X69313176Y-74092818D01*
X69312825Y-74495416D01*
X68796825Y-74495416D01*
X68797175Y-74094584D01*
X68643432Y-73722497D01*
X68359000Y-73437569D01*
X67987182Y-73283176D01*
X67584584Y-73282825D01*
X67212497Y-73436568D01*
X66927569Y-73721000D01*
X66773176Y-74092818D01*
X66772825Y-74495416D01*
X64800892Y-74495416D01*
X64694578Y-74238117D01*
X64035354Y-73577741D01*
X63173596Y-73219908D01*
X62240498Y-73219094D01*
X61378117Y-73575422D01*
X60717741Y-74234646D01*
X60359908Y-75096404D01*
X60359094Y-76029502D01*
X44325000Y-76029502D01*
X44325000Y-72325000D01*
X142971100Y-72325000D01*
X142971100Y-149675000D01*
M02*
