G04 #@! TF.FileFunction,Paste,Top*
%FSLAX46Y46*%
G04 Gerber Fmt 4.6, Leading zero omitted, Abs format (unit mm)*
G04 Created by KiCad (PCBNEW 4.0.2-stable) date 8/22/2016 2:14:48 PM*
%MOMM*%
G01*
G04 APERTURE LIST*
%ADD10C,0.100000*%
%ADD11R,1.300000X0.700000*%
%ADD12R,0.600000X1.500000*%
%ADD13R,1.000000X1.250000*%
%ADD14R,1.250000X1.000000*%
%ADD15C,2.032000*%
%ADD16R,0.800100X0.800100*%
%ADD17R,0.700000X1.300000*%
%ADD18R,1.250000X1.500000*%
%ADD19R,1.500000X1.250000*%
G04 APERTURE END LIST*
D10*
D11*
X62800000Y-131050000D03*
X62800000Y-129150000D03*
X67700000Y-131050000D03*
X67700000Y-129150000D03*
X85000000Y-79850000D03*
X85000000Y-81750000D03*
D12*
X85090000Y-94840000D03*
X83820000Y-94840000D03*
X82550000Y-94840000D03*
X81280000Y-94840000D03*
X80010000Y-94840000D03*
X78740000Y-94840000D03*
X77470000Y-94840000D03*
X76200000Y-94840000D03*
X76200000Y-104140000D03*
X77470000Y-104140000D03*
X78740000Y-104140000D03*
X80010000Y-104140000D03*
X81280000Y-104140000D03*
X82550000Y-104140000D03*
X83820000Y-104140000D03*
X85090000Y-104140000D03*
D11*
X81000000Y-130850000D03*
X81000000Y-128950000D03*
D13*
X83830000Y-92430000D03*
X85830000Y-92430000D03*
D14*
X107390000Y-105730000D03*
X107390000Y-103730000D03*
X107790000Y-91810000D03*
X107790000Y-89810000D03*
D15*
X49557580Y-146190000D03*
X46060000Y-146190000D03*
D16*
X105369240Y-80690000D03*
X105369240Y-82590000D03*
X107368220Y-81640000D03*
X103629240Y-94600000D03*
X103629240Y-96500000D03*
X105628220Y-95550000D03*
D11*
X80000000Y-79850000D03*
X80000000Y-81750000D03*
X90000000Y-79850000D03*
X90000000Y-81750000D03*
D17*
X101280000Y-80690000D03*
X103180000Y-80690000D03*
X101280000Y-82910000D03*
X103180000Y-82910000D03*
X83810000Y-113110000D03*
X85710000Y-113110000D03*
X99110000Y-94590000D03*
X101010000Y-94590000D03*
X99110000Y-96810000D03*
X101010000Y-96810000D03*
X85130000Y-107490000D03*
X87030000Y-107490000D03*
D14*
X56440000Y-131820000D03*
X56440000Y-129820000D03*
D18*
X85000000Y-88900000D03*
X85000000Y-86400000D03*
X80010000Y-88900000D03*
X80010000Y-86400000D03*
X90000000Y-88900000D03*
X90000000Y-86400000D03*
D19*
X98460000Y-99140000D03*
X100960000Y-99140000D03*
X100680000Y-85160000D03*
X103180000Y-85160000D03*
M02*
