M48
;DRILL file {KiCad 4.0.2-stable} date 8/22/2016 2:14:49 PM
;FORMAT={2:4/ absolute / inch / keep zeros}
FMAT,2
INCH,TZ
T1C0.016
T2C0.031
T3C0.035
T4C0.039
T5C0.040
T6C0.047
T7C0.047
T8C0.050
T9C0.051
T10C0.125
T11C0.126
T12C0.098
%
G90
G05
M72
T1
X025606Y-051594
X027457Y-051594
X032000Y-044594
X032154Y-045976
X032992Y-045240
X034260Y-043764
X037224Y-036618
X038555Y-032642
T2
X018339Y-051898
X020307Y-051898
T3
X024043Y-052929
X024543Y-053929
X025043Y-052929
X025543Y-053929
X026043Y-052929
X026543Y-053929
X030629Y-052929
X031129Y-053929
X031629Y-052929
X032129Y-053929
X032629Y-052929
X033129Y-053929
T4
X043633Y-036146
X043633Y-041622
T5
X026687Y-029250
X026687Y-030250
X026687Y-048250
X026687Y-049250
X027687Y-029250
X027687Y-030250
X027687Y-048250
X027687Y-049250
X028687Y-029250
X028687Y-030250
X028687Y-048250
X028687Y-049250
X029687Y-029250
X029687Y-030250
X029687Y-048250
X029687Y-049250
X030687Y-029250
X030687Y-030250
X030687Y-048250
X030687Y-049250
X031687Y-029250
X031687Y-030250
X031687Y-048250
X031687Y-049250
X032687Y-029250
X032687Y-030250
X032687Y-048250
X032687Y-049250
X033687Y-029250
X033687Y-030250
X033687Y-048250
X033687Y-049250
X034687Y-029250
X034687Y-030250
X034687Y-048250
X034687Y-049250
X035687Y-029250
X035687Y-030250
X035687Y-047000
X035687Y-048250
X035687Y-049250
X036687Y-029250
X036687Y-030250
X036687Y-047000
X036687Y-048250
X036687Y-049250
X037687Y-029250
X037687Y-030250
X037687Y-047000
X037687Y-048250
X037687Y-049250
X037795Y-051575
X038687Y-029250
X038687Y-030250
X038687Y-047000
X038687Y-048250
X038687Y-049250
X038795Y-051575
X039687Y-029250
X039687Y-030250
X039687Y-047000
X039687Y-048250
X039687Y-049250
X039795Y-051575
X040687Y-029250
X040687Y-030250
X040687Y-047000
X040687Y-048250
X040687Y-049250
X040795Y-051575
X041687Y-029250
X041687Y-030250
X041687Y-048250
X041687Y-049250
X041795Y-051575
X042687Y-029250
X042687Y-030250
X042687Y-048250
X042687Y-049250
X042795Y-051575
X043687Y-029250
X043687Y-030250
X043687Y-048250
X043687Y-049250
X043795Y-051575
X044687Y-029250
X044687Y-030250
X044687Y-048250
X044687Y-049250
X045687Y-029250
X045687Y-030250
X045687Y-048250
X045687Y-049250
X046687Y-029250
X046687Y-030250
X046687Y-048250
X046687Y-049250
X047244Y-051575
X047687Y-029250
X047687Y-030250
X047687Y-048250
X047687Y-049250
X048244Y-051575
X048687Y-029250
X048687Y-030250
X048687Y-048250
X048687Y-049250
X049244Y-051575
X050244Y-051575
X051244Y-051575
X052244Y-051575
X053244Y-051575
X055409Y-043697
X055409Y-044697
X055409Y-045697
X055409Y-046697
X055409Y-047697
X055409Y-048697
X055409Y-049697
T6
X018134Y-057555
X019511Y-057555
T7
X054654Y-032925
X054654Y-034303
X054654Y-035681
X054654Y-037646
X054654Y-039024
X054654Y-040402
T8
X043633Y-032146
X043633Y-037622
T9
X045122Y-033142
X045122Y-036142
X045122Y-037618
X045122Y-040618
X049122Y-036142
X049122Y-040618
X051122Y-033142
X051122Y-037618
X052122Y-036142
X052122Y-040618
T10
X024687Y-029750
X024687Y-048750
X050687Y-031000
X050687Y-047500
T11
X023343Y-056429
X027343Y-056429
X029929Y-056429
X033929Y-056429
T12
X037795Y-056496
X043795Y-056496
X047732Y-057323
X052756Y-057323
T0
M30
