G04 #@! TF.FileFunction,Legend,Top*
%FSLAX46Y46*%
G04 Gerber Fmt 4.6, Leading zero omitted, Abs format (unit mm)*
G04 Created by KiCad (PCBNEW 4.0.2-stable) date 8/22/2016 2:14:48 PM*
%MOMM*%
G01*
G04 APERTURE LIST*
%ADD10C,0.100000*%
%ADD11C,0.300000*%
%ADD12C,0.203200*%
%ADD13C,0.150000*%
%ADD14C,0.063500*%
%ADD15C,0.127000*%
%ADD16C,0.250000*%
%ADD17C,0.101600*%
%ADD18C,0.254000*%
%ADD19C,2.686000*%
%ADD20R,1.700000X1.100000*%
%ADD21R,1.000000X1.900000*%
%ADD22R,2.127200X2.432000*%
%ADD23O,2.127200X2.432000*%
%ADD24C,2.800000*%
%ADD25R,2.800000X2.800000*%
%ADD26R,1.700000X1.700000*%
%ADD27C,1.700000*%
%ADD28R,1.400000X1.650000*%
%ADD29R,1.650000X1.400000*%
%ADD30C,2.398980*%
%ADD31R,2.398980X2.398980*%
%ADD32C,2.432000*%
%ADD33R,1.200100X1.200100*%
%ADD34R,1.100000X1.700000*%
%ADD35C,2.900000*%
%ADD36R,1.650000X1.900000*%
%ADD37R,1.900000X1.650000*%
%ADD38C,1.924000*%
%ADD39C,4.400000*%
%ADD40C,4.591000*%
%ADD41R,2.432000X2.127200*%
%ADD42O,2.432000X2.127200*%
G04 APERTURE END LIST*
D10*
D11*
X132122858Y-111768571D02*
X132122858Y-110268571D01*
X132694286Y-110268571D01*
X132837144Y-110340000D01*
X132908572Y-110411429D01*
X132980001Y-110554286D01*
X132980001Y-110768571D01*
X132908572Y-110911429D01*
X132837144Y-110982857D01*
X132694286Y-111054286D01*
X132122858Y-111054286D01*
X133694286Y-111768571D02*
X133980001Y-111768571D01*
X134122858Y-111697143D01*
X134194286Y-111625714D01*
X134337144Y-111411429D01*
X134408572Y-111125714D01*
X134408572Y-110554286D01*
X134337144Y-110411429D01*
X134265715Y-110340000D01*
X134122858Y-110268571D01*
X133837144Y-110268571D01*
X133694286Y-110340000D01*
X133622858Y-110411429D01*
X133551429Y-110554286D01*
X133551429Y-110911429D01*
X133622858Y-111054286D01*
X133694286Y-111125714D01*
X133837144Y-111197143D01*
X134122858Y-111197143D01*
X134265715Y-111125714D01*
X134337144Y-111054286D01*
X134408572Y-110911429D01*
X134694286Y-111911429D02*
X135837143Y-111911429D01*
X136122857Y-110411429D02*
X136194286Y-110340000D01*
X136337143Y-110268571D01*
X136694286Y-110268571D01*
X136837143Y-110340000D01*
X136908572Y-110411429D01*
X136980000Y-110554286D01*
X136980000Y-110697143D01*
X136908572Y-110911429D01*
X136051429Y-111768571D01*
X136980000Y-111768571D01*
X137480000Y-110268571D02*
X138408571Y-110268571D01*
X137908571Y-110840000D01*
X138122857Y-110840000D01*
X138265714Y-110911429D01*
X138337143Y-110982857D01*
X138408571Y-111125714D01*
X138408571Y-111482857D01*
X138337143Y-111625714D01*
X138265714Y-111697143D01*
X138122857Y-111768571D01*
X137694285Y-111768571D01*
X137551428Y-111697143D01*
X137480000Y-111625714D01*
X133685714Y-114130000D02*
X134400000Y-114130000D01*
X133542857Y-114558571D02*
X134042857Y-113058571D01*
X134542857Y-114558571D01*
X135042857Y-114558571D02*
X135042857Y-113058571D01*
X135757143Y-114558571D02*
X135757143Y-113058571D01*
X136614286Y-114558571D01*
X136614286Y-113058571D01*
X137185715Y-113058571D02*
X138114286Y-113058571D01*
X137614286Y-113630000D01*
X137828572Y-113630000D01*
X137971429Y-113701429D01*
X138042858Y-113772857D01*
X138114286Y-113915714D01*
X138114286Y-114272857D01*
X138042858Y-114415714D01*
X137971429Y-114487143D01*
X137828572Y-114558571D01*
X137400000Y-114558571D01*
X137257143Y-114487143D01*
X137185715Y-114415714D01*
X133745714Y-116480000D02*
X134460000Y-116480000D01*
X133602857Y-116908571D02*
X134102857Y-115408571D01*
X134602857Y-116908571D01*
X135102857Y-116908571D02*
X135102857Y-115408571D01*
X135817143Y-116908571D02*
X135817143Y-115408571D01*
X136674286Y-116908571D01*
X136674286Y-115408571D01*
X137317143Y-115551429D02*
X137388572Y-115480000D01*
X137531429Y-115408571D01*
X137888572Y-115408571D01*
X138031429Y-115480000D01*
X138102858Y-115551429D01*
X138174286Y-115694286D01*
X138174286Y-115837143D01*
X138102858Y-116051429D01*
X137245715Y-116908571D01*
X138174286Y-116908571D01*
X134418572Y-119407143D02*
X134632858Y-119478571D01*
X134990001Y-119478571D01*
X135132858Y-119407143D01*
X135204287Y-119335714D01*
X135275715Y-119192857D01*
X135275715Y-119050000D01*
X135204287Y-118907143D01*
X135132858Y-118835714D01*
X134990001Y-118764286D01*
X134704287Y-118692857D01*
X134561429Y-118621429D01*
X134490001Y-118550000D01*
X134418572Y-118407143D01*
X134418572Y-118264286D01*
X134490001Y-118121429D01*
X134561429Y-118050000D01*
X134704287Y-117978571D01*
X135061429Y-117978571D01*
X135275715Y-118050000D01*
X135918572Y-119478571D02*
X135918572Y-117978571D01*
X136275715Y-117978571D01*
X136490000Y-118050000D01*
X136632858Y-118192857D01*
X136704286Y-118335714D01*
X136775715Y-118621429D01*
X136775715Y-118835714D01*
X136704286Y-119121429D01*
X136632858Y-119264286D01*
X136490000Y-119407143D01*
X136275715Y-119478571D01*
X135918572Y-119478571D01*
X137347143Y-119050000D02*
X138061429Y-119050000D01*
X137204286Y-119478571D02*
X137704286Y-117978571D01*
X138204286Y-119478571D01*
X134251429Y-121927143D02*
X134465715Y-121998571D01*
X134822858Y-121998571D01*
X134965715Y-121927143D01*
X135037144Y-121855714D01*
X135108572Y-121712857D01*
X135108572Y-121570000D01*
X135037144Y-121427143D01*
X134965715Y-121355714D01*
X134822858Y-121284286D01*
X134537144Y-121212857D01*
X134394286Y-121141429D01*
X134322858Y-121070000D01*
X134251429Y-120927143D01*
X134251429Y-120784286D01*
X134322858Y-120641429D01*
X134394286Y-120570000D01*
X134537144Y-120498571D01*
X134894286Y-120498571D01*
X135108572Y-120570000D01*
X136608572Y-121855714D02*
X136537143Y-121927143D01*
X136322857Y-121998571D01*
X136180000Y-121998571D01*
X135965715Y-121927143D01*
X135822857Y-121784286D01*
X135751429Y-121641429D01*
X135680000Y-121355714D01*
X135680000Y-121141429D01*
X135751429Y-120855714D01*
X135822857Y-120712857D01*
X135965715Y-120570000D01*
X136180000Y-120498571D01*
X136322857Y-120498571D01*
X136537143Y-120570000D01*
X136608572Y-120641429D01*
X137251429Y-121998571D02*
X137251429Y-120498571D01*
X138108572Y-121998571D02*
X137465715Y-121141429D01*
X138108572Y-120498571D02*
X137251429Y-121355714D01*
X135037143Y-123190000D02*
X134894286Y-123118571D01*
X134680000Y-123118571D01*
X134465715Y-123190000D01*
X134322857Y-123332857D01*
X134251429Y-123475714D01*
X134180000Y-123761429D01*
X134180000Y-123975714D01*
X134251429Y-124261429D01*
X134322857Y-124404286D01*
X134465715Y-124547143D01*
X134680000Y-124618571D01*
X134822857Y-124618571D01*
X135037143Y-124547143D01*
X135108572Y-124475714D01*
X135108572Y-123975714D01*
X134822857Y-123975714D01*
X135751429Y-124618571D02*
X135751429Y-123118571D01*
X136608572Y-124618571D01*
X136608572Y-123118571D01*
X137322858Y-124618571D02*
X137322858Y-123118571D01*
X137680001Y-123118571D01*
X137894286Y-123190000D01*
X138037144Y-123332857D01*
X138108572Y-123475714D01*
X138180001Y-123761429D01*
X138180001Y-123975714D01*
X138108572Y-124261429D01*
X138037144Y-124404286D01*
X137894286Y-124547143D01*
X137680001Y-124618571D01*
X137322858Y-124618571D01*
X134180000Y-125578571D02*
X134680000Y-127078571D01*
X135180000Y-125578571D01*
X136537143Y-126935714D02*
X136465714Y-127007143D01*
X136251428Y-127078571D01*
X136108571Y-127078571D01*
X135894286Y-127007143D01*
X135751428Y-126864286D01*
X135680000Y-126721429D01*
X135608571Y-126435714D01*
X135608571Y-126221429D01*
X135680000Y-125935714D01*
X135751428Y-125792857D01*
X135894286Y-125650000D01*
X136108571Y-125578571D01*
X136251428Y-125578571D01*
X136465714Y-125650000D01*
X136537143Y-125721429D01*
X138037143Y-126935714D02*
X137965714Y-127007143D01*
X137751428Y-127078571D01*
X137608571Y-127078571D01*
X137394286Y-127007143D01*
X137251428Y-126864286D01*
X137180000Y-126721429D01*
X137108571Y-126435714D01*
X137108571Y-126221429D01*
X137180000Y-125935714D01*
X137251428Y-125792857D01*
X137394286Y-125650000D01*
X137608571Y-125578571D01*
X137751428Y-125578571D01*
X137965714Y-125650000D01*
X138037143Y-125721429D01*
X135488571Y-91934286D02*
X133988571Y-91934286D01*
X135488571Y-91077143D01*
X133988571Y-91077143D01*
X133988571Y-90077143D02*
X133988571Y-89791429D01*
X134060000Y-89648571D01*
X134202857Y-89505714D01*
X134488571Y-89434286D01*
X134988571Y-89434286D01*
X135274286Y-89505714D01*
X135417143Y-89648571D01*
X135488571Y-89791429D01*
X135488571Y-90077143D01*
X135417143Y-90220000D01*
X135274286Y-90362857D01*
X134988571Y-90434286D01*
X134488571Y-90434286D01*
X134202857Y-90362857D01*
X134060000Y-90220000D01*
X133988571Y-90077143D01*
X135288571Y-96288571D02*
X133788571Y-96288571D01*
X135288571Y-95431428D01*
X133788571Y-95431428D01*
X135145714Y-93859999D02*
X135217143Y-93931428D01*
X135288571Y-94145714D01*
X135288571Y-94288571D01*
X135217143Y-94502856D01*
X135074286Y-94645714D01*
X134931429Y-94717142D01*
X134645714Y-94788571D01*
X134431429Y-94788571D01*
X134145714Y-94717142D01*
X134002857Y-94645714D01*
X133860000Y-94502856D01*
X133788571Y-94288571D01*
X133788571Y-94145714D01*
X133860000Y-93931428D01*
X133931429Y-93859999D01*
X135408571Y-99522857D02*
X133908571Y-99522857D01*
X133908571Y-98951429D01*
X133980000Y-98808571D01*
X134051429Y-98737143D01*
X134194286Y-98665714D01*
X134408571Y-98665714D01*
X134551429Y-98737143D01*
X134622857Y-98808571D01*
X134694286Y-98951429D01*
X134694286Y-99522857D01*
X135418571Y-87502857D02*
X133918571Y-87502857D01*
X133918571Y-86931429D01*
X133990000Y-86788571D01*
X134061429Y-86717143D01*
X134204286Y-86645714D01*
X134418571Y-86645714D01*
X134561429Y-86717143D01*
X134632857Y-86788571D01*
X134704286Y-86931429D01*
X134704286Y-87502857D01*
X135518571Y-84828571D02*
X134018571Y-84828571D01*
X135518571Y-83971428D01*
X134018571Y-83971428D01*
X135375714Y-82399999D02*
X135447143Y-82471428D01*
X135518571Y-82685714D01*
X135518571Y-82828571D01*
X135447143Y-83042856D01*
X135304286Y-83185714D01*
X135161429Y-83257142D01*
X134875714Y-83328571D01*
X134661429Y-83328571D01*
X134375714Y-83257142D01*
X134232857Y-83185714D01*
X134090000Y-83042856D01*
X134018571Y-82828571D01*
X134018571Y-82685714D01*
X134090000Y-82471428D01*
X134161429Y-82399999D01*
X135458571Y-103924286D02*
X133958571Y-103924286D01*
X135458571Y-103067143D01*
X133958571Y-103067143D01*
X133958571Y-102067143D02*
X133958571Y-101781429D01*
X134030000Y-101638571D01*
X134172857Y-101495714D01*
X134458571Y-101424286D01*
X134958571Y-101424286D01*
X135244286Y-101495714D01*
X135387143Y-101638571D01*
X135458571Y-101781429D01*
X135458571Y-102067143D01*
X135387143Y-102210000D01*
X135244286Y-102352857D01*
X134958571Y-102424286D01*
X134458571Y-102424286D01*
X134172857Y-102352857D01*
X134030000Y-102210000D01*
X133958571Y-102067143D01*
X95857143Y-88128571D02*
X95857143Y-86628571D01*
X96714286Y-88128571D02*
X96071429Y-87271429D01*
X96714286Y-86628571D02*
X95857143Y-87485714D01*
X97285714Y-86771429D02*
X97357143Y-86700000D01*
X97500000Y-86628571D01*
X97857143Y-86628571D01*
X98000000Y-86700000D01*
X98071429Y-86771429D01*
X98142857Y-86914286D01*
X98142857Y-87057143D01*
X98071429Y-87271429D01*
X97214286Y-88128571D01*
X98142857Y-88128571D01*
X99857142Y-87700000D02*
X100571428Y-87700000D01*
X99714285Y-88128571D02*
X100214285Y-86628571D01*
X100714285Y-88128571D01*
X101857142Y-88057143D02*
X101714285Y-88128571D01*
X101428571Y-88128571D01*
X101285713Y-88057143D01*
X101214285Y-87985714D01*
X101142856Y-87842857D01*
X101142856Y-87414286D01*
X101214285Y-87271429D01*
X101285713Y-87200000D01*
X101428571Y-87128571D01*
X101714285Y-87128571D01*
X101857142Y-87200000D01*
X102285713Y-87128571D02*
X102857142Y-87128571D01*
X102499999Y-86628571D02*
X102499999Y-87914286D01*
X102571427Y-88057143D01*
X102714285Y-88128571D01*
X102857142Y-88128571D01*
X103357142Y-88128571D02*
X103357142Y-87128571D01*
X103357142Y-86628571D02*
X103285713Y-86700000D01*
X103357142Y-86771429D01*
X103428570Y-86700000D01*
X103357142Y-86628571D01*
X103357142Y-86771429D01*
X103928571Y-87128571D02*
X104285714Y-88128571D01*
X104642856Y-87128571D01*
X105785713Y-88057143D02*
X105642856Y-88128571D01*
X105357142Y-88128571D01*
X105214285Y-88057143D01*
X105142856Y-87914286D01*
X105142856Y-87342857D01*
X105214285Y-87200000D01*
X105357142Y-87128571D01*
X105642856Y-87128571D01*
X105785713Y-87200000D01*
X105857142Y-87342857D01*
X105857142Y-87485714D01*
X105142856Y-87628571D01*
X88177143Y-84518571D02*
X88177143Y-83018571D01*
X88748571Y-83018571D01*
X88891429Y-83090000D01*
X88962857Y-83161429D01*
X89034286Y-83304286D01*
X89034286Y-83518571D01*
X88962857Y-83661429D01*
X88891429Y-83732857D01*
X88748571Y-83804286D01*
X88177143Y-83804286D01*
X89534286Y-83018571D02*
X89891429Y-84518571D01*
X90177143Y-83447143D01*
X90462857Y-84518571D01*
X90820000Y-83018571D01*
X92248572Y-84518571D02*
X91748572Y-83804286D01*
X91391429Y-84518571D02*
X91391429Y-83018571D01*
X91962857Y-83018571D01*
X92105715Y-83090000D01*
X92177143Y-83161429D01*
X92248572Y-83304286D01*
X92248572Y-83518571D01*
X92177143Y-83661429D01*
X92105715Y-83732857D01*
X91962857Y-83804286D01*
X91391429Y-83804286D01*
X90258571Y-147315714D02*
X89544286Y-147815714D01*
X90258571Y-148172857D02*
X88758571Y-148172857D01*
X88758571Y-147601429D01*
X88830000Y-147458571D01*
X88901429Y-147387143D01*
X89044286Y-147315714D01*
X89258571Y-147315714D01*
X89401429Y-147387143D01*
X89472857Y-147458571D01*
X89544286Y-147601429D01*
X89544286Y-148172857D01*
X90258571Y-146030000D02*
X89472857Y-146030000D01*
X89330000Y-146101429D01*
X89258571Y-146244286D01*
X89258571Y-146530000D01*
X89330000Y-146672857D01*
X90187143Y-146030000D02*
X90258571Y-146172857D01*
X90258571Y-146530000D01*
X90187143Y-146672857D01*
X90044286Y-146744286D01*
X89901429Y-146744286D01*
X89758571Y-146672857D01*
X89687143Y-146530000D01*
X89687143Y-146172857D01*
X89615714Y-146030000D01*
X90258571Y-145315714D02*
X89258571Y-145315714D01*
X88758571Y-145315714D02*
X88830000Y-145387143D01*
X88901429Y-145315714D01*
X88830000Y-145244286D01*
X88758571Y-145315714D01*
X88901429Y-145315714D01*
X89258571Y-144601428D02*
X90258571Y-144601428D01*
X89401429Y-144601428D02*
X89330000Y-144530000D01*
X89258571Y-144387142D01*
X89258571Y-144172857D01*
X89330000Y-144030000D01*
X89472857Y-143958571D01*
X90258571Y-143958571D01*
X88830000Y-141315714D02*
X88758571Y-141458571D01*
X88758571Y-141672857D01*
X88830000Y-141887142D01*
X88972857Y-142030000D01*
X89115714Y-142101428D01*
X89401429Y-142172857D01*
X89615714Y-142172857D01*
X89901429Y-142101428D01*
X90044286Y-142030000D01*
X90187143Y-141887142D01*
X90258571Y-141672857D01*
X90258571Y-141530000D01*
X90187143Y-141315714D01*
X90115714Y-141244285D01*
X89615714Y-141244285D01*
X89615714Y-141530000D01*
X90258571Y-139958571D02*
X89472857Y-139958571D01*
X89330000Y-140030000D01*
X89258571Y-140172857D01*
X89258571Y-140458571D01*
X89330000Y-140601428D01*
X90187143Y-139958571D02*
X90258571Y-140101428D01*
X90258571Y-140458571D01*
X90187143Y-140601428D01*
X90044286Y-140672857D01*
X89901429Y-140672857D01*
X89758571Y-140601428D01*
X89687143Y-140458571D01*
X89687143Y-140101428D01*
X89615714Y-139958571D01*
X89258571Y-138601428D02*
X90258571Y-138601428D01*
X89258571Y-139244285D02*
X90044286Y-139244285D01*
X90187143Y-139172857D01*
X90258571Y-139029999D01*
X90258571Y-138815714D01*
X90187143Y-138672857D01*
X90115714Y-138601428D01*
X89258571Y-137244285D02*
X90472857Y-137244285D01*
X90615714Y-137315714D01*
X90687143Y-137387142D01*
X90758571Y-137529999D01*
X90758571Y-137744285D01*
X90687143Y-137887142D01*
X90187143Y-137244285D02*
X90258571Y-137387142D01*
X90258571Y-137672856D01*
X90187143Y-137815714D01*
X90115714Y-137887142D01*
X89972857Y-137958571D01*
X89544286Y-137958571D01*
X89401429Y-137887142D01*
X89330000Y-137815714D01*
X89258571Y-137672856D01*
X89258571Y-137387142D01*
X89330000Y-137244285D01*
X90187143Y-135958571D02*
X90258571Y-136101428D01*
X90258571Y-136387142D01*
X90187143Y-136529999D01*
X90044286Y-136601428D01*
X89472857Y-136601428D01*
X89330000Y-136529999D01*
X89258571Y-136387142D01*
X89258571Y-136101428D01*
X89330000Y-135958571D01*
X89472857Y-135887142D01*
X89615714Y-135887142D01*
X89758571Y-136601428D01*
X55278571Y-147815714D02*
X56778571Y-147458571D01*
X55707143Y-147172857D01*
X56778571Y-146887143D01*
X55278571Y-146530000D01*
X56778571Y-145958571D02*
X55778571Y-145958571D01*
X55278571Y-145958571D02*
X55350000Y-146030000D01*
X55421429Y-145958571D01*
X55350000Y-145887143D01*
X55278571Y-145958571D01*
X55421429Y-145958571D01*
X55778571Y-145244285D02*
X56778571Y-145244285D01*
X55921429Y-145244285D02*
X55850000Y-145172857D01*
X55778571Y-145029999D01*
X55778571Y-144815714D01*
X55850000Y-144672857D01*
X55992857Y-144601428D01*
X56778571Y-144601428D01*
X56778571Y-143244285D02*
X55278571Y-143244285D01*
X56707143Y-143244285D02*
X56778571Y-143387142D01*
X56778571Y-143672856D01*
X56707143Y-143815714D01*
X56635714Y-143887142D01*
X56492857Y-143958571D01*
X56064286Y-143958571D01*
X55921429Y-143887142D01*
X55850000Y-143815714D01*
X55778571Y-143672856D01*
X55778571Y-143387142D01*
X55850000Y-143244285D01*
X55350000Y-140601428D02*
X55278571Y-140744285D01*
X55278571Y-140958571D01*
X55350000Y-141172856D01*
X55492857Y-141315714D01*
X55635714Y-141387142D01*
X55921429Y-141458571D01*
X56135714Y-141458571D01*
X56421429Y-141387142D01*
X56564286Y-141315714D01*
X56707143Y-141172856D01*
X56778571Y-140958571D01*
X56778571Y-140815714D01*
X56707143Y-140601428D01*
X56635714Y-140529999D01*
X56135714Y-140529999D01*
X56135714Y-140815714D01*
X56778571Y-139244285D02*
X55992857Y-139244285D01*
X55850000Y-139315714D01*
X55778571Y-139458571D01*
X55778571Y-139744285D01*
X55850000Y-139887142D01*
X56707143Y-139244285D02*
X56778571Y-139387142D01*
X56778571Y-139744285D01*
X56707143Y-139887142D01*
X56564286Y-139958571D01*
X56421429Y-139958571D01*
X56278571Y-139887142D01*
X56207143Y-139744285D01*
X56207143Y-139387142D01*
X56135714Y-139244285D01*
X55778571Y-137887142D02*
X56778571Y-137887142D01*
X55778571Y-138529999D02*
X56564286Y-138529999D01*
X56707143Y-138458571D01*
X56778571Y-138315713D01*
X56778571Y-138101428D01*
X56707143Y-137958571D01*
X56635714Y-137887142D01*
X55778571Y-136529999D02*
X56992857Y-136529999D01*
X57135714Y-136601428D01*
X57207143Y-136672856D01*
X57278571Y-136815713D01*
X57278571Y-137029999D01*
X57207143Y-137172856D01*
X56707143Y-136529999D02*
X56778571Y-136672856D01*
X56778571Y-136958570D01*
X56707143Y-137101428D01*
X56635714Y-137172856D01*
X56492857Y-137244285D01*
X56064286Y-137244285D01*
X55921429Y-137172856D01*
X55850000Y-137101428D01*
X55778571Y-136958570D01*
X55778571Y-136672856D01*
X55850000Y-136529999D01*
X56707143Y-135244285D02*
X56778571Y-135387142D01*
X56778571Y-135672856D01*
X56707143Y-135815713D01*
X56564286Y-135887142D01*
X55992857Y-135887142D01*
X55850000Y-135815713D01*
X55778571Y-135672856D01*
X55778571Y-135387142D01*
X55850000Y-135244285D01*
X55992857Y-135172856D01*
X56135714Y-135172856D01*
X56278571Y-135887142D01*
X56707143Y-134601428D02*
X56778571Y-134458571D01*
X56778571Y-134172856D01*
X56707143Y-134029999D01*
X56564286Y-133958571D01*
X56492857Y-133958571D01*
X56350000Y-134029999D01*
X56278571Y-134172856D01*
X56278571Y-134387142D01*
X56207143Y-134529999D01*
X56064286Y-134601428D01*
X55992857Y-134601428D01*
X55850000Y-134529999D01*
X55778571Y-134387142D01*
X55778571Y-134172856D01*
X55850000Y-134029999D01*
X123400001Y-137248571D02*
X123400001Y-135748571D01*
X123971429Y-135748571D01*
X124114287Y-135820000D01*
X124185715Y-135891429D01*
X124257144Y-136034286D01*
X124257144Y-136248571D01*
X124185715Y-136391429D01*
X124114287Y-136462857D01*
X123971429Y-136534286D01*
X123400001Y-136534286D01*
X124900001Y-137248571D02*
X124900001Y-136248571D01*
X124900001Y-136534286D02*
X124971429Y-136391429D01*
X125042858Y-136320000D01*
X125185715Y-136248571D01*
X125328572Y-136248571D01*
X126400000Y-137177143D02*
X126257143Y-137248571D01*
X125971429Y-137248571D01*
X125828572Y-137177143D01*
X125757143Y-137034286D01*
X125757143Y-136462857D01*
X125828572Y-136320000D01*
X125971429Y-136248571D01*
X126257143Y-136248571D01*
X126400000Y-136320000D01*
X126471429Y-136462857D01*
X126471429Y-136605714D01*
X125757143Y-136748571D01*
X127042857Y-137177143D02*
X127185714Y-137248571D01*
X127471429Y-137248571D01*
X127614286Y-137177143D01*
X127685714Y-137034286D01*
X127685714Y-136962857D01*
X127614286Y-136820000D01*
X127471429Y-136748571D01*
X127257143Y-136748571D01*
X127114286Y-136677143D01*
X127042857Y-136534286D01*
X127042857Y-136462857D01*
X127114286Y-136320000D01*
X127257143Y-136248571D01*
X127471429Y-136248571D01*
X127614286Y-136320000D01*
X128257143Y-137177143D02*
X128400000Y-137248571D01*
X128685715Y-137248571D01*
X128828572Y-137177143D01*
X128900000Y-137034286D01*
X128900000Y-136962857D01*
X128828572Y-136820000D01*
X128685715Y-136748571D01*
X128471429Y-136748571D01*
X128328572Y-136677143D01*
X128257143Y-136534286D01*
X128257143Y-136462857D01*
X128328572Y-136320000D01*
X128471429Y-136248571D01*
X128685715Y-136248571D01*
X128828572Y-136320000D01*
X130185715Y-136248571D02*
X130185715Y-137248571D01*
X129542858Y-136248571D02*
X129542858Y-137034286D01*
X129614286Y-137177143D01*
X129757144Y-137248571D01*
X129971429Y-137248571D01*
X130114286Y-137177143D01*
X130185715Y-137105714D01*
X130900001Y-137248571D02*
X130900001Y-136248571D01*
X130900001Y-136534286D02*
X130971429Y-136391429D01*
X131042858Y-136320000D01*
X131185715Y-136248571D01*
X131328572Y-136248571D01*
X132400000Y-137177143D02*
X132257143Y-137248571D01*
X131971429Y-137248571D01*
X131828572Y-137177143D01*
X131757143Y-137034286D01*
X131757143Y-136462857D01*
X131828572Y-136320000D01*
X131971429Y-136248571D01*
X132257143Y-136248571D01*
X132400000Y-136320000D01*
X132471429Y-136462857D01*
X132471429Y-136605714D01*
X131757143Y-136748571D01*
X119364285Y-138148571D02*
X120221428Y-138148571D01*
X119792857Y-139648571D02*
X119792857Y-138148571D01*
X121292856Y-139577143D02*
X121149999Y-139648571D01*
X120864285Y-139648571D01*
X120721428Y-139577143D01*
X120649999Y-139434286D01*
X120649999Y-138862857D01*
X120721428Y-138720000D01*
X120864285Y-138648571D01*
X121149999Y-138648571D01*
X121292856Y-138720000D01*
X121364285Y-138862857D01*
X121364285Y-139005714D01*
X120649999Y-139148571D01*
X122007142Y-139648571D02*
X122007142Y-138648571D01*
X122007142Y-138791429D02*
X122078570Y-138720000D01*
X122221428Y-138648571D01*
X122435713Y-138648571D01*
X122578570Y-138720000D01*
X122649999Y-138862857D01*
X122649999Y-139648571D01*
X122649999Y-138862857D02*
X122721428Y-138720000D01*
X122864285Y-138648571D01*
X123078570Y-138648571D01*
X123221428Y-138720000D01*
X123292856Y-138862857D01*
X123292856Y-139648571D01*
X124007142Y-138648571D02*
X124007142Y-140148571D01*
X124007142Y-138720000D02*
X124149999Y-138648571D01*
X124435713Y-138648571D01*
X124578570Y-138720000D01*
X124649999Y-138791429D01*
X124721428Y-138934286D01*
X124721428Y-139362857D01*
X124649999Y-139505714D01*
X124578570Y-139577143D01*
X124435713Y-139648571D01*
X124149999Y-139648571D01*
X124007142Y-139577143D01*
X125364285Y-139077143D02*
X126507142Y-139077143D01*
X125935713Y-139648571D02*
X125935713Y-138505714D01*
X127221428Y-139648571D02*
X127221428Y-138148571D01*
X127221428Y-138862857D02*
X128078571Y-138862857D01*
X128078571Y-139648571D02*
X128078571Y-138148571D01*
X129435714Y-138648571D02*
X129435714Y-139648571D01*
X128792857Y-138648571D02*
X128792857Y-139434286D01*
X128864285Y-139577143D01*
X129007143Y-139648571D01*
X129221428Y-139648571D01*
X129364285Y-139577143D01*
X129435714Y-139505714D01*
X130150000Y-139648571D02*
X130150000Y-138648571D01*
X130150000Y-138791429D02*
X130221428Y-138720000D01*
X130364286Y-138648571D01*
X130578571Y-138648571D01*
X130721428Y-138720000D01*
X130792857Y-138862857D01*
X130792857Y-139648571D01*
X130792857Y-138862857D02*
X130864286Y-138720000D01*
X131007143Y-138648571D01*
X131221428Y-138648571D01*
X131364286Y-138720000D01*
X131435714Y-138862857D01*
X131435714Y-139648571D01*
X132150000Y-139648571D02*
X132150000Y-138648571D01*
X132150000Y-138148571D02*
X132078571Y-138220000D01*
X132150000Y-138291429D01*
X132221428Y-138220000D01*
X132150000Y-138148571D01*
X132150000Y-138291429D01*
X133507143Y-139648571D02*
X133507143Y-138148571D01*
X133507143Y-139577143D02*
X133364286Y-139648571D01*
X133078572Y-139648571D01*
X132935714Y-139577143D01*
X132864286Y-139505714D01*
X132792857Y-139362857D01*
X132792857Y-138934286D01*
X132864286Y-138791429D01*
X132935714Y-138720000D01*
X133078572Y-138648571D01*
X133364286Y-138648571D01*
X133507143Y-138720000D01*
X134221429Y-139648571D02*
X134221429Y-138648571D01*
X134221429Y-138148571D02*
X134150000Y-138220000D01*
X134221429Y-138291429D01*
X134292857Y-138220000D01*
X134221429Y-138148571D01*
X134221429Y-138291429D01*
X134721429Y-138648571D02*
X135292858Y-138648571D01*
X134935715Y-138148571D02*
X134935715Y-139434286D01*
X135007143Y-139577143D01*
X135150001Y-139648571D01*
X135292858Y-139648571D01*
X135650001Y-138648571D02*
X136007144Y-139648571D01*
X136364286Y-138648571D02*
X136007144Y-139648571D01*
X135864286Y-140005714D01*
X135792858Y-140077143D01*
X135650001Y-140148571D01*
X98347143Y-136418571D02*
X98347143Y-137632857D01*
X98418571Y-137775714D01*
X98490000Y-137847143D01*
X98632857Y-137918571D01*
X98918571Y-137918571D01*
X99061429Y-137847143D01*
X99132857Y-137775714D01*
X99204286Y-137632857D01*
X99204286Y-136418571D01*
X99704286Y-136418571D02*
X100204286Y-137918571D01*
X100704286Y-136418571D01*
X102275714Y-137847143D02*
X102490000Y-137918571D01*
X102847143Y-137918571D01*
X102990000Y-137847143D01*
X103061429Y-137775714D01*
X103132857Y-137632857D01*
X103132857Y-137490000D01*
X103061429Y-137347143D01*
X102990000Y-137275714D01*
X102847143Y-137204286D01*
X102561429Y-137132857D01*
X102418571Y-137061429D01*
X102347143Y-136990000D01*
X102275714Y-136847143D01*
X102275714Y-136704286D01*
X102347143Y-136561429D01*
X102418571Y-136490000D01*
X102561429Y-136418571D01*
X102918571Y-136418571D01*
X103132857Y-136490000D01*
X104347142Y-137847143D02*
X104204285Y-137918571D01*
X103918571Y-137918571D01*
X103775714Y-137847143D01*
X103704285Y-137704286D01*
X103704285Y-137132857D01*
X103775714Y-136990000D01*
X103918571Y-136918571D01*
X104204285Y-136918571D01*
X104347142Y-136990000D01*
X104418571Y-137132857D01*
X104418571Y-137275714D01*
X103704285Y-137418571D01*
X105061428Y-136918571D02*
X105061428Y-137918571D01*
X105061428Y-137061429D02*
X105132856Y-136990000D01*
X105275714Y-136918571D01*
X105489999Y-136918571D01*
X105632856Y-136990000D01*
X105704285Y-137132857D01*
X105704285Y-137918571D01*
X106347142Y-137847143D02*
X106489999Y-137918571D01*
X106775714Y-137918571D01*
X106918571Y-137847143D01*
X106989999Y-137704286D01*
X106989999Y-137632857D01*
X106918571Y-137490000D01*
X106775714Y-137418571D01*
X106561428Y-137418571D01*
X106418571Y-137347143D01*
X106347142Y-137204286D01*
X106347142Y-137132857D01*
X106418571Y-136990000D01*
X106561428Y-136918571D01*
X106775714Y-136918571D01*
X106918571Y-136990000D01*
X107847143Y-137918571D02*
X107704285Y-137847143D01*
X107632857Y-137775714D01*
X107561428Y-137632857D01*
X107561428Y-137204286D01*
X107632857Y-137061429D01*
X107704285Y-136990000D01*
X107847143Y-136918571D01*
X108061428Y-136918571D01*
X108204285Y-136990000D01*
X108275714Y-137061429D01*
X108347143Y-137204286D01*
X108347143Y-137632857D01*
X108275714Y-137775714D01*
X108204285Y-137847143D01*
X108061428Y-137918571D01*
X107847143Y-137918571D01*
X108990000Y-137918571D02*
X108990000Y-136918571D01*
X108990000Y-137204286D02*
X109061428Y-137061429D01*
X109132857Y-136990000D01*
X109275714Y-136918571D01*
X109418571Y-136918571D01*
X46460000Y-138942857D02*
X46531429Y-138800000D01*
X46531429Y-138585714D01*
X46460000Y-138371429D01*
X46317143Y-138228571D01*
X46174286Y-138157143D01*
X45888571Y-138085714D01*
X45674286Y-138085714D01*
X45388571Y-138157143D01*
X45245714Y-138228571D01*
X45102857Y-138371429D01*
X45031429Y-138585714D01*
X45031429Y-138728571D01*
X45102857Y-138942857D01*
X45174286Y-139014286D01*
X45674286Y-139014286D01*
X45674286Y-138728571D01*
X45031429Y-139657143D02*
X46531429Y-139657143D01*
X45031429Y-140514286D01*
X46531429Y-140514286D01*
X45031429Y-141228572D02*
X46531429Y-141228572D01*
X46531429Y-141585715D01*
X46460000Y-141800000D01*
X46317143Y-141942858D01*
X46174286Y-142014286D01*
X45888571Y-142085715D01*
X45674286Y-142085715D01*
X45388571Y-142014286D01*
X45245714Y-141942858D01*
X45102857Y-141800000D01*
X45031429Y-141585715D01*
X45031429Y-141228572D01*
X96557143Y-102288571D02*
X96557143Y-100788571D01*
X97414286Y-102288571D02*
X96771429Y-101431429D01*
X97414286Y-100788571D02*
X96557143Y-101645714D01*
X98842857Y-102288571D02*
X97985714Y-102288571D01*
X98414286Y-102288571D02*
X98414286Y-100788571D01*
X98271429Y-101002857D01*
X98128571Y-101145714D01*
X97985714Y-101217143D01*
X100557142Y-101860000D02*
X101271428Y-101860000D01*
X100414285Y-102288571D02*
X100914285Y-100788571D01*
X101414285Y-102288571D01*
X102557142Y-102217143D02*
X102414285Y-102288571D01*
X102128571Y-102288571D01*
X101985713Y-102217143D01*
X101914285Y-102145714D01*
X101842856Y-102002857D01*
X101842856Y-101574286D01*
X101914285Y-101431429D01*
X101985713Y-101360000D01*
X102128571Y-101288571D01*
X102414285Y-101288571D01*
X102557142Y-101360000D01*
X102985713Y-101288571D02*
X103557142Y-101288571D01*
X103199999Y-100788571D02*
X103199999Y-102074286D01*
X103271427Y-102217143D01*
X103414285Y-102288571D01*
X103557142Y-102288571D01*
X104057142Y-102288571D02*
X104057142Y-101288571D01*
X104057142Y-100788571D02*
X103985713Y-100860000D01*
X104057142Y-100931429D01*
X104128570Y-100860000D01*
X104057142Y-100788571D01*
X104057142Y-100931429D01*
X104628571Y-101288571D02*
X104985714Y-102288571D01*
X105342856Y-101288571D01*
X106485713Y-102217143D02*
X106342856Y-102288571D01*
X106057142Y-102288571D01*
X105914285Y-102217143D01*
X105842856Y-102074286D01*
X105842856Y-101502857D01*
X105914285Y-101360000D01*
X106057142Y-101288571D01*
X106342856Y-101288571D01*
X106485713Y-101360000D01*
X106557142Y-101502857D01*
X106557142Y-101645714D01*
X105842856Y-101788571D01*
X78287143Y-84478571D02*
X78287143Y-82978571D01*
X79144286Y-84478571D01*
X79144286Y-82978571D01*
X79858572Y-83692857D02*
X80358572Y-83692857D01*
X80572858Y-84478571D02*
X79858572Y-84478571D01*
X79858572Y-82978571D01*
X80572858Y-82978571D01*
X81001429Y-82978571D02*
X81858572Y-82978571D01*
X81430001Y-84478571D02*
X81430001Y-82978571D01*
X50438571Y-141882857D02*
X48938571Y-141882857D01*
X48938571Y-141311429D01*
X49010000Y-141168571D01*
X49081429Y-141097143D01*
X49224286Y-141025714D01*
X49438571Y-141025714D01*
X49581429Y-141097143D01*
X49652857Y-141168571D01*
X49724286Y-141311429D01*
X49724286Y-141882857D01*
X48938571Y-140525714D02*
X50438571Y-140168571D01*
X49367143Y-139882857D01*
X50438571Y-139597143D01*
X48938571Y-139240000D01*
X50438571Y-137811428D02*
X49724286Y-138311428D01*
X50438571Y-138668571D02*
X48938571Y-138668571D01*
X48938571Y-138097143D01*
X49010000Y-137954285D01*
X49081429Y-137882857D01*
X49224286Y-137811428D01*
X49438571Y-137811428D01*
X49581429Y-137882857D01*
X49652857Y-137954285D01*
X49724286Y-138097143D01*
X49724286Y-138668571D01*
X84057143Y-84498571D02*
X84057143Y-82998571D01*
X84057143Y-83712857D02*
X84914286Y-83712857D01*
X84914286Y-84498571D02*
X84914286Y-82998571D01*
X86128572Y-83712857D02*
X86342858Y-83784286D01*
X86414286Y-83855714D01*
X86485715Y-83998571D01*
X86485715Y-84212857D01*
X86414286Y-84355714D01*
X86342858Y-84427143D01*
X86200000Y-84498571D01*
X85628572Y-84498571D01*
X85628572Y-82998571D01*
X86128572Y-82998571D01*
X86271429Y-83070000D01*
X86342858Y-83141429D01*
X86414286Y-83284286D01*
X86414286Y-83427143D01*
X86342858Y-83570000D01*
X86271429Y-83641429D01*
X86128572Y-83712857D01*
X85628572Y-83712857D01*
D12*
X113500000Y-92988720D02*
X113500000Y-82991280D01*
X113500000Y-82990000D02*
X133500000Y-82990000D01*
X133500000Y-82990000D02*
X133500000Y-92990000D01*
X133500000Y-92990000D02*
X113500000Y-92990000D01*
D13*
X63675000Y-129500000D02*
X63675000Y-130700000D01*
X61925000Y-130700000D02*
X61925000Y-129500000D01*
X68575000Y-129500000D02*
X68575000Y-130700000D01*
X66825000Y-130700000D02*
X66825000Y-129500000D01*
X84125000Y-81400000D02*
X84125000Y-80200000D01*
X85875000Y-80200000D02*
X85875000Y-81400000D01*
X85970000Y-95615000D02*
X85615000Y-95615000D01*
X85970000Y-103365000D02*
X85615000Y-103365000D01*
X75320000Y-103365000D02*
X75675000Y-103365000D01*
X75320000Y-95615000D02*
X75675000Y-95615000D01*
X85970000Y-95615000D02*
X85970000Y-103365000D01*
X75320000Y-95615000D02*
X75320000Y-103365000D01*
X85615000Y-95615000D02*
X85615000Y-94090000D01*
X81875000Y-129300000D02*
X81875000Y-130500000D01*
X80125000Y-130500000D02*
X80125000Y-129300000D01*
D12*
X113500000Y-104358720D02*
X113500000Y-94361280D01*
X113500000Y-94360000D02*
X133500000Y-94360000D01*
X133500000Y-94360000D02*
X133500000Y-104360000D01*
X133500000Y-104360000D02*
X113500000Y-104360000D01*
D13*
X109970000Y-132270000D02*
X94730000Y-132270000D01*
X94730000Y-132270000D02*
X94730000Y-129730000D01*
X94730000Y-129730000D02*
X109970000Y-129730000D01*
X112790000Y-132550000D02*
X111240000Y-132550000D01*
X109970000Y-132270000D02*
X109970000Y-129730000D01*
X111240000Y-129450000D02*
X112790000Y-129450000D01*
X112790000Y-129450000D02*
X112790000Y-132550000D01*
X133970000Y-132270000D02*
X118730000Y-132270000D01*
X118730000Y-132270000D02*
X118730000Y-129730000D01*
X118730000Y-129730000D02*
X133970000Y-129730000D01*
X136790000Y-132550000D02*
X135240000Y-132550000D01*
X133970000Y-132270000D02*
X133970000Y-129730000D01*
X135240000Y-129450000D02*
X136790000Y-129450000D01*
X136790000Y-129450000D02*
X136790000Y-132550000D01*
X142920000Y-100920000D02*
X143320000Y-100920000D01*
X142920000Y-97320000D02*
X143320000Y-97320000D01*
X141820000Y-104420000D02*
X141820000Y-93820000D01*
X142920000Y-104420000D02*
X142920000Y-93820000D01*
X135720000Y-104420000D02*
X143320000Y-104420000D01*
X143320000Y-93820000D02*
X135720000Y-93820000D01*
X135720000Y-93820000D02*
X135720000Y-104420000D01*
X142920000Y-88930000D02*
X143320000Y-88930000D01*
X142920000Y-85330000D02*
X143320000Y-85330000D01*
X141820000Y-92430000D02*
X141820000Y-81830000D01*
X142920000Y-92430000D02*
X142920000Y-81830000D01*
X135720000Y-92430000D02*
X143320000Y-92430000D01*
X143320000Y-81830000D02*
X135720000Y-81830000D01*
X135720000Y-81830000D02*
X135720000Y-92430000D01*
X49005000Y-136819000D02*
X49005000Y-126821000D01*
X48865000Y-136815000D02*
X48865000Y-126825000D01*
X48725000Y-136807000D02*
X48725000Y-126833000D01*
X48585000Y-136795000D02*
X48585000Y-126845000D01*
X48445000Y-136780000D02*
X48445000Y-126860000D01*
X48305000Y-136760000D02*
X48305000Y-126880000D01*
X48165000Y-136736000D02*
X48165000Y-126904000D01*
X48025000Y-136707000D02*
X48025000Y-126933000D01*
X47885000Y-136675000D02*
X47885000Y-126965000D01*
X47745000Y-136638000D02*
X47745000Y-127002000D01*
X47605000Y-136597000D02*
X47605000Y-127043000D01*
X47465000Y-136552000D02*
X47465000Y-132286000D01*
X47465000Y-131354000D02*
X47465000Y-127088000D01*
X47325000Y-136502000D02*
X47325000Y-132487000D01*
X47325000Y-131153000D02*
X47325000Y-127138000D01*
X47185000Y-136447000D02*
X47185000Y-132616000D01*
X47185000Y-131024000D02*
X47185000Y-127193000D01*
X47045000Y-136387000D02*
X47045000Y-132705000D01*
X47045000Y-130935000D02*
X47045000Y-127253000D01*
X46905000Y-136322000D02*
X46905000Y-132766000D01*
X46905000Y-130874000D02*
X46905000Y-127318000D01*
X46765000Y-136252000D02*
X46765000Y-132803000D01*
X46765000Y-130837000D02*
X46765000Y-127388000D01*
X46625000Y-136176000D02*
X46625000Y-132819000D01*
X46625000Y-130821000D02*
X46625000Y-127464000D01*
X46485000Y-136094000D02*
X46485000Y-132815000D01*
X46485000Y-130825000D02*
X46485000Y-127546000D01*
X46345000Y-136006000D02*
X46345000Y-132792000D01*
X46345000Y-130848000D02*
X46345000Y-127634000D01*
X46205000Y-135911000D02*
X46205000Y-132747000D01*
X46205000Y-130893000D02*
X46205000Y-127729000D01*
X46065000Y-135809000D02*
X46065000Y-132677000D01*
X46065000Y-130963000D02*
X46065000Y-127831000D01*
X45925000Y-135699000D02*
X45925000Y-132576000D01*
X45925000Y-131064000D02*
X45925000Y-127941000D01*
X45785000Y-135581000D02*
X45785000Y-132427000D01*
X45785000Y-131213000D02*
X45785000Y-128059000D01*
X45645000Y-135453000D02*
X45645000Y-132175000D01*
X45645000Y-131465000D02*
X45645000Y-128187000D01*
X45505000Y-135316000D02*
X45505000Y-128324000D01*
X45365000Y-135166000D02*
X45365000Y-128474000D01*
X45225000Y-135004000D02*
X45225000Y-128636000D01*
X45085000Y-134827000D02*
X45085000Y-128813000D01*
X44945000Y-134631000D02*
X44945000Y-129009000D01*
X44805000Y-134413000D02*
X44805000Y-129227000D01*
X44665000Y-134167000D02*
X44665000Y-129473000D01*
X44525000Y-133882000D02*
X44525000Y-129758000D01*
X44385000Y-133540000D02*
X44385000Y-130100000D01*
X44245000Y-133094000D02*
X44245000Y-130546000D01*
X44105000Y-132319000D02*
X44105000Y-131321000D01*
X47580000Y-131820000D02*
G75*
G03X47580000Y-131820000I-1000000J0D01*
G01*
X54117500Y-131820000D02*
G75*
G03X54117500Y-131820000I-5037500J0D01*
G01*
X85330000Y-91580000D02*
X84330000Y-91580000D01*
X84330000Y-93280000D02*
X85330000Y-93280000D01*
X106540000Y-104230000D02*
X106540000Y-105230000D01*
X108240000Y-105230000D02*
X108240000Y-104230000D01*
X106940000Y-90310000D02*
X106940000Y-91310000D01*
X108640000Y-91310000D02*
X108640000Y-90310000D01*
X110827460Y-84190000D02*
X110827460Y-83174000D01*
X110827460Y-89016000D02*
X110827460Y-90286000D01*
X109557460Y-88762000D02*
X112097460Y-88762000D01*
X109557460Y-88508000D02*
X112097460Y-88508000D01*
X109557460Y-88254000D02*
X112097460Y-88254000D01*
X109557460Y-89016000D02*
X112097460Y-89016000D01*
X109557460Y-88000000D02*
X112097460Y-89270000D01*
X109557460Y-89270000D02*
X112097460Y-88000000D01*
X109557460Y-88000000D02*
X112097460Y-88000000D01*
X109557460Y-88635000D02*
X112097460Y-88635000D01*
X112097460Y-89270000D02*
X109557460Y-89270000D01*
X109557460Y-89270000D02*
X109557460Y-84190000D01*
X109557460Y-84190000D02*
X112097460Y-84190000D01*
X112097460Y-84190000D02*
X112097460Y-89270000D01*
X110827460Y-98100000D02*
X110827460Y-97084000D01*
X110827460Y-102926000D02*
X110827460Y-104196000D01*
X109557460Y-102672000D02*
X112097460Y-102672000D01*
X109557460Y-102418000D02*
X112097460Y-102418000D01*
X109557460Y-102164000D02*
X112097460Y-102164000D01*
X109557460Y-102926000D02*
X112097460Y-102926000D01*
X109557460Y-101910000D02*
X112097460Y-103180000D01*
X109557460Y-103180000D02*
X112097460Y-101910000D01*
X109557460Y-101910000D02*
X112097460Y-101910000D01*
X109557460Y-102545000D02*
X112097460Y-102545000D01*
X112097460Y-103180000D02*
X109557460Y-103180000D01*
X109557460Y-103180000D02*
X109557460Y-98100000D01*
X109557460Y-98100000D02*
X112097460Y-98100000D01*
X112097460Y-98100000D02*
X112097460Y-103180000D01*
D12*
X44312480Y-142791480D02*
X51307640Y-142791480D01*
X51307640Y-142791480D02*
X51307640Y-148989080D01*
X51307640Y-148989080D02*
X51307640Y-149789180D01*
X51307640Y-149789180D02*
X44312480Y-149789180D01*
X44312480Y-149789180D02*
X44312480Y-148989080D01*
X44312480Y-148989080D02*
X44312480Y-142791480D01*
X51307640Y-148989080D02*
X44312480Y-148989080D01*
X44312480Y-147538740D02*
X43911160Y-147538740D01*
X43911160Y-147538740D02*
X43911160Y-148539500D01*
X43911160Y-148539500D02*
X44312480Y-148539500D01*
X51307640Y-143040400D02*
X51708960Y-143040400D01*
X51708960Y-143040400D02*
X51708960Y-144041160D01*
X51708960Y-144041160D02*
X51307640Y-144041160D01*
D14*
X45056546Y-143390260D02*
G75*
G03X45056546Y-143390260I-197566J0D01*
G01*
D13*
X107020240Y-82939160D02*
X107020240Y-82890900D01*
X106319200Y-80140180D02*
X107020240Y-80140180D01*
X107020240Y-80140180D02*
X107020240Y-80389100D01*
X107020240Y-82939160D02*
X107020240Y-83139820D01*
X107020240Y-83139820D02*
X106319200Y-83139820D01*
X105280240Y-96849160D02*
X105280240Y-96800900D01*
X104579200Y-94050180D02*
X105280240Y-94050180D01*
X105280240Y-94050180D02*
X105280240Y-94299100D01*
X105280240Y-96849160D02*
X105280240Y-97049820D01*
X105280240Y-97049820D02*
X104579200Y-97049820D01*
X79125000Y-81400000D02*
X79125000Y-80200000D01*
X80875000Y-80200000D02*
X80875000Y-81400000D01*
X89125000Y-81400000D02*
X89125000Y-80200000D01*
X90875000Y-80200000D02*
X90875000Y-81400000D01*
X102830000Y-81565000D02*
X101630000Y-81565000D01*
X101630000Y-79815000D02*
X102830000Y-79815000D01*
X102830000Y-83785000D02*
X101630000Y-83785000D01*
X101630000Y-82035000D02*
X102830000Y-82035000D01*
X85360000Y-113985000D02*
X84160000Y-113985000D01*
X84160000Y-112235000D02*
X85360000Y-112235000D01*
X100660000Y-95465000D02*
X99460000Y-95465000D01*
X99460000Y-93715000D02*
X100660000Y-93715000D01*
X100660000Y-97685000D02*
X99460000Y-97685000D01*
X99460000Y-95935000D02*
X100660000Y-95935000D01*
X86680000Y-108365000D02*
X85480000Y-108365000D01*
X85480000Y-106615000D02*
X86680000Y-106615000D01*
X55590000Y-130320000D02*
X55590000Y-131320000D01*
X57290000Y-131320000D02*
X57290000Y-130320000D01*
X84000000Y-90400000D02*
X84000000Y-90150000D01*
X86000000Y-90400000D02*
X84000000Y-90400000D01*
X86000000Y-90150000D02*
X86000000Y-90400000D01*
X84000000Y-90150000D02*
X86000000Y-90150000D01*
X84150000Y-87150000D02*
X84150000Y-88150000D01*
X85850000Y-88150000D02*
X85850000Y-87150000D01*
X79010000Y-90400000D02*
X79010000Y-90150000D01*
X81010000Y-90400000D02*
X79010000Y-90400000D01*
X81010000Y-90150000D02*
X81010000Y-90400000D01*
X79010000Y-90150000D02*
X81010000Y-90150000D01*
X79160000Y-87150000D02*
X79160000Y-88150000D01*
X80860000Y-88150000D02*
X80860000Y-87150000D01*
X89000000Y-90400000D02*
X89000000Y-90150000D01*
X91000000Y-90400000D02*
X89000000Y-90400000D01*
X91000000Y-90150000D02*
X91000000Y-90400000D01*
X89000000Y-90150000D02*
X91000000Y-90150000D01*
X89150000Y-87150000D02*
X89150000Y-88150000D01*
X90850000Y-88150000D02*
X90850000Y-87150000D01*
X96960000Y-98140000D02*
X97210000Y-98140000D01*
X96960000Y-100140000D02*
X96960000Y-98140000D01*
X97210000Y-100140000D02*
X96960000Y-100140000D01*
X97210000Y-98140000D02*
X97210000Y-100140000D01*
X100210000Y-98290000D02*
X99210000Y-98290000D01*
X99210000Y-99990000D02*
X100210000Y-99990000D01*
X99180000Y-84160000D02*
X99430000Y-84160000D01*
X99180000Y-86160000D02*
X99180000Y-84160000D01*
X99430000Y-86160000D02*
X99180000Y-86160000D01*
X99430000Y-84160000D02*
X99430000Y-86160000D01*
X102430000Y-84310000D02*
X101430000Y-84310000D01*
X101430000Y-86010000D02*
X102430000Y-86010000D01*
X74242000Y-132408000D02*
X74242000Y-149830000D01*
X87704000Y-132408000D02*
X87704000Y-149830000D01*
X74242000Y-149830000D02*
X87704000Y-149830000D01*
X86942000Y-132408000D02*
X87704000Y-132408000D01*
X74242000Y-132408000D02*
X86942000Y-132408000D01*
X57512000Y-132408000D02*
X57512000Y-149830000D01*
X70974000Y-132408000D02*
X70974000Y-149830000D01*
X57512000Y-149830000D02*
X70974000Y-149830000D01*
X70212000Y-132408000D02*
X70974000Y-132408000D01*
X57512000Y-132408000D02*
X70212000Y-132408000D01*
D15*
X66515000Y-121285000D02*
X124935000Y-121285000D01*
X124935000Y-121285000D02*
X124935000Y-126365000D01*
X124935000Y-126365000D02*
X66515000Y-126365000D01*
X66515000Y-126365000D02*
X66515000Y-121285000D01*
X66515000Y-73025000D02*
X124935000Y-73025000D01*
X124935000Y-73025000D02*
X124935000Y-78105000D01*
X124935000Y-78105000D02*
X66515000Y-78105000D01*
X66515000Y-78105000D02*
X66515000Y-73025000D01*
X89375000Y-120650000D02*
X104615000Y-120650000D01*
X104615000Y-120650000D02*
X104615000Y-118110000D01*
X104615000Y-118110000D02*
X89375000Y-118110000D01*
X89375000Y-118110000D02*
X89375000Y-120650000D01*
X48100000Y-105283000D02*
X67251600Y-105283000D01*
X67251600Y-105283000D02*
X67277000Y-89027000D01*
X67277000Y-89027000D02*
X48100000Y-89027000D01*
X48100000Y-121539000D02*
X60419000Y-121539000D01*
X60419000Y-121539000D02*
X60419000Y-112395000D01*
X60419000Y-112395000D02*
X48100000Y-112395000D01*
D10*
G36*
X52405300Y-81673700D02*
X52506900Y-81673700D01*
X52506900Y-81648300D01*
X52405300Y-81648300D01*
X52405300Y-81673700D01*
G37*
G36*
X52379900Y-81648300D02*
X52532300Y-81648300D01*
X52532300Y-81622900D01*
X52379900Y-81622900D01*
X52379900Y-81648300D01*
G37*
G36*
X52913300Y-81648300D02*
X52964100Y-81648300D01*
X52964100Y-81622900D01*
X52913300Y-81622900D01*
X52913300Y-81648300D01*
G37*
G36*
X52354500Y-81622900D02*
X52532300Y-81622900D01*
X52532300Y-81597500D01*
X52354500Y-81597500D01*
X52354500Y-81622900D01*
G37*
G36*
X52887900Y-81622900D02*
X52989500Y-81622900D01*
X52989500Y-81597500D01*
X52887900Y-81597500D01*
X52887900Y-81622900D01*
G37*
G36*
X52354500Y-81597500D02*
X52557700Y-81597500D01*
X52557700Y-81572100D01*
X52354500Y-81572100D01*
X52354500Y-81597500D01*
G37*
G36*
X52862500Y-81597500D02*
X53014900Y-81597500D01*
X53014900Y-81572100D01*
X52862500Y-81572100D01*
X52862500Y-81597500D01*
G37*
G36*
X52329100Y-81572100D02*
X52608500Y-81572100D01*
X52608500Y-81546700D01*
X52329100Y-81546700D01*
X52329100Y-81572100D01*
G37*
G36*
X52837100Y-81572100D02*
X53014900Y-81572100D01*
X53014900Y-81546700D01*
X52837100Y-81546700D01*
X52837100Y-81572100D01*
G37*
G36*
X52202100Y-81546700D02*
X52633900Y-81546700D01*
X52633900Y-81521300D01*
X52202100Y-81521300D01*
X52202100Y-81546700D01*
G37*
G36*
X52786300Y-81546700D02*
X53040300Y-81546700D01*
X53040300Y-81521300D01*
X52786300Y-81521300D01*
X52786300Y-81546700D01*
G37*
G36*
X52176700Y-81521300D02*
X52684700Y-81521300D01*
X52684700Y-81495900D01*
X52176700Y-81495900D01*
X52176700Y-81521300D01*
G37*
G36*
X52760900Y-81521300D02*
X53040300Y-81521300D01*
X53040300Y-81495900D01*
X52760900Y-81495900D01*
X52760900Y-81521300D01*
G37*
G36*
X52176700Y-81495900D02*
X53116500Y-81495900D01*
X53116500Y-81470500D01*
X52176700Y-81470500D01*
X52176700Y-81495900D01*
G37*
G36*
X52176700Y-81470500D02*
X53167300Y-81470500D01*
X53167300Y-81445100D01*
X52176700Y-81445100D01*
X52176700Y-81470500D01*
G37*
G36*
X52176700Y-81445100D02*
X53192700Y-81445100D01*
X53192700Y-81419700D01*
X52176700Y-81419700D01*
X52176700Y-81445100D01*
G37*
G36*
X52176700Y-81419700D02*
X53192700Y-81419700D01*
X53192700Y-81394300D01*
X52176700Y-81394300D01*
X52176700Y-81419700D01*
G37*
G36*
X52202100Y-81394300D02*
X53192700Y-81394300D01*
X53192700Y-81368900D01*
X52202100Y-81368900D01*
X52202100Y-81394300D01*
G37*
G36*
X53319700Y-81394300D02*
X53446700Y-81394300D01*
X53446700Y-81368900D01*
X53319700Y-81368900D01*
X53319700Y-81394300D01*
G37*
G36*
X52227500Y-81368900D02*
X53192700Y-81368900D01*
X53192700Y-81343500D01*
X52227500Y-81343500D01*
X52227500Y-81368900D01*
G37*
G36*
X53268900Y-81368900D02*
X53497500Y-81368900D01*
X53497500Y-81343500D01*
X53268900Y-81343500D01*
X53268900Y-81368900D01*
G37*
G36*
X52278300Y-81343500D02*
X53522900Y-81343500D01*
X53522900Y-81318100D01*
X52278300Y-81318100D01*
X52278300Y-81343500D01*
G37*
G36*
X52303700Y-81318100D02*
X53522900Y-81318100D01*
X53522900Y-81292700D01*
X52303700Y-81292700D01*
X52303700Y-81318100D01*
G37*
G36*
X52303700Y-81292700D02*
X53573700Y-81292700D01*
X53573700Y-81267300D01*
X52303700Y-81267300D01*
X52303700Y-81292700D01*
G37*
G36*
X52303700Y-81267300D02*
X53599100Y-81267300D01*
X53599100Y-81241900D01*
X52303700Y-81241900D01*
X52303700Y-81267300D01*
G37*
G36*
X52329100Y-81241900D02*
X53624500Y-81241900D01*
X53624500Y-81216500D01*
X52329100Y-81216500D01*
X52329100Y-81241900D01*
G37*
G36*
X52354500Y-81216500D02*
X53649900Y-81216500D01*
X53649900Y-81191100D01*
X52354500Y-81191100D01*
X52354500Y-81216500D01*
G37*
G36*
X52379900Y-81191100D02*
X53649900Y-81191100D01*
X53649900Y-81165700D01*
X52379900Y-81165700D01*
X52379900Y-81191100D01*
G37*
G36*
X52405300Y-81165700D02*
X53675300Y-81165700D01*
X53675300Y-81140300D01*
X52405300Y-81140300D01*
X52405300Y-81165700D01*
G37*
G36*
X52430700Y-81140300D02*
X53675300Y-81140300D01*
X53675300Y-81114900D01*
X52430700Y-81114900D01*
X52430700Y-81140300D01*
G37*
G36*
X52506900Y-81114900D02*
X53700700Y-81114900D01*
X53700700Y-81089500D01*
X52506900Y-81089500D01*
X52506900Y-81114900D01*
G37*
G36*
X52557700Y-81089500D02*
X53700700Y-81089500D01*
X53700700Y-81064100D01*
X52557700Y-81064100D01*
X52557700Y-81089500D01*
G37*
G36*
X52659300Y-81064100D02*
X53700700Y-81064100D01*
X53700700Y-81038700D01*
X52659300Y-81038700D01*
X52659300Y-81064100D01*
G37*
G36*
X53751500Y-81064100D02*
X53903900Y-81064100D01*
X53903900Y-81038700D01*
X53751500Y-81038700D01*
X53751500Y-81064100D01*
G37*
G36*
X52735500Y-81038700D02*
X53980100Y-81038700D01*
X53980100Y-81013300D01*
X52735500Y-81013300D01*
X52735500Y-81038700D01*
G37*
G36*
X52811700Y-81013300D02*
X54005500Y-81013300D01*
X54005500Y-80987900D01*
X52811700Y-80987900D01*
X52811700Y-81013300D01*
G37*
G36*
X52837100Y-80987900D02*
X54030900Y-80987900D01*
X54030900Y-80962500D01*
X52837100Y-80962500D01*
X52837100Y-80987900D01*
G37*
G36*
X52837100Y-80962500D02*
X54107100Y-80962500D01*
X54107100Y-80937100D01*
X52837100Y-80937100D01*
X52837100Y-80962500D01*
G37*
G36*
X52862500Y-80937100D02*
X54132500Y-80937100D01*
X54132500Y-80911700D01*
X52862500Y-80911700D01*
X52862500Y-80937100D01*
G37*
G36*
X52862500Y-80911700D02*
X54132500Y-80911700D01*
X54132500Y-80886300D01*
X52862500Y-80886300D01*
X52862500Y-80911700D01*
G37*
G36*
X52862500Y-80886300D02*
X54132500Y-80886300D01*
X54132500Y-80860900D01*
X52862500Y-80860900D01*
X52862500Y-80886300D01*
G37*
G36*
X52862500Y-80860900D02*
X54157900Y-80860900D01*
X54157900Y-80835500D01*
X52862500Y-80835500D01*
X52862500Y-80860900D01*
G37*
G36*
X52862500Y-80835500D02*
X54132500Y-80835500D01*
X54132500Y-80810100D01*
X52862500Y-80810100D01*
X52862500Y-80835500D01*
G37*
G36*
X52862500Y-80810100D02*
X54157900Y-80810100D01*
X54157900Y-80784700D01*
X52862500Y-80784700D01*
X52862500Y-80810100D01*
G37*
G36*
X52862500Y-80784700D02*
X54183300Y-80784700D01*
X54183300Y-80759300D01*
X52862500Y-80759300D01*
X52862500Y-80784700D01*
G37*
G36*
X52862500Y-80759300D02*
X54183300Y-80759300D01*
X54183300Y-80733900D01*
X52862500Y-80733900D01*
X52862500Y-80759300D01*
G37*
G36*
X52862500Y-80733900D02*
X54208700Y-80733900D01*
X54208700Y-80708500D01*
X52862500Y-80708500D01*
X52862500Y-80733900D01*
G37*
G36*
X52862500Y-80708500D02*
X54208700Y-80708500D01*
X54208700Y-80683100D01*
X52862500Y-80683100D01*
X52862500Y-80708500D01*
G37*
G36*
X54386500Y-80708500D02*
X54513500Y-80708500D01*
X54513500Y-80683100D01*
X54386500Y-80683100D01*
X54386500Y-80708500D01*
G37*
G36*
X52862500Y-80683100D02*
X54564300Y-80683100D01*
X54564300Y-80657700D01*
X52862500Y-80657700D01*
X52862500Y-80683100D01*
G37*
G36*
X51871900Y-80657700D02*
X51998900Y-80657700D01*
X51998900Y-80632300D01*
X51871900Y-80632300D01*
X51871900Y-80657700D01*
G37*
G36*
X52862500Y-80657700D02*
X54589700Y-80657700D01*
X54589700Y-80632300D01*
X52862500Y-80632300D01*
X52862500Y-80657700D01*
G37*
G36*
X51821100Y-80632300D02*
X52024300Y-80632300D01*
X52024300Y-80606900D01*
X51821100Y-80606900D01*
X51821100Y-80632300D01*
G37*
G36*
X52862500Y-80632300D02*
X54615100Y-80632300D01*
X54615100Y-80606900D01*
X52862500Y-80606900D01*
X52862500Y-80632300D01*
G37*
G36*
X51795700Y-80606900D02*
X52049700Y-80606900D01*
X52049700Y-80581500D01*
X51795700Y-80581500D01*
X51795700Y-80606900D01*
G37*
G36*
X52862500Y-80606900D02*
X54665900Y-80606900D01*
X54665900Y-80581500D01*
X52862500Y-80581500D01*
X52862500Y-80606900D01*
G37*
G36*
X54691300Y-80606900D02*
X54818300Y-80606900D01*
X54818300Y-80581500D01*
X54691300Y-80581500D01*
X54691300Y-80606900D01*
G37*
G36*
X51770300Y-80581500D02*
X52049700Y-80581500D01*
X52049700Y-80556100D01*
X51770300Y-80556100D01*
X51770300Y-80581500D01*
G37*
G36*
X52862500Y-80581500D02*
X54843700Y-80581500D01*
X54843700Y-80556100D01*
X52862500Y-80556100D01*
X52862500Y-80581500D01*
G37*
G36*
X51744900Y-80556100D02*
X52049700Y-80556100D01*
X52049700Y-80530700D01*
X51744900Y-80530700D01*
X51744900Y-80556100D01*
G37*
G36*
X52862500Y-80556100D02*
X54869100Y-80556100D01*
X54869100Y-80530700D01*
X52862500Y-80530700D01*
X52862500Y-80556100D01*
G37*
G36*
X51744900Y-80530700D02*
X52049700Y-80530700D01*
X52049700Y-80505300D01*
X51744900Y-80505300D01*
X51744900Y-80530700D01*
G37*
G36*
X52862500Y-80530700D02*
X54869100Y-80530700D01*
X54869100Y-80505300D01*
X52862500Y-80505300D01*
X52862500Y-80530700D01*
G37*
G36*
X51719500Y-80505300D02*
X52049700Y-80505300D01*
X52049700Y-80479900D01*
X51719500Y-80479900D01*
X51719500Y-80505300D01*
G37*
G36*
X52837100Y-80505300D02*
X54869100Y-80505300D01*
X54869100Y-80479900D01*
X52837100Y-80479900D01*
X52837100Y-80505300D01*
G37*
G36*
X51719500Y-80479900D02*
X52075100Y-80479900D01*
X52075100Y-80454500D01*
X51719500Y-80454500D01*
X51719500Y-80479900D01*
G37*
G36*
X52811700Y-80479900D02*
X54869100Y-80479900D01*
X54869100Y-80454500D01*
X52811700Y-80454500D01*
X52811700Y-80479900D01*
G37*
G36*
X51719500Y-80454500D02*
X52075100Y-80454500D01*
X52075100Y-80429100D01*
X51719500Y-80429100D01*
X51719500Y-80454500D01*
G37*
G36*
X52786300Y-80454500D02*
X54869100Y-80454500D01*
X54869100Y-80429100D01*
X52786300Y-80429100D01*
X52786300Y-80454500D01*
G37*
G36*
X51719500Y-80429100D02*
X52100500Y-80429100D01*
X52100500Y-80403700D01*
X51719500Y-80403700D01*
X51719500Y-80429100D01*
G37*
G36*
X52760900Y-80429100D02*
X54843700Y-80429100D01*
X54843700Y-80403700D01*
X52760900Y-80403700D01*
X52760900Y-80429100D01*
G37*
G36*
X51719500Y-80403700D02*
X52151300Y-80403700D01*
X52151300Y-80378300D01*
X51719500Y-80378300D01*
X51719500Y-80403700D01*
G37*
G36*
X52735500Y-80403700D02*
X54818300Y-80403700D01*
X54818300Y-80378300D01*
X52735500Y-80378300D01*
X52735500Y-80403700D01*
G37*
G36*
X51744900Y-80378300D02*
X52176700Y-80378300D01*
X52176700Y-80352900D01*
X51744900Y-80352900D01*
X51744900Y-80378300D01*
G37*
G36*
X52684700Y-80378300D02*
X54818300Y-80378300D01*
X54818300Y-80352900D01*
X52684700Y-80352900D01*
X52684700Y-80378300D01*
G37*
G36*
X55021500Y-80378300D02*
X55123100Y-80378300D01*
X55123100Y-80352900D01*
X55021500Y-80352900D01*
X55021500Y-80378300D01*
G37*
G36*
X51744900Y-80352900D02*
X52227500Y-80352900D01*
X52227500Y-80327500D01*
X51744900Y-80327500D01*
X51744900Y-80352900D01*
G37*
G36*
X52659300Y-80352900D02*
X54767500Y-80352900D01*
X54767500Y-80327500D01*
X52659300Y-80327500D01*
X52659300Y-80352900D01*
G37*
G36*
X54945300Y-80352900D02*
X55173900Y-80352900D01*
X55173900Y-80327500D01*
X54945300Y-80327500D01*
X54945300Y-80352900D01*
G37*
G36*
X51744900Y-80327500D02*
X52278300Y-80327500D01*
X52278300Y-80302100D01*
X51744900Y-80302100D01*
X51744900Y-80327500D01*
G37*
G36*
X52633900Y-80327500D02*
X54767500Y-80327500D01*
X54767500Y-80302100D01*
X52633900Y-80302100D01*
X52633900Y-80327500D01*
G37*
G36*
X54869100Y-80327500D02*
X55173900Y-80327500D01*
X55173900Y-80302100D01*
X54869100Y-80302100D01*
X54869100Y-80327500D01*
G37*
G36*
X51744900Y-80302100D02*
X52329100Y-80302100D01*
X52329100Y-80276700D01*
X51744900Y-80276700D01*
X51744900Y-80302100D01*
G37*
G36*
X52608500Y-80302100D02*
X55173900Y-80302100D01*
X55173900Y-80276700D01*
X52608500Y-80276700D01*
X52608500Y-80302100D01*
G37*
G36*
X51744900Y-80276700D02*
X52430700Y-80276700D01*
X52430700Y-80251300D01*
X51744900Y-80251300D01*
X51744900Y-80276700D01*
G37*
G36*
X52557700Y-80276700D02*
X55199300Y-80276700D01*
X55199300Y-80251300D01*
X52557700Y-80251300D01*
X52557700Y-80276700D01*
G37*
G36*
X51770300Y-80251300D02*
X55529500Y-80251300D01*
X55529500Y-80225900D01*
X51770300Y-80225900D01*
X51770300Y-80251300D01*
G37*
G36*
X51770300Y-80225900D02*
X55859700Y-80225900D01*
X55859700Y-80200500D01*
X51770300Y-80200500D01*
X51770300Y-80225900D01*
G37*
G36*
X51770300Y-80200500D02*
X56012100Y-80200500D01*
X56012100Y-80175100D01*
X51770300Y-80175100D01*
X51770300Y-80200500D01*
G37*
G36*
X51770300Y-80175100D02*
X56189900Y-80175100D01*
X56189900Y-80149700D01*
X51770300Y-80149700D01*
X51770300Y-80175100D01*
G37*
G36*
X51770300Y-80149700D02*
X56266100Y-80149700D01*
X56266100Y-80124300D01*
X51770300Y-80124300D01*
X51770300Y-80149700D01*
G37*
G36*
X51770300Y-80124300D02*
X56291500Y-80124300D01*
X56291500Y-80098900D01*
X51770300Y-80098900D01*
X51770300Y-80124300D01*
G37*
G36*
X51795700Y-80098900D02*
X56291500Y-80098900D01*
X56291500Y-80073500D01*
X51795700Y-80073500D01*
X51795700Y-80098900D01*
G37*
G36*
X51795700Y-80073500D02*
X56291500Y-80073500D01*
X56291500Y-80048100D01*
X51795700Y-80048100D01*
X51795700Y-80073500D01*
G37*
G36*
X51795700Y-80048100D02*
X56316900Y-80048100D01*
X56316900Y-80022700D01*
X51795700Y-80022700D01*
X51795700Y-80048100D01*
G37*
G36*
X51795700Y-80022700D02*
X56291500Y-80022700D01*
X56291500Y-79997300D01*
X51795700Y-79997300D01*
X51795700Y-80022700D01*
G37*
G36*
X51821100Y-79997300D02*
X56291500Y-79997300D01*
X56291500Y-79971900D01*
X51821100Y-79971900D01*
X51821100Y-79997300D01*
G37*
G36*
X51821100Y-79971900D02*
X56266100Y-79971900D01*
X56266100Y-79946500D01*
X51821100Y-79946500D01*
X51821100Y-79971900D01*
G37*
G36*
X51846500Y-79946500D02*
X56291500Y-79946500D01*
X56291500Y-79921100D01*
X51846500Y-79921100D01*
X51846500Y-79946500D01*
G37*
G36*
X51871900Y-79921100D02*
X56291500Y-79921100D01*
X56291500Y-79895700D01*
X51871900Y-79895700D01*
X51871900Y-79921100D01*
G37*
G36*
X51871900Y-79895700D02*
X56316900Y-79895700D01*
X56316900Y-79870300D01*
X51871900Y-79870300D01*
X51871900Y-79895700D01*
G37*
G36*
X51897300Y-79870300D02*
X56316900Y-79870300D01*
X56316900Y-79844900D01*
X51897300Y-79844900D01*
X51897300Y-79870300D01*
G37*
G36*
X51922700Y-79844900D02*
X56316900Y-79844900D01*
X56316900Y-79819500D01*
X51922700Y-79819500D01*
X51922700Y-79844900D01*
G37*
G36*
X51922700Y-79819500D02*
X56291500Y-79819500D01*
X56291500Y-79794100D01*
X51922700Y-79794100D01*
X51922700Y-79819500D01*
G37*
G36*
X51948100Y-79794100D02*
X56291500Y-79794100D01*
X56291500Y-79768700D01*
X51948100Y-79768700D01*
X51948100Y-79794100D01*
G37*
G36*
X51973500Y-79768700D02*
X56266100Y-79768700D01*
X56266100Y-79743300D01*
X51973500Y-79743300D01*
X51973500Y-79768700D01*
G37*
G36*
X51998900Y-79743300D02*
X56139100Y-79743300D01*
X56139100Y-79717900D01*
X51998900Y-79717900D01*
X51998900Y-79743300D01*
G37*
G36*
X52024300Y-79717900D02*
X56139100Y-79717900D01*
X56139100Y-79692500D01*
X52024300Y-79692500D01*
X52024300Y-79717900D01*
G37*
G36*
X52024300Y-79692500D02*
X56139100Y-79692500D01*
X56139100Y-79667100D01*
X52024300Y-79667100D01*
X52024300Y-79692500D01*
G37*
G36*
X52049700Y-79667100D02*
X56139100Y-79667100D01*
X56139100Y-79641700D01*
X52049700Y-79641700D01*
X52049700Y-79667100D01*
G37*
G36*
X52075100Y-79641700D02*
X56139100Y-79641700D01*
X56139100Y-79616300D01*
X52075100Y-79616300D01*
X52075100Y-79641700D01*
G37*
G36*
X52100500Y-79616300D02*
X56113700Y-79616300D01*
X56113700Y-79590900D01*
X52100500Y-79590900D01*
X52100500Y-79616300D01*
G37*
G36*
X52125900Y-79590900D02*
X54640500Y-79590900D01*
X54640500Y-79565500D01*
X52125900Y-79565500D01*
X52125900Y-79590900D01*
G37*
G36*
X54716700Y-79590900D02*
X56088300Y-79590900D01*
X56088300Y-79565500D01*
X54716700Y-79565500D01*
X54716700Y-79590900D01*
G37*
G36*
X52151300Y-79565500D02*
X54640500Y-79565500D01*
X54640500Y-79540100D01*
X52151300Y-79540100D01*
X52151300Y-79565500D01*
G37*
G36*
X54894500Y-79565500D02*
X56012100Y-79565500D01*
X56012100Y-79540100D01*
X54894500Y-79540100D01*
X54894500Y-79565500D01*
G37*
G36*
X52176700Y-79540100D02*
X54792900Y-79540100D01*
X54792900Y-79514700D01*
X52176700Y-79514700D01*
X52176700Y-79540100D01*
G37*
G36*
X55021500Y-79540100D02*
X56012100Y-79540100D01*
X56012100Y-79514700D01*
X55021500Y-79514700D01*
X55021500Y-79540100D01*
G37*
G36*
X52227500Y-79514700D02*
X55021500Y-79514700D01*
X55021500Y-79489300D01*
X52227500Y-79489300D01*
X52227500Y-79514700D01*
G37*
G36*
X55123100Y-79514700D02*
X56012100Y-79514700D01*
X56012100Y-79489300D01*
X55123100Y-79489300D01*
X55123100Y-79514700D01*
G37*
G36*
X52252900Y-79489300D02*
X55072300Y-79489300D01*
X55072300Y-79463900D01*
X52252900Y-79463900D01*
X52252900Y-79489300D01*
G37*
G36*
X55224700Y-79489300D02*
X56012100Y-79489300D01*
X56012100Y-79463900D01*
X55224700Y-79463900D01*
X55224700Y-79489300D01*
G37*
G36*
X52303700Y-79463900D02*
X55097700Y-79463900D01*
X55097700Y-79438500D01*
X52303700Y-79438500D01*
X52303700Y-79463900D01*
G37*
G36*
X55300900Y-79463900D02*
X56037500Y-79463900D01*
X56037500Y-79438500D01*
X55300900Y-79438500D01*
X55300900Y-79463900D01*
G37*
G36*
X52329100Y-79438500D02*
X55097700Y-79438500D01*
X55097700Y-79413100D01*
X52329100Y-79413100D01*
X52329100Y-79438500D01*
G37*
G36*
X55377100Y-79438500D02*
X56037500Y-79438500D01*
X56037500Y-79413100D01*
X55377100Y-79413100D01*
X55377100Y-79438500D01*
G37*
G36*
X52379900Y-79413100D02*
X55097700Y-79413100D01*
X55097700Y-79387700D01*
X52379900Y-79387700D01*
X52379900Y-79413100D01*
G37*
G36*
X55478700Y-79413100D02*
X56037500Y-79413100D01*
X56037500Y-79387700D01*
X55478700Y-79387700D01*
X55478700Y-79413100D01*
G37*
G36*
X52456100Y-79387700D02*
X55097700Y-79387700D01*
X55097700Y-79362300D01*
X52456100Y-79362300D01*
X52456100Y-79387700D01*
G37*
G36*
X55554900Y-79387700D02*
X56012100Y-79387700D01*
X56012100Y-79362300D01*
X55554900Y-79362300D01*
X55554900Y-79387700D01*
G37*
G36*
X52532300Y-79362300D02*
X55097700Y-79362300D01*
X55097700Y-79336900D01*
X52532300Y-79336900D01*
X52532300Y-79362300D01*
G37*
G36*
X55631100Y-79362300D02*
X56012100Y-79362300D01*
X56012100Y-79336900D01*
X55631100Y-79336900D01*
X55631100Y-79362300D01*
G37*
G36*
X52583100Y-79336900D02*
X55097700Y-79336900D01*
X55097700Y-79311500D01*
X52583100Y-79311500D01*
X52583100Y-79336900D01*
G37*
G36*
X55707300Y-79336900D02*
X55732700Y-79336900D01*
X55732700Y-79311500D01*
X55707300Y-79311500D01*
X55707300Y-79336900D01*
G37*
G36*
X55808900Y-79336900D02*
X55961300Y-79336900D01*
X55961300Y-79311500D01*
X55808900Y-79311500D01*
X55808900Y-79336900D01*
G37*
G36*
X52608500Y-79311500D02*
X55123100Y-79311500D01*
X55123100Y-79286100D01*
X52608500Y-79286100D01*
X52608500Y-79311500D01*
G37*
G36*
X52608500Y-79286100D02*
X55173900Y-79286100D01*
X55173900Y-79260700D01*
X52608500Y-79260700D01*
X52608500Y-79286100D01*
G37*
G36*
X52583100Y-79260700D02*
X55199300Y-79260700D01*
X55199300Y-79235300D01*
X52583100Y-79235300D01*
X52583100Y-79260700D01*
G37*
G36*
X52557700Y-79235300D02*
X55224700Y-79235300D01*
X55224700Y-79209900D01*
X52557700Y-79209900D01*
X52557700Y-79235300D01*
G37*
G36*
X52532300Y-79209900D02*
X55250100Y-79209900D01*
X55250100Y-79184500D01*
X52532300Y-79184500D01*
X52532300Y-79209900D01*
G37*
G36*
X52481500Y-79184500D02*
X55250100Y-79184500D01*
X55250100Y-79159100D01*
X52481500Y-79159100D01*
X52481500Y-79184500D01*
G37*
G36*
X52456100Y-79159100D02*
X55275500Y-79159100D01*
X55275500Y-79133700D01*
X52456100Y-79133700D01*
X52456100Y-79159100D01*
G37*
G36*
X52430700Y-79133700D02*
X55300900Y-79133700D01*
X55300900Y-79108300D01*
X52430700Y-79108300D01*
X52430700Y-79133700D01*
G37*
G36*
X52405300Y-79108300D02*
X55326300Y-79108300D01*
X55326300Y-79082900D01*
X52405300Y-79082900D01*
X52405300Y-79108300D01*
G37*
G36*
X52379900Y-79082900D02*
X55351700Y-79082900D01*
X55351700Y-79057500D01*
X52379900Y-79057500D01*
X52379900Y-79082900D01*
G37*
G36*
X52354500Y-79057500D02*
X55377100Y-79057500D01*
X55377100Y-79032100D01*
X52354500Y-79032100D01*
X52354500Y-79057500D01*
G37*
G36*
X52329100Y-79032100D02*
X55377100Y-79032100D01*
X55377100Y-79006700D01*
X52329100Y-79006700D01*
X52329100Y-79032100D01*
G37*
G36*
X52303700Y-79006700D02*
X55377100Y-79006700D01*
X55377100Y-78981300D01*
X52303700Y-78981300D01*
X52303700Y-79006700D01*
G37*
G36*
X52278300Y-78981300D02*
X55427900Y-78981300D01*
X55427900Y-78955900D01*
X52278300Y-78955900D01*
X52278300Y-78981300D01*
G37*
G36*
X52252900Y-78955900D02*
X55453300Y-78955900D01*
X55453300Y-78930500D01*
X52252900Y-78930500D01*
X52252900Y-78955900D01*
G37*
G36*
X52252900Y-78930500D02*
X55453300Y-78930500D01*
X55453300Y-78905100D01*
X52252900Y-78905100D01*
X52252900Y-78930500D01*
G37*
G36*
X52227500Y-78905100D02*
X55453300Y-78905100D01*
X55453300Y-78879700D01*
X52227500Y-78879700D01*
X52227500Y-78905100D01*
G37*
G36*
X52227500Y-78879700D02*
X55478700Y-78879700D01*
X55478700Y-78854300D01*
X52227500Y-78854300D01*
X52227500Y-78879700D01*
G37*
G36*
X52202100Y-78854300D02*
X55529500Y-78854300D01*
X55529500Y-78828900D01*
X52202100Y-78828900D01*
X52202100Y-78854300D01*
G37*
G36*
X52202100Y-78828900D02*
X55554900Y-78828900D01*
X55554900Y-78803500D01*
X52202100Y-78803500D01*
X52202100Y-78828900D01*
G37*
G36*
X52202100Y-78803500D02*
X55554900Y-78803500D01*
X55554900Y-78778100D01*
X52202100Y-78778100D01*
X52202100Y-78803500D01*
G37*
G36*
X52202100Y-78778100D02*
X55554900Y-78778100D01*
X55554900Y-78752700D01*
X52202100Y-78752700D01*
X52202100Y-78778100D01*
G37*
G36*
X52176700Y-78752700D02*
X55554900Y-78752700D01*
X55554900Y-78727300D01*
X52176700Y-78727300D01*
X52176700Y-78752700D01*
G37*
G36*
X52176700Y-78727300D02*
X55554900Y-78727300D01*
X55554900Y-78701900D01*
X52176700Y-78701900D01*
X52176700Y-78727300D01*
G37*
G36*
X52176700Y-78701900D02*
X55554900Y-78701900D01*
X55554900Y-78676500D01*
X52176700Y-78676500D01*
X52176700Y-78701900D01*
G37*
G36*
X52176700Y-78676500D02*
X55554900Y-78676500D01*
X55554900Y-78651100D01*
X52176700Y-78651100D01*
X52176700Y-78676500D01*
G37*
G36*
X52176700Y-78651100D02*
X55580300Y-78651100D01*
X55580300Y-78625700D01*
X52176700Y-78625700D01*
X52176700Y-78651100D01*
G37*
G36*
X52202100Y-78625700D02*
X55580300Y-78625700D01*
X55580300Y-78600300D01*
X52202100Y-78600300D01*
X52202100Y-78625700D01*
G37*
G36*
X52202100Y-78600300D02*
X55580300Y-78600300D01*
X55580300Y-78574900D01*
X52202100Y-78574900D01*
X52202100Y-78600300D01*
G37*
G36*
X52202100Y-78574900D02*
X55580300Y-78574900D01*
X55580300Y-78549500D01*
X52202100Y-78549500D01*
X52202100Y-78574900D01*
G37*
G36*
X52202100Y-78549500D02*
X55580300Y-78549500D01*
X55580300Y-78524100D01*
X52202100Y-78524100D01*
X52202100Y-78549500D01*
G37*
G36*
X52202100Y-78524100D02*
X55554900Y-78524100D01*
X55554900Y-78498700D01*
X52202100Y-78498700D01*
X52202100Y-78524100D01*
G37*
G36*
X52202100Y-78498700D02*
X55554900Y-78498700D01*
X55554900Y-78473300D01*
X52202100Y-78473300D01*
X52202100Y-78498700D01*
G37*
G36*
X52227500Y-78473300D02*
X55504100Y-78473300D01*
X55504100Y-78447900D01*
X52227500Y-78447900D01*
X52227500Y-78473300D01*
G37*
G36*
X52227500Y-78447900D02*
X55529500Y-78447900D01*
X55529500Y-78422500D01*
X52227500Y-78422500D01*
X52227500Y-78447900D01*
G37*
G36*
X52227500Y-78422500D02*
X55529500Y-78422500D01*
X55529500Y-78397100D01*
X52227500Y-78397100D01*
X52227500Y-78422500D01*
G37*
G36*
X52252900Y-78397100D02*
X55529500Y-78397100D01*
X55529500Y-78371700D01*
X52252900Y-78371700D01*
X52252900Y-78397100D01*
G37*
G36*
X52252900Y-78371700D02*
X55529500Y-78371700D01*
X55529500Y-78346300D01*
X52252900Y-78346300D01*
X52252900Y-78371700D01*
G37*
G36*
X52252900Y-78346300D02*
X55529500Y-78346300D01*
X55529500Y-78320900D01*
X52252900Y-78320900D01*
X52252900Y-78346300D01*
G37*
G36*
X52278300Y-78320900D02*
X55504100Y-78320900D01*
X55504100Y-78295500D01*
X52278300Y-78295500D01*
X52278300Y-78320900D01*
G37*
G36*
X52278300Y-78295500D02*
X55504100Y-78295500D01*
X55504100Y-78270100D01*
X52278300Y-78270100D01*
X52278300Y-78295500D01*
G37*
G36*
X52278300Y-78270100D02*
X55478700Y-78270100D01*
X55478700Y-78244700D01*
X52278300Y-78244700D01*
X52278300Y-78270100D01*
G37*
G36*
X52303700Y-78244700D02*
X55478700Y-78244700D01*
X55478700Y-78219300D01*
X52303700Y-78219300D01*
X52303700Y-78244700D01*
G37*
G36*
X52303700Y-78219300D02*
X55478700Y-78219300D01*
X55478700Y-78193900D01*
X52303700Y-78193900D01*
X52303700Y-78219300D01*
G37*
G36*
X52329100Y-78193900D02*
X55478700Y-78193900D01*
X55478700Y-78168500D01*
X52329100Y-78168500D01*
X52329100Y-78193900D01*
G37*
G36*
X52329100Y-78168500D02*
X55529500Y-78168500D01*
X55529500Y-78143100D01*
X52329100Y-78143100D01*
X52329100Y-78168500D01*
G37*
G36*
X52354500Y-78143100D02*
X55580300Y-78143100D01*
X55580300Y-78117700D01*
X52354500Y-78117700D01*
X52354500Y-78143100D01*
G37*
G36*
X52354500Y-78117700D02*
X55605700Y-78117700D01*
X55605700Y-78092300D01*
X52354500Y-78092300D01*
X52354500Y-78117700D01*
G37*
G36*
X52354500Y-78092300D02*
X55631100Y-78092300D01*
X55631100Y-78066900D01*
X52354500Y-78066900D01*
X52354500Y-78092300D01*
G37*
G36*
X52379900Y-78066900D02*
X55631100Y-78066900D01*
X55631100Y-78041500D01*
X52379900Y-78041500D01*
X52379900Y-78066900D01*
G37*
G36*
X52379900Y-78041500D02*
X55656500Y-78041500D01*
X55656500Y-78016100D01*
X52379900Y-78016100D01*
X52379900Y-78041500D01*
G37*
G36*
X52405300Y-78016100D02*
X55681900Y-78016100D01*
X55681900Y-77990700D01*
X52405300Y-77990700D01*
X52405300Y-78016100D01*
G37*
G36*
X52405300Y-77990700D02*
X55681900Y-77990700D01*
X55681900Y-77965300D01*
X52405300Y-77965300D01*
X52405300Y-77990700D01*
G37*
G36*
X52430700Y-77965300D02*
X55681900Y-77965300D01*
X55681900Y-77939900D01*
X52430700Y-77939900D01*
X52430700Y-77965300D01*
G37*
G36*
X52430700Y-77939900D02*
X55681900Y-77939900D01*
X55681900Y-77914500D01*
X52430700Y-77914500D01*
X52430700Y-77939900D01*
G37*
G36*
X52456100Y-77914500D02*
X55681900Y-77914500D01*
X55681900Y-77889100D01*
X52456100Y-77889100D01*
X52456100Y-77914500D01*
G37*
G36*
X52456100Y-77889100D02*
X55681900Y-77889100D01*
X55681900Y-77863700D01*
X52456100Y-77863700D01*
X52456100Y-77889100D01*
G37*
G36*
X52481500Y-77863700D02*
X55656500Y-77863700D01*
X55656500Y-77838300D01*
X52481500Y-77838300D01*
X52481500Y-77863700D01*
G37*
G36*
X52481500Y-77838300D02*
X55631100Y-77838300D01*
X55631100Y-77812900D01*
X52481500Y-77812900D01*
X52481500Y-77838300D01*
G37*
G36*
X52481500Y-77812900D02*
X55605700Y-77812900D01*
X55605700Y-77787500D01*
X52481500Y-77787500D01*
X52481500Y-77812900D01*
G37*
G36*
X52506900Y-77787500D02*
X55580300Y-77787500D01*
X55580300Y-77762100D01*
X52506900Y-77762100D01*
X52506900Y-77787500D01*
G37*
G36*
X52506900Y-77762100D02*
X55529500Y-77762100D01*
X55529500Y-77736700D01*
X52506900Y-77736700D01*
X52506900Y-77762100D01*
G37*
G36*
X52532300Y-77736700D02*
X55504100Y-77736700D01*
X55504100Y-77711300D01*
X52532300Y-77711300D01*
X52532300Y-77736700D01*
G37*
G36*
X52532300Y-77711300D02*
X52786300Y-77711300D01*
X52786300Y-77685900D01*
X52532300Y-77685900D01*
X52532300Y-77711300D01*
G37*
G36*
X52811700Y-77711300D02*
X55453300Y-77711300D01*
X55453300Y-77685900D01*
X52811700Y-77685900D01*
X52811700Y-77711300D01*
G37*
G36*
X52557700Y-77685900D02*
X52786300Y-77685900D01*
X52786300Y-77660500D01*
X52557700Y-77660500D01*
X52557700Y-77685900D01*
G37*
G36*
X52811700Y-77685900D02*
X55580300Y-77685900D01*
X55580300Y-77660500D01*
X52811700Y-77660500D01*
X52811700Y-77685900D01*
G37*
G36*
X52557700Y-77660500D02*
X52811700Y-77660500D01*
X52811700Y-77635100D01*
X52557700Y-77635100D01*
X52557700Y-77660500D01*
G37*
G36*
X52837100Y-77660500D02*
X55605700Y-77660500D01*
X55605700Y-77635100D01*
X52837100Y-77635100D01*
X52837100Y-77660500D01*
G37*
G36*
X52583100Y-77635100D02*
X52811700Y-77635100D01*
X52811700Y-77609700D01*
X52583100Y-77609700D01*
X52583100Y-77635100D01*
G37*
G36*
X52837100Y-77635100D02*
X55631100Y-77635100D01*
X55631100Y-77609700D01*
X52837100Y-77609700D01*
X52837100Y-77635100D01*
G37*
G36*
X52583100Y-77609700D02*
X52811700Y-77609700D01*
X52811700Y-77584300D01*
X52583100Y-77584300D01*
X52583100Y-77609700D01*
G37*
G36*
X52837100Y-77609700D02*
X55631100Y-77609700D01*
X55631100Y-77584300D01*
X52837100Y-77584300D01*
X52837100Y-77609700D01*
G37*
G36*
X52608500Y-77584300D02*
X52811700Y-77584300D01*
X52811700Y-77558900D01*
X52608500Y-77558900D01*
X52608500Y-77584300D01*
G37*
G36*
X52862500Y-77584300D02*
X55631100Y-77584300D01*
X55631100Y-77558900D01*
X52862500Y-77558900D01*
X52862500Y-77584300D01*
G37*
G36*
X52633900Y-77558900D02*
X52811700Y-77558900D01*
X52811700Y-77533500D01*
X52633900Y-77533500D01*
X52633900Y-77558900D01*
G37*
G36*
X52862500Y-77558900D02*
X55656500Y-77558900D01*
X55656500Y-77533500D01*
X52862500Y-77533500D01*
X52862500Y-77558900D01*
G37*
G36*
X52633900Y-77533500D02*
X52786300Y-77533500D01*
X52786300Y-77508100D01*
X52633900Y-77508100D01*
X52633900Y-77533500D01*
G37*
G36*
X52887900Y-77533500D02*
X55656500Y-77533500D01*
X55656500Y-77508100D01*
X52887900Y-77508100D01*
X52887900Y-77533500D01*
G37*
G36*
X52659300Y-77508100D02*
X52786300Y-77508100D01*
X52786300Y-77482700D01*
X52659300Y-77482700D01*
X52659300Y-77508100D01*
G37*
G36*
X52887900Y-77508100D02*
X55656500Y-77508100D01*
X55656500Y-77482700D01*
X52887900Y-77482700D01*
X52887900Y-77508100D01*
G37*
G36*
X52913300Y-77482700D02*
X55631100Y-77482700D01*
X55631100Y-77457300D01*
X52913300Y-77457300D01*
X52913300Y-77482700D01*
G37*
G36*
X52913300Y-77457300D02*
X55758100Y-77457300D01*
X55758100Y-77431900D01*
X52913300Y-77431900D01*
X52913300Y-77457300D01*
G37*
G36*
X52938700Y-77431900D02*
X55859700Y-77431900D01*
X55859700Y-77406500D01*
X52938700Y-77406500D01*
X52938700Y-77431900D01*
G37*
G36*
X52938700Y-77406500D02*
X53192700Y-77406500D01*
X53192700Y-77381100D01*
X52938700Y-77381100D01*
X52938700Y-77406500D01*
G37*
G36*
X53218100Y-77406500D02*
X55910500Y-77406500D01*
X55910500Y-77381100D01*
X53218100Y-77381100D01*
X53218100Y-77406500D01*
G37*
G36*
X52964100Y-77381100D02*
X53192700Y-77381100D01*
X53192700Y-77355700D01*
X52964100Y-77355700D01*
X52964100Y-77381100D01*
G37*
G36*
X53243500Y-77381100D02*
X55961300Y-77381100D01*
X55961300Y-77355700D01*
X53243500Y-77355700D01*
X53243500Y-77381100D01*
G37*
G36*
X52989500Y-77355700D02*
X53167300Y-77355700D01*
X53167300Y-77330300D01*
X52989500Y-77330300D01*
X52989500Y-77355700D01*
G37*
G36*
X53243500Y-77355700D02*
X55986700Y-77355700D01*
X55986700Y-77330300D01*
X53243500Y-77330300D01*
X53243500Y-77355700D01*
G37*
G36*
X53014900Y-77330300D02*
X53167300Y-77330300D01*
X53167300Y-77304900D01*
X53014900Y-77304900D01*
X53014900Y-77330300D01*
G37*
G36*
X53268900Y-77330300D02*
X56012100Y-77330300D01*
X56012100Y-77304900D01*
X53268900Y-77304900D01*
X53268900Y-77330300D01*
G37*
G36*
X53014900Y-77304900D02*
X53167300Y-77304900D01*
X53167300Y-77279500D01*
X53014900Y-77279500D01*
X53014900Y-77304900D01*
G37*
G36*
X53294300Y-77304900D02*
X56037500Y-77304900D01*
X56037500Y-77279500D01*
X53294300Y-77279500D01*
X53294300Y-77304900D01*
G37*
G36*
X53040300Y-77279500D02*
X53141900Y-77279500D01*
X53141900Y-77254100D01*
X53040300Y-77254100D01*
X53040300Y-77279500D01*
G37*
G36*
X53319700Y-77279500D02*
X56012100Y-77279500D01*
X56012100Y-77254100D01*
X53319700Y-77254100D01*
X53319700Y-77279500D01*
G37*
G36*
X53345100Y-77254100D02*
X56012100Y-77254100D01*
X56012100Y-77228700D01*
X53345100Y-77228700D01*
X53345100Y-77254100D01*
G37*
G36*
X53370500Y-77228700D02*
X56012100Y-77228700D01*
X56012100Y-77203300D01*
X53370500Y-77203300D01*
X53370500Y-77228700D01*
G37*
G36*
X53395900Y-77203300D02*
X55961300Y-77203300D01*
X55961300Y-77177900D01*
X53395900Y-77177900D01*
X53395900Y-77203300D01*
G37*
G36*
X53421300Y-77177900D02*
X55910500Y-77177900D01*
X55910500Y-77152500D01*
X53421300Y-77152500D01*
X53421300Y-77177900D01*
G37*
G36*
X53446700Y-77152500D02*
X55783500Y-77152500D01*
X55783500Y-77127100D01*
X53446700Y-77127100D01*
X53446700Y-77152500D01*
G37*
G36*
X53472100Y-77127100D02*
X55326300Y-77127100D01*
X55326300Y-77101700D01*
X53472100Y-77101700D01*
X53472100Y-77127100D01*
G37*
G36*
X53497500Y-77101700D02*
X55351700Y-77101700D01*
X55351700Y-77076300D01*
X53497500Y-77076300D01*
X53497500Y-77101700D01*
G37*
G36*
X53548300Y-77076300D02*
X55402500Y-77076300D01*
X55402500Y-77050900D01*
X53548300Y-77050900D01*
X53548300Y-77076300D01*
G37*
G36*
X53599100Y-77050900D02*
X55427900Y-77050900D01*
X55427900Y-77025500D01*
X53599100Y-77025500D01*
X53599100Y-77050900D01*
G37*
G36*
X53624500Y-77025500D02*
X55478700Y-77025500D01*
X55478700Y-77000100D01*
X53624500Y-77000100D01*
X53624500Y-77025500D01*
G37*
G36*
X53649900Y-77000100D02*
X55529500Y-77000100D01*
X55529500Y-76974700D01*
X53649900Y-76974700D01*
X53649900Y-77000100D01*
G37*
G36*
X53675300Y-76974700D02*
X55554900Y-76974700D01*
X55554900Y-76949300D01*
X53675300Y-76949300D01*
X53675300Y-76974700D01*
G37*
G36*
X53700700Y-76949300D02*
X55605700Y-76949300D01*
X55605700Y-76923900D01*
X53700700Y-76923900D01*
X53700700Y-76949300D01*
G37*
G36*
X53700700Y-76923900D02*
X55631100Y-76923900D01*
X55631100Y-76898500D01*
X53700700Y-76898500D01*
X53700700Y-76923900D01*
G37*
G36*
X53726100Y-76898500D02*
X55656500Y-76898500D01*
X55656500Y-76873100D01*
X53726100Y-76873100D01*
X53726100Y-76898500D01*
G37*
G36*
X53751500Y-76873100D02*
X55707300Y-76873100D01*
X55707300Y-76847700D01*
X53751500Y-76847700D01*
X53751500Y-76873100D01*
G37*
G36*
X53751500Y-76847700D02*
X55732700Y-76847700D01*
X55732700Y-76822300D01*
X53751500Y-76822300D01*
X53751500Y-76847700D01*
G37*
G36*
X53776900Y-76822300D02*
X55758100Y-76822300D01*
X55758100Y-76796900D01*
X53776900Y-76796900D01*
X53776900Y-76822300D01*
G37*
G36*
X53802300Y-76796900D02*
X55808900Y-76796900D01*
X55808900Y-76771500D01*
X53802300Y-76771500D01*
X53802300Y-76796900D01*
G37*
G36*
X53827700Y-76771500D02*
X55834300Y-76771500D01*
X55834300Y-76746100D01*
X53827700Y-76746100D01*
X53827700Y-76771500D01*
G37*
G36*
X53827700Y-76746100D02*
X55859700Y-76746100D01*
X55859700Y-76720700D01*
X53827700Y-76720700D01*
X53827700Y-76746100D01*
G37*
G36*
X53853100Y-76720700D02*
X55885100Y-76720700D01*
X55885100Y-76695300D01*
X53853100Y-76695300D01*
X53853100Y-76720700D01*
G37*
G36*
X53878500Y-76695300D02*
X55935900Y-76695300D01*
X55935900Y-76669900D01*
X53878500Y-76669900D01*
X53878500Y-76695300D01*
G37*
G36*
X53878500Y-76669900D02*
X55250100Y-76669900D01*
X55250100Y-76644500D01*
X53878500Y-76644500D01*
X53878500Y-76669900D01*
G37*
G36*
X55300900Y-76669900D02*
X55935900Y-76669900D01*
X55935900Y-76644500D01*
X55300900Y-76644500D01*
X55300900Y-76669900D01*
G37*
G36*
X53903900Y-76644500D02*
X55275500Y-76644500D01*
X55275500Y-76619100D01*
X53903900Y-76619100D01*
X53903900Y-76644500D01*
G37*
G36*
X55351700Y-76644500D02*
X55961300Y-76644500D01*
X55961300Y-76619100D01*
X55351700Y-76619100D01*
X55351700Y-76644500D01*
G37*
G36*
X53903900Y-76619100D02*
X55300900Y-76619100D01*
X55300900Y-76593700D01*
X53903900Y-76593700D01*
X53903900Y-76619100D01*
G37*
G36*
X55402500Y-76619100D02*
X55986700Y-76619100D01*
X55986700Y-76593700D01*
X55402500Y-76593700D01*
X55402500Y-76619100D01*
G37*
G36*
X53929300Y-76593700D02*
X55326300Y-76593700D01*
X55326300Y-76568300D01*
X53929300Y-76568300D01*
X53929300Y-76593700D01*
G37*
G36*
X55453300Y-76593700D02*
X56012100Y-76593700D01*
X56012100Y-76568300D01*
X55453300Y-76568300D01*
X55453300Y-76593700D01*
G37*
G36*
X53929300Y-76568300D02*
X55351700Y-76568300D01*
X55351700Y-76542900D01*
X53929300Y-76542900D01*
X53929300Y-76568300D01*
G37*
G36*
X55504100Y-76568300D02*
X56012100Y-76568300D01*
X56012100Y-76542900D01*
X55504100Y-76542900D01*
X55504100Y-76568300D01*
G37*
G36*
X53954700Y-76542900D02*
X55351700Y-76542900D01*
X55351700Y-76517500D01*
X53954700Y-76517500D01*
X53954700Y-76542900D01*
G37*
G36*
X55554900Y-76542900D02*
X56012100Y-76542900D01*
X56012100Y-76517500D01*
X55554900Y-76517500D01*
X55554900Y-76542900D01*
G37*
G36*
X53954700Y-76517500D02*
X55377100Y-76517500D01*
X55377100Y-76492100D01*
X53954700Y-76492100D01*
X53954700Y-76517500D01*
G37*
G36*
X55631100Y-76517500D02*
X56037500Y-76517500D01*
X56037500Y-76492100D01*
X55631100Y-76492100D01*
X55631100Y-76517500D01*
G37*
G36*
X53980100Y-76492100D02*
X55402500Y-76492100D01*
X55402500Y-76466700D01*
X53980100Y-76466700D01*
X53980100Y-76492100D01*
G37*
G36*
X55681900Y-76492100D02*
X56037500Y-76492100D01*
X56037500Y-76466700D01*
X55681900Y-76466700D01*
X55681900Y-76492100D01*
G37*
G36*
X53980100Y-76466700D02*
X55427900Y-76466700D01*
X55427900Y-76441300D01*
X53980100Y-76441300D01*
X53980100Y-76466700D01*
G37*
G36*
X55732700Y-76466700D02*
X56037500Y-76466700D01*
X56037500Y-76441300D01*
X55732700Y-76441300D01*
X55732700Y-76466700D01*
G37*
G36*
X54005500Y-76441300D02*
X55453300Y-76441300D01*
X55453300Y-76415900D01*
X54005500Y-76415900D01*
X54005500Y-76441300D01*
G37*
G36*
X55808900Y-76441300D02*
X56062900Y-76441300D01*
X56062900Y-76415900D01*
X55808900Y-76415900D01*
X55808900Y-76441300D01*
G37*
G36*
X54030900Y-76415900D02*
X55478700Y-76415900D01*
X55478700Y-76390500D01*
X54030900Y-76390500D01*
X54030900Y-76415900D01*
G37*
G36*
X55859700Y-76415900D02*
X56062900Y-76415900D01*
X56062900Y-76390500D01*
X55859700Y-76390500D01*
X55859700Y-76415900D01*
G37*
G36*
X54030900Y-76390500D02*
X55504100Y-76390500D01*
X55504100Y-76365100D01*
X54030900Y-76365100D01*
X54030900Y-76390500D01*
G37*
G36*
X55935900Y-76390500D02*
X56062900Y-76390500D01*
X56062900Y-76365100D01*
X55935900Y-76365100D01*
X55935900Y-76390500D01*
G37*
G36*
X54030900Y-76365100D02*
X55504100Y-76365100D01*
X55504100Y-76339700D01*
X54030900Y-76339700D01*
X54030900Y-76365100D01*
G37*
G36*
X55986700Y-76365100D02*
X56062900Y-76365100D01*
X56062900Y-76339700D01*
X55986700Y-76339700D01*
X55986700Y-76365100D01*
G37*
G36*
X54056300Y-76339700D02*
X55529500Y-76339700D01*
X55529500Y-76314300D01*
X54056300Y-76314300D01*
X54056300Y-76339700D01*
G37*
G36*
X54056300Y-76314300D02*
X55554900Y-76314300D01*
X55554900Y-76288900D01*
X54056300Y-76288900D01*
X54056300Y-76314300D01*
G37*
G36*
X54081700Y-76288900D02*
X55580300Y-76288900D01*
X55580300Y-76263500D01*
X54081700Y-76263500D01*
X54081700Y-76288900D01*
G37*
G36*
X54081700Y-76263500D02*
X55605700Y-76263500D01*
X55605700Y-76238100D01*
X54081700Y-76238100D01*
X54081700Y-76263500D01*
G37*
G36*
X54107100Y-76238100D02*
X54488100Y-76238100D01*
X54488100Y-76212700D01*
X54107100Y-76212700D01*
X54107100Y-76238100D01*
G37*
G36*
X54513500Y-76238100D02*
X55631100Y-76238100D01*
X55631100Y-76212700D01*
X54513500Y-76212700D01*
X54513500Y-76238100D01*
G37*
G36*
X54107100Y-76212700D02*
X54488100Y-76212700D01*
X54488100Y-76187300D01*
X54107100Y-76187300D01*
X54107100Y-76212700D01*
G37*
G36*
X54564300Y-76212700D02*
X55656500Y-76212700D01*
X55656500Y-76187300D01*
X54564300Y-76187300D01*
X54564300Y-76212700D01*
G37*
G36*
X54132500Y-76187300D02*
X54513500Y-76187300D01*
X54513500Y-76161900D01*
X54132500Y-76161900D01*
X54132500Y-76187300D01*
G37*
G36*
X54589700Y-76187300D02*
X55656500Y-76187300D01*
X55656500Y-76161900D01*
X54589700Y-76161900D01*
X54589700Y-76187300D01*
G37*
G36*
X54132500Y-76161900D02*
X54513500Y-76161900D01*
X54513500Y-76136500D01*
X54132500Y-76136500D01*
X54132500Y-76161900D01*
G37*
G36*
X54615100Y-76161900D02*
X55681900Y-76161900D01*
X55681900Y-76136500D01*
X54615100Y-76136500D01*
X54615100Y-76161900D01*
G37*
G36*
X54132500Y-76136500D02*
X54513500Y-76136500D01*
X54513500Y-76111100D01*
X54132500Y-76111100D01*
X54132500Y-76136500D01*
G37*
G36*
X54640500Y-76136500D02*
X55707300Y-76136500D01*
X55707300Y-76111100D01*
X54640500Y-76111100D01*
X54640500Y-76136500D01*
G37*
G36*
X54157900Y-76111100D02*
X54513500Y-76111100D01*
X54513500Y-76085700D01*
X54157900Y-76085700D01*
X54157900Y-76111100D01*
G37*
G36*
X54665900Y-76111100D02*
X55173900Y-76111100D01*
X55173900Y-76085700D01*
X54665900Y-76085700D01*
X54665900Y-76111100D01*
G37*
G36*
X55199300Y-76111100D02*
X55732700Y-76111100D01*
X55732700Y-76085700D01*
X55199300Y-76085700D01*
X55199300Y-76111100D01*
G37*
G36*
X54157900Y-76085700D02*
X54538900Y-76085700D01*
X54538900Y-76060300D01*
X54157900Y-76060300D01*
X54157900Y-76085700D01*
G37*
G36*
X54716700Y-76085700D02*
X55199300Y-76085700D01*
X55199300Y-76060300D01*
X54716700Y-76060300D01*
X54716700Y-76085700D01*
G37*
G36*
X55224700Y-76085700D02*
X55758100Y-76085700D01*
X55758100Y-76060300D01*
X55224700Y-76060300D01*
X55224700Y-76085700D01*
G37*
G36*
X54183300Y-76060300D02*
X54538900Y-76060300D01*
X54538900Y-76034900D01*
X54183300Y-76034900D01*
X54183300Y-76060300D01*
G37*
G36*
X54742100Y-76060300D02*
X55224700Y-76060300D01*
X55224700Y-76034900D01*
X54742100Y-76034900D01*
X54742100Y-76060300D01*
G37*
G36*
X55275500Y-76060300D02*
X55783500Y-76060300D01*
X55783500Y-76034900D01*
X55275500Y-76034900D01*
X55275500Y-76060300D01*
G37*
G36*
X54183300Y-76034900D02*
X54538900Y-76034900D01*
X54538900Y-76009500D01*
X54183300Y-76009500D01*
X54183300Y-76034900D01*
G37*
G36*
X54767500Y-76034900D02*
X55250100Y-76034900D01*
X55250100Y-76009500D01*
X54767500Y-76009500D01*
X54767500Y-76034900D01*
G37*
G36*
X55300900Y-76034900D02*
X55808900Y-76034900D01*
X55808900Y-76009500D01*
X55300900Y-76009500D01*
X55300900Y-76034900D01*
G37*
G36*
X54208700Y-76009500D02*
X54564300Y-76009500D01*
X54564300Y-75984100D01*
X54208700Y-75984100D01*
X54208700Y-76009500D01*
G37*
G36*
X54792900Y-76009500D02*
X55275500Y-76009500D01*
X55275500Y-75984100D01*
X54792900Y-75984100D01*
X54792900Y-76009500D01*
G37*
G36*
X55377100Y-76009500D02*
X55834300Y-76009500D01*
X55834300Y-75984100D01*
X55377100Y-75984100D01*
X55377100Y-76009500D01*
G37*
G36*
X54208700Y-75984100D02*
X54564300Y-75984100D01*
X54564300Y-75958700D01*
X54208700Y-75958700D01*
X54208700Y-75984100D01*
G37*
G36*
X54818300Y-75984100D02*
X55300900Y-75984100D01*
X55300900Y-75958700D01*
X54818300Y-75958700D01*
X54818300Y-75984100D01*
G37*
G36*
X55427900Y-75984100D02*
X55834300Y-75984100D01*
X55834300Y-75958700D01*
X55427900Y-75958700D01*
X55427900Y-75984100D01*
G37*
G36*
X54234100Y-75958700D02*
X54589700Y-75958700D01*
X54589700Y-75933300D01*
X54234100Y-75933300D01*
X54234100Y-75958700D01*
G37*
G36*
X54869100Y-75958700D02*
X55326300Y-75958700D01*
X55326300Y-75933300D01*
X54869100Y-75933300D01*
X54869100Y-75958700D01*
G37*
G36*
X55478700Y-75958700D02*
X55834300Y-75958700D01*
X55834300Y-75933300D01*
X55478700Y-75933300D01*
X55478700Y-75958700D01*
G37*
G36*
X54234100Y-75933300D02*
X54589700Y-75933300D01*
X54589700Y-75907900D01*
X54234100Y-75907900D01*
X54234100Y-75933300D01*
G37*
G36*
X54894500Y-75933300D02*
X55351700Y-75933300D01*
X55351700Y-75907900D01*
X54894500Y-75907900D01*
X54894500Y-75933300D01*
G37*
G36*
X55504100Y-75933300D02*
X55859700Y-75933300D01*
X55859700Y-75907900D01*
X55504100Y-75907900D01*
X55504100Y-75933300D01*
G37*
G36*
X54259500Y-75907900D02*
X54589700Y-75907900D01*
X54589700Y-75882500D01*
X54259500Y-75882500D01*
X54259500Y-75907900D01*
G37*
G36*
X54919900Y-75907900D02*
X55377100Y-75907900D01*
X55377100Y-75882500D01*
X54919900Y-75882500D01*
X54919900Y-75907900D01*
G37*
G36*
X55554900Y-75907900D02*
X55859700Y-75907900D01*
X55859700Y-75882500D01*
X55554900Y-75882500D01*
X55554900Y-75907900D01*
G37*
G36*
X54259500Y-75882500D02*
X54615100Y-75882500D01*
X54615100Y-75857100D01*
X54259500Y-75857100D01*
X54259500Y-75882500D01*
G37*
G36*
X54945300Y-75882500D02*
X55402500Y-75882500D01*
X55402500Y-75857100D01*
X54945300Y-75857100D01*
X54945300Y-75882500D01*
G37*
G36*
X55605700Y-75882500D02*
X55834300Y-75882500D01*
X55834300Y-75857100D01*
X55605700Y-75857100D01*
X55605700Y-75882500D01*
G37*
G36*
X54284900Y-75857100D02*
X54615100Y-75857100D01*
X54615100Y-75831700D01*
X54284900Y-75831700D01*
X54284900Y-75857100D01*
G37*
G36*
X54996100Y-75857100D02*
X55427900Y-75857100D01*
X55427900Y-75831700D01*
X54996100Y-75831700D01*
X54996100Y-75857100D01*
G37*
G36*
X55656500Y-75857100D02*
X55834300Y-75857100D01*
X55834300Y-75831700D01*
X55656500Y-75831700D01*
X55656500Y-75857100D01*
G37*
G36*
X54284900Y-75831700D02*
X54615100Y-75831700D01*
X54615100Y-75806300D01*
X54284900Y-75806300D01*
X54284900Y-75831700D01*
G37*
G36*
X55021500Y-75831700D02*
X55453300Y-75831700D01*
X55453300Y-75806300D01*
X55021500Y-75806300D01*
X55021500Y-75831700D01*
G37*
G36*
X54310300Y-75806300D02*
X54615100Y-75806300D01*
X54615100Y-75780900D01*
X54310300Y-75780900D01*
X54310300Y-75806300D01*
G37*
G36*
X55046900Y-75806300D02*
X55478700Y-75806300D01*
X55478700Y-75780900D01*
X55046900Y-75780900D01*
X55046900Y-75806300D01*
G37*
G36*
X54310300Y-75780900D02*
X54640500Y-75780900D01*
X54640500Y-75755500D01*
X54310300Y-75755500D01*
X54310300Y-75780900D01*
G37*
G36*
X55072300Y-75780900D02*
X55478700Y-75780900D01*
X55478700Y-75755500D01*
X55072300Y-75755500D01*
X55072300Y-75780900D01*
G37*
G36*
X54335700Y-75755500D02*
X54640500Y-75755500D01*
X54640500Y-75730100D01*
X54335700Y-75730100D01*
X54335700Y-75755500D01*
G37*
G36*
X55123100Y-75755500D02*
X55504100Y-75755500D01*
X55504100Y-75730100D01*
X55123100Y-75730100D01*
X55123100Y-75755500D01*
G37*
G36*
X54335700Y-75730100D02*
X54640500Y-75730100D01*
X54640500Y-75704700D01*
X54335700Y-75704700D01*
X54335700Y-75730100D01*
G37*
G36*
X55148500Y-75730100D02*
X55529500Y-75730100D01*
X55529500Y-75704700D01*
X55148500Y-75704700D01*
X55148500Y-75730100D01*
G37*
G36*
X54361100Y-75704700D02*
X54640500Y-75704700D01*
X54640500Y-75679300D01*
X54361100Y-75679300D01*
X54361100Y-75704700D01*
G37*
G36*
X55173900Y-75704700D02*
X55554900Y-75704700D01*
X55554900Y-75679300D01*
X55173900Y-75679300D01*
X55173900Y-75704700D01*
G37*
G36*
X54386500Y-75679300D02*
X54665900Y-75679300D01*
X54665900Y-75653900D01*
X54386500Y-75653900D01*
X54386500Y-75679300D01*
G37*
G36*
X55224700Y-75679300D02*
X55554900Y-75679300D01*
X55554900Y-75653900D01*
X55224700Y-75653900D01*
X55224700Y-75679300D01*
G37*
G36*
X54386500Y-75653900D02*
X54665900Y-75653900D01*
X54665900Y-75628500D01*
X54386500Y-75628500D01*
X54386500Y-75653900D01*
G37*
G36*
X55250100Y-75653900D02*
X55580300Y-75653900D01*
X55580300Y-75628500D01*
X55250100Y-75628500D01*
X55250100Y-75653900D01*
G37*
G36*
X54411900Y-75628500D02*
X54665900Y-75628500D01*
X54665900Y-75603100D01*
X54411900Y-75603100D01*
X54411900Y-75628500D01*
G37*
G36*
X55275500Y-75628500D02*
X55605700Y-75628500D01*
X55605700Y-75603100D01*
X55275500Y-75603100D01*
X55275500Y-75628500D01*
G37*
G36*
X54411900Y-75603100D02*
X54665900Y-75603100D01*
X54665900Y-75577700D01*
X54411900Y-75577700D01*
X54411900Y-75603100D01*
G37*
G36*
X55300900Y-75603100D02*
X55605700Y-75603100D01*
X55605700Y-75577700D01*
X55300900Y-75577700D01*
X55300900Y-75603100D01*
G37*
G36*
X54437300Y-75577700D02*
X54665900Y-75577700D01*
X54665900Y-75552300D01*
X54437300Y-75552300D01*
X54437300Y-75577700D01*
G37*
G36*
X55351700Y-75577700D02*
X55605700Y-75577700D01*
X55605700Y-75552300D01*
X55351700Y-75552300D01*
X55351700Y-75577700D01*
G37*
G36*
X54462700Y-75552300D02*
X54665900Y-75552300D01*
X54665900Y-75526900D01*
X54462700Y-75526900D01*
X54462700Y-75552300D01*
G37*
G36*
X55377100Y-75552300D02*
X55580300Y-75552300D01*
X55580300Y-75526900D01*
X55377100Y-75526900D01*
X55377100Y-75552300D01*
G37*
G36*
X54488100Y-75526900D02*
X54665900Y-75526900D01*
X54665900Y-75501500D01*
X54488100Y-75501500D01*
X54488100Y-75526900D01*
G37*
G36*
X55453300Y-75526900D02*
X55554900Y-75526900D01*
X55554900Y-75501500D01*
X55453300Y-75501500D01*
X55453300Y-75526900D01*
G37*
G36*
X54488100Y-75501500D02*
X54640500Y-75501500D01*
X54640500Y-75476100D01*
X54488100Y-75476100D01*
X54488100Y-75501500D01*
G37*
G36*
X54513500Y-75476100D02*
X54615100Y-75476100D01*
X54615100Y-75450700D01*
X54513500Y-75450700D01*
X54513500Y-75476100D01*
G37*
D13*
X139470000Y-124960000D02*
X139470000Y-109720000D01*
X139470000Y-109720000D02*
X142010000Y-109720000D01*
X142010000Y-109720000D02*
X142010000Y-124960000D01*
X139190000Y-127780000D02*
X139190000Y-126230000D01*
X139470000Y-124960000D02*
X142010000Y-124960000D01*
X142290000Y-126230000D02*
X142290000Y-127780000D01*
X142290000Y-127780000D02*
X139190000Y-127780000D01*
D10*
X115703000Y-84180000D02*
G75*
G03X115703000Y-84180000I-1093000J0D01*
G01*
X125863000Y-91800000D02*
G75*
G03X125863000Y-91800000I-1093000J0D01*
G01*
X133483000Y-91800000D02*
G75*
G03X133483000Y-91800000I-1093000J0D01*
G01*
X130943000Y-84180000D02*
G75*
G03X130943000Y-84180000I-1093000J0D01*
G01*
X115703000Y-91800000D02*
G75*
G03X115703000Y-91800000I-1093000J0D01*
G01*
X115703000Y-95550000D02*
G75*
G03X115703000Y-95550000I-1093000J0D01*
G01*
X125863000Y-103170000D02*
G75*
G03X125863000Y-103170000I-1093000J0D01*
G01*
X133483000Y-103170000D02*
G75*
G03X133483000Y-103170000I-1093000J0D01*
G01*
X130943000Y-95550000D02*
G75*
G03X130943000Y-95550000I-1093000J0D01*
G01*
X115703000Y-103170000D02*
G75*
G03X115703000Y-103170000I-1093000J0D01*
G01*
X107886400Y-130847600D02*
X107886400Y-131152400D01*
X109513600Y-130847600D02*
X109513600Y-131152400D01*
X107886400Y-131152400D02*
G75*
G03X109513600Y-131152400I813600J0D01*
G01*
X109513600Y-130847600D02*
G75*
G03X107886400Y-130847600I-813600J0D01*
G01*
X105346400Y-130847600D02*
X105346400Y-131152400D01*
X106973600Y-130847600D02*
X106973600Y-131152400D01*
X105346400Y-131152400D02*
G75*
G03X106973600Y-131152400I813600J0D01*
G01*
X106973600Y-130847600D02*
G75*
G03X105346400Y-130847600I-813600J0D01*
G01*
X102806400Y-130847600D02*
X102806400Y-131152400D01*
X104433600Y-130847600D02*
X104433600Y-131152400D01*
X102806400Y-131152400D02*
G75*
G03X104433600Y-131152400I813600J0D01*
G01*
X104433600Y-130847600D02*
G75*
G03X102806400Y-130847600I-813600J0D01*
G01*
X100266400Y-130847600D02*
X100266400Y-131152400D01*
X101893600Y-130847600D02*
X101893600Y-131152400D01*
X100266400Y-131152400D02*
G75*
G03X101893600Y-131152400I813600J0D01*
G01*
X101893600Y-130847600D02*
G75*
G03X100266400Y-130847600I-813600J0D01*
G01*
X97726400Y-130847600D02*
X97726400Y-131152400D01*
X99353600Y-130847600D02*
X99353600Y-131152400D01*
X97726400Y-131152400D02*
G75*
G03X99353600Y-131152400I813600J0D01*
G01*
X99353600Y-130847600D02*
G75*
G03X97726400Y-130847600I-813600J0D01*
G01*
X95186400Y-130847600D02*
X95186400Y-131152400D01*
X96813600Y-130847600D02*
X96813600Y-131152400D01*
X95186400Y-131152400D02*
G75*
G03X96813600Y-131152400I813600J0D01*
G01*
X96813600Y-130847600D02*
G75*
G03X95186400Y-130847600I-813600J0D01*
G01*
X131886400Y-130847600D02*
X131886400Y-131152400D01*
X133513600Y-130847600D02*
X133513600Y-131152400D01*
X131886400Y-131152400D02*
G75*
G03X133513600Y-131152400I813600J0D01*
G01*
X133513600Y-130847600D02*
G75*
G03X131886400Y-130847600I-813600J0D01*
G01*
X129346400Y-130847600D02*
X129346400Y-131152400D01*
X130973600Y-130847600D02*
X130973600Y-131152400D01*
X129346400Y-131152400D02*
G75*
G03X130973600Y-131152400I813600J0D01*
G01*
X130973600Y-130847600D02*
G75*
G03X129346400Y-130847600I-813600J0D01*
G01*
X126806400Y-130847600D02*
X126806400Y-131152400D01*
X128433600Y-130847600D02*
X128433600Y-131152400D01*
X126806400Y-131152400D02*
G75*
G03X128433600Y-131152400I813600J0D01*
G01*
X128433600Y-130847600D02*
G75*
G03X126806400Y-130847600I-813600J0D01*
G01*
X124266400Y-130847600D02*
X124266400Y-131152400D01*
X125893600Y-130847600D02*
X125893600Y-131152400D01*
X124266400Y-131152400D02*
G75*
G03X125893600Y-131152400I813600J0D01*
G01*
X125893600Y-130847600D02*
G75*
G03X124266400Y-130847600I-813600J0D01*
G01*
X121726400Y-130847600D02*
X121726400Y-131152400D01*
X123353600Y-130847600D02*
X123353600Y-131152400D01*
X121726400Y-131152400D02*
G75*
G03X123353600Y-131152400I813600J0D01*
G01*
X123353600Y-130847600D02*
G75*
G03X121726400Y-130847600I-813600J0D01*
G01*
X119186400Y-130847600D02*
X119186400Y-131152400D01*
X120813600Y-130847600D02*
X120813600Y-131152400D01*
X119186400Y-131152400D02*
G75*
G03X120813600Y-131152400I813600J0D01*
G01*
X120813600Y-130847600D02*
G75*
G03X119186400Y-130847600I-813600J0D01*
G01*
X139970000Y-99120000D02*
G75*
G03X139970000Y-99120000I-1150000J0D01*
G01*
X139970000Y-95620000D02*
G75*
G03X139970000Y-95620000I-1150000J0D01*
G01*
X139970000Y-87130000D02*
G75*
G03X139970000Y-87130000I-1150000J0D01*
G01*
X139970000Y-83630000D02*
G75*
G03X139970000Y-83630000I-1150000J0D01*
G01*
X47180000Y-131820000D02*
G75*
G03X47180000Y-131820000I-600000J0D01*
G01*
X111776950Y-81650000D02*
G75*
G03X111776950Y-81650000I-949490J0D01*
G01*
X111776950Y-95560000D02*
G75*
G03X111776950Y-95560000I-949490J0D01*
G01*
X97200000Y-143500000D02*
G75*
G03X97200000Y-143500000I-1200000J0D01*
G01*
X112440000Y-143500000D02*
G75*
G03X112440000Y-143500000I-1200000J0D01*
G01*
X122440000Y-145600000D02*
G75*
G03X122440000Y-145600000I-1200000J0D01*
G01*
X135200000Y-145600000D02*
G75*
G03X135200000Y-145600000I-1200000J0D01*
G01*
X82320000Y-136980000D02*
G75*
G03X82320000Y-136980000I-712000J0D01*
G01*
X79780000Y-136980000D02*
G75*
G03X79780000Y-136980000I-712000J0D01*
G01*
X84860000Y-136980000D02*
G75*
G03X84860000Y-136980000I-712000J0D01*
G01*
X78510000Y-134440000D02*
G75*
G03X78510000Y-134440000I-712000J0D01*
G01*
X81050000Y-134440000D02*
G75*
G03X81050000Y-134440000I-712000J0D01*
G01*
X83590000Y-134440000D02*
G75*
G03X83590000Y-134440000I-712000J0D01*
G01*
X88130000Y-143330000D02*
G75*
G03X88130000Y-143330000I-1950000J0D01*
G01*
X77970000Y-143330000D02*
G75*
G03X77970000Y-143330000I-1950000J0D01*
G01*
X65590000Y-136980000D02*
G75*
G03X65590000Y-136980000I-712000J0D01*
G01*
X63050000Y-136980000D02*
G75*
G03X63050000Y-136980000I-712000J0D01*
G01*
X68130000Y-136980000D02*
G75*
G03X68130000Y-136980000I-712000J0D01*
G01*
X61780000Y-134440000D02*
G75*
G03X61780000Y-134440000I-712000J0D01*
G01*
X64320000Y-134440000D02*
G75*
G03X64320000Y-134440000I-712000J0D01*
G01*
X66860000Y-134440000D02*
G75*
G03X66860000Y-134440000I-712000J0D01*
G01*
X71400000Y-143330000D02*
G75*
G03X71400000Y-143330000I-1950000J0D01*
G01*
X61240000Y-143330000D02*
G75*
G03X61240000Y-143330000I-1950000J0D01*
G01*
X140892400Y-122876400D02*
X140587600Y-122876400D01*
X140892400Y-124503600D02*
X140587600Y-124503600D01*
X140587600Y-122876400D02*
G75*
G03X140587600Y-124503600I0J-813600D01*
G01*
X140892400Y-124503600D02*
G75*
G03X140892400Y-122876400I0J813600D01*
G01*
X140892400Y-120336400D02*
X140587600Y-120336400D01*
X140892400Y-121963600D02*
X140587600Y-121963600D01*
X140587600Y-120336400D02*
G75*
G03X140587600Y-121963600I0J-813600D01*
G01*
X140892400Y-121963600D02*
G75*
G03X140892400Y-120336400I0J813600D01*
G01*
X140892400Y-117796400D02*
X140587600Y-117796400D01*
X140892400Y-119423600D02*
X140587600Y-119423600D01*
X140587600Y-117796400D02*
G75*
G03X140587600Y-119423600I0J-813600D01*
G01*
X140892400Y-119423600D02*
G75*
G03X140892400Y-117796400I0J813600D01*
G01*
X140892400Y-115256400D02*
X140587600Y-115256400D01*
X140892400Y-116883600D02*
X140587600Y-116883600D01*
X140587600Y-115256400D02*
G75*
G03X140587600Y-116883600I0J-813600D01*
G01*
X140892400Y-116883600D02*
G75*
G03X140892400Y-115256400I0J813600D01*
G01*
X140892400Y-112716400D02*
X140587600Y-112716400D01*
X140892400Y-114343600D02*
X140587600Y-114343600D01*
X140587600Y-112716400D02*
G75*
G03X140587600Y-114343600I0J-813600D01*
G01*
X140892400Y-114343600D02*
G75*
G03X140892400Y-112716400I0J813600D01*
G01*
X140892400Y-110176400D02*
X140587600Y-110176400D01*
X140892400Y-111803600D02*
X140587600Y-111803600D01*
X140587600Y-110176400D02*
G75*
G03X140587600Y-111803600I0J-813600D01*
G01*
X140892400Y-111803600D02*
G75*
G03X140892400Y-110176400I0J813600D01*
G01*
D16*
X131701905Y-82522381D02*
X131701905Y-81522381D01*
X132273334Y-82522381D02*
X131844762Y-81950952D01*
X132273334Y-81522381D02*
X131701905Y-82093810D01*
X132654286Y-81617619D02*
X132701905Y-81570000D01*
X132797143Y-81522381D01*
X133035239Y-81522381D01*
X133130477Y-81570000D01*
X133178096Y-81617619D01*
X133225715Y-81712857D01*
X133225715Y-81808095D01*
X133178096Y-81950952D01*
X132606667Y-82522381D01*
X133225715Y-82522381D01*
X62643334Y-128302381D02*
X62310000Y-127826190D01*
X62071905Y-128302381D02*
X62071905Y-127302381D01*
X62452858Y-127302381D01*
X62548096Y-127350000D01*
X62595715Y-127397619D01*
X62643334Y-127492857D01*
X62643334Y-127635714D01*
X62595715Y-127730952D01*
X62548096Y-127778571D01*
X62452858Y-127826190D01*
X62071905Y-127826190D01*
X63024286Y-127397619D02*
X63071905Y-127350000D01*
X63167143Y-127302381D01*
X63405239Y-127302381D01*
X63500477Y-127350000D01*
X63548096Y-127397619D01*
X63595715Y-127492857D01*
X63595715Y-127588095D01*
X63548096Y-127730952D01*
X62976667Y-128302381D01*
X63595715Y-128302381D01*
X67603334Y-128302381D02*
X67270000Y-127826190D01*
X67031905Y-128302381D02*
X67031905Y-127302381D01*
X67412858Y-127302381D01*
X67508096Y-127350000D01*
X67555715Y-127397619D01*
X67603334Y-127492857D01*
X67603334Y-127635714D01*
X67555715Y-127730952D01*
X67508096Y-127778571D01*
X67412858Y-127826190D01*
X67031905Y-127826190D01*
X67936667Y-127302381D02*
X68555715Y-127302381D01*
X68222381Y-127683333D01*
X68365239Y-127683333D01*
X68460477Y-127730952D01*
X68508096Y-127778571D01*
X68555715Y-127873810D01*
X68555715Y-128111905D01*
X68508096Y-128207143D01*
X68460477Y-128254762D01*
X68365239Y-128302381D01*
X68079524Y-128302381D01*
X67984286Y-128254762D01*
X67936667Y-128207143D01*
X87222381Y-80956666D02*
X86746190Y-81290000D01*
X87222381Y-81528095D02*
X86222381Y-81528095D01*
X86222381Y-81147142D01*
X86270000Y-81051904D01*
X86317619Y-81004285D01*
X86412857Y-80956666D01*
X86555714Y-80956666D01*
X86650952Y-81004285D01*
X86698571Y-81051904D01*
X86746190Y-81147142D01*
X86746190Y-81528095D01*
X86555714Y-80099523D02*
X87222381Y-80099523D01*
X86174762Y-80337619D02*
X86889048Y-80575714D01*
X86889048Y-79956666D01*
X87373481Y-96212790D02*
X86373481Y-96212790D01*
X87278243Y-95165171D02*
X87325862Y-95212790D01*
X87373481Y-95355647D01*
X87373481Y-95450885D01*
X87325862Y-95593743D01*
X87230624Y-95688981D01*
X87135386Y-95736600D01*
X86944910Y-95784219D01*
X86802052Y-95784219D01*
X86611576Y-95736600D01*
X86516338Y-95688981D01*
X86421100Y-95593743D01*
X86373481Y-95450885D01*
X86373481Y-95355647D01*
X86421100Y-95212790D01*
X86468719Y-95165171D01*
X87373481Y-94212790D02*
X87373481Y-94784219D01*
X87373481Y-94498505D02*
X86373481Y-94498505D01*
X86516338Y-94593743D01*
X86611576Y-94688981D01*
X86659195Y-94784219D01*
X80743334Y-128082381D02*
X80410000Y-127606190D01*
X80171905Y-128082381D02*
X80171905Y-127082381D01*
X80552858Y-127082381D01*
X80648096Y-127130000D01*
X80695715Y-127177619D01*
X80743334Y-127272857D01*
X80743334Y-127415714D01*
X80695715Y-127510952D01*
X80648096Y-127558571D01*
X80552858Y-127606190D01*
X80171905Y-127606190D01*
X81695715Y-128082381D02*
X81124286Y-128082381D01*
X81410000Y-128082381D02*
X81410000Y-127082381D01*
X81314762Y-127225238D01*
X81219524Y-127320476D01*
X81124286Y-127368095D01*
X132091905Y-105842381D02*
X132091905Y-104842381D01*
X132663334Y-105842381D02*
X132234762Y-105270952D01*
X132663334Y-104842381D02*
X132091905Y-105413810D01*
X133615715Y-105842381D02*
X133044286Y-105842381D01*
X133330000Y-105842381D02*
X133330000Y-104842381D01*
X133234762Y-104985238D01*
X133139524Y-105080476D01*
X133044286Y-105128095D01*
X110551905Y-134102381D02*
X110551905Y-133102381D01*
X110932858Y-133102381D01*
X111028096Y-133150000D01*
X111075715Y-133197619D01*
X111123334Y-133292857D01*
X111123334Y-133435714D01*
X111075715Y-133530952D01*
X111028096Y-133578571D01*
X110932858Y-133626190D01*
X110551905Y-133626190D01*
X112075715Y-134102381D02*
X111504286Y-134102381D01*
X111790000Y-134102381D02*
X111790000Y-133102381D01*
X111694762Y-133245238D01*
X111599524Y-133340476D01*
X111504286Y-133388095D01*
X134481905Y-134072381D02*
X134481905Y-133072381D01*
X134862858Y-133072381D01*
X134958096Y-133120000D01*
X135005715Y-133167619D01*
X135053334Y-133262857D01*
X135053334Y-133405714D01*
X135005715Y-133500952D01*
X134958096Y-133548571D01*
X134862858Y-133596190D01*
X134481905Y-133596190D01*
X135434286Y-133167619D02*
X135481905Y-133120000D01*
X135577143Y-133072381D01*
X135815239Y-133072381D01*
X135910477Y-133120000D01*
X135958096Y-133167619D01*
X136005715Y-133262857D01*
X136005715Y-133358095D01*
X135958096Y-133500952D01*
X135386667Y-134072381D01*
X136005715Y-134072381D01*
X141261905Y-106062381D02*
X141261905Y-105062381D01*
X141642858Y-105062381D01*
X141738096Y-105110000D01*
X141785715Y-105157619D01*
X141833334Y-105252857D01*
X141833334Y-105395714D01*
X141785715Y-105490952D01*
X141738096Y-105538571D01*
X141642858Y-105586190D01*
X141261905Y-105586190D01*
X142166667Y-105062381D02*
X142785715Y-105062381D01*
X142452381Y-105443333D01*
X142595239Y-105443333D01*
X142690477Y-105490952D01*
X142738096Y-105538571D01*
X142785715Y-105633810D01*
X142785715Y-105871905D01*
X142738096Y-105967143D01*
X142690477Y-106014762D01*
X142595239Y-106062381D01*
X142309524Y-106062381D01*
X142214286Y-106014762D01*
X142166667Y-105967143D01*
X140951905Y-81152381D02*
X140951905Y-80152381D01*
X141332858Y-80152381D01*
X141428096Y-80200000D01*
X141475715Y-80247619D01*
X141523334Y-80342857D01*
X141523334Y-80485714D01*
X141475715Y-80580952D01*
X141428096Y-80628571D01*
X141332858Y-80676190D01*
X140951905Y-80676190D01*
X142380477Y-80485714D02*
X142380477Y-81152381D01*
X142142381Y-80104762D02*
X141904286Y-80819048D01*
X142523334Y-80819048D01*
X45123334Y-126727143D02*
X45075715Y-126774762D01*
X44932858Y-126822381D01*
X44837620Y-126822381D01*
X44694762Y-126774762D01*
X44599524Y-126679524D01*
X44551905Y-126584286D01*
X44504286Y-126393810D01*
X44504286Y-126250952D01*
X44551905Y-126060476D01*
X44599524Y-125965238D01*
X44694762Y-125870000D01*
X44837620Y-125822381D01*
X44932858Y-125822381D01*
X45075715Y-125870000D01*
X45123334Y-125917619D01*
X46075715Y-126822381D02*
X45504286Y-126822381D01*
X45790000Y-126822381D02*
X45790000Y-125822381D01*
X45694762Y-125965238D01*
X45599524Y-126060476D01*
X45504286Y-126108095D01*
X87563334Y-92757143D02*
X87515715Y-92804762D01*
X87372858Y-92852381D01*
X87277620Y-92852381D01*
X87134762Y-92804762D01*
X87039524Y-92709524D01*
X86991905Y-92614286D01*
X86944286Y-92423810D01*
X86944286Y-92280952D01*
X86991905Y-92090476D01*
X87039524Y-91995238D01*
X87134762Y-91900000D01*
X87277620Y-91852381D01*
X87372858Y-91852381D01*
X87515715Y-91900000D01*
X87563334Y-91947619D01*
X87896667Y-91852381D02*
X88515715Y-91852381D01*
X88182381Y-92233333D01*
X88325239Y-92233333D01*
X88420477Y-92280952D01*
X88468096Y-92328571D01*
X88515715Y-92423810D01*
X88515715Y-92661905D01*
X88468096Y-92757143D01*
X88420477Y-92804762D01*
X88325239Y-92852381D01*
X88039524Y-92852381D01*
X87944286Y-92804762D01*
X87896667Y-92757143D01*
X105647143Y-104896666D02*
X105694762Y-104944285D01*
X105742381Y-105087142D01*
X105742381Y-105182380D01*
X105694762Y-105325238D01*
X105599524Y-105420476D01*
X105504286Y-105468095D01*
X105313810Y-105515714D01*
X105170952Y-105515714D01*
X104980476Y-105468095D01*
X104885238Y-105420476D01*
X104790000Y-105325238D01*
X104742381Y-105182380D01*
X104742381Y-105087142D01*
X104790000Y-104944285D01*
X104837619Y-104896666D01*
X105075714Y-104039523D02*
X105742381Y-104039523D01*
X104694762Y-104277619D02*
X105409048Y-104515714D01*
X105409048Y-103896666D01*
X106047143Y-90976666D02*
X106094762Y-91024285D01*
X106142381Y-91167142D01*
X106142381Y-91262380D01*
X106094762Y-91405238D01*
X105999524Y-91500476D01*
X105904286Y-91548095D01*
X105713810Y-91595714D01*
X105570952Y-91595714D01*
X105380476Y-91548095D01*
X105285238Y-91500476D01*
X105190000Y-91405238D01*
X105142381Y-91262380D01*
X105142381Y-91167142D01*
X105190000Y-91024285D01*
X105237619Y-90976666D01*
X105142381Y-90071904D02*
X105142381Y-90548095D01*
X105618571Y-90595714D01*
X105570952Y-90548095D01*
X105523333Y-90452857D01*
X105523333Y-90214761D01*
X105570952Y-90119523D01*
X105618571Y-90071904D01*
X105713810Y-90024285D01*
X105951905Y-90024285D01*
X106047143Y-90071904D01*
X106094762Y-90119523D01*
X106142381Y-90214761D01*
X106142381Y-90452857D01*
X106094762Y-90548095D01*
X106047143Y-90595714D01*
X109112381Y-87418095D02*
X108112381Y-87418095D01*
X108112381Y-87180000D01*
X108160000Y-87037142D01*
X108255238Y-86941904D01*
X108350476Y-86894285D01*
X108540952Y-86846666D01*
X108683810Y-86846666D01*
X108874286Y-86894285D01*
X108969524Y-86941904D01*
X109064762Y-87037142D01*
X109112381Y-87180000D01*
X109112381Y-87418095D01*
X109112381Y-85894285D02*
X109112381Y-86465714D01*
X109112381Y-86180000D02*
X108112381Y-86180000D01*
X108255238Y-86275238D01*
X108350476Y-86370476D01*
X108398095Y-86465714D01*
X109222381Y-100928095D02*
X108222381Y-100928095D01*
X108222381Y-100690000D01*
X108270000Y-100547142D01*
X108365238Y-100451904D01*
X108460476Y-100404285D01*
X108650952Y-100356666D01*
X108793810Y-100356666D01*
X108984286Y-100404285D01*
X109079524Y-100451904D01*
X109174762Y-100547142D01*
X109222381Y-100690000D01*
X109222381Y-100928095D01*
X108317619Y-99975714D02*
X108270000Y-99928095D01*
X108222381Y-99832857D01*
X108222381Y-99594761D01*
X108270000Y-99499523D01*
X108317619Y-99451904D01*
X108412857Y-99404285D01*
X108508095Y-99404285D01*
X108650952Y-99451904D01*
X109222381Y-100023333D01*
X109222381Y-99404285D01*
X52196667Y-148452381D02*
X52196667Y-149166667D01*
X52149047Y-149309524D01*
X52053809Y-149404762D01*
X51910952Y-149452381D01*
X51815714Y-149452381D01*
X52577619Y-148452381D02*
X53196667Y-148452381D01*
X52863333Y-148833333D01*
X53006191Y-148833333D01*
X53101429Y-148880952D01*
X53149048Y-148928571D01*
X53196667Y-149023810D01*
X53196667Y-149261905D01*
X53149048Y-149357143D01*
X53101429Y-149404762D01*
X53006191Y-149452381D01*
X52720476Y-149452381D01*
X52625238Y-149404762D01*
X52577619Y-149357143D01*
X109167619Y-81735238D02*
X109120000Y-81830476D01*
X109024762Y-81925714D01*
X108881905Y-82068571D01*
X108834286Y-82163810D01*
X108834286Y-82259048D01*
X109072381Y-82211429D02*
X109024762Y-82306667D01*
X108929524Y-82401905D01*
X108739048Y-82449524D01*
X108405714Y-82449524D01*
X108215238Y-82401905D01*
X108120000Y-82306667D01*
X108072381Y-82211429D01*
X108072381Y-82020952D01*
X108120000Y-81925714D01*
X108215238Y-81830476D01*
X108405714Y-81782857D01*
X108739048Y-81782857D01*
X108929524Y-81830476D01*
X109024762Y-81925714D01*
X109072381Y-82020952D01*
X109072381Y-82211429D01*
X109072381Y-80830476D02*
X109072381Y-81401905D01*
X109072381Y-81116191D02*
X108072381Y-81116191D01*
X108215238Y-81211429D01*
X108310476Y-81306667D01*
X108358095Y-81401905D01*
X107427619Y-95645238D02*
X107380000Y-95740476D01*
X107284762Y-95835714D01*
X107141905Y-95978571D01*
X107094286Y-96073810D01*
X107094286Y-96169048D01*
X107332381Y-96121429D02*
X107284762Y-96216667D01*
X107189524Y-96311905D01*
X106999048Y-96359524D01*
X106665714Y-96359524D01*
X106475238Y-96311905D01*
X106380000Y-96216667D01*
X106332381Y-96121429D01*
X106332381Y-95930952D01*
X106380000Y-95835714D01*
X106475238Y-95740476D01*
X106665714Y-95692857D01*
X106999048Y-95692857D01*
X107189524Y-95740476D01*
X107284762Y-95835714D01*
X107332381Y-95930952D01*
X107332381Y-96121429D01*
X106427619Y-95311905D02*
X106380000Y-95264286D01*
X106332381Y-95169048D01*
X106332381Y-94930952D01*
X106380000Y-94835714D01*
X106427619Y-94788095D01*
X106522857Y-94740476D01*
X106618095Y-94740476D01*
X106760952Y-94788095D01*
X107332381Y-95359524D01*
X107332381Y-94740476D01*
X82552381Y-80966666D02*
X82076190Y-81300000D01*
X82552381Y-81538095D02*
X81552381Y-81538095D01*
X81552381Y-81157142D01*
X81600000Y-81061904D01*
X81647619Y-81014285D01*
X81742857Y-80966666D01*
X81885714Y-80966666D01*
X81980952Y-81014285D01*
X82028571Y-81061904D01*
X82076190Y-81157142D01*
X82076190Y-81538095D01*
X81552381Y-80061904D02*
X81552381Y-80538095D01*
X82028571Y-80585714D01*
X81980952Y-80538095D01*
X81933333Y-80442857D01*
X81933333Y-80204761D01*
X81980952Y-80109523D01*
X82028571Y-80061904D01*
X82123810Y-80014285D01*
X82361905Y-80014285D01*
X82457143Y-80061904D01*
X82504762Y-80109523D01*
X82552381Y-80204761D01*
X82552381Y-80442857D01*
X82504762Y-80538095D01*
X82457143Y-80585714D01*
X92552381Y-80966666D02*
X92076190Y-81300000D01*
X92552381Y-81538095D02*
X91552381Y-81538095D01*
X91552381Y-81157142D01*
X91600000Y-81061904D01*
X91647619Y-81014285D01*
X91742857Y-80966666D01*
X91885714Y-80966666D01*
X91980952Y-81014285D01*
X92028571Y-81061904D01*
X92076190Y-81157142D01*
X92076190Y-81538095D01*
X91552381Y-80109523D02*
X91552381Y-80300000D01*
X91600000Y-80395238D01*
X91647619Y-80442857D01*
X91790476Y-80538095D01*
X91980952Y-80585714D01*
X92361905Y-80585714D01*
X92457143Y-80538095D01*
X92504762Y-80490476D01*
X92552381Y-80395238D01*
X92552381Y-80204761D01*
X92504762Y-80109523D01*
X92457143Y-80061904D01*
X92361905Y-80014285D01*
X92123810Y-80014285D01*
X92028571Y-80061904D01*
X91980952Y-80109523D01*
X91933333Y-80204761D01*
X91933333Y-80395238D01*
X91980952Y-80490476D01*
X92028571Y-80538095D01*
X92123810Y-80585714D01*
X99283334Y-81162381D02*
X98950000Y-80686190D01*
X98711905Y-81162381D02*
X98711905Y-80162381D01*
X99092858Y-80162381D01*
X99188096Y-80210000D01*
X99235715Y-80257619D01*
X99283334Y-80352857D01*
X99283334Y-80495714D01*
X99235715Y-80590952D01*
X99188096Y-80638571D01*
X99092858Y-80686190D01*
X98711905Y-80686190D01*
X99616667Y-80162381D02*
X100283334Y-80162381D01*
X99854762Y-81162381D01*
X99303334Y-83342381D02*
X98970000Y-82866190D01*
X98731905Y-83342381D02*
X98731905Y-82342381D01*
X99112858Y-82342381D01*
X99208096Y-82390000D01*
X99255715Y-82437619D01*
X99303334Y-82532857D01*
X99303334Y-82675714D01*
X99255715Y-82770952D01*
X99208096Y-82818571D01*
X99112858Y-82866190D01*
X98731905Y-82866190D01*
X99874762Y-82770952D02*
X99779524Y-82723333D01*
X99731905Y-82675714D01*
X99684286Y-82580476D01*
X99684286Y-82532857D01*
X99731905Y-82437619D01*
X99779524Y-82390000D01*
X99874762Y-82342381D01*
X100065239Y-82342381D01*
X100160477Y-82390000D01*
X100208096Y-82437619D01*
X100255715Y-82532857D01*
X100255715Y-82580476D01*
X100208096Y-82675714D01*
X100160477Y-82723333D01*
X100065239Y-82770952D01*
X99874762Y-82770952D01*
X99779524Y-82818571D01*
X99731905Y-82866190D01*
X99684286Y-82961429D01*
X99684286Y-83151905D01*
X99731905Y-83247143D01*
X99779524Y-83294762D01*
X99874762Y-83342381D01*
X100065239Y-83342381D01*
X100160477Y-83294762D01*
X100208096Y-83247143D01*
X100255715Y-83151905D01*
X100255715Y-82961429D01*
X100208096Y-82866190D01*
X100160477Y-82818571D01*
X100065239Y-82770952D01*
X87223334Y-113552381D02*
X86890000Y-113076190D01*
X86651905Y-113552381D02*
X86651905Y-112552381D01*
X87032858Y-112552381D01*
X87128096Y-112600000D01*
X87175715Y-112647619D01*
X87223334Y-112742857D01*
X87223334Y-112885714D01*
X87175715Y-112980952D01*
X87128096Y-113028571D01*
X87032858Y-113076190D01*
X86651905Y-113076190D01*
X87699524Y-113552381D02*
X87890000Y-113552381D01*
X87985239Y-113504762D01*
X88032858Y-113457143D01*
X88128096Y-113314286D01*
X88175715Y-113123810D01*
X88175715Y-112742857D01*
X88128096Y-112647619D01*
X88080477Y-112600000D01*
X87985239Y-112552381D01*
X87794762Y-112552381D01*
X87699524Y-112600000D01*
X87651905Y-112647619D01*
X87604286Y-112742857D01*
X87604286Y-112980952D01*
X87651905Y-113076190D01*
X87699524Y-113123810D01*
X87794762Y-113171429D01*
X87985239Y-113171429D01*
X88080477Y-113123810D01*
X88128096Y-113076190D01*
X88175715Y-112980952D01*
X96127143Y-95052381D02*
X95793809Y-94576190D01*
X95555714Y-95052381D02*
X95555714Y-94052381D01*
X95936667Y-94052381D01*
X96031905Y-94100000D01*
X96079524Y-94147619D01*
X96127143Y-94242857D01*
X96127143Y-94385714D01*
X96079524Y-94480952D01*
X96031905Y-94528571D01*
X95936667Y-94576190D01*
X95555714Y-94576190D01*
X97079524Y-95052381D02*
X96508095Y-95052381D01*
X96793809Y-95052381D02*
X96793809Y-94052381D01*
X96698571Y-94195238D01*
X96603333Y-94290476D01*
X96508095Y-94338095D01*
X97698571Y-94052381D02*
X97793810Y-94052381D01*
X97889048Y-94100000D01*
X97936667Y-94147619D01*
X97984286Y-94242857D01*
X98031905Y-94433333D01*
X98031905Y-94671429D01*
X97984286Y-94861905D01*
X97936667Y-94957143D01*
X97889048Y-95004762D01*
X97793810Y-95052381D01*
X97698571Y-95052381D01*
X97603333Y-95004762D01*
X97555714Y-94957143D01*
X97508095Y-94861905D01*
X97460476Y-94671429D01*
X97460476Y-94433333D01*
X97508095Y-94242857D01*
X97555714Y-94147619D01*
X97603333Y-94100000D01*
X97698571Y-94052381D01*
X96207143Y-97342381D02*
X95873809Y-96866190D01*
X95635714Y-97342381D02*
X95635714Y-96342381D01*
X96016667Y-96342381D01*
X96111905Y-96390000D01*
X96159524Y-96437619D01*
X96207143Y-96532857D01*
X96207143Y-96675714D01*
X96159524Y-96770952D01*
X96111905Y-96818571D01*
X96016667Y-96866190D01*
X95635714Y-96866190D01*
X97159524Y-97342381D02*
X96588095Y-97342381D01*
X96873809Y-97342381D02*
X96873809Y-96342381D01*
X96778571Y-96485238D01*
X96683333Y-96580476D01*
X96588095Y-96628095D01*
X98111905Y-97342381D02*
X97540476Y-97342381D01*
X97826190Y-97342381D02*
X97826190Y-96342381D01*
X97730952Y-96485238D01*
X97635714Y-96580476D01*
X97540476Y-96628095D01*
X88587143Y-107892381D02*
X88253809Y-107416190D01*
X88015714Y-107892381D02*
X88015714Y-106892381D01*
X88396667Y-106892381D01*
X88491905Y-106940000D01*
X88539524Y-106987619D01*
X88587143Y-107082857D01*
X88587143Y-107225714D01*
X88539524Y-107320952D01*
X88491905Y-107368571D01*
X88396667Y-107416190D01*
X88015714Y-107416190D01*
X89539524Y-107892381D02*
X88968095Y-107892381D01*
X89253809Y-107892381D02*
X89253809Y-106892381D01*
X89158571Y-107035238D01*
X89063333Y-107130476D01*
X88968095Y-107178095D01*
X89920476Y-106987619D02*
X89968095Y-106940000D01*
X90063333Y-106892381D01*
X90301429Y-106892381D01*
X90396667Y-106940000D01*
X90444286Y-106987619D01*
X90491905Y-107082857D01*
X90491905Y-107178095D01*
X90444286Y-107320952D01*
X89872857Y-107892381D01*
X90491905Y-107892381D01*
X95261905Y-140452381D02*
X95261905Y-139452381D01*
X95642858Y-139452381D01*
X95738096Y-139500000D01*
X95785715Y-139547619D01*
X95833334Y-139642857D01*
X95833334Y-139785714D01*
X95785715Y-139880952D01*
X95738096Y-139928571D01*
X95642858Y-139976190D01*
X95261905Y-139976190D01*
X96738096Y-139452381D02*
X96261905Y-139452381D01*
X96214286Y-139928571D01*
X96261905Y-139880952D01*
X96357143Y-139833333D01*
X96595239Y-139833333D01*
X96690477Y-139880952D01*
X96738096Y-139928571D01*
X96785715Y-140023810D01*
X96785715Y-140261905D01*
X96738096Y-140357143D01*
X96690477Y-140404762D01*
X96595239Y-140452381D01*
X96357143Y-140452381D01*
X96261905Y-140404762D01*
X96214286Y-140357143D01*
X110501905Y-140452381D02*
X110501905Y-139452381D01*
X110882858Y-139452381D01*
X110978096Y-139500000D01*
X111025715Y-139547619D01*
X111073334Y-139642857D01*
X111073334Y-139785714D01*
X111025715Y-139880952D01*
X110978096Y-139928571D01*
X110882858Y-139976190D01*
X110501905Y-139976190D01*
X111930477Y-139452381D02*
X111740000Y-139452381D01*
X111644762Y-139500000D01*
X111597143Y-139547619D01*
X111501905Y-139690476D01*
X111454286Y-139880952D01*
X111454286Y-140261905D01*
X111501905Y-140357143D01*
X111549524Y-140404762D01*
X111644762Y-140452381D01*
X111835239Y-140452381D01*
X111930477Y-140404762D01*
X111978096Y-140357143D01*
X112025715Y-140261905D01*
X112025715Y-140023810D01*
X111978096Y-139928571D01*
X111930477Y-139880952D01*
X111835239Y-139833333D01*
X111644762Y-139833333D01*
X111549524Y-139880952D01*
X111501905Y-139928571D01*
X111454286Y-140023810D01*
X120501905Y-142552381D02*
X120501905Y-141552381D01*
X120882858Y-141552381D01*
X120978096Y-141600000D01*
X121025715Y-141647619D01*
X121073334Y-141742857D01*
X121073334Y-141885714D01*
X121025715Y-141980952D01*
X120978096Y-142028571D01*
X120882858Y-142076190D01*
X120501905Y-142076190D01*
X121406667Y-141552381D02*
X122073334Y-141552381D01*
X121644762Y-142552381D01*
X133261905Y-142552381D02*
X133261905Y-141552381D01*
X133642858Y-141552381D01*
X133738096Y-141600000D01*
X133785715Y-141647619D01*
X133833334Y-141742857D01*
X133833334Y-141885714D01*
X133785715Y-141980952D01*
X133738096Y-142028571D01*
X133642858Y-142076190D01*
X133261905Y-142076190D01*
X134404762Y-141980952D02*
X134309524Y-141933333D01*
X134261905Y-141885714D01*
X134214286Y-141790476D01*
X134214286Y-141742857D01*
X134261905Y-141647619D01*
X134309524Y-141600000D01*
X134404762Y-141552381D01*
X134595239Y-141552381D01*
X134690477Y-141600000D01*
X134738096Y-141647619D01*
X134785715Y-141742857D01*
X134785715Y-141790476D01*
X134738096Y-141885714D01*
X134690477Y-141933333D01*
X134595239Y-141980952D01*
X134404762Y-141980952D01*
X134309524Y-142028571D01*
X134261905Y-142076190D01*
X134214286Y-142171429D01*
X134214286Y-142361905D01*
X134261905Y-142457143D01*
X134309524Y-142504762D01*
X134404762Y-142552381D01*
X134595239Y-142552381D01*
X134690477Y-142504762D01*
X134738096Y-142457143D01*
X134785715Y-142361905D01*
X134785715Y-142171429D01*
X134738096Y-142076190D01*
X134690477Y-142028571D01*
X134595239Y-141980952D01*
X56353334Y-128687143D02*
X56305715Y-128734762D01*
X56162858Y-128782381D01*
X56067620Y-128782381D01*
X55924762Y-128734762D01*
X55829524Y-128639524D01*
X55781905Y-128544286D01*
X55734286Y-128353810D01*
X55734286Y-128210952D01*
X55781905Y-128020476D01*
X55829524Y-127925238D01*
X55924762Y-127830000D01*
X56067620Y-127782381D01*
X56162858Y-127782381D01*
X56305715Y-127830000D01*
X56353334Y-127877619D01*
X56734286Y-127877619D02*
X56781905Y-127830000D01*
X56877143Y-127782381D01*
X57115239Y-127782381D01*
X57210477Y-127830000D01*
X57258096Y-127877619D01*
X57305715Y-127972857D01*
X57305715Y-128068095D01*
X57258096Y-128210952D01*
X56686667Y-128782381D01*
X57305715Y-128782381D01*
X83352381Y-88769047D02*
X83352381Y-89245238D01*
X82352381Y-89245238D01*
X82828571Y-88435714D02*
X82828571Y-88102380D01*
X83352381Y-87959523D02*
X83352381Y-88435714D01*
X82352381Y-88435714D01*
X82352381Y-87959523D01*
X83352381Y-87530952D02*
X82352381Y-87530952D01*
X82352381Y-87292857D01*
X82400000Y-87149999D01*
X82495238Y-87054761D01*
X82590476Y-87007142D01*
X82780952Y-86959523D01*
X82923810Y-86959523D01*
X83114286Y-87007142D01*
X83209524Y-87054761D01*
X83304762Y-87149999D01*
X83352381Y-87292857D01*
X83352381Y-87530952D01*
X83352381Y-86007142D02*
X83352381Y-86578571D01*
X83352381Y-86292857D02*
X82352381Y-86292857D01*
X82495238Y-86388095D01*
X82590476Y-86483333D01*
X82638095Y-86578571D01*
X78362381Y-88769047D02*
X78362381Y-89245238D01*
X77362381Y-89245238D01*
X77838571Y-88435714D02*
X77838571Y-88102380D01*
X78362381Y-87959523D02*
X78362381Y-88435714D01*
X77362381Y-88435714D01*
X77362381Y-87959523D01*
X78362381Y-87530952D02*
X77362381Y-87530952D01*
X77362381Y-87292857D01*
X77410000Y-87149999D01*
X77505238Y-87054761D01*
X77600476Y-87007142D01*
X77790952Y-86959523D01*
X77933810Y-86959523D01*
X78124286Y-87007142D01*
X78219524Y-87054761D01*
X78314762Y-87149999D01*
X78362381Y-87292857D01*
X78362381Y-87530952D01*
X77457619Y-86578571D02*
X77410000Y-86530952D01*
X77362381Y-86435714D01*
X77362381Y-86197618D01*
X77410000Y-86102380D01*
X77457619Y-86054761D01*
X77552857Y-86007142D01*
X77648095Y-86007142D01*
X77790952Y-86054761D01*
X78362381Y-86626190D01*
X78362381Y-86007142D01*
X88352381Y-88769047D02*
X88352381Y-89245238D01*
X87352381Y-89245238D01*
X87828571Y-88435714D02*
X87828571Y-88102380D01*
X88352381Y-87959523D02*
X88352381Y-88435714D01*
X87352381Y-88435714D01*
X87352381Y-87959523D01*
X88352381Y-87530952D02*
X87352381Y-87530952D01*
X87352381Y-87292857D01*
X87400000Y-87149999D01*
X87495238Y-87054761D01*
X87590476Y-87007142D01*
X87780952Y-86959523D01*
X87923810Y-86959523D01*
X88114286Y-87007142D01*
X88209524Y-87054761D01*
X88304762Y-87149999D01*
X88352381Y-87292857D01*
X88352381Y-87530952D01*
X87352381Y-86626190D02*
X87352381Y-86007142D01*
X87733333Y-86340476D01*
X87733333Y-86197618D01*
X87780952Y-86102380D01*
X87828571Y-86054761D01*
X87923810Y-86007142D01*
X88161905Y-86007142D01*
X88257143Y-86054761D01*
X88304762Y-86102380D01*
X88352381Y-86197618D01*
X88352381Y-86483333D01*
X88304762Y-86578571D01*
X88257143Y-86626190D01*
X93900953Y-99512381D02*
X93424762Y-99512381D01*
X93424762Y-98512381D01*
X94234286Y-98988571D02*
X94567620Y-98988571D01*
X94710477Y-99512381D02*
X94234286Y-99512381D01*
X94234286Y-98512381D01*
X94710477Y-98512381D01*
X95139048Y-99512381D02*
X95139048Y-98512381D01*
X95377143Y-98512381D01*
X95520001Y-98560000D01*
X95615239Y-98655238D01*
X95662858Y-98750476D01*
X95710477Y-98940952D01*
X95710477Y-99083810D01*
X95662858Y-99274286D01*
X95615239Y-99369524D01*
X95520001Y-99464762D01*
X95377143Y-99512381D01*
X95139048Y-99512381D01*
X96567620Y-98845714D02*
X96567620Y-99512381D01*
X96329524Y-98464762D02*
X96091429Y-99179048D01*
X96710477Y-99179048D01*
X96040953Y-85612381D02*
X95564762Y-85612381D01*
X95564762Y-84612381D01*
X96374286Y-85088571D02*
X96707620Y-85088571D01*
X96850477Y-85612381D02*
X96374286Y-85612381D01*
X96374286Y-84612381D01*
X96850477Y-84612381D01*
X97279048Y-85612381D02*
X97279048Y-84612381D01*
X97517143Y-84612381D01*
X97660001Y-84660000D01*
X97755239Y-84755238D01*
X97802858Y-84850476D01*
X97850477Y-85040952D01*
X97850477Y-85183810D01*
X97802858Y-85374286D01*
X97755239Y-85469524D01*
X97660001Y-85564762D01*
X97517143Y-85612381D01*
X97279048Y-85612381D01*
X98755239Y-84612381D02*
X98279048Y-84612381D01*
X98231429Y-85088571D01*
X98279048Y-85040952D01*
X98374286Y-84993333D01*
X98612382Y-84993333D01*
X98707620Y-85040952D01*
X98755239Y-85088571D01*
X98802858Y-85183810D01*
X98802858Y-85421905D01*
X98755239Y-85517143D01*
X98707620Y-85564762D01*
X98612382Y-85612381D01*
X98374286Y-85612381D01*
X98279048Y-85564762D01*
X98231429Y-85517143D01*
X80766667Y-142782381D02*
X80766667Y-143496667D01*
X80719047Y-143639524D01*
X80623809Y-143734762D01*
X80480952Y-143782381D01*
X80385714Y-143782381D01*
X81766667Y-143782381D02*
X81195238Y-143782381D01*
X81480952Y-143782381D02*
X81480952Y-142782381D01*
X81385714Y-142925238D01*
X81290476Y-143020476D01*
X81195238Y-143068095D01*
X64036667Y-142782381D02*
X64036667Y-143496667D01*
X63989047Y-143639524D01*
X63893809Y-143734762D01*
X63750952Y-143782381D01*
X63655714Y-143782381D01*
X64465238Y-142877619D02*
X64512857Y-142830000D01*
X64608095Y-142782381D01*
X64846191Y-142782381D01*
X64941429Y-142830000D01*
X64989048Y-142877619D01*
X65036667Y-142972857D01*
X65036667Y-143068095D01*
X64989048Y-143210952D01*
X64417619Y-143782381D01*
X65036667Y-143782381D01*
D17*
X67109488Y-121045798D02*
X67109488Y-119839298D01*
X67569107Y-119839298D01*
X67684012Y-119896750D01*
X67741464Y-119954202D01*
X67798916Y-120069107D01*
X67798916Y-120241464D01*
X67741464Y-120356369D01*
X67684012Y-120413821D01*
X67569107Y-120471274D01*
X67109488Y-120471274D01*
X68373440Y-121045798D02*
X68603250Y-121045798D01*
X68718155Y-120988345D01*
X68775607Y-120930893D01*
X68890512Y-120758536D01*
X68947964Y-120528726D01*
X68947964Y-120069107D01*
X68890512Y-119954202D01*
X68833059Y-119896750D01*
X68718155Y-119839298D01*
X68488345Y-119839298D01*
X68373440Y-119896750D01*
X68315988Y-119954202D01*
X68258536Y-120069107D01*
X68258536Y-120356369D01*
X68315988Y-120471274D01*
X68373440Y-120528726D01*
X68488345Y-120586179D01*
X68718155Y-120586179D01*
X68833059Y-120528726D01*
X68890512Y-120471274D01*
X68947964Y-120356369D01*
X65959488Y-80295798D02*
X65959488Y-79089298D01*
X66419107Y-79089298D01*
X66534012Y-79146750D01*
X66591464Y-79204202D01*
X66648916Y-79319107D01*
X66648916Y-79491464D01*
X66591464Y-79606369D01*
X66534012Y-79663821D01*
X66419107Y-79721274D01*
X65959488Y-79721274D01*
X67338345Y-79606369D02*
X67223440Y-79548917D01*
X67165988Y-79491464D01*
X67108536Y-79376560D01*
X67108536Y-79319107D01*
X67165988Y-79204202D01*
X67223440Y-79146750D01*
X67338345Y-79089298D01*
X67568155Y-79089298D01*
X67683059Y-79146750D01*
X67740512Y-79204202D01*
X67797964Y-79319107D01*
X67797964Y-79376560D01*
X67740512Y-79491464D01*
X67683059Y-79548917D01*
X67568155Y-79606369D01*
X67338345Y-79606369D01*
X67223440Y-79663821D01*
X67165988Y-79721274D01*
X67108536Y-79836179D01*
X67108536Y-80065988D01*
X67165988Y-80180893D01*
X67223440Y-80238345D01*
X67338345Y-80295798D01*
X67568155Y-80295798D01*
X67683059Y-80238345D01*
X67740512Y-80180893D01*
X67797964Y-80065988D01*
X67797964Y-79836179D01*
X67740512Y-79721274D01*
X67683059Y-79663821D01*
X67568155Y-79606369D01*
X90242833Y-116814298D02*
X90242833Y-117676083D01*
X90185381Y-117848440D01*
X90070476Y-117963345D01*
X89898119Y-118020798D01*
X89783214Y-118020798D01*
X91449333Y-118020798D02*
X90759905Y-118020798D01*
X91104619Y-118020798D02*
X91104619Y-116814298D01*
X90989714Y-116986655D01*
X90874809Y-117101560D01*
X90759905Y-117159012D01*
X65589714Y-126275798D02*
X64900286Y-126275798D01*
X65245000Y-126275798D02*
X65245000Y-125069298D01*
X65130095Y-125241655D01*
X65015190Y-125356560D01*
X64900286Y-125414012D01*
X64900286Y-122644202D02*
X64957738Y-122586750D01*
X65072643Y-122529298D01*
X65359905Y-122529298D01*
X65474809Y-122586750D01*
X65532262Y-122644202D01*
X65589714Y-122759107D01*
X65589714Y-122874012D01*
X65532262Y-123046369D01*
X64842833Y-123735798D01*
X65589714Y-123735798D01*
X64900286Y-74384202D02*
X64957738Y-74326750D01*
X65072643Y-74269298D01*
X65359905Y-74269298D01*
X65474809Y-74326750D01*
X65532262Y-74384202D01*
X65589714Y-74499107D01*
X65589714Y-74614012D01*
X65532262Y-74786369D01*
X64842833Y-75475798D01*
X65589714Y-75475798D01*
X65589714Y-78015798D02*
X64900286Y-78015798D01*
X65245000Y-78015798D02*
X65245000Y-76809298D01*
X65130095Y-76981655D01*
X65015190Y-77096560D01*
X64900286Y-77154012D01*
X42070618Y-98545798D02*
X41381190Y-98545798D01*
X41725904Y-98545798D02*
X41725904Y-97339298D01*
X41610999Y-97511655D01*
X41496094Y-97626560D01*
X41381190Y-97684012D01*
X42817499Y-97339298D02*
X42932404Y-97339298D01*
X43047309Y-97396750D01*
X43104761Y-97454202D01*
X43162214Y-97569107D01*
X43219666Y-97798917D01*
X43219666Y-98086179D01*
X43162214Y-98315988D01*
X43104761Y-98430893D01*
X43047309Y-98488345D01*
X42932404Y-98545798D01*
X42817499Y-98545798D01*
X42702595Y-98488345D01*
X42645142Y-98430893D01*
X42587690Y-98315988D01*
X42530238Y-98086179D01*
X42530238Y-97798917D01*
X42587690Y-97569107D01*
X42645142Y-97454202D01*
X42702595Y-97396750D01*
X42817499Y-97339298D01*
X44598524Y-97281845D02*
X43564381Y-98833060D01*
X45632666Y-98545798D02*
X44943238Y-98545798D01*
X45287952Y-98545798D02*
X45287952Y-97339298D01*
X45173047Y-97511655D01*
X45058142Y-97626560D01*
X44943238Y-97684012D01*
X46379547Y-97339298D02*
X46494452Y-97339298D01*
X46609357Y-97396750D01*
X46666809Y-97454202D01*
X46724262Y-97569107D01*
X46781714Y-97798917D01*
X46781714Y-98086179D01*
X46724262Y-98315988D01*
X46666809Y-98430893D01*
X46609357Y-98488345D01*
X46494452Y-98545798D01*
X46379547Y-98545798D01*
X46264643Y-98488345D01*
X46207190Y-98430893D01*
X46149738Y-98315988D01*
X46092286Y-98086179D01*
X46092286Y-97798917D01*
X46149738Y-97569107D01*
X46207190Y-97454202D01*
X46264643Y-97396750D01*
X46379547Y-97339298D01*
X47528595Y-97339298D02*
X47643500Y-97339298D01*
X47758405Y-97396750D01*
X47815857Y-97454202D01*
X47873310Y-97569107D01*
X47930762Y-97798917D01*
X47930762Y-98086179D01*
X47873310Y-98315988D01*
X47815857Y-98430893D01*
X47758405Y-98488345D01*
X47643500Y-98545798D01*
X47528595Y-98545798D01*
X47413691Y-98488345D01*
X47356238Y-98430893D01*
X47298786Y-98315988D01*
X47241334Y-98086179D01*
X47241334Y-97798917D01*
X47298786Y-97569107D01*
X47356238Y-97454202D01*
X47413691Y-97396750D01*
X47528595Y-97339298D01*
X49367072Y-97913821D02*
X49769239Y-97913821D01*
X49941596Y-98545798D02*
X49367072Y-98545798D01*
X49367072Y-97339298D01*
X49941596Y-97339298D01*
X50286310Y-97741464D02*
X50745929Y-97741464D01*
X50458667Y-97339298D02*
X50458667Y-98373440D01*
X50516119Y-98488345D01*
X50631024Y-98545798D01*
X50745929Y-98545798D01*
X51148096Y-98545798D02*
X51148096Y-97339298D01*
X51665167Y-98545798D02*
X51665167Y-97913821D01*
X51607715Y-97798917D01*
X51492810Y-97741464D01*
X51320453Y-97741464D01*
X51205548Y-97798917D01*
X51148096Y-97856369D01*
X52699310Y-98488345D02*
X52584405Y-98545798D01*
X52354596Y-98545798D01*
X52239691Y-98488345D01*
X52182239Y-98373440D01*
X52182239Y-97913821D01*
X52239691Y-97798917D01*
X52354596Y-97741464D01*
X52584405Y-97741464D01*
X52699310Y-97798917D01*
X52756762Y-97913821D01*
X52756762Y-98028726D01*
X52182239Y-98143631D01*
X53273834Y-98545798D02*
X53273834Y-97741464D01*
X53273834Y-97971274D02*
X53331286Y-97856369D01*
X53388739Y-97798917D01*
X53503643Y-97741464D01*
X53618548Y-97741464D01*
X54020715Y-97741464D02*
X54020715Y-98545798D01*
X54020715Y-97856369D02*
X54078167Y-97798917D01*
X54193072Y-97741464D01*
X54365429Y-97741464D01*
X54480334Y-97798917D01*
X54537786Y-97913821D01*
X54537786Y-98545798D01*
X55571929Y-98488345D02*
X55457024Y-98545798D01*
X55227215Y-98545798D01*
X55112310Y-98488345D01*
X55054858Y-98373440D01*
X55054858Y-97913821D01*
X55112310Y-97798917D01*
X55227215Y-97741464D01*
X55457024Y-97741464D01*
X55571929Y-97798917D01*
X55629381Y-97913821D01*
X55629381Y-98028726D01*
X55054858Y-98143631D01*
X55974096Y-97741464D02*
X56433715Y-97741464D01*
X56146453Y-97339298D02*
X56146453Y-98373440D01*
X56203905Y-98488345D01*
X56318810Y-98545798D01*
X56433715Y-98545798D01*
X54395798Y-118890512D02*
X53189298Y-118890512D01*
X53189298Y-118430893D01*
X53246750Y-118315988D01*
X53304202Y-118258536D01*
X53419107Y-118201084D01*
X53591464Y-118201084D01*
X53706369Y-118258536D01*
X53763821Y-118315988D01*
X53821274Y-118430893D01*
X53821274Y-118890512D01*
X54395798Y-117052036D02*
X54395798Y-117741464D01*
X54395798Y-117396750D02*
X53189298Y-117396750D01*
X53361655Y-117511655D01*
X53476560Y-117626560D01*
X53534012Y-117741464D01*
X55059298Y-118339809D02*
X55059298Y-118914333D01*
X55633821Y-118971785D01*
X55576369Y-118914333D01*
X55518917Y-118799428D01*
X55518917Y-118512166D01*
X55576369Y-118397262D01*
X55633821Y-118339809D01*
X55748726Y-118282357D01*
X56035988Y-118282357D01*
X56150893Y-118339809D01*
X56208345Y-118397262D01*
X56265798Y-118512166D01*
X56265798Y-118799428D01*
X56208345Y-118914333D01*
X56150893Y-118971785D01*
X55059298Y-117937642D02*
X56265798Y-117535476D01*
X55059298Y-117133309D01*
D13*
X140001905Y-131782381D02*
X140001905Y-130782381D01*
X140382858Y-130782381D01*
X140478096Y-130830000D01*
X140525715Y-130877619D01*
X140573334Y-130972857D01*
X140573334Y-131115714D01*
X140525715Y-131210952D01*
X140478096Y-131258571D01*
X140382858Y-131306190D01*
X140001905Y-131306190D01*
X141049524Y-131782381D02*
X141240000Y-131782381D01*
X141335239Y-131734762D01*
X141382858Y-131687143D01*
X141478096Y-131544286D01*
X141525715Y-131353810D01*
X141525715Y-130972857D01*
X141478096Y-130877619D01*
X141430477Y-130830000D01*
X141335239Y-130782381D01*
X141144762Y-130782381D01*
X141049524Y-130830000D01*
X141001905Y-130877619D01*
X140954286Y-130972857D01*
X140954286Y-131210952D01*
X141001905Y-131306190D01*
X141049524Y-131353810D01*
X141144762Y-131401429D01*
X141335239Y-131401429D01*
X141430477Y-131353810D01*
X141478096Y-131306190D01*
X141525715Y-131210952D01*
D18*
G36*
X131102420Y-117853000D02*
X113046423Y-117853000D01*
X112987580Y-104937000D01*
X131043577Y-104937000D01*
X131102420Y-117853000D01*
X131102420Y-117853000D01*
G37*
X131102420Y-117853000D02*
X113046423Y-117853000D01*
X112987580Y-104937000D01*
X131043577Y-104937000D01*
X131102420Y-117853000D01*
%LPC*%
D19*
X114610000Y-84180000D03*
X124770000Y-91800000D03*
X132390000Y-91800000D03*
X129850000Y-84180000D03*
X114610000Y-91800000D03*
D20*
X62800000Y-131050000D03*
X62800000Y-129150000D03*
X67700000Y-131050000D03*
X67700000Y-129150000D03*
X85000000Y-79850000D03*
X85000000Y-81750000D03*
D21*
X85090000Y-94840000D03*
X83820000Y-94840000D03*
X82550000Y-94840000D03*
X81280000Y-94840000D03*
X80010000Y-94840000D03*
X78740000Y-94840000D03*
X77470000Y-94840000D03*
X76200000Y-94840000D03*
X76200000Y-104140000D03*
X77470000Y-104140000D03*
X78740000Y-104140000D03*
X80010000Y-104140000D03*
X81280000Y-104140000D03*
X82550000Y-104140000D03*
X83820000Y-104140000D03*
X85090000Y-104140000D03*
D20*
X81000000Y-130850000D03*
X81000000Y-128950000D03*
D19*
X114610000Y-95550000D03*
X124770000Y-103170000D03*
X132390000Y-103170000D03*
X129850000Y-95550000D03*
X114610000Y-103170000D03*
D22*
X111240000Y-131000000D03*
D23*
X108700000Y-131000000D03*
X106160000Y-131000000D03*
X103620000Y-131000000D03*
X101080000Y-131000000D03*
X98540000Y-131000000D03*
X96000000Y-131000000D03*
D22*
X135240000Y-131000000D03*
D23*
X132700000Y-131000000D03*
X130160000Y-131000000D03*
X127620000Y-131000000D03*
X125080000Y-131000000D03*
X122540000Y-131000000D03*
X120000000Y-131000000D03*
D24*
X138820000Y-99120000D03*
X138820000Y-95620000D03*
D25*
X138820000Y-102620000D03*
D24*
X138820000Y-87130000D03*
X138820000Y-83630000D03*
D25*
X138820000Y-90630000D03*
D26*
X51580000Y-131820000D03*
D27*
X46580000Y-131820000D03*
D28*
X83830000Y-92430000D03*
X85830000Y-92430000D03*
D29*
X107390000Y-105730000D03*
X107390000Y-103730000D03*
X107790000Y-91810000D03*
X107790000Y-89810000D03*
D30*
X110827460Y-81650000D03*
D31*
X110827460Y-91810000D03*
D30*
X110827460Y-95560000D03*
D31*
X110827460Y-105720000D03*
D32*
X49557580Y-146190000D03*
X46060000Y-146190000D03*
D33*
X105369240Y-80690000D03*
X105369240Y-82590000D03*
X107368220Y-81640000D03*
X103629240Y-94600000D03*
X103629240Y-96500000D03*
X105628220Y-95550000D03*
D20*
X80000000Y-79850000D03*
X80000000Y-81750000D03*
X90000000Y-79850000D03*
X90000000Y-81750000D03*
D34*
X101280000Y-80690000D03*
X103180000Y-80690000D03*
X101280000Y-82910000D03*
X103180000Y-82910000D03*
X83810000Y-113110000D03*
X85710000Y-113110000D03*
X99110000Y-94590000D03*
X101010000Y-94590000D03*
X99110000Y-96810000D03*
X101010000Y-96810000D03*
X85130000Y-107490000D03*
X87030000Y-107490000D03*
D35*
X96000000Y-143500000D03*
X111240000Y-143500000D03*
X121240000Y-145600000D03*
X134000000Y-145600000D03*
D29*
X56440000Y-131820000D03*
X56440000Y-129820000D03*
D36*
X85000000Y-88900000D03*
X85000000Y-86400000D03*
X80010000Y-88900000D03*
X80010000Y-86400000D03*
X90000000Y-88900000D03*
X90000000Y-86400000D03*
D37*
X98460000Y-99140000D03*
X100960000Y-99140000D03*
X100680000Y-85160000D03*
X103180000Y-85160000D03*
D38*
X81608000Y-136980000D03*
X79068000Y-136980000D03*
X84148000Y-136980000D03*
X77798000Y-134440000D03*
X80338000Y-134440000D03*
X82878000Y-134440000D03*
D39*
X86180000Y-143330000D03*
X76020000Y-143330000D03*
D38*
X64878000Y-136980000D03*
X62338000Y-136980000D03*
X67418000Y-136980000D03*
X61068000Y-134440000D03*
X63608000Y-134440000D03*
X66148000Y-134440000D03*
D39*
X69450000Y-143330000D03*
X59290000Y-143330000D03*
D38*
X67785000Y-76835000D03*
X67785000Y-74295000D03*
X70325000Y-76835000D03*
X70325000Y-74295000D03*
X72865000Y-76835000D03*
X72865000Y-74295000D03*
X75405000Y-76835000D03*
X75405000Y-74295000D03*
X77945000Y-76835000D03*
X77945000Y-74295000D03*
X80485000Y-76835000D03*
X80485000Y-74295000D03*
X83025000Y-76835000D03*
X83025000Y-74295000D03*
X85565000Y-76835000D03*
X85565000Y-74295000D03*
X88105000Y-76835000D03*
X88105000Y-74295000D03*
X90645000Y-76835000D03*
X90645000Y-74295000D03*
X93185000Y-76835000D03*
X93185000Y-74295000D03*
X95725000Y-76835000D03*
X95725000Y-74295000D03*
X98265000Y-76835000D03*
X98265000Y-74295000D03*
X100805000Y-76835000D03*
X100805000Y-74295000D03*
X103345000Y-76835000D03*
X103345000Y-74295000D03*
X105885000Y-76835000D03*
X105885000Y-74295000D03*
X108425000Y-76835000D03*
X108425000Y-74295000D03*
X110965000Y-76835000D03*
X110965000Y-74295000D03*
X113505000Y-76835000D03*
X113505000Y-74295000D03*
X116045000Y-76835000D03*
X116045000Y-74295000D03*
X118585000Y-76835000D03*
X118585000Y-74295000D03*
X121125000Y-76835000D03*
X121125000Y-74295000D03*
X123665000Y-76835000D03*
X123665000Y-74295000D03*
X67785000Y-125095000D03*
X67785000Y-122555000D03*
X70325000Y-125095000D03*
X70325000Y-122555000D03*
X72865000Y-125095000D03*
X72865000Y-122555000D03*
X75405000Y-125095000D03*
X75405000Y-122555000D03*
X77945000Y-125095000D03*
X77945000Y-122555000D03*
X80485000Y-125095000D03*
X80485000Y-122555000D03*
X83025000Y-125095000D03*
X83025000Y-122555000D03*
X85565000Y-125095000D03*
X85565000Y-122555000D03*
X88105000Y-125095000D03*
X88105000Y-122555000D03*
X90645000Y-125095000D03*
X90645000Y-122555000D03*
X93185000Y-125095000D03*
X93185000Y-122555000D03*
X95725000Y-125095000D03*
X95725000Y-122555000D03*
X98265000Y-125095000D03*
X98265000Y-122555000D03*
X100805000Y-125095000D03*
X100805000Y-122555000D03*
X103345000Y-125095000D03*
X103345000Y-122555000D03*
X105885000Y-125095000D03*
X105885000Y-122555000D03*
X108425000Y-125095000D03*
X108425000Y-122555000D03*
X110965000Y-125095000D03*
X110965000Y-122555000D03*
X113505000Y-125095000D03*
X113505000Y-122555000D03*
X116045000Y-125095000D03*
X116045000Y-122555000D03*
X118585000Y-125095000D03*
X118585000Y-122555000D03*
X121125000Y-125095000D03*
X121125000Y-122555000D03*
X123665000Y-125095000D03*
X123665000Y-122555000D03*
X90645000Y-119380000D03*
X93185000Y-119380000D03*
X95725000Y-119380000D03*
X98265000Y-119380000D03*
X100805000Y-119380000D03*
X103345000Y-119380000D03*
D40*
X62705000Y-123825000D03*
X128745000Y-120650000D03*
X128745000Y-78740000D03*
X62705000Y-75565000D03*
D41*
X140740000Y-126230000D03*
D42*
X140740000Y-123690000D03*
X140740000Y-121150000D03*
X140740000Y-118610000D03*
X140740000Y-116070000D03*
X140740000Y-113530000D03*
X140740000Y-110990000D03*
M02*
